<?xml version="1.0" encoding="UTF-8"?>
<svg id="Layer_1" data-name="Layer 1" xmlns="http://www.w3.org/2000/svg" viewBox="0 0 330.69 330.69">
  <defs>
    <style>
      .cls-1 {
        fill: #c43ab9;
      }
    </style>
  </defs>
  <path class="cls-1" d="M0,0V330.69H330.69V0H0ZM28.39,165.34C28.39,89.83,89.89,28.39,165.5,28.39c26.41,0,52.07,7.57,74.21,21.88,7.23,4.68,13.93,9.95,20.08,15.78v-19.84c0-8.43,6.85-15.29,15.28-15.29s15.28,6.86,15.28,15.29V127.78h-81.58c-8.42,0-15.28-6.86-15.28-15.28s6.86-15.28,15.28-15.28h38.37c-6.89-8.25-15.03-15.48-24.04-21.29-17.21-11.11-37.15-16.97-57.68-16.97-58.71,0-106.47,47.73-106.47,106.39,0,8.43-6.86,15.29-15.28,15.29s-15.28-6.86-15.28-15.29Zm136.95,136.96c-26.65,0-52.48-7.65-74.7-22.13-6.99-4.55-13.52-9.71-19.52-15.42l.18,18.78c.08,4.04-1.46,7.94-4.35,10.88-2.88,2.94-6.74,4.56-10.85,4.56-8.51,0-15.36-6.82-15.36-15.21l-.79-81.65H121.76c8.42,0,15.28,6.86,15.28,15.28s-6.86,15.28-15.28,15.28h-38.66c6.98,8.51,15.23,15.94,24.35,21.85,17.22,11.25,37.25,17.19,57.98,17.19,58.66,0,106.39-47.72,106.39-106.39,0-8.42,6.86-15.28,15.28-15.28,4.05,0,8.01,1.67,10.86,4.59,2.86,2.92,4.39,6.73,4.34,10.76-.04,75.49-61.46,136.89-136.95,136.89Z"/>
</svg>