<?xml version="1.0" encoding="UTF-8"?>
<svg id="_02" data-name="02" xmlns="http://www.w3.org/2000/svg" viewBox="0 0 283.46 283.46">
  <defs>
    <style>
      .cls-1 {
        fill: #79286e;
      }
    </style>
  </defs>
  <path class="cls-1" d="M142.72,149.36c-4.47-.66-9.04-.99-13.69-.99s-9.15,.33-13.57,.98c2.23,3.83,6.35,10.89,7.62,12.96,.47,.76,.71,1.84,.63,2.72-.79,7.15-1.72,14.27-2.48,21.41-.23,2.17-.55,4.54,.06,6.54,1.51,4.95,3.48,9.79,5.45,14.61,.39,.98,1.54,1.67,2.34,2.49,.79-.84,1.88-1.57,2.29-2.58,1.95-4.82,3.74-9.7,5.52-14.58,.32-.9,.48-1.94,.38-2.88-.92-8.11-1.95-16.22-2.78-24.35-.15-1.33,.32-2.88,.99-4.06,1.08-1.91,5.08-8.62,7.25-12.26Z"/>
  <path class="cls-1" d="M169.91,251.2c-4.93-8.23-7.53-17.57-7.55-27.27-.06-2.6,.1-4.98,.5-7.27,.17-1.29,.35-2.58,.65-3.97,3.56-17.23,15.23-31.21,30.48-38.27-8.98-8.58-19.65-15.41-31.48-19.91-8.37,23.02-16.76,46.06-25.14,69.07-1.08,2.96-2.13,5.9-3.28,8.83-.9,2.29-2.61,3.57-5.14,3.54-2.43-.03-4.02-1.3-4.98-3.45-.32-.74-.61-1.53-.89-2.3-9.19-25.22-18.39-50.45-27.58-75.67-12.51,4.75-23.72,12.1-33.02,21.39-17.02,17.02-27.55,40.54-27.55,66.53v22.91c0,1.91,1.54,3.44,3.44,3.44h114.16c.41-.53,.86-1.05,1.35-1.54,5.27-5.36,10.64-10.74,16.01-16.05Z"/>
  <path class="cls-1" d="M129.02,139.27h.01c34.31-.04,62.25-27.98,62.29-62.31-.04-34.31-27.98-62.25-62.31-62.29-34.31,.04-62.25,27.98-62.29,62.31,.04,34.31,27.98,62.25,62.29,62.29Z"/>
  <path class="cls-1" d="M230.18,179.62c-3.21-.66-6.4-.98-9.55-.98-6.02,0-11.87,1.17-17.28,3.31-14.24,5.65-25.46,18.12-28.78,34.23-.26,1.21-.42,2.36-.58,3.57-.37,2.05-.47,4.04-.42,6.09,0,9.76,3.1,19.26,8.81,27.12,.63,.89,.68,1.36-.16,2.15-5.27,5.19-10.5,10.42-15.71,15.68-1.16,1.18-2.34,2.35-3.5,3.53-2.26,2.26-2.78,4.83-1.63,7.4,1.04,2.36,3.34,3.75,5.74,3.75,.85,0,1.72-.18,2.55-.55,.68-.31,1.31-.73,1.84-1.26,2.36-2.26,4.62-4.62,6.93-6.93,1.98-1.98,3.97-3.96,5.96-5.94,2.29-2.28,4.57-4.56,6.84-6.86,.37-.37,.65-.54,.94-.54,.28,0,.56,.16,.95,.44,4.42,3.19,9.22,5.49,14.17,6.95,4.35,1.29,8.83,1.93,13.28,1.93,14.57,0,28.93-6.76,38.13-19.48,3.57-4.93,6.14-10.55,7.56-16.53,6.3-25.66-10.18-51.73-36.1-57.08Zm-3.07,79.81c-2.03,.39-4.12,.61-6.27,.62h-.21s-.06,0-.1,0c-18.95,0-34.27-15.35-34.32-34.26-.04-15.89,10.71-29.23,25.31-33.21,2.86-.78,5.86-1.2,8.95-1.21,.03,0,.06,0,.1,0h0c18.9,0,34.27,15.3,34.32,34.26,.09,16.75-11.87,30.77-27.78,33.8Z"/>
</svg>