<?xml version="1.0" encoding="UTF-8"?>
<svg id="_02" data-name="02" xmlns="http://www.w3.org/2000/svg" viewBox="0 0 286.18 283.48">
  <defs>
    <style>
      .cls-1 {
        fill: #7f00b2;
      }
    </style>
  </defs>
  <g id="b8dwY0">
    <path class="cls-1" d="M150.04,262.21h-14.61c-1.15-.17-2.29-.46-3.44-.5-6.36-.2-9.32-2.78-9.02-9.29,.02-.47-.02-.94-.05-1.41-.86-13.94-12.35-24.74-26.3-24.64-7.65,.06-14.19,2.82-19.67,8.2-3.15,3.09-6.6,3.39-9.71,.9-7.01-5.63-13.28-12.01-18.84-19.07-2.15-2.74-1.94-6.16,.38-8.84,.72-.83,1.49-1.62,2.23-2.43,9.99-10.94,8.54-29.02-3.03-38.24-4.77-3.8-10.14-5.8-16.24-6.03-6.02-.22-8.61-2.87-8.96-8.88-.07-1.18-.28-2.35-.25-3.52,.16-6.82,.18-13.66,.63-20.46,.28-4.27,2.51-6.03,6.73-6.41,2.34-.21,4.7-.41,7-.86,12.67-2.49,21.36-13.02,21.39-25.9,.02-7.63-2.98-13.98-8.32-19.35-3.08-3.1-3.38-6.61-.9-9.71,5.67-7.08,12.1-13.41,19.23-19,2.74-2.15,6.22-1.96,8.84,.32,.89,.77,1.7,1.64,2.62,2.38,7.34,5.89,15.68,7.96,24.75,5.58,11.16-2.93,18.85-12.72,19.2-24.29,.22-7.37,3.4-9.46,9.44-9.47,6.82,0,13.65-.04,20.47,.03,6.21,.06,9.71,2.12,9.39,9.63-.02,.39,.02,.79,.04,1.18,.91,13.85,12.36,24.61,26.16,24.53,7.74-.04,14.34-2.83,19.88-8.27,3.1-3.04,6.59-3.28,9.72-.75,6.93,5.6,13.16,11.9,18.68,18.9,2.24,2.83,2.03,6.27-.39,9.03-.67,.77-1.38,1.5-2.07,2.26-12.35,13.47-7.11,35.92,10,42.31,2.96,1.11,6.22,1.6,9.39,1.96,4.6,.52,8.8,2.2,8.77,8.89,0,1.15,.31,2.31,.48,3.46v14.62c-.29,2.17-.55,4.34-.87,6.5-.51,3.43-3.14,5.74-6.58,5.87-1.57,.06-3.13,.13-4.69,.27-14.33,1.29-25.15,14.39-23.79,28.74,.64,6.78,3.57,12.39,8.34,17.19,3.24,3.26,3.46,6.94,.3,10.22-5.93,6.15-12.08,12.07-18.21,18.01-2.28,2.21-5.09,2.5-7.83,1.07-1.49-.77-2.7-2.12-3.98-3.27-10.09-9-26.39-8.72-36.03,.65-5.45,5.3-8,11.8-8.24,19.38-.17,5.38-2.48,7.53-7.85,7.98-1.39,.12-2.78,.35-4.16,.53Zm30.22-62.09c-.59-.63-1.05-1.16-1.54-1.65-9.16-9.17-18.35-18.32-27.46-27.55-1.24-1.26-2.19-1.42-3.84-.82-9.24,3.37-18.59,3.46-27.94,.4-20.15-6.6-33.05-28.06-28.01-50,.52-2.27,1.18-4.27,3.65-4.99,2.4-.7,4.01,.63,5.57,2.19,5.89,5.89,11.84,11.72,17.69,17.65,1.51,1.54,3.1,2.23,5.25,1.87,4.02-.68,8.05-1.3,12.09-1.86,1.59-.22,2.3-1.04,2.52-2.58,.58-4.04,1.2-8.07,1.86-12.09,.35-2.12-.28-3.7-1.85-5.24-6.12-5.99-12.14-12.09-18.13-18.2-3.11-3.17-2.13-7.54,1.99-8.38,3.75-.77,7.61-1.49,11.41-1.41,29.67,.63,49.44,29.47,39.39,57.33-.55,1.51-.29,2.36,.8,3.44,9.16,9.07,18.25,18.2,27.36,27.31,.48,.48,1.01,.92,1.53,1.4,15.74-24.82,13.92-64.04-14.66-88.45-26.36-22.52-67.07-22.62-93.66,3.38-25.37,24.81-28.25,65.3-5.18,93.6,22.94,28.13,62.52,33.1,91.15,14.65Z"/>
  </g>
</svg>