<?xml version="1.0" encoding="UTF-8"?>
<svg id="_02" data-name="02" xmlns="http://www.w3.org/2000/svg" viewBox="0 0 283.46 283.46">
  <defs>
    <style>
      .cls-1 {
        fill: #85287e;
      }
    </style>
  </defs>
  <path class="cls-1" d="M265.84,192.59c-21.21,.15-64.84,.07-86.05,.07h-2.97v-3.18c0-45.39,0-79.56,0-124.95,0-.88,.07-1.78-.04-2.65-.4-3.23-2.09-5.53-5.18-6.63-5.27-1.88-10.19,1.99-10.19,8.02-.01,28.76,0,46.3,0,75.06,0,.93,0,1.86,0,2.98-2.73,0-5.14-.15-7.52,.04-2.27,.19-3.31-.57-4.09-2.8-7.5-21.59-15.12-31.92-22.75-53.46-4.57-12.92-14.66-20.03-28.37-20.06-10.28-.02-20.56,0-30.85,0-6.42,0-9.22,2.82-9.22,9.28,0,16.47,0,21.72,0,38.19v3.02c-1.21,0-2.08,0-2.95,0-6.67,0-13.34-.06-20,.01-15.54,.17-28.26,12.22-28.45,27.26-.2,15.9-.11,31.81-.02,47.72,.05,8.1,5.66,15.08,13.53,16.96,2.39,.57,4.91,.59,7.47,.87,.1,.29,.23,.67,.35,1.04,3.62,11.79,13.16,19.23,24.72,19.3,11.64,.06,21.18-7.17,24.9-18.99,.43-1.38,1.12-1.64,2.4-1.63,5.78,.05,11.57,.09,17.35-.02,1.78-.03,2.41,.55,2.9,2.26,3.16,10.84,13.21,18.33,24.41,18.39,11.31,.06,21.29-7.15,24.61-18.07,.65-2.14,1.61-2.59,3.68-2.58,30.2,.07,82.84-.02,113.04,.11,4.76,.02,8.06-1.5,9.83-5.97v-3.86c-2.08-4.56-5.74-5.76-10.54-5.73Zm-212.47,20.67c-5.66-.02-10.19-4.63-10.17-10.33,.02-5.68,4.64-10.29,10.27-10.25,5.67,.04,10.2,4.65,10.18,10.35-.02,5.68-4.61,10.25-10.28,10.23Zm34.28-71.95c-6.61-.02-11.56-3.63-13.16-9.54-.31-1.15-.44-2.37-.44-3.56-.03-19.04-.02-26.86-.02-45.89,0-.48,.07-.95,.13-1.84,4.02,0,7.86,0,11.7,0,4.58,0,9.16-.05,13.73,.02,6.02,.09,10.57,3.21,12.54,8.78,7.27,20.47,13.36,29.76,20.58,50.25,.18,.51,.27,1.05,.43,1.7-.8,.04-1.42,.1-2.05,.1-14.86,0-28.6,.03-43.46,0Zm37.85,71.95c-5.65,.05-10.32-4.54-10.37-10.18-.05-5.64,4.53-10.33,10.17-10.4,5.57-.07,10.33,4.59,10.41,10.21,.07,5.58-4.6,10.33-10.21,10.38Z"/>
  <path class="cls-1" d="M196.42,182.2c23.1,0,46.2-.08,69.29,.08,4.49,.03,7.87-1.18,10.1-5.13V93.06c-2.23-3.96-5.6-5.37-10.1-5.11-4.98,.28-9.98,.06-14.97,.06-2.73,0-5.45,0-8.37,0,0,3.78,.03,7.02,0,10.26-.07,6.99-4.89,12.1-11.28,12-6.27-.1-10.93-5.13-11-11.93-.03-3.33,0-6.67,0-10.32-8.24,0-16.11-.01-23.97,0-7,.02-9.46,2.47-9.46,9.39,0,18.34,0,56.68,0,75.02,0,7.45,2.32,9.78,9.78,9.78Z"/>
</svg>