<?xml version="1.0" encoding="UTF-8"?>
<svg id="_02" data-name="02" xmlns="http://www.w3.org/2000/svg" viewBox="0 0 283.46 283.46">
  <defs>
    <style>
      .cls-1 {
        fill: #c43ab9;
      }
    </style>
  </defs>
  <g>
    <g>
      <path class="cls-1" d="M121.36,247.93c-19.79-7.32-38.31-16.87-53.74-31.56-14.12-13.44-24.25-29.23-27.35-48.87-.37-2.36-.52-4.75-.79-7.27-2-.13-3.76-.24-6.09-.38,.16,2.28,.18,4.06,.41,5.82,2.6,19.23,11.49,35.44,24.37,49.56,16.18,17.74,36.51,29.2,58.68,37.68,5.49,2.1,11.09,3.9,16.98,5.95,.61-2.28,1.11-4.14,1.63-6.06-4.94-1.7-9.56-3.18-14.1-4.86Z"/>
      <path class="cls-1" d="M59.37,229.26c1.88-1.02,1.44-2.15,.73-3.63-5.84-12.17-24.3-17.19-36.77-9.8,5.12,15.04,21.51,21.3,36.04,13.43Z"/>
      <path class="cls-1" d="M72.67,261.09c13.66,14.49,32.9,7.31,39.16-4.52-11.09-12.31-31.79-6.36-39.16,4.52Z"/>
      <path class="cls-1" d="M35.24,153.43c12.41-11.2,5.05-32.66-5.72-38.88-11.81,10.73-8.72,31.75,5.72,38.88Z"/>
      <path class="cls-1" d="M88.69,228.43c1.2,.99,2.06,1.36,3.41-.05,10.85-11.34,8.17-30.41-5.73-38.31-3.67,4.9-5.9,10.17-6.39,16.08-.74,8.82,1.64,16.47,8.71,22.27Z"/>
      <path class="cls-1" d="M117.32,244.52c2.37,1.07,4.05,1.1,4.69-1.82,.72-3.28,1.82-6.55,1.98-9.86,.54-11.34-8.12-22.21-19.17-23.89-.6,2.91-1.45,5.82-1.77,8.8-1.21,11.26,4.96,22.59,14.27,26.77Z"/>
      <path class="cls-1" d="M27.23,181.65c3.62,.37,3.97,.05,4-3.63,.11-11.98-9.3-22.69-22.35-25.45-5.05-1.07-5.18-.97-5.17,4.13,.04,13.73,9.25,23.51,23.51,24.96Z"/>
      <path class="cls-1" d="M82.35,243.49c-7.98-11.65-28.01-11.84-39.51-.26,12.27,16.46,32.76,10.8,39.51,.26Z"/>
      <path class="cls-1" d="M51.07,179.4c14.36-8.05,16.88-28.72,4.59-39.22-12.92,9.52-15.35,30.96-4.59,39.22Z"/>
      <path class="cls-1" d="M39.22,207.27c2.29-.64,2.77-1.64,2.14-3.85-1.76-6.08-5.28-10.78-10.68-14.01-7.18-4.29-14.86-5.55-23.05-3.65,1.88,16.05,16.39,25.74,31.6,21.51Z"/>
      <path class="cls-1" d="M66.87,211.13c12.91-9.59,13.82-29.78-.51-39.34-11.51,10.22-11.23,31.84,.51,39.34Z"/>
    </g>
    <g>
      <path class="cls-1" d="M248.37,173.04c.99-4.13,1.29-8.42,1.96-12.97-2.67,.14-4.52,.24-6.41,.34-.26,2.6-.37,4.92-.74,7.2-3.48,21.64-15.16,38.45-31.31,52.49-14.88,12.94-32.22,21.59-50.62,28.3-4.34,1.58-8.73,3-13.33,4.57,.56,2,1.06,3.78,1.62,5.75,24.46-6.94,50.83-19.31,69.72-37.21,14.19-13.45,24.51-29.28,29.11-48.47Z"/>
      <path class="cls-1" d="M257.55,187.22c-7.85,3.04-13.29,8.41-15.54,16.74-.53,1.96,0,2.79,1.96,3.4,14.91,4.65,30.39-5.6,31.79-21.39-6.36-1.69-12.38-1.01-18.21,1.25Z"/>
      <path class="cls-1" d="M165.84,244.79c12.33-5.16,18.77-23.76,12.14-35.73-.54,.11-1.16,.18-1.74,.37-13.97,4.64-20.72,20.22-14.75,33.72,1.05,2.39,2.19,2.54,4.35,1.64Z"/>
      <path class="cls-1" d="M171.65,256.82c7.73,14.27,28.34,16.65,39.21,4.35-9.09-12.78-30.58-15.09-39.21-4.35Z"/>
      <path class="cls-1" d="M200.98,243.78c9.99,13.35,30.85,13.11,39.48-.29-9-9.99-29.68-13.19-39.48,.29Z"/>
      <path class="cls-1" d="M248.32,153.74c16.54-9.72,16.07-30.23,5.22-39.04-13.1,9.7-15.87,30.42-5.22,39.04Z"/>
      <path class="cls-1" d="M195.01,228.33c10.63-8.57,11.6-27.75,1.92-37.94-13.98,8.08-16.45,26.01-5.35,38.36,1.45,1.62,2.38,.43,3.43-.41Z"/>
      <path class="cls-1" d="M274.48,152.78c-2.73,.69-5.51,1.62-7.95,3-8.97,5.07-14.53,12.34-14.32,23.18,.05,2.35,.87,3.02,3.21,2.95,13.8-.46,24.22-11.04,24.33-24.87,.04-5.28-.15-5.54-5.27-4.25Z"/>
      <path class="cls-1" d="M216.62,211.41c13.54-9.72,10.06-31.31,.29-39.46-13.46,8.85-13.68,29.34-.29,39.46Z"/>
      <path class="cls-1" d="M232.47,179.69c12.35-11.61,5.82-32.38-4.76-39.13-11.61,10.1-10.53,29.91,4.76,39.13Z"/>
      <path class="cls-1" d="M223.46,225.56c-1.28,2.26-.74,3.5,1.49,4.31,2.38,.86,4.73,1.87,7.18,2.45,11.79,2.8,24.83-4.79,28.22-17.24-4.53-.84-8.81-2.22-13.12-2.32-10.19-.24-18.5,3.53-23.77,12.8Z"/>
    </g>
  </g>
  <path class="cls-1" d="M220.45,79.17l-15.39,11.17-27.99,20.33,9.24,28.45,7.33,22.52c1.26,3.9-1.83,7.29-5.3,7.29-1.08,0-2.21-.32-3.25-1.08l-39.56-28.74-3.8-2.76-3.8,2.76-39.56,28.74c-1.04,.75-2.15,1.08-3.25,1.08-3.47,0-6.56-3.39-5.3-7.29l7.31-22.5,9.26-28.47-43.36-31.5c-4.37-3.17-2.11-10.05,3.25-10.05h53.62l16.55-50.98c.83-2.56,3.07-3.84,5.28-3.84s4.45,1.28,5.28,3.84l16.57,50.98h53.6c5.38,0,7.62,6.88,3.27,10.05Z"/>
</svg>