<?xml version="1.0" encoding="UTF-8"?>
<svg id="_02" data-name="02" xmlns="http://www.w3.org/2000/svg" viewBox="0 0 283.46 283.46">
  <defs>
    <style>
      .cls-1 {
        fill: #fff;
      }
    </style>
  </defs>
  <g id="_11qmT4" data-name="11qmT4">
    <path class="cls-1" d="M175.45,154.27c-8.43,23.17-16.87,46.36-25.3,69.52-1.08,2.98-2.14,5.94-3.3,8.88-.91,2.3-2.62,3.59-5.17,3.56-2.45-.03-4.05-1.3-5.01-3.47-.32-.75-.62-1.54-.89-2.32-9.25-25.39-18.51-50.77-27.76-76.16-12.59,4.78-23.88,12.18-33.23,21.53-17.13,17.13-27.73,40.81-27.73,66.96v23.06c0,1.92,1.55,3.46,3.46,3.46H202.93s29.23-.01,29.23-.01c2.36,0,4.27-1.91,4.27-4.27v-22.24c0-40.43-25.33-74.93-60.98-88.5Zm39.63,71.79h-15.58v15.6h-15.35v-15.6h-15.58v-15.33h15.58v-15.6h15.35v15.6h15.58v15.33Z"/>
  </g>
  <g id="Path_966" data-name="Path 966">
    <path class="cls-1" d="M141.73,22.17c-34.53,.03-62.66,28.16-62.71,62.71,.04,34.53,28.17,62.66,62.71,62.69,34.53-.03,62.66-28.16,62.71-62.71-.04-34.53-28.17-62.66-62.71-62.69Z"/>
  </g>
</svg>