<?xml version="1.0" encoding="utf-8"?>
<!-- Generator: Adobe Illustrator 26.3.1, SVG Export Plug-In . SVG Version: 6.00 Build 0)  -->
<svg version="1.1" id="Layer_1" xmlns="http://www.w3.org/2000/svg" xmlns:xlink="http://www.w3.org/1999/xlink" x="0px" y="0px"
	 viewBox="0 0 349.3 368" style="enable-background:new 0 0 349.3 368;" xml:space="preserve">
<style type="text/css">
	.st0{fill:#85287e;}
</style>
<g>
	<path class="st0" d="M339.7,37.6c-11-9.7-23.1-20-35.9-30.9c-3-2.5-6.5-4.5-10.2-5.7c-10.2-2.8-19.5,0.2-26.7,8.7l-33.7,39.1
		c-29.4,34.1-59.8,69.5-89.5,104.1c-2,2.3-3.5,5.5-4,8.4c-1.5,8.4-3,16.9-4.3,25.1c-0.7,3.5-1.2,7.2-1.8,10.7c-0.5,3-1,5.8-1.5,8.9
		c-0.5,3-1,6-1.5,8.9l-2.2,11.5c-0.2,0.8-0.3,1.8-0.5,2.7c-0.2,0.8-0.3,1.8-0.5,2.8v0.2l0.3,5.5l0.5,0.7c2,3.8,5,6.3,8.9,7.5
		l0.8,0.2l5.2-0.3l0.8-0.5l0.3-0.2c0,0,0.2,0,0.2-0.2c0,0,0.2,0,0.2-0.2l16.7-5.3c10.9-3.5,21.9-7.2,32.9-10.7l16.7-5.5
		c3.2-1.2,5.8-2.8,7.9-4.8c33.2-38.4,73.8-85.5,124-143.8C352.4,62.8,351.4,47.6,339.7,37.6z M169.2,211.7c-4.3-3.7-8.4-7-12-10.5
		c0.5-3.5,1.2-7,1.7-10.4c0.3-1.7,0.5-3.3,0.8-5l24.4,21C179.2,208.5,174.2,210,169.2,211.7z M207.7,193.6l-38.4-33.1L265,49.3
		l38.4,33.1L207.7,193.6z M323.7,59.7l-0.3,0.3c-1.2,1.3-2.3,2.7-3.3,4l-39.1-33.7c1.7-2,3.3-4.2,5.2-6c0.3-0.3,1.3,0.2,1.3,0.2
		c0.3,0.2,0.8,0.5,1.3,1.2c5.7,4.8,11.5,9.9,17.2,14.7c5.7,5,11.5,9.9,17.2,14.9C325.9,57,325.9,57,323.7,59.7z"/>
	<path class="st0" d="M318.9,167c-7.2,0-13,5.8-13,13v114.1c0,26.4-21.5,47.8-47.8,47.8H73.8C47.5,342,26,320.5,26,294.1V110
		c0-26.4,21.5-47.8,47.8-47.8H168c7.2,0,13-5.8,13-13s-5.8-13-13-13H73.8C33.1,36.2,0,69.3,0,110v184.1C0,334.8,33.1,368,73.8,368
		H258c40.7,0,73.8-33.1,73.8-73.8V180C331.9,172.8,326.1,167,318.9,167z"/>
</g>
</svg>
