<?xml version="1.0" encoding="UTF-8"?>
<svg id="_02" data-name="02" xmlns="http://www.w3.org/2000/svg" viewBox="0 0 283.46 283.46">
  <defs>
    <style>
      .cls-1 {
        fill: #85287e;
      }
    </style>
  </defs>
  <path class="cls-1" d="M245.33,35.02c0-8.2-4-12.2-12.18-12.21H111.56c-8.42,.01-12.29,3.92-12.29,12.41V229.43H245.33V35.02Zm-124.01,59.23h101.71v20.57H121.33v-20.57Zm101.71,103.82H121.33v-20.5h101.71v20.5Zm.36-41.51H121.57v-.24h-.43v-20.48h101.84v.2h.43v20.52Zm0-83.59H121.51v-20.48h101.9v20.48Z"/>
  <path class="cls-1" d="M86.18,94.09c-13.35,0-26.47-.01-39.6,0-8.47,0-12.35,3.87-12.35,12.32-.01,53.78-.01,65.65-.01,119.43v3.61h51.96V94.09Zm-35.81,41.9h20.46v20.48h-20.46v-20.48Zm20.51,62.22h-20.42v-20.57h20.42v20.57Z"/>
  <path class="cls-1" d="M14.17,240.19v20.47h255.12v-20.47H14.17Z"/>
</svg>