<?xml version="1.0" encoding="UTF-8"?>
<svg id="_02" data-name="02" xmlns="http://www.w3.org/2000/svg" viewBox="0 0 283.46 283.46">
  <defs>
    <style>
      .cls-1 {
        fill: #fff;
      }
    </style>
  </defs>
  <g id="DMSJHI">
    <g>
      <path class="cls-1" d="M251.72,121.57V253.96h-26.37v-110.06h-66.17v109.93H27.41V121.58c1.09,0,2.03,0,2.97,0,73.78,0,147.56,0,221.34-.01Zm-105.76,22.29H44.95v79.22h101.01v-79.22Z"/>
      <path class="cls-1" d="M143.43,29.5c4.57,1.41,9.37,2.32,13.67,4.32,14.33,6.66,23.22,22.79,21.71,38.57-1.57,16.42-13.14,30.39-28.62,34.56-26.35,7.1-51.38-13.01-50.09-40.25,.86-18.23,15.23-34.05,33.34-36.72,.71-.1,1.4-.32,2.1-.48,2.63,0,5.26,0,7.89,0Zm-30.82,48.54h17.93v17.7h18.04v-17.83h17.69v-18.04h-17.83v-17.7h-18.03v17.83h-17.81v18.04Z"/>
      <path class="cls-1" d="M269.29,108.41h-94.96c11.56-10.84,17.44-23.81,17.79-39.46h77.17v39.46Z"/>
      <path class="cls-1" d="M212.15,253.86h-39.68v-96.82h39.68v96.82Z"/>
      <path class="cls-1" d="M14.17,108.23v-39.15H86.82c.38,15.32,6.11,28.38,17.68,39.15H14.17Z"/>
      <path class="cls-1" d="M58.01,209.94v-52.86h74.75v52.86H58.01Z"/>
    </g>
  </g>
</svg>