<?xml version="1.0" encoding="utf-8"?>
<!-- Generator: Adobe Illustrator 27.0.0, SVG Export Plug-In . SVG Version: 6.00 Build 0)  -->
<svg version="1.1" id="Layer_1" xmlns="http://www.w3.org/2000/svg" xmlns:xlink="http://www.w3.org/1999/xlink" x="0px" y="0px"
	 viewBox="0 0 345 279.5" style="enable-background:new 0 0 345 279.5;" xml:space="preserve">
<style type="text/css">
	.st0{fill:#C43AB9;}
</style>
<g>
	<path class="st0" d="M104.7,37.9V0L60.4,44.5h37.7C101.7,44.5,104.7,41.6,104.7,37.9z"/>
	<path class="st0" d="M249.2,231.1c-13.1,4.3-26.5,8.7-39.4,12.9l-13.4,4.3c-0.1,0-0.1,0.1-0.2,0.1c-0.1,0.1-0.2,0.1-0.3,0.2
		l-0.5,0.2l-3.6,0.2l-0.5-0.1c-2.8-0.8-4.9-2.6-6.2-5.3l-0.2-0.3l-0.2-3.5v-0.3c0.2-1.5,0.6-2.8,0.8-4.3l1.7-9.2
		c0.8-4.8,1.6-9.4,2.4-14.2c1.6-9.3,3.2-18.9,4.9-28.4c0.3-2.2,1.5-4.4,2.8-6c22.7-26.5,45.7-53.2,68.4-79.5V0H115.9v46.3
		c0,5.1-4.2,9.3-9.3,9.3H60.3v223.9h205.2v-64.2c-3.6,4.1-7.1,8.2-10.6,12.3C253.5,229.1,251.4,230.3,249.2,231.1z M192.7,11.2h1.6
		c12.6,0.5,22.4,11,22,23.6c-0.5,12.6-11,22.4-23.6,22c-12.6-0.5-22.4-11-22-23.6C171.1,21.3,180.7,11.7,192.7,11.2z M192.6,63.2
		c24.1-0.5,44.3,18.5,45.3,42.6v2.7c0,4.8-3.9,8.7-8.7,8.7h-71.5c-4.8,0-8.7-3.9-8.7-8.7C148.5,84,168,63.7,192.6,63.2z M85.7,151.6
		c0.3-4.9,4.6-8.6,9.5-8.6h92c5.1,0,9.3,4.2,9.3,9.3s-4.2,9.2-9.3,9.2H94.8C89.6,161.4,85.3,157,85.7,151.6z M85.7,195.4
		c0.3-4.9,4.6-8.6,9.5-8.6h70.2c5.1,0,9.3,4.2,9.3,9.3s-4.2,9.3-9.3,9.3H94.8C89.5,205.4,85.2,200.9,85.7,195.4z M165.9,249.3h-71
		c-1.5,0-2.8-0.3-4.2-1c-2.7-1.2-4.5-3.9-5-6.8c-0.9-6,4-11,9.6-10.8h70.6c5.1,0,9.3,4.2,9.3,9.3S171,249.3,165.9,249.3z"/>
	<g>
		<path class="st0" d="M201.9,197.8c0,0.2-3,17.2-6.4,34c-0.4,2.1,0.3,4.2,1.9,5.5c1,0.8,2.1,1.2,3.3,1.2c0.7,0,1.5-0.2,2.2-0.5
			c10.8-4.7,30.5-12.1,30.7-12.2l3.1-1.2l-34.3-30.3L201.9,197.8z"/>
		<path class="st0" d="M342.1,95.3L342.1,95.3c-4.6-4-9.2-7.9-13.7-11.8c-4.5-3.9-9.1-7.9-13.7-11.7c-0.5-0.5-1-0.9-1.6-1.3
			l-0.2-0.1c-2.4-1.4-5-1.1-6.5,0.7c-0.2,0.3-0.6,0.6-0.9,1.1c-1.1,1.3-2.3,2.6-3.7,4.4l-0.2,0.2c-0.2,0.2-0.4,0.4-0.6,0.8
			c-1.1,1.3-2.1,2.5-2.8,3.5l-1.1,1.4c-0.2,0.2-0.4,0.5-0.6,0.9l-1,2.1l37,31.9l2-2l0.3-0.3c0.5-0.6,1.8-2.2,3.3-4
			c2-2.4,4.2-5.1,4.9-6C346,101.2,345.8,98.6,342.1,95.3z"/>
		<polygon class="st0" points="205.9,187.6 243,219.5 328.3,122.2 291.2,90.3 		"/>
	</g>
</g>
</svg>
