<?xml version="1.0" encoding="utf-8"?>
<!-- Generator: Adobe Illustrator 27.0.0, SVG Export Plug-In . SVG Version: 6.00 Build 0)  -->
<svg version="1.1" id="_02" xmlns="http://www.w3.org/2000/svg" xmlns:xlink="http://www.w3.org/1999/xlink" x="0px" y="0px"
	 viewBox="0 0 283.5 283.5" style="enable-background:new 0 0 283.5 283.5;" xml:space="preserve">
<style type="text/css">
	.st0{fill:#c43ab9;}
</style>
<g>
	<g id="Group_22">
		<g id="Group_782">
			<g id="Path_966">
				<path class="st0" d="M133.7,136.8L133.7,136.8c-34.3,0-62.2-28-62.3-62.3c0-34.3,28-62.3,62.3-62.3c34.3,0,62.3,28,62.3,62.3
					C196,108.8,168.1,136.7,133.7,136.8L133.7,136.8L133.7,136.8z"/>
			</g>
		</g>
	</g>
	<path class="st0" d="M133.7,145.9c4.7,0,9.2,0.3,13.7,1c-2.2,3.6-6.2,10.4-7.2,12.3c-0.7,1.2-1.1,2.7-1,4.1l0,0
		c0.8,8.1,1.9,16.2,2.8,24.3c0.1,0.9-0.1,2-0.4,2.9c-1.8,4.9-3.6,9.8-5.5,14.6c-0.4,1-1.5,1.7-2.3,2.6c-0.8-0.8-2-1.5-2.3-2.5
		c-2-4.8-3.9-9.7-5.5-14.6c-0.6-2-0.3-4.4-0.1-6.5c0.8-7.1,1.7-14.3,2.5-21.4c0.1-0.9-0.2-2-0.6-2.7c-1.3-2.1-5.4-9.1-7.6-13
		C124.6,146.2,129.1,145.9,133.7,145.9z"/>
	<path class="st0" d="M167.2,152c-8.4,23-16.8,46.1-25.1,69.1c-1.1,3-2.1,5.9-3.3,8.8c-0.9,2.3-2.6,3.6-5.1,3.5c-2.4,0-4-1.3-5-3.5
		c-0.3-0.7-0.6-1.5-0.9-2.3c-9.2-25.2-18.4-50.5-27.6-75.7c-12.5,4.8-23.7,12.1-33,21.4c-17,17-27.5,40.5-27.5,66.5v22.9
		c0,1.9,1.5,3.4,3.4,3.4h151.4l29,0c2.3,0,4.2-1.9,4.2-4.2v-22.1c0-8.5-1.1-16.6-3.2-24.4c-8,11-18.6,25.7-20.3,27.7
		c-1,1.1-2.7,2.1-4.4,2.7c-10.2,3.3-20.6,6.8-30.6,10l-10.4,3.3c-0.1,0-0.1,0.1-0.2,0.1c-0.1,0.1-0.2,0.1-0.3,0.2l-0.3,0.2l-2.8,0.2
		l-0.3-0.1c-2.2-0.6-3.8-2.1-4.8-4.1l-0.2-0.3l-0.2-2.7v-0.3c0.1-1.3,0.3-2.3,0.6-3.4c0.4-2.4,0.9-4.7,1.3-7.1
		c0.6-3.7,1.2-7.3,1.8-11c1.2-7.2,2.5-14.7,3.8-22.1c0.3-1.6,1.1-3.4,2.2-4.6c5.7-6.6,21.6-24.7,33.1-37.6
		C185,160.5,176.5,155.5,167.2,152L167.2,152z"/>
	<path class="st0" d="M128.4,162.5c-0.8,7.1-1.7,14.3-2.5,21.4c-0.2,2.2-0.5,4.5,0.1,6.5c1.5,5,3.5,9.8,5.5,14.6
		c0.4,1,1.5,1.7,2.3,2.5c0.8-0.8,1.9-1.6,2.3-2.6c2-4.8,3.7-9.7,5.5-14.6c0.3-0.9,0.5-1.9,0.4-2.9c-0.9-8.1-2-16.2-2.8-24.3l0,0
		c-0.1-1.3,0.3-2.9,1-4.1c1.1-1.9,5.1-8.6,7.2-12.3c-4.5-0.7-9-1-13.7-1c-4.6,0-9.1,0.3-13.6,1c2.2,3.8,6.3,10.9,7.6,13
		C128.2,160.6,128.5,161.6,128.4,162.5z"/>
	<path class="st0" d="M270.4,142c-7.1-6.1-14.2-12.3-21.3-18.3c-0.3-0.3-0.7-0.6-0.9-0.8c-0.6-0.3-1.6-0.6-2.2,0.1
		c-1.2,1.3-6.3,7.8-7.4,9.2c-0.1,0.2-0.3,0.3-0.3,0.4l25.6,22.1l0.1-0.1c0.9-1,5.7-7.3,6.7-8.4C272.3,144.3,272.3,143.8,270.4,142z"
		/>
	<path class="st0" d="M256.7,162.1l-56.4,65.5c-1.2,1.4-3.2,1.5-4.5,0.3l-20.3-17.5c-1.4-1.2-1.5-3.2-0.3-4.5l56.4-65.5
		c1.2-1.4,3.2-1.5,4.5-0.3l20.3,17.5C257.7,158.6,257.8,160.7,256.7,162.1z"/>
	<path class="st0" d="M165.9,245.5l16.8-6.4c2.3-0.8,2.8-3.8,0.9-5.4l-13.3-11.5c-1.9-1.6-4.8-0.6-5.2,1.8l-3.5,17.9
		C161.1,244.4,163.6,246.5,165.9,245.5z"/>
</g>
</svg>
