<?xml version="1.0" encoding="UTF-8"?>
<svg id="_02_copy" data-name="02 copy" xmlns="http://www.w3.org/2000/svg" viewBox="0 0 283.46 283.46">
  <defs>
    <style>
      .cls-1 {
        fill: #85287e;
      }
    </style>
  </defs>
  <path class="cls-1" d="M127.65,228.26c.51-2.77,1.03-5.54,1.54-8.31,.72-4.31,1.44-8.51,2.15-12.82,1.44-8.41,2.87-17.13,4.41-25.75,.31-1.95,1.33-4,2.56-5.44,20.46-23.85,41.24-47.98,61.69-71.73l.04-89.02H64.54V57.15c0,4.62-3.8,8.41-8.41,8.41H14.17v202.71H199.95l.02-57.81c-3.17,3.67-6.31,7.31-9.44,10.93-1.23,1.33-3.08,2.46-5.13,3.18-11.9,3.9-24,7.9-35.7,11.69l-12.11,3.9c-.1,0-.1,.1-.21,.1-.1,.1-.21,.1-.31,.21l-.41,.21-3.28,.21-.41-.1c-2.56-.72-4.41-2.36-5.64-4.82l-.21-.31-.21-3.18v-.31c.21-1.33,.51-2.56,.72-3.9ZM37.15,112.7c.31-4.41,4.21-7.8,8.62-7.8h112.24c4.62,0,8.41,3.8,8.41,8.41s-3.8,8.31-8.41,8.31H45.46c-4.72,0-8.62-4-8.31-8.92Zm72.22,88.48H45.46c-4.82,0-8.72-4.1-8.31-9.03,.31-4.41,4.21-7.8,8.62-7.8h63.6c2.31,0,4.41,.94,5.94,2.47,1.53,1.53,2.47,3.63,2.47,5.94,0,4.62-3.8,8.41-8.41,8.41Zm-63.91-39.8c-4.72,0-8.62-4-8.31-8.92,.31-4.41,4.21-7.8,8.62-7.8h83.3c4.62,0,8.41,3.8,8.41,8.41s-3.8,8.31-8.41,8.31H45.46ZM14.22,54.72H53.58V15.19L14.22,54.72Z"/>
  <path class="cls-1" d="M267.56,103.52c-8.31-7.08-16.52-14.26-24.83-21.34-.41-.41-.82-.72-1.13-.92-.72-.41-1.85-.72-2.56,.1-1.44,1.54-7.3,9.07-8.63,10.71-.1,.21-.31,.31-.41,.51l29.95,25.85,.1-.1c1.03-1.23,6.68-8.46,7.81-9.79,1.95-2.36,1.95-2.97-.31-5.03Zm-16.39,18.07l-23.74-20.43c-1.58-1.35-3.95-1.18-5.3,.4l-65.67,76.26c-1.35,1.58-1.18,3.95,.4,5.3l23.74,20.43c1.58,1.35,3.95,1.18,5.3-.4l65.67-76.26c1.35-1.57,1.17-3.95-.4-5.3Zm-84.75,88.84l-15.54-13.42c-2.19-1.89-5.59-.71-6.14,2.12l-4.1,20.95c-.56,2.9,2.28,5.29,5.04,4.24l19.63-7.53c2.66-1.02,3.26-4.5,1.12-6.36Z"/>
</svg>