<?xml version="1.0" encoding="UTF-8"?>
<svg id="_02" data-name="02" xmlns="http://www.w3.org/2000/svg" viewBox="0 0 286.18 283.48">
  <defs>
    <style>
      .cls-1 {
        fill: #fff;
      }
    </style>
  </defs>
  <path class="cls-1" d="M149.23,163.27c-17.75-17.76-35.52-35.54-53.33-53.36-.1,.08-.32-1.47-.52-1.27-15.09,15.1-33.65,33.61-48.69,48.76-7.34,7.39-12.53,16.1-14.91,26.29-.91,3.88-1.35,7.88-2.01,11.82v4.65c.69,4.08,1.05,8.24,2.11,12.21,4.42,16.65,14.53,28.78,29.81,36.62,6.45,3.31,13.35,5.18,20.57,5.83,.41,.04,.81,.19,1.22,.29h8.88c.68-.15,1.35-.35,2.04-.44,9.76-1.21,18.85-4.37,26.58-10.47,5.06-4,12.93-12.22,17.76-16.53,1.51-1.35,1.6-2.52,.93-4.34-6.52-17.59-5.59-34.79,3.15-51.43,1.92-3.65,4.34-5.32,6.42-8.64Z"/>
  <path class="cls-1" d="M226.7,139.62c3.62-4.14,12.64-13.2,16.2-17.39,9.12-10.73,13.64-23.27,13.51-37.29-.14-15.05-5.29-28.39-15.98-39.06-16.38-16.35-36-21.17-58.23-14.84-9.4,2.68-17.29,8.04-24.17,14.94-14.88,14.91-34.94,34.94-49.84,49.83-.44,.44-.85,.9-1.13,1.21,17.85,17.84,35.62,35.61,53.44,53.44,.97-.74,2.12-1.57,3.23-2.41,18-13.74,45.29-13.44,59.92-7.78,1.27,.49,2.07,.49,3.05-.64Z"/>
  <path class="cls-1" d="M153.21,201.68c.45,27.21,22.87,44.54,41.37,45.77v-93.07c-20.55,1.76-41.81,20.69-41.37,47.3Z"/>
  <path class="cls-1" d="M206.65,154.39v93.14c19.96-1.86,41.45-19.74,41.3-46.79-.15-27.53-22.24-44.73-41.3-46.35Z"/>
</svg>