<?xml version="1.0" encoding="UTF-8"?>
<svg id="_02_copy" data-name="02 copy" xmlns="http://www.w3.org/2000/svg" viewBox="0 0 284.46 284.46">
  <defs>
    <style>
      .cls-1 {
        fill: #fff;
      }
    </style>
  </defs>
  <g id="jw1Wzx">
    <path class="cls-1" d="M91.17,122.61v45.2s45.35,0,45.35,0v-45.2s-45.35,0-45.35,0Zm0,0v45.2s45.35,0,45.35,0v-45.2s-45.35,0-45.35,0Zm0,0v45.2s45.35,0,45.35,0v-45.2s-45.35,0-45.35,0Zm0,0v45.2s45.35,0,45.35,0v-45.2s-45.35,0-45.35,0Zm78.43,16.92c1.03-.18,2.09-.23,3.14-.23,8.84-.02,17.68,0,26.53,0,8.92,0,17.84,0,26.76,0,2.43,0,4.69,.38,6.14,2.67,2,3.16,.36,7.44-3.27,8.3-1.01,.24-2.08,.34-3.13,.34-17.85,.02-35.69,.02-53.53,0-4.37,0-6.76-1.69-7.17-4.96-.38-3.08,1.44-5.59,4.52-6.12Zm-4.57-22.3c-.26-2.93,1.63-5.5,4.56-5.89,1.92-.25,3.88-.21,5.82-.22,7.86-.02,15.73,0,23.6,0,9.09,0,18.17-.02,27.25,.01,4.11,.01,6.44,1.85,6.74,5.14,.24,2.73-1.41,5.14-4.1,5.78-1.01,.24-2.08,.36-3.12,.36-17.84,.02-35.69,.02-53.53,.01-4.45,0-6.92-1.8-7.22-5.19ZM79.74,58.11s54.01-.01,76.96-.01c22.79,0,76.33,.02,76.33,.02v36.05s-153.29,.04-153.29,.04V58.11Zm68.28,113.7c0,5.46-2.06,7.55-7.44,7.56-17.76,0-35.53,0-53.3,0-5.47,0-7.52-2.02-7.53-7.44-.02-8.84,0-17.68,0-26.53,0-8.93,0-17.85,0-26.77,0-5.59,1.9-7.51,7.41-7.52,17.85,0,35.7-.01,53.54,0,5.27,0,7.31,2.08,7.31,7.4,0,17.77,0,35.53,0,53.3Zm21.1-4c1.01-.24,2.08-.34,3.13-.34,17.84-.02,35.69-.02,53.53,0,4.38,0,6.76,1.67,7.18,4.95,.4,3.06-1.44,5.6-4.51,6.14-1.03,.18-2.1,.23-3.15,.23-8.76,.01-17.52,0-26.28,0-9,0-18.01,0-27.01,0-2.43,0-4.68-.38-6.15-2.66-2.01-3.13-.37-7.44,3.25-8.31Zm-77.95,0h45.35s0-45.2,0-45.2h-45.35s0,45.2,0,45.2Zm0-45.2v45.2s45.35,0,45.35,0v-45.2s-45.35,0-45.35,0Zm0,0v45.2s45.35,0,45.35,0v-45.2s-45.35,0-45.35,0ZM28.85,71.77v2.73c0,49.25,0,98.49,0,147.73,0,9.26,4.5,15.7,12.66,17.93,1.85,.51,3.84,.69,5.77,.7,63.28,.03,126.56,.03,189.84,.02,11.4,0,18.49-7.15,18.49-18.57,0-58.74,0-117.48,0-176.21v-2.51H57.06v3.15c0,55.82,0,111.63,0,167.45,0,7.65-3.77,13.01-10.46,14.82-1.3,.36-2.73,.49-4.07,.4-2.85-.2-4.83-2.26-5.04-4.99-.23-2.88,1.46-5.17,4.33-5.86,3.78-.91,4-1.19,4-5.08V71.77H28.85ZM228.27,206.74c-3.87,.3-7.78,.2-11.66,.21-5.84,.02-96.86,0-102.71,0-9.08,0-18.16,.02-27.25,0-4.13-.01-6.48-1.85-6.76-5.11-.25-2.91,1.4-5.2,4.28-5.86,.79-.18,1.6-.32,2.4-.32,18.16-.02,121.52-.03,139.69,0,3.77,0,6.01,1.57,6.62,4.44,.71,3.33-1.23,6.38-4.61,6.65Z"/>
  </g>
</svg>