<?xml version="1.0" encoding="utf-8"?>
<!-- Generator: Adobe Illustrator 27.0.0, SVG Export Plug-In . SVG Version: 6.00 Build 0)  -->
<svg version="1.1" id="Layer_1" xmlns="http://www.w3.org/2000/svg" xmlns:xlink="http://www.w3.org/1999/xlink" x="0px" y="0px"
	 viewBox="0 0 317.1 260.9" style="enable-background:new 0 0 317.1 260.9;" xml:space="preserve">
<style type="text/css">
	.st0{display:none;}
	.st1{display:inline;opacity:0.5;}
	.st2{fill:#231F20;}
	.st3{fill:#fff;}
</style>
<g id="Layer_2_00000106126910325867047650000009420732865828690337_" class="st0">
	<g id="Layer_1_00000179604026068409812930000016586251942109346959_" class="st1">
		<path class="st2" d="M285.7,121.7L285.7,121.7c0-15.8-11.8-29.1-27.5-31v-80c0-5.9-4.8-10.7-10.7-10.7c-3.8,0-7.3,2-9.2,5.3
			c-17.4,29.5-45.9,50.8-79.1,59.1c-16,4.6-32.7,6.8-49.3,6.5c-0.3,0-0.7,0-1,0H52c-28.6-0.1-51.9,23-52.1,51.6
			c-0.1,26.9,20.4,49.5,47.2,51.9L64.2,245c2.2,9.3,10.6,15.9,20.2,15.9h11.9c11.5,0,20.8-9.3,20.8-20.8c0-1.7-0.2-3.3-0.6-4.9
			l-14.7-60.5h7.1c0.3,0,0.7,0,1,0c16.7-0.3,33.3,1.9,49.3,6.5c33.2,8.3,61.7,29.6,79.1,59.1c3,5.1,9.5,6.8,14.6,3.9
			c3.3-1.9,5.3-5.4,5.3-9.2v-80c15.7-1.9,27.5-15.2,27.5-31L285.7,121.7L285.7,121.7z M102.5,230.1l2,8.1c1.1,4.5-1.7,9-6.2,10.1
			c-0.7,0.2-1.3,0.2-2,0.2h-12c-3.9,0-7.2-2.6-8.2-6.4l-16.4-67.4h29.4l4.4,18h-3c-3.4,0-6.2,2.8-6.2,6.2s2.8,6.2,6.2,6.2h6
			l3.1,12.6h-2c-3.4,0.1-6.1,3-5.9,6.4c0.1,3.2,2.7,5.8,5.9,5.9L102.5,230.1z M103.3,136H49.2c-3.4,0-6.2,2.8-6.2,6.2
			s2.8,6.2,6.2,6.2l0,0h54.1v13.9H51.8c-21.8,0-39.4-17.8-39.4-39.6s17.8-39.4,39.5-39.4h51.3L103.3,136L103.3,136z M245.9,96.7
			v132.2c-19.5-29.6-49.4-50.9-83.7-59.7c-15.1-4.3-30.7-6.6-46.5-7V83.3c15.7-0.4,31.3-2.7,46.5-7c34.3-8.8,64.2-30.1,83.7-59.6
			V96.7z M273.3,123.9c0,8.9-6.3,16.6-15.1,18.4v-39.2c8.8,1.8,15.1,9.5,15.1,18.4V123.9z"/>
		<path class="st2" d="M287.6,86.6L287.6,86.6c1.5,0,3-0.6,4.2-1.6l17.9-16.3c2.6-2.2,2.9-6.1,0.7-8.7c-2.2-2.6-6.1-2.9-8.7-0.7
			c-0.1,0.1-0.2,0.2-0.3,0.2l-17.9,16.3c-2.5,2.3-2.7,6.2-0.4,8.8C284.2,85.9,285.8,86.6,287.6,86.6z"/>
		<path class="st2" d="M291.7,160.6c-2.6-2.2-6.5-1.9-8.7,0.7c-2.1,2.5-2,6.2,0.4,8.5l17.9,16.3c2.5,2.4,6.4,2.3,8.8-0.1
			c2.4-2.5,2.3-6.4-0.1-8.8c-0.1-0.1-0.2-0.2-0.3-0.2L291.7,160.6z"/>
		<path class="st2" d="M311.2,116.6h-13.7c-3.4,0-6.2,2.7-6.2,6.2c0,3.3,2.6,6,5.9,6.2h14.1c3.4-0.1,6.1-3,5.9-6.4
			C317,119.3,314.4,116.7,311.2,116.6L311.2,116.6z"/>
	</g>
</g>
<g id="Layer_1_00000114041467069858647460000005325774618845502397_">
	<g>
		<path class="st3" d="M117.6,237.8L117.6,237.8c2.4,11.8-5.2,23.1-15.6,23.1H88.2c-7.4,0-13.8-5.8-15.6-14.2l-13.8-63.2H107
			l3.2,16.6h-17c-2.9,0-5.5,2.4-5.9,5.8c-0.5,4.1,2.3,7.6,5.7,7.6h20l2,10.9H98.7c-3.1,0.1-5.6,3.2-5.4,6.9c0.1,3.4,2.5,6.2,5.4,6.4
			L117.6,237.8z M105.1,134.4H51.6c-4.4,0-8,3.6-8,8s3.6,8,8,8l0,0h53.5v22H50.9c-28.2,0-50.9-23-50.9-51.2s23-50.9,51.1-50.9H105
			L105.1,134.4L105.1,134.4z M246.8,87.5V236c0,10.3-13.2,16.7-18,7.8c-15.7-29-45.5-71.6-112.1-71.6v-102
			c66.5-1.8,95.8-37.6,109.8-65.7c4.5-9,20.2-5.2,20.2,5L246.8,87.5z"/>
		<path class="st3" d="M283.5,125.9c0,16.1-11.4,30-27.2,33.3v-71c15.9,3.3,27.2,17.2,27.2,33.3V125.9z"/>
		<g>
			<path class="st3" d="M286.1,87.2L286.1,87.2c1.6,0,3.1-0.6,4.4-1.7l18.7-17.1c2.7-2.3,3-6.4,0.7-9.1c-2.3-2.7-6.4-3-9.1-0.7
				c-0.1,0.1-0.2,0.2-0.3,0.2l-18.7,17.1c-2.6,2.4-2.8,6.5-0.4,9.2C282.6,86.5,284.2,87.2,286.1,87.2z"/>
			<path class="st3" d="M290.4,159.6c-2.7-2.3-6.8-2-9.1,0.7c-2.2,2.6-2.1,6.5,0.4,8.9l18.7,17.1c2.6,2.5,6.7,2.4,9.2-0.1
				c2.5-2.6,2.4-6.7-0.1-9.2c-0.1-0.1-0.2-0.2-0.3-0.2L290.4,159.6z"/>
			<path class="st3" d="M310.8,116.6h-14.3c-3.6,0-6.5,2.8-6.5,6.5c0,3.5,2.7,6.3,6.2,6.5H311c3.6-0.1,6.4-3.1,6.2-6.7
				C316.9,119.4,314.2,116.7,310.8,116.6L310.8,116.6z"/>
		</g>
	</g>
</g>
</svg>
