<?xml version="1.0" encoding="utf-8"?>
<!-- Generator: Adobe Illustrator 27.0.0, SVG Export Plug-In . SVG Version: 6.00 Build 0)  -->
<svg version="1.1" id="_02_copy_2" xmlns="http://www.w3.org/2000/svg" xmlns:xlink="http://www.w3.org/1999/xlink" x="0px" y="0px"
	 viewBox="0 0 283.5 283.5" style="enable-background:new 0 0 283.5 283.5;" xml:space="preserve">
<style type="text/css">
	.st0{fill:#fff;}
</style>
<g id="Group_845_00000145055676188154941190000005278056362603218569_">
	<g id="_953810_00000080895836326865196410000013468325866113482882_">
		<g id="Group_847_00000029761347087840852510000014420280230188821383_">
			<g id="Group_846_00000031914140604550522330000011163845394060550077_">
				<path id="Path_983_00000049933826058097829700000013045332437651362202_" class="st0" d="M83.7,277.2L83.7,277.2
					c-13,0-25.7-3.2-37.2-9.2c-2.3-1.2-5.1-1.5-7.6-0.6L5.5,278.8c-2,0.7-4-1.2-3.3-3.3l11.5-33.4c0.9-2.5,0.7-5.3-0.6-7.6
					C-3,204.1,2.3,166.8,26.1,142c9.7,58,55.6,103.3,113.7,112.2C124.9,269,104.7,277.2,83.7,277.2z M282.8,240l-20.1-58.2
					c-0.9-2.5-0.6-5.3,0.6-7.6c8.6-16.2,13.2-34.2,13.5-52.6C277.9,57.1,226.5,4,162,2.9h-3.8C93.7,3.5,41.8,56.1,42.4,120.6
					c0.5,64.5,53.2,116.3,117.7,115.8h0.2c18.9,0,37.6-4.6,54.3-13.4c2.3-1.2,5.1-1.5,7.6-0.6l58.2,20.1c0.7,0.3,1.4,0.1,1.9-0.5
					l0.1-0.2C282.9,241.4,283.1,240.6,282.8,240z M173.3,166.9h-70.7c-0.3,0-0.5,0-0.8,0c-5.3-0.3-9.3-4.9-8.9-10.2
					c0.3-5.3,4.9-9.3,10.2-8.9h70.2c4.9,0.2,8.9,4.2,9.1,9.1C182.6,162.1,178.5,166.6,173.3,166.9z M217.2,127.5H103.1
					c-4.9-0.2-8.9-4.2-9.1-9.1c-0.2-5.3,3.8-9.8,9.1-10h114.1c4.9,0.2,8.9,4.2,9.1,9.1C226.6,122.8,222.5,127.2,217.2,127.5z
					 M217.2,88.1H102.6c-5.3-0.1-9.5-4.5-9.3-9.8s4.5-9.5,9.8-9.3h114.1c5.3,0,9.6,4.3,9.6,9.6S222.5,88.1,217.2,88.1z"/>
			</g>
		</g>
	</g>
</g>
</svg>
