<?xml version="1.0" encoding="utf-8"?>
<!-- Generator: Adobe Illustrator 27.0.0, SVG Export Plug-In . SVG Version: 6.00 Build 0)  -->
<svg version="1.1" id="Layer_1" xmlns="http://www.w3.org/2000/svg" xmlns:xlink="http://www.w3.org/1999/xlink" x="0px" y="0px"
	 viewBox="0 0 276.6 322.8" style="enable-background:new 0 0 276.6 322.8;" xml:space="preserve">
<style type="text/css">
	.st0{display:none;}
	.st1{display:inline;opacity:0.5;}
	.st2{fill:#CE2028;}
	.st3{display:inline;}
	.st4{fill:#fff;}
</style>
<g id="Layer_1_00000023968631602204128310000016197598793809368967_" class="st0">
	<g class="st1">
		<path class="st2" d="M142.3,144.1c-0.6-1.1-1.3-2.2-2.1-3.1c-0.3-0.2-0.5-0.4-0.8-0.7c-0.2-0.2-0.5-0.6-0.8-0.9l-24.8-25.8
			l20.3-19.9c1.1-1.1,2.1-2.2,3.1-3.3c0.7-0.9,1.3-1.9,1.8-2.9c0.1-0.4,0.2-0.7,0.3-1.1c0.4-2.5-0.4-5.1-2.3-6.9
			c-1.5-1.4-3.5-2.2-5.5-2.2c-1.1,0-2.2,0.2-3.2,0.7c-0.8,0.4-1.5,0.9-2.2,1.4c-0.2,0.1-0.4,0.3-0.5,0.4s-0.2,0.2-0.4,0.3
			l-26.4,28.1v-23c0.1-2.2-0.7-4.3-2.3-5.9c-1.6-1.4-3.6-2.2-5.7-2.1c-4.3-0.2-7.8,3.2-8,7.4c0,0.1,0,0.3,0,0.4v62.3
			c-0.1,2.1,0.7,4.2,2.3,5.6c1.5,1.5,3.5,2.2,5.6,2.1c2.2,0.1,4.3-0.7,5.9-2.2c1.4-1.5,2.2-3.4,2.2-5.5v-27.4l27.8,30.2
			c0.7,0.8,1.4,1.5,2,2c0.6,0.6,1.2,1.1,1.9,1.5c0.6,0.5,1.3,0.8,2,1.1c0.7,0.2,1.5,0.3,2.3,0.3c2.1,0,4.1-0.6,5.9-1.8
			c1.7-1.3,2.7-3.4,2.5-5.5C143.2,146.5,142.9,145.2,142.3,144.1z"/>
		<path class="st2" d="M191.7,142.8c-1.4-1.2-3.1-1.8-4.9-1.9h-20.4l24.4-34.1c0.2-0.3,0.4-0.6,0.6-0.9s0.3-0.5,0.5-0.8
			c0.1-0.4,0.3-0.9,0.4-1.3c0.1-0.5,0.2-1.1,0.2-1.7c0.1-1.1-0.2-2.1-0.9-2.9c-0.5-0.6-1.2-1.1-1.9-1.5c-0.4-0.1-0.8-0.2-1.2-0.3
			c-0.4-0.1-0.7-0.1-1-0.2l-35.1,0.1c-1.8,0-3.6,0.6-4.9,1.8c-2.7,2.8-2.7,7.2,0,10c1.4,1.2,3.1,1.8,4.9,1.7h17.9L146,145v0.1
			l-0.2,0.4c-0.1,0.2-0.2,0.3-0.3,0.4c-0.2,0.5-0.4,1-0.6,1.5c-0.2,0.6-0.3,1.2-0.3,1.8c-0.1,1.6,0.6,3.1,1.8,4
			c1.3,0.8,2.9,1.3,4.4,1.2h36c1.8,0,3.6-0.6,4.9-1.7c1.4-1.3,2.1-3.1,2-4.9C193.8,145.9,193.1,144.1,191.7,142.8z"/>
		<path class="st2" d="M251.5,116.1c0-62.4-50.8-113.2-113.2-113.2S25.1,53.7,25.1,116.1s50.8,113.2,113.2,113.2
			S251.5,178.5,251.5,116.1z M138.3,213.3c-53.6,0-97.2-43.6-97.2-97.2s43.6-97.2,97.2-97.2s97.2,43.6,97.2,97.2
			S191.9,213.3,138.3,213.3z"/>
		<path class="st2" d="M265.8,268.2h-40.6v-28.1c0-6-4.9-10.8-10.8-10.8h-76H10.8c-6,0-10.8,4.9-10.8,10.8v32.4
			c0,6,4.9,10.8,10.8,10.8h40.6v28.1c0,6,4.9,10.8,10.8,10.8h203.5c6,0,10.8-4.9,10.8-10.8V279C276.6,273.1,271.7,268.2,265.8,268.2
			z M16,245.3h193.1v22H16V245.3z M260.6,306.2H67.5v-22h193.1V306.2z"/>
	</g>
	<g class="st3">
		<path class="st2" d="M-307.7,144.1c-0.6-1.1-1.3-2.2-2.1-3.1c-0.3-0.2-0.5-0.4-0.8-0.7c-0.2-0.2-0.5-0.6-0.8-0.9l-24.8-25.8
			l20.3-19.9c1.1-1.1,2.1-2.2,3.1-3.3c0.7-0.9,1.3-1.9,1.8-2.9c0.1-0.4,0.2-0.7,0.3-1.1c0.4-2.5-0.4-5.1-2.3-6.9
			c-1.5-1.4-3.5-2.2-5.5-2.2c-1.1,0-2.2,0.2-3.2,0.7c-0.8,0.4-1.5,0.9-2.2,1.4c-0.2,0.1-0.4,0.3-0.5,0.4s-0.2,0.2-0.4,0.3
			l-26.4,28.1v-23c0.1-2.2-0.7-4.3-2.3-5.9c-1.6-1.4-3.6-2.2-5.7-2.1c-4.3-0.2-7.8,3.2-8,7.4c0,0.1,0,0.3,0,0.4v62.3
			c-0.1,2.1,0.7,4.2,2.3,5.6c1.5,1.5,3.5,2.2,5.6,2.1c2.2,0.1,4.3-0.7,5.9-2.2c1.4-1.5,2.2-3.4,2.2-5.5v-27.4l27.8,30.2
			c0.7,0.8,1.4,1.5,2,2c0.6,0.6,1.2,1.1,1.9,1.5c0.6,0.5,1.3,0.8,2,1.1c0.7,0.2,1.5,0.3,2.3,0.3c2.1,0,4.1-0.6,5.9-1.8
			c1.7-1.3,2.7-3.4,2.5-5.5C-306.8,146.5-307.1,145.2-307.7,144.1z"/>
		<path class="st2" d="M-258.3,142.8c-1.4-1.2-3.1-1.8-4.9-1.9h-20.4l24.4-34.1c0.2-0.3,0.4-0.6,0.6-0.9s0.3-0.5,0.5-0.8
			c0.1-0.4,0.3-0.9,0.4-1.3c0.1-0.5,0.2-1.1,0.2-1.7c0.1-1.1-0.2-2.1-0.9-2.9c-0.5-0.6-1.2-1.1-1.9-1.5c-0.4-0.1-0.8-0.2-1.2-0.3
			c-0.4-0.1-0.7-0.1-1-0.2l-35.1,0.1c-1.8,0-3.6,0.6-4.9,1.8c-2.7,2.8-2.7,7.2,0,10c1.4,1.2,3.1,1.8,4.9,1.7h17.9L-304,145v0.1
			l-0.2,0.4c-0.1,0.2-0.2,0.3-0.3,0.4c-0.2,0.5-0.4,1-0.6,1.5c-0.2,0.6-0.3,1.2-0.3,1.8c-0.1,1.6,0.6,3.1,1.8,4
			c1.3,0.8,2.9,1.3,4.4,1.2h36c1.8,0,3.6-0.6,4.9-1.7c1.4-1.3,2.1-3.1,2-4.9C-256.2,145.9-256.9,144.1-258.3,142.8z"/>
		<path class="st2" d="M-198.5,116.1c0-62.4-50.8-113.2-113.2-113.2s-113.2,50.8-113.2,113.2s50.8,113.2,113.2,113.2
			S-198.5,178.5-198.5,116.1z M-311.7,213.3c-53.6,0-97.2-43.6-97.2-97.2s43.6-97.2,97.2-97.2s97.2,43.6,97.2,97.2
			S-258.1,213.3-311.7,213.3z"/>
		<path class="st2" d="M-184.2,268.2h-40.6v-28.1c0-6-4.9-10.8-10.8-10.8h-76h-127.6c-6,0-10.8,4.9-10.8,10.8v32.4
			c0,6,4.9,10.8,10.8,10.8h40.6v28.1c0,6,4.9,10.8,10.8,10.8h203.5c6,0,10.8-4.9,10.8-10.8V279
			C-173.4,273.1-178.3,268.2-184.2,268.2z M-434,245.3h193.1v22H-434V245.3z M-189.4,306.2h-193.1v-22h193.1V306.2z"/>
	</g>
</g>
<g id="Layer_1_copy">
	<g>
		<path class="st4" d="M138.3,0C75.9,0,25.1,50.8,25.1,113.2s50.8,113.2,113.2,113.2s113.2-50.8,113.2-113.2S200.7,0,138.3,0z
			 M140.7,150.3c-1.8,1.2-3.8,1.8-5.9,1.8c-0.8,0-1.6-0.1-2.3-0.3c-0.7-0.3-1.4-0.6-2-1.1c-0.7-0.4-1.3-0.9-1.9-1.5
			c-0.6-0.5-1.3-1.2-2-2L98.8,117v27.4c0,2.1-0.8,4-2.2,5.5c-1.6,1.5-3.7,2.3-5.9,2.2c-2.1,0.1-4.1-0.6-5.6-2.1
			c-1.6-1.4-2.4-3.5-2.3-5.6V81.7c0.2-4.2,3.7-7.6,8-7.4c2.1-0.1,4.1,0.7,5.7,2.1c1.6,1.6,2.4,3.7,2.3,5.9v23l26.4-28.1
			c0.2-0.1,0.3-0.2,0.4-0.3c0.1-0.1,0.3-0.3,0.5-0.4c0.7-0.5,1.4-1,2.2-1.4c1-0.5,2.1-0.7,3.2-0.7c2,0,4,0.8,5.5,2.2
			c1.9,1.8,2.7,4.4,2.3,6.9c-0.1,0.4-0.2,0.7-0.3,1.1c-0.5,1-1.1,2-1.8,2.9c-1,1.1-2,2.2-3.1,3.3l-20.3,19.9l24.8,25.8
			c0.3,0.3,0.6,0.7,0.8,0.9c0.3,0.3,0.5,0.5,0.8,0.7c0.8,0.9,1.5,2,2.1,3.1s0.9,2.4,0.9,3.6C143.4,146.9,142.4,149,140.7,150.3z
			 M191.7,149.8c-1.3,1.1-3.1,1.7-4.9,1.7h-36c-1.5,0.1-3.1-0.4-4.4-1.2c-1.2-0.9-1.9-2.4-1.8-4c0-0.6,0.1-1.2,0.3-1.8
			c0.2-0.5,0.4-1,0.6-1.5c0.1-0.1,0.2-0.2,0.3-0.4l0.2-0.4v-0.1l24.3-34.2h-17.9c-1.8,0.1-3.5-0.5-4.9-1.7c-2.7-2.8-2.7-7.2,0-10
			c1.3-1.2,3.1-1.8,4.9-1.8l35.1-0.1c0.3,0.1,0.6,0.1,1,0.2s0.8,0.2,1.2,0.3c0.7,0.4,1.4,0.9,1.9,1.5c0.7,0.8,1,1.8,0.9,2.9
			c0,0.6-0.1,1.2-0.2,1.7c-0.1,0.4-0.3,0.9-0.4,1.3c-0.2,0.3-0.3,0.5-0.5,0.8s-0.4,0.6-0.6,0.9L166.4,138h20.4
			c1.8,0.1,3.5,0.7,4.9,1.9c1.4,1.3,2.1,3.1,2,5C193.8,146.7,193.1,148.5,191.7,149.8z"/>
		<path class="st4" d="M49.4,291.5v23.4c0,4,3.3,7.3,7.4,7.3h212.4c4.1,0,7.4-3.3,7.4-7.3v-23.4c0-4-3.3-7.3-7.4-7.3H56.8
			C52.7,284.2,49.4,287.5,49.4,291.5z M0,244.6V268c0,4,3.3,7.3,7.4,7.3h212.4c4.1,0,7.4-3.3,7.4-7.3v-23.4c0-4-3.3-7.3-7.4-7.3H7.4
			C3.3,237.3,0,240.6,0,244.6z"/>
	</g>
	<line class="st4" x1="281.9" y1="275.7" x2="-34.9" y2="275.7"/>
</g>
</svg>
