<?xml version="1.0" encoding="UTF-8"?>
<svg id="_02" data-name="02" xmlns="http://www.w3.org/2000/svg" viewBox="0 0 283.46 283.46">
  <defs>
    <style>
      .cls-1 {
        fill: #85287e;
      }
    </style>
  </defs>
  <g id="Layer_1" data-name="Layer 1">
    <path class="cls-1" d="M171.66,17.85C106.04,1.4,38.86,41.74,22.35,107.33c-10.25,40.72,.55,82.94,29.15,113.75l-15.42,36.28c-1.68,3.24-1.03,7.14,1.62,9.67,1.02,.97,2.21,1.63,3.51,1.98,2.03,.55,4.24,.31,6.17-.81l37.57-21.59c7.86,4.04,16.14,7.28,24.68,9.59,65.54,17.71,133.29-21.22,151-86.75,17.92-66.3-22.09-134.83-88.97-151.6Zm8.1,106.4c-.03,2.66-.08,5.31-.13,7.98l-.16,8.18c-.15,8.02-.28,16.04-.5,24.1,0,.31-1.49,2.06-1.49,2.06-9.85,8.97-35.98,28.25-42.32,56.47-.11,.43-.37,1.04-1.37,1.43-1.35,.51-3.19,.17-4.44-.81-.41-.3-.83-.6-1.23-.88-.72-.51-1.41-1-1.93-1.54-7.87-7.85-9.28-22.06,3.83-41.34,1.96-2.89,2.23-6.18,.75-9.03-1.8-3.49-6-5.82-10.71-5.91l-10.21-.19-.04-.08-8.33-.16c-8.12-.15-6.26-.1-14.35-.27-4.07-.1-7.86-1.75-10.44-4.58-2.34-2.59-3.48-5.91-3.24-9.41,.19-2.65,1.43-5.27,2.54-7.5,4.87-9.84,11.57-45.05,17.62-53.78,4.47-6.39,10.41-9.42,18.25-9.27h.09s44.19,.84,44.19,.84c7.5,.14,13.22,3.17,17.48,9.18,.36,.53,.73,1.05,1.07,1.56,.95,1.48,1.99,3.02,3.28,4.39,1.83,1.96,2.47,4.18,2.31,7.86-.32,6.92-.41,13.92-.51,20.7Zm24.99,46.17l-12.62-.24c-1.67-.03-2.99-1.41-2.96-3.08l1.39-73.12c.03-1.67,1.41-2.99,3.08-2.96l12.62,.24c1.67,.03,2.99,1.41,2.96,3.08l-1.39,73.12c-.03,1.67-1.41,2.99-3.08,2.96Z"/>
  </g>
</svg>