<?xml version="1.0" encoding="utf-8"?>
<!-- Generator: Adobe Illustrator 27.0.0, SVG Export Plug-In . SVG Version: 6.00 Build 0)  -->
<svg version="1.1" id="_02" xmlns="http://www.w3.org/2000/svg" xmlns:xlink="http://www.w3.org/1999/xlink" x="0px" y="0px"
	 viewBox="0 0 187.5 283.5" style="enable-background:new 0 0 187.5 283.5;" xml:space="preserve">
<style type="text/css">
	.st0{fill:#C43AB9;}
</style>
<g id="Icon_LiÃ_enÃ_a">
	<path id="Vector" class="st0" d="M150.5,236l-1.6-0.6l-3.8,8.1c-0.9,1.7-2.6,2.8-4.5,2.8c-1.9,0-3.7-1-4.4-2.8l-3.8-8.1l-1.6,0.6
		v44.9c0,2.3,2.7,3.5,4.3,1.9l3.8-5c1-0.9,2.4-0.9,3.4,0l3.8,5c1.6,1.6,4.3,0.5,4.3-1.9L150.5,236z M160.5,213.5l9-4.2l-9-4.2
		c-2.6-1.2-3.8-4.1-2.8-6.8l3.3-9.3l-9.3,3.3c-2.7,1-5.5-0.2-6.8-2.8l-4.2-9l-4.2,9c-1.2,2.5-4.1,3.8-6.8,2.8l-9.3-3.3l3.3,9.3
		c1,2.7-0.2,5.5-2.8,6.8l-9,4.2l9,4.2c2,0.9,3.1,2.9,3.1,4.9c0,0.7-0.1,1.2-0.3,1.9l-3.3,9.3l5.5-2l0.1-0.1l3.5-1.3
		c0.6-0.2,1.2-0.3,1.8-0.3c2.1,0,4,1.2,4.9,3.1l4.2,9l4.2-9c1.2-2.5,4.1-3.8,6.8-2.8l9.3,3.3l-3.3-9.3
		C156.7,217.6,157.9,214.7,160.5,213.5z M184,0H51.8c-1.9,0-3.4,1.6-3.4,3.5v41.8c0,1.8-1.4,3.2-3.2,3.2H3.3C1.5,48.6-0.1,50,0,51.9
		l0,198.6c0,1.9,1.6,3.4,3.5,3.4h114.4c1.9,0,3.5-1.5,3.5-3.4v-11.9l-2.6,0.9c-2.3,0.9-4.9,0.3-6.8-1.6c-1.9-1.9-2.3-4.3-1.6-6.8
		l4-11.1l-10.7-5c-2.2-1.1-3.7-3.3-3.7-5.9c0-2.6,1.4-4.8,3.7-5.8l10.7-5.1l-4-11.1c-0.9-2.3-0.2-4.9,1.6-6.8
		c1.8-1.8,4.3-2.3,6.8-1.6l11.1,4l5-10.7c1.1-2.2,3.3-3.7,5.8-3.7c2.5,0,4.8,1.4,5.8,3.7l5.1,10.7l11.1-4c2.3-0.9,4.9-0.2,6.8,1.6
		c1.8,1.8,2.3,4.3,1.6,6.8l-4,11.1l10.7,5c2.2,1.1,3.7,3.3,3.7,5.8c0,2.5-1.5,4.8-3.7,5.9L167,220l4,11.1c0.9,2.3,0.2,4.9-1.6,6.8
		c-1.8,1.8-4.3,2.3-6.8,1.6l-2.5-0.9v15.3h23.1c2.3,0,4.2-1.9,4.2-4.2l0-246.2C187.5,1.6,185.9,0,184,0z M104.2,168.1H41.7
		c-4.7,0-8.5-4-8.1-8.8c0.3-4.3,4.1-7.6,8.4-7.6h62.2c2.2,0,4.3,0.9,5.8,2.4c1.5,1.6,2.4,3.5,2.4,5.8
		C112.4,164.4,108.7,168.1,104.2,168.1z M123.4,129.2H41.7c-4.6,0-8.4-3.9-8.1-8.7c0.3-4.3,4.1-7.6,8.4-7.6h81.4
		c4.5,0,8.2,3.7,8.2,8.2S127.9,129.2,123.4,129.2z M151.7,90.3h-110c-4.7,0-8.5-3.9-8.1-8.7c0.3-4.3,4.1-7.6,8.4-7.6h109.7
		c4.5,0,8.2,3.7,8.2,8.2C159.9,86.7,156.2,90.3,151.7,90.3z M0,39.7h35.8c2,0,3.7-1.6,3.7-3.7V0L0,39.7z"/>
</g>
</svg>
