<svg id="Layer_1_copy" data-name="Layer 1 copy" xmlns="http://www.w3.org/2000/svg" xmlns:xlink="http://www.w3.org/1999/xlink" viewBox="0 0 394.81 184.25"><defs><style>.cls-1{fill:url(#linear-gradient);}.cls-2{fill:url(#linear-gradient-2);}.cls-3{fill:url(#linear-gradient-3);}</style><linearGradient id="linear-gradient" x1="188.32" y1="17.43" x2="188.32" y2="163.13" gradientUnits="userSpaceOnUse"><stop offset="0" stop-color="#f57f20"/><stop offset="0.18" stop-color="#febf10"/><stop offset="0.51" stop-color="#f57f20"/><stop offset="0.59" stop-color="#f57f20"/><stop offset="0.92" stop-color="#ffe601"/><stop offset="1" stop-color="#febf10"/></linearGradient><linearGradient id="linear-gradient-2" x1="95.11" y1="0.58" x2="95.11" y2="184.25" gradientUnits="userSpaceOnUse"><stop offset="0" stop-color="#c12026"/><stop offset="0.01" stop-color="#d32027"/><stop offset="0.04" stop-color="#ef3a2a"/><stop offset="0.08" stop-color="#c12026"/><stop offset="0.35" stop-color="#d22027"/><stop offset="0.88" stop-color="#ed2024"/><stop offset="0.95" stop-color="#c12026"/></linearGradient><linearGradient id="linear-gradient-3" x1="291.71" x2="291.71" y2="184.25" gradientUnits="userSpaceOnUse"><stop offset="0" stop-color="#231f20"/><stop offset="0.01" stop-color="#414042"/><stop offset="0.04" stop-color="#58595b"/><stop offset="0.08" stop-color="#231f20"/><stop offset="0.35" stop-color="#231f20"/><stop offset="0.75" stop-color="#231f20"/><stop offset="0.88" stop-color="#414042"/><stop offset="0.97" stop-color="#231f20"/></linearGradient></defs><path id="Path_93" data-name="Path 93" class="cls-1" d="M197.79,7c-1-3.53-5.29-6.39-9.58-6.38H117.38C121.66.57,126,3.7,127,7.24l54.81,172.39a6.65,6.65,0,0,0,6.33,4.62h64l7.12-10.37Z"/><path class="cls-2" d="M91.83.58A91.84,91.84,0,0,0,0,92.42H0a91.83,91.83,0,0,0,91.83,91.83h27.85l61-177.14c1-3.54,5.23-6.39,9.52-6.38Z"/><path class="cls-3" d="M331.67,0H281.8l0,.11L262.27,0c-4.29,0-8.55,2.84-9.52,6.37L188.6,184.25h63.54c13,0,14.7-12.07,14.7-12.07l15.74-45.91h49.09a63.14,63.14,0,0,0,63.14-63.13h0A63.14,63.14,0,0,0,331.67,0Z"/></svg>