<svg id="Layer_1_copy" data-name="Layer 1 copy" xmlns="http://www.w3.org/2000/svg" xmlns:xlink="http://www.w3.org/1999/xlink" viewBox="0 0 661.68 184.25"><defs><style>.cls-1{fill:url(#linear-gradient);}.cls-2{fill:#fff;}.cls-3{fill:url(#linear-gradient-2);}.cls-4{fill:url(#linear-gradient-3);}</style><linearGradient id="linear-gradient" x1="179.48" y1="24.29" x2="179.48" y2="156.61" gradientUnits="userSpaceOnUse"><stop offset="0" stop-color="#f57f20"/><stop offset="0.18" stop-color="#febf10"/><stop offset="0.51" stop-color="#f57f20"/><stop offset="0.59" stop-color="#f57f20"/><stop offset="0.92" stop-color="#ffe601"/><stop offset="1" stop-color="#febf10"/></linearGradient><linearGradient id="linear-gradient-2" x1="94.84" y1="8.99" x2="94.84" y2="175.79" gradientUnits="userSpaceOnUse"><stop offset="0" stop-color="#c12026"/><stop offset="0.01" stop-color="#d32027"/><stop offset="0.04" stop-color="#ef3a2a"/><stop offset="0.08" stop-color="#c12026"/><stop offset="0.35" stop-color="#d22027"/><stop offset="0.88" stop-color="#ed2024"/><stop offset="0.95" stop-color="#c12026"/></linearGradient><linearGradient id="linear-gradient-3" x1="273.38" y1="8.46" x2="273.38" y2="175.79" gradientUnits="userSpaceOnUse"><stop offset="0" stop-color="#231f20"/><stop offset="0.01" stop-color="#414042"/><stop offset="0.04" stop-color="#58595b"/><stop offset="0.08" stop-color="#231f20"/><stop offset="0.35" stop-color="#231f20"/><stop offset="0.75" stop-color="#231f20"/><stop offset="0.88" stop-color="#414042"/><stop offset="0.97" stop-color="#231f20"/></linearGradient></defs><g id="Path_93" data-name="Path 93"><path class="cls-1" d="M188.09,14.78c-.92-3.21-4.81-5.8-8.7-5.79H115.06c3.89,0,7.78,2.83,8.7,6l49.78,156.56a6,6,0,0,0,5.74,4.2h58.16l6.47-9.42Z"/><path class="cls-2" d="M242.69,180.73l-5.25,3.52H179.28a14.44,14.44,0,0,1-13.8-10.09L115.76,17.8a1.71,1.71,0,0,0-.7-.35h0V.53h64.39c7.49,0,14.59,4.93,16.68,11.56l57.25,155.46Zm-61.63-13.4H233l1.48-2.14L180.15,17.71a1.69,1.69,0,0,0-.74-.26h-46Z"/></g><path class="cls-3" d="M91.86,9a83.4,83.4,0,0,0-83.4,83.4h0a83.4,83.4,0,0,0,83.4,83.4h25.29L172.58,14.92c.88-3.21,4.75-5.8,8.64-5.79Z"/><path class="cls-2" d="M123.19,184.25H91.86A91.86,91.86,0,0,1,91.86.53h0l89.36.14h0l-.05,16.92a1.44,1.44,0,0,0-.66.22ZM91.85,17.45a74.94,74.94,0,0,0,0,149.88h19.26l51.6-149.77Z"/><path class="cls-4" d="M309.67,8.46H264.38l0,.1-17.7-.1c-3.89,0-7.76,2.58-8.64,5.79L179.74,175.79h57.7c11.79,0,13.35-11,13.35-11l14.3-41.69h44.58A57.34,57.34,0,0,0,367,65.8h0A57.34,57.34,0,0,0,309.67,8.46Z"/><path class="cls-2" d="M237.44,184.25h-57.7l-9-8.46L230,11.62C232,5,239.07,0,246.61,0h.06l13.08.07L264.38,0h45.29a65.8,65.8,0,1,1,0,131.6H271.13L259,167C257.71,173.43,251.85,184.25,237.44,184.25Zm-45.65-16.92h45.65c2.78,0,4.46-1.27,5-3.77l.09-.92.28-.55,16.26-47.42h50.62a48.88,48.88,0,1,0,0-97.75L270.6,17l-6.3.06-17.71-.1h0a1.58,1.58,0,0,0-.64.22Z"/><path d="M417.64,50.61a16.89,16.89,0,0,1-2.94,1.8,15,15,0,0,1-3.46,1.16,19.65,19.65,0,0,1-4.14.4,16.51,16.51,0,0,1-6.58-1.3,16.08,16.08,0,0,1-5.21-3.54,16.43,16.43,0,0,1-3.46-5.31,17.95,17.95,0,0,1,0-13.11,16.18,16.18,0,0,1,8.73-9,16.93,16.93,0,0,1,6.77-1.32,21,21,0,0,1,4.05.37,16.52,16.52,0,0,1,3.36,1.05,15.88,15.88,0,0,1,2.83,1.59,22.64,22.64,0,0,1,2.45,2l-3.66,4.22a17.94,17.94,0,0,0-4.12-2.92,10.78,10.78,0,0,0-5-1.11,10.17,10.17,0,0,0-4.28.9A10.49,10.49,0,0,0,399.59,29a10.82,10.82,0,0,0-2.22,3.63,12.52,12.52,0,0,0-.79,4.5,12.71,12.71,0,0,0,.79,4.52,11.15,11.15,0,0,0,2.22,3.68A10.4,10.4,0,0,0,403,47.83a10.17,10.17,0,0,0,4.28.9,10.79,10.79,0,0,0,5.1-1.13,20.41,20.41,0,0,0,4.21-3.08l3.67,3.7A21.54,21.54,0,0,1,417.64,50.61Z"/><path class="cls-2" d="M407.1,62.43a24.91,24.91,0,0,1-9.93-2A24.47,24.47,0,0,1,384,47a26.43,26.43,0,0,1,0-19.48A24.63,24.63,0,0,1,397.21,14a25.33,25.33,0,0,1,10.12-2,28.89,28.89,0,0,1,5.73.54,24.52,24.52,0,0,1,9.42,4,30.92,30.92,0,0,1,3.4,2.83l5.81,5.57L421.15,37.08l10.83,11L426.45,54a29.53,29.53,0,0,1-3.68,3.34h0A26,26,0,0,1,418.39,60a23.19,23.19,0,0,1-5.4,1.82A28.35,28.35,0,0,1,407.1,62.43Z"/><path d="M440.55,53.41v-3a10.39,10.39,0,0,1-3.2,2.5,10.06,10.06,0,0,1-4.72,1,11.06,11.06,0,0,1-3.34-.49A8.23,8.23,0,0,1,426.53,52a7.23,7.23,0,0,1-1.9-2.36,7.15,7.15,0,0,1-.71-3.27v-.09a7.63,7.63,0,0,1,.74-3.48,6.62,6.62,0,0,1,2.06-2.45,9.15,9.15,0,0,1,3.15-1.46,15.13,15.13,0,0,1,4-.49,20.27,20.27,0,0,1,6.76,1v-.6a4.87,4.87,0,0,0-1.55-3.9,6.65,6.65,0,0,0-4.47-1.34,14.91,14.91,0,0,0-3.71.42,24.86,24.86,0,0,0-3.28,1.11l-1.53-4.49a25.29,25.29,0,0,1,4.17-1.49,20.63,20.63,0,0,1,5.14-.55c3.64,0,6.35.9,8.11,2.71s2.64,4.35,2.64,7.62v14.5ZM440.69,43a13.65,13.65,0,0,0-2.53-.69,16,16,0,0,0-3.08-.28,7.19,7.19,0,0,0-4.12,1A3.32,3.32,0,0,0,429.48,46v.09a3,3,0,0,0,1.36,2.69,5.82,5.82,0,0,0,3.36.92,8.45,8.45,0,0,0,2.57-.37,6.34,6.34,0,0,0,2.06-1,4.71,4.71,0,0,0,1.37-1.62,4.62,4.62,0,0,0,.49-2.11Z"/><path class="cls-2" d="M432.63,62.38a19.89,19.89,0,0,1-5.84-.86,16.74,16.74,0,0,1-5.56-2.93,15.48,15.48,0,0,1-5.78-12.22A16.16,16.16,0,0,1,417.09,39a14.46,14.46,0,0,1,1.89-2.9l-3.41-10,7-3.18a34.77,34.77,0,0,1,5.54-2,28.59,28.59,0,0,1,7.28-.83c6,0,10.76,1.77,14.17,5.26,2.3,2.36,5,6.63,5,13.53v23H437.26A20.34,20.34,0,0,1,432.63,62.38Zm2.23-20.32Zm0,0Z"/><path d="M458.43,53.41h-5.65V29h5.65v5.51A10.84,10.84,0,0,1,461.72,30a7.91,7.91,0,0,1,5.38-1.53v5.93h-.33a9.2,9.2,0,0,0-3.38.61,7.06,7.06,0,0,0-2.64,1.8,8.39,8.39,0,0,0-1.72,3,13.6,13.6,0,0,0-.6,4.24Z"/><path class="cls-2" d="M444.32,61.87V20.49h18.17a18,18,0,0,1,5-.46l8.1.35v22.5H467a7.8,7.8,0,0,0-.09,1.22V61.87Z"/><path d="M478.73,45.76a3.06,3.06,0,0,0,.78,2.34,3.2,3.2,0,0,0,2.23.73,7.62,7.62,0,0,0,3.47-.84v4.59a9.4,9.4,0,0,1-2.27.92,10.55,10.55,0,0,1-2.78.33,10.32,10.32,0,0,1-2.84-.37,5.81,5.81,0,0,1-2.26-1.21A5.31,5.31,0,0,1,473.59,50a9.59,9.59,0,0,1-.52-3.41V33.72H470V29h3.1V22.23h5.66V29h6.57v4.77h-6.57Z"/><path class="cls-2" d="M480.16,62.29A18.84,18.84,0,0,1,475,61.6a14.07,14.07,0,0,1-5.51-3A13.64,13.64,0,0,1,465.66,53a18,18,0,0,1-1.05-6.38V42.18h-3.1V20.49h3.1V13.77h22.58v6.72h6.58V42.18h-.1V57.51l-4.29,2.43a18.25,18.25,0,0,1-4.24,1.73A19.13,19.13,0,0,1,480.16,62.29Z"/><path d="M496.89,47.78a6.92,6.92,0,0,0,4.63,1.6,8.22,8.22,0,0,0,3.61-.74,11.65,11.65,0,0,0,3-2.18l3.29,2.92a13.76,13.76,0,0,1-4.2,3.34A12.61,12.61,0,0,1,501.43,54a13,13,0,0,1-4.94-.93,11.85,11.85,0,0,1-6.65-6.6,13.62,13.62,0,0,1-1-5.21,14,14,0,0,1,.88-5,12.59,12.59,0,0,1,2.48-4.06A12.18,12.18,0,0,1,496,29.46a11.22,11.22,0,0,1,4.82-1A11.65,11.65,0,0,1,506,29.5a10.61,10.61,0,0,1,3.66,2.88,12.61,12.61,0,0,1,2.2,4.21,17.23,17.23,0,0,1,.74,5c0,.25,0,.5,0,.74s0,.51-.07.79h-18A7.35,7.35,0,0,0,496.89,47.78ZM507,39.47a9.85,9.85,0,0,0-.6-2.53,6.38,6.38,0,0,0-1.26-2,6.11,6.11,0,0,0-1.87-1.37,5.94,5.94,0,0,0-2.48-.5,5.66,5.66,0,0,0-4.29,1.78,8.12,8.12,0,0,0-2.06,4.66Z"/><path class="cls-2" d="M501.43,62.43a21.63,21.63,0,0,1-8.11-1.54A20.37,20.37,0,0,1,482,49.69a22.06,22.06,0,0,1-1.62-8.46,22.34,22.34,0,0,1,1.43-8A21,21,0,0,1,486,26.49a20.56,20.56,0,0,1,6.42-4.7A19.72,19.72,0,0,1,500.83,20a20,20,0,0,1,8.8,1.91,19.06,19.06,0,0,1,6.56,5.17,21.08,21.08,0,0,1,3.7,7A25.73,25.73,0,0,1,521,41.64c0,.41,0,.82,0,1.22s-.06.83-.1,1.23l-.24,2.14,2.6,2.3-5.33,6.31a22.1,22.1,0,0,1-6.79,5.4A21,21,0,0,1,501.43,62.43Zm0-21.4Z"/><path d="M518.29,25.19V19.87h6.07v5.32Zm.23,28.22V29h5.66V53.41Z"/><polygon class="cls-2" points="532.64 61.87 510.06 61.87 510.06 33.66 509.83 33.66 509.83 11.4 532.82 11.4 532.82 33.66 532.64 33.66 532.64 61.87"/><path d="M537.1,53.41h-5.65V29h5.65v5.51A10.93,10.93,0,0,1,540.39,30a7.92,7.92,0,0,1,5.38-1.53v5.93h-.33a9.2,9.2,0,0,0-3.38.61,7.06,7.06,0,0,0-2.64,1.8,8.23,8.23,0,0,0-1.71,3,13.3,13.3,0,0,0-.61,4.24Z"/><path class="cls-2" d="M523,61.87V20.49h18.17a18,18,0,0,1,5-.46l8.1.35v22.5h-8.58a8.1,8.1,0,0,0-.08,1.22V61.87Z"/><path d="M564.4,53.41v-3a10.63,10.63,0,0,1-3.2,2.5,10.08,10.08,0,0,1-4.73,1,11,11,0,0,1-3.33-.49A8.13,8.13,0,0,1,550.38,52a7,7,0,0,1-2.62-5.63v-.09a7.76,7.76,0,0,1,.74-3.48,6.71,6.71,0,0,1,2.06-2.45,9.15,9.15,0,0,1,3.15-1.46,15.2,15.2,0,0,1,4-.49,21.26,21.26,0,0,1,3.77.28,21.77,21.77,0,0,1,3,.74v-.6a4.9,4.9,0,0,0-1.55-3.9,6.68,6.68,0,0,0-4.47-1.34,14.85,14.85,0,0,0-3.71.42,25,25,0,0,0-3.29,1.11l-1.53-4.49a25.62,25.62,0,0,1,4.17-1.49,20.69,20.69,0,0,1,5.14-.55q5.47,0,8.11,2.71c1.76,1.8,2.64,4.35,2.64,7.62v14.5ZM564.53,43a13.76,13.76,0,0,0-2.52-.69,16,16,0,0,0-3.08-.28,7.23,7.23,0,0,0-4.13,1A3.32,3.32,0,0,0,553.32,46v.09a3.05,3.05,0,0,0,1.37,2.69,5.82,5.82,0,0,0,3.36.92,8.49,8.49,0,0,0,2.57-.37,6.44,6.44,0,0,0,2.06-1,4.83,4.83,0,0,0,1.37-1.62,4.61,4.61,0,0,0,.48-2.11Z"/><path class="cls-2" d="M556.47,62.38a19.87,19.87,0,0,1-5.83-.86,16.88,16.88,0,0,1-5.57-2.93,15.44,15.44,0,0,1-5.77-12.22A16.16,16.16,0,0,1,540.94,39a14.87,14.87,0,0,1,1.88-2.9l-3.41-10,7-3.18a34.66,34.66,0,0,1,5.53-2,28.7,28.7,0,0,1,7.28-.83c6,0,10.77,1.77,14.17,5.26,2.3,2.36,5,6.63,5,13.53v23H561.11A20.43,20.43,0,0,1,556.47,62.38Zm2.23-20.32Zm0,0Z"/><path d="M414.65,76.58h5.65V109h-4.76L397.69,85.94V109H392V76.58h5.27L414.65,99Z"/><polygon class="cls-2" points="411.39 117.47 406.15 110.71 406.15 117.47 383.58 117.47 383.58 68.12 401.46 68.12 406.19 74.23 406.19 68.12 428.76 68.12 428.76 117.47 411.39 117.47"/><path d="M443,109v-3a10.51,10.51,0,0,1-3.2,2.5,10.08,10.08,0,0,1-4.73,1,11,11,0,0,1-3.33-.49,8.23,8.23,0,0,1-2.76-1.43,7,7,0,0,1-2.62-5.63v-.09a7.63,7.63,0,0,1,.75-3.48A6.62,6.62,0,0,1,429.13,96a9.15,9.15,0,0,1,3.15-1.46,15.13,15.13,0,0,1,4-.49A20.27,20.27,0,0,1,443,95v-.6a4.87,4.87,0,0,0-1.55-3.9A6.65,6.65,0,0,0,437,89.18a14.85,14.85,0,0,0-3.71.42A25.49,25.49,0,0,0,430,90.71l-1.53-4.49a25.39,25.39,0,0,1,4.18-1.49,20.63,20.63,0,0,1,5.14-.55c3.64,0,6.35.9,8.11,2.71s2.64,4.35,2.64,7.62V109Zm.14-10.38a13.88,13.88,0,0,0-2.53-.69,16,16,0,0,0-3.08-.28,7.17,7.17,0,0,0-4.12,1,3.33,3.33,0,0,0-1.49,2.92v.09a3.06,3.06,0,0,0,1.37,2.69,5.82,5.82,0,0,0,3.36.92,8.45,8.45,0,0,0,2.57-.37,6.34,6.34,0,0,0,2.06-1,4.71,4.71,0,0,0,1.37-1.62,4.62,4.62,0,0,0,.49-2.11Z"/><path class="cls-2" d="M435,118a19.87,19.87,0,0,1-5.83-.86,16.74,16.74,0,0,1-5.56-2.93A15.48,15.48,0,0,1,417.86,102a16.16,16.16,0,0,1,1.64-7.36,15.25,15.25,0,0,1,1.88-2.91l-3.4-10,7-3.17a34.77,34.77,0,0,1,5.54-2,28.59,28.59,0,0,1,7.28-.83c6,0,10.76,1.77,14.17,5.26,2.3,2.36,5,6.63,5,13.53v23H439.67A20.43,20.43,0,0,1,435,118Z"/><path d="M472.43,108.29a12.14,12.14,0,0,1-5.89,1.28,12.71,12.71,0,0,1-5.05-1,12.24,12.24,0,0,1-4-2.73,12.56,12.56,0,0,1-3.62-9,13,13,0,0,1,.95-5,12.83,12.83,0,0,1,2.67-4.07,12.35,12.35,0,0,1,4-2.78,14,14,0,0,1,10.85.14,13.59,13.59,0,0,1,4,3L472.89,92a12.77,12.77,0,0,0-2.76-2.2,6.89,6.89,0,0,0-3.59-.86,6.55,6.55,0,0,0-2.83.62,7,7,0,0,0-2.22,1.7A8.11,8.11,0,0,0,460,93.74a8.71,8.71,0,0,0-.53,3,8.93,8.93,0,0,0,.53,3.1,7.75,7.75,0,0,0,1.51,2.51,7.34,7.34,0,0,0,2.31,1.69,7.08,7.08,0,0,0,3,.62,6.88,6.88,0,0,0,3.5-.86,13.46,13.46,0,0,0,2.85-2.2l3.38,3.34A15.52,15.52,0,0,1,472.43,108.29Z"/><path class="cls-2" d="M466.54,118a21.07,21.07,0,0,1-8.39-1.69,20.82,20.82,0,0,1-6.73-4.58,21.19,21.19,0,0,1-6-14.89,21.3,21.3,0,0,1,6-14.92,22,22,0,0,1,24.78-4.31,22.19,22.19,0,0,1,6.47,4.94l5.19,5.74-7.69,8.31,8.06,8-5.31,6a24.14,24.14,0,0,1-6.38,5.12h0A20.44,20.44,0,0,1,466.54,118Z"/><path d="M481.74,80.79V75.47h6.07v5.32ZM482,109V84.55h5.65V109Z"/><polygon class="cls-2" points="496.08 117.47 473.51 117.47 473.51 89.25 473.28 89.25 473.28 67 496.27 67 496.27 89.25 496.08 89.25 496.08 117.47"/><path d="M518.64,101.74a12.71,12.71,0,0,1-6.88,6.81,13.89,13.89,0,0,1-10.4,0,12.72,12.72,0,0,1-6.81-16.68,12.71,12.71,0,0,1,2.73-4.08A13.12,13.12,0,0,1,506.62,84a13.47,13.47,0,0,1,5.21,1,12.6,12.6,0,0,1,6.84,6.79,12.86,12.86,0,0,1,1,5A12.35,12.35,0,0,1,518.64,101.74Zm-5.21-7.93a8,8,0,0,0-1.54-2.52,7.42,7.42,0,0,0-8.38-1.72,7.08,7.08,0,0,0-2.32,1.7,7.27,7.27,0,0,0-1.48,2.47,8.94,8.94,0,0,0-.5,3,8.58,8.58,0,0,0,.55,3.08,7.64,7.64,0,0,0,1.54,2.53,7.39,7.39,0,0,0,2.35,1.69,7.08,7.08,0,0,0,3,.62,7.37,7.37,0,0,0,3.06-.62,7.2,7.2,0,0,0,2.33-1.69,7.55,7.55,0,0,0,1.47-2.48,8.94,8.94,0,0,0,.5-3A8.43,8.43,0,0,0,513.43,93.81Z"/><path class="cls-2" d="M506.53,118a21.84,21.84,0,0,1-8.43-1.65,21,21,0,0,1-11.36-11.27,21.37,21.37,0,0,1,0-16.54,21.16,21.16,0,0,1,4.53-6.74,21.46,21.46,0,0,1,15.32-6.25,21.93,21.93,0,0,1,8.47,1.64,21.31,21.31,0,0,1,6.85,4.57,21,21,0,0,1,4.53,6.75,21.29,21.29,0,0,1,1.63,8.24,21.17,21.17,0,0,1-6.21,15,21.33,21.33,0,0,1-6.83,4.57A21.79,21.79,0,0,1,506.53,118Z"/><path d="M531,109h-5.65V84.55H531v3.84a12.66,12.66,0,0,1,1.32-1.66,8.54,8.54,0,0,1,3.74-2.34,8.43,8.43,0,0,1,2.56-.35A8.12,8.12,0,0,1,545,86.59a9.92,9.92,0,0,1,2.27,6.85V109h-5.65V95.14a6.5,6.5,0,0,0-1.36-4.41,4.82,4.82,0,0,0-3.83-1.55,5.17,5.17,0,0,0-4,1.6A6.17,6.17,0,0,0,531,95.24Z"/><path class="cls-2" d="M555.76,117.47H516.88V76.09h17.45a17.43,17.43,0,0,1,4.28-.51A16.39,16.39,0,0,1,551.36,81a18.25,18.25,0,0,1,4.4,12.47Z"/><path d="M569,109v-3a10.51,10.51,0,0,1-3.2,2.5,10.06,10.06,0,0,1-4.72,1,11.06,11.06,0,0,1-3.34-.49A8.23,8.23,0,0,1,555,107.6a7.23,7.23,0,0,1-1.9-2.36,7.15,7.15,0,0,1-.72-3.27v-.09a7.63,7.63,0,0,1,.75-3.48A6.62,6.62,0,0,1,555.2,96a9.15,9.15,0,0,1,3.15-1.46,15.13,15.13,0,0,1,4-.49,20.27,20.27,0,0,1,6.76,1v-.6a4.87,4.87,0,0,0-1.55-3.9,6.65,6.65,0,0,0-4.47-1.34,14.91,14.91,0,0,0-3.71.42,25.49,25.49,0,0,0-3.29,1.11l-1.52-4.49a25.29,25.29,0,0,1,4.17-1.49,20.63,20.63,0,0,1,5.14-.55c3.64,0,6.35.9,8.11,2.71s2.64,4.35,2.64,7.62V109Zm.14-10.38a13.65,13.65,0,0,0-2.53-.69,16,16,0,0,0-3.08-.28,7.19,7.19,0,0,0-4.12,1A3.32,3.32,0,0,0,558,101.6v.09a3.05,3.05,0,0,0,1.36,2.69,5.82,5.82,0,0,0,3.36.92,8.45,8.45,0,0,0,2.57-.37,6.34,6.34,0,0,0,2.06-1,4.71,4.71,0,0,0,1.37-1.62,4.62,4.62,0,0,0,.49-2.11Z"/><path class="cls-2" d="M561.11,118a19.89,19.89,0,0,1-5.84-.86,16.74,16.74,0,0,1-5.56-2.93A15.48,15.48,0,0,1,543.93,102a16.16,16.16,0,0,1,1.64-7.36,14.82,14.82,0,0,1,1.89-2.91l-3.41-10,7-3.17a34.77,34.77,0,0,1,5.54-2,28.59,28.59,0,0,1,7.28-.83c6,0,10.76,1.77,14.17,5.26,2.3,2.36,5,6.63,5,13.53v23H565.74A20.4,20.4,0,0,1,561.11,118Z"/><path d="M581.58,109V75.19h5.66V109Z"/><rect class="cls-2" x="573.12" y="66.73" width="22.58" height="50.75"/><path d="M416.13,147.88a9.91,9.91,0,0,1-2.79,3.48,12.31,12.31,0,0,1-4.13,2.11,17.34,17.34,0,0,1-5.06.72h-6.46v10.42H392V132.18h12.79a16.15,16.15,0,0,1,5.12.76,10.88,10.88,0,0,1,3.89,2.2,9.76,9.76,0,0,1,2.45,3.43,11.32,11.32,0,0,1,.86,4.5A10.8,10.8,0,0,1,416.13,147.88Zm-6.68-9.09a8.14,8.14,0,0,0-5.11-1.47h-6.65V149h6.65a7.68,7.68,0,0,0,5.14-1.6,5.33,5.33,0,0,0,1.88-4.26A5.19,5.19,0,0,0,409.45,138.79Z"/><path class="cls-2" d="M406.15,173.07H383.58V123.72h21.25a24.46,24.46,0,0,1,7.79,1.2,19.28,19.28,0,0,1,6.87,3.93,18.09,18.09,0,0,1,4.57,6.37,19.71,19.71,0,0,1,1.55,7.85,19.28,19.28,0,0,1-1.88,8.54h0a18.37,18.37,0,0,1-5.15,6.4,20.92,20.92,0,0,1-6.92,3.55,24.28,24.28,0,0,1-5.51,1Z"/><path d="M428,164.61h-5.65V140.15H428v5.51a10.78,10.78,0,0,1,3.29-4.45,7.91,7.91,0,0,1,5.38-1.53v5.93h-.33a9.2,9.2,0,0,0-3.38.61,7.06,7.06,0,0,0-2.64,1.8,8.39,8.39,0,0,0-1.72,3,13.6,13.6,0,0,0-.6,4.24Z"/><path class="cls-2" d="M413.88,173.07V131.69l31.24-.11v22.49h-8.58c0,.27-.09,19-.09,19Z"/><path d="M464.39,157.34a13,13,0,0,1-2.74,4,12.83,12.83,0,0,1-4.14,2.76,13.92,13.92,0,0,1-10.41,0,12.56,12.56,0,0,1-4.12-2.73,12.71,12.71,0,0,1-2.71-4,12.51,12.51,0,0,1-1-4.94,12.65,12.65,0,0,1,1-5,12.7,12.7,0,0,1,6.86-6.83,13.12,13.12,0,0,1,5.21-1,13.48,13.48,0,0,1,5.22,1,12.75,12.75,0,0,1,4.12,2.74,12.89,12.89,0,0,1,2.69,14Zm-5.21-7.93a8,8,0,0,0-1.54-2.52,7,7,0,0,0-5.37-2.34,7.2,7.2,0,0,0-3,.62,7,7,0,0,0-2.33,1.7,7.24,7.24,0,0,0-1.47,2.47,8.94,8.94,0,0,0-.51,3,8.58,8.58,0,0,0,.55,3.08,7.68,7.68,0,0,0,1.55,2.52,7.34,7.34,0,0,0,2.34,1.7,7.15,7.15,0,0,0,3,.62,7.38,7.38,0,0,0,3.07-.62,7.21,7.21,0,0,0,3.79-4.17,8.94,8.94,0,0,0,.51-3A8.43,8.43,0,0,0,459.18,149.41Z"/><path class="cls-2" d="M452.27,173.63a21.79,21.79,0,0,1-8.42-1.65,21.21,21.21,0,0,1-11.34-27.81,21.33,21.33,0,0,1,4.53-6.74,22.16,22.16,0,0,1,23.79-4.61,21.23,21.23,0,0,1,6.85,4.56,21.34,21.34,0,0,1,4.48,23.3,21.18,21.18,0,0,1-11.35,11.26A21.87,21.87,0,0,1,452.27,173.63Z"/><path d="M484.38,140.33V145H478v19.65h-5.66V145h-3.1v-4.67h3.1v-1.77c0-2.71.66-4.73,2-6a7.58,7.58,0,0,1,5.6-2,15.51,15.51,0,0,1,2.54.18,17.81,17.81,0,0,1,2,.47v4.72c-.56-.18-1.09-.33-1.6-.44a8.82,8.82,0,0,0-1.69-.16q-3.25,0-3.25,3.71v1.34Z"/><path class="cls-2" d="M486.45,173.07H463.87V153.43h-3.1V131.82H465a14.34,14.34,0,0,1,3.35-5.31,15.77,15.77,0,0,1,11.59-4.46,24,24,0,0,1,4,.3,27.67,27.67,0,0,1,3,.7l6,1.82v22.76h-.05v5.81h-6.39Z"/><path d="M488.6,136.39v-5.32h6.07v5.32Zm.23,28.22V140.15h5.65v24.46Z"/><polygon class="cls-2" points="502.94 173.07 480.37 173.07 480.37 144.85 480.13 144.85 480.13 122.6 503.13 122.6 503.13 144.85 502.94 144.85 502.94 173.07"/><path d="M518.53,160.76a6.65,6.65,0,0,1-1.93,2.39,8.71,8.71,0,0,1-2.89,1.44,12.83,12.83,0,0,1-3.57.48,16.68,16.68,0,0,1-5.35-.92,17.14,17.14,0,0,1-5-2.74l2.5-3.8a16.24,16.24,0,0,0,4.06,2.25,11.34,11.34,0,0,0,4,.77,4.71,4.71,0,0,0,2.8-.72,2.25,2.25,0,0,0,1-1.93v-.09a1.8,1.8,0,0,0-.44-1.2,4.08,4.08,0,0,0-1.21-.91,10.42,10.42,0,0,0-1.76-.69l-2.06-.63c-.89-.27-1.8-.58-2.71-.92a9.74,9.74,0,0,1-2.45-1.32,6.73,6.73,0,0,1-1.79-2,5.71,5.71,0,0,1-.69-2.94v-.09a6.92,6.92,0,0,1,2.52-5.47,8.33,8.33,0,0,1,2.78-1.48,11.16,11.16,0,0,1,3.41-.51,15.75,15.75,0,0,1,4.68.74,17.27,17.27,0,0,1,4.31,2l-2.23,4a18.67,18.67,0,0,0-3.57-1.69,10.37,10.37,0,0,0-3.33-.62,4.11,4.11,0,0,0-2.53.69,2.14,2.14,0,0,0-.9,1.76v.1a1.57,1.57,0,0,0,.46,1.13,4.63,4.63,0,0,0,1.23.88,14.14,14.14,0,0,0,1.76.74c.67.23,1.35.46,2.06.67.9.28,1.79.61,2.69,1a11,11,0,0,1,2.43,1.36,6.87,6.87,0,0,1,1.79,2,5.47,5.47,0,0,1,.69,2.83v.09A7.69,7.69,0,0,1,518.53,160.76Z"/><path class="cls-2" d="M510.14,173.53a25.12,25.12,0,0,1-8.08-1.37,25.88,25.88,0,0,1-7.51-4.08l-6.15-4.8,5.88-8.92a14.12,14.12,0,0,1-1.77-7.08A15.63,15.63,0,0,1,494,140.4a15.31,15.31,0,0,1,4.1-5.21,16.49,16.49,0,0,1,5.59-3,22,22,0,0,1,13.18.22,25.17,25.17,0,0,1,6.47,3.07l6.5,4.34-5,8.95a13.68,13.68,0,0,1,2.81,8.53,16.09,16.09,0,0,1-1.54,7.16h0a15,15,0,0,1-4.36,5.39,17,17,0,0,1-5.7,2.87A21.1,21.1,0,0,1,510.14,173.53Z"/><path d="M541.23,160.76a6.52,6.52,0,0,1-1.92,2.39,8.85,8.85,0,0,1-2.9,1.44,12.83,12.83,0,0,1-3.57.48,16.68,16.68,0,0,1-5.35-.92,17.09,17.09,0,0,1-5-2.74l2.5-3.8a16.19,16.19,0,0,0,4,2.25,11.43,11.43,0,0,0,4,.77,4.75,4.75,0,0,0,2.81-.72,2.26,2.26,0,0,0,1-1.93v-.09a1.8,1.8,0,0,0-.44-1.2,4,4,0,0,0-1.2-.91,10.77,10.77,0,0,0-1.76-.69l-2.07-.63c-.89-.27-1.8-.58-2.71-.92a9.74,9.74,0,0,1-2.45-1.32,6.73,6.73,0,0,1-1.79-2,5.71,5.71,0,0,1-.69-2.94v-.09a6.89,6.89,0,0,1,2.53-5.47,8.14,8.14,0,0,1,2.78-1.48,11.1,11.1,0,0,1,3.4-.51,15.7,15.7,0,0,1,4.68.74,17.1,17.1,0,0,1,4.31,2l-2.23,4a18.88,18.88,0,0,0-3.56-1.69,10.48,10.48,0,0,0-3.34-.62,4.06,4.06,0,0,0-2.52.69,2.13,2.13,0,0,0-.91,1.76v.1a1.58,1.58,0,0,0,.47,1.13,4.41,4.41,0,0,0,1.22.88,14.14,14.14,0,0,0,1.76.74c.67.23,1.36.46,2.07.67.89.28,1.79.61,2.68,1a11.29,11.29,0,0,1,2.44,1.36,6.83,6.83,0,0,1,1.78,2,5.47,5.47,0,0,1,.7,2.83v.09A7.69,7.69,0,0,1,541.23,160.76Z"/><path class="cls-2" d="M532.84,173.53a25.12,25.12,0,0,1-8.08-1.37,25.83,25.83,0,0,1-7.5-4.08l-6.15-4.8,5.87-8.92a14.12,14.12,0,0,1-1.77-7.08,15.5,15.5,0,0,1,1.52-6.88,15.16,15.16,0,0,1,4.09-5.21,16.59,16.59,0,0,1,5.59-3,22,22,0,0,1,13.18.22,25,25,0,0,1,6.47,3.07l6.51,4.34-5,8.95a16,16,0,0,1,.92,1.35,13.76,13.76,0,0,1,1.9,7.18,16.23,16.23,0,0,1-1.54,7.16h0a15.09,15.09,0,0,1-4.37,5.39,17,17,0,0,1-5.7,2.87A21,21,0,0,1,532.84,173.53Z"/><path d="M547.72,136.39v-5.32h6.07v5.32Zm.23,28.22V140.15h5.65v24.46Z"/><polygon class="cls-2" points="562.06 173.07 539.49 173.07 539.49 144.85 539.26 144.85 539.26 122.6 562.25 122.6 562.25 144.85 562.06 144.85 562.06 173.07"/><path d="M584.62,157.34a12.71,12.71,0,0,1-6.88,6.81,13.89,13.89,0,0,1-10.4,0,12.46,12.46,0,0,1-4.12-2.73,12.46,12.46,0,0,1-3.69-9,12.48,12.48,0,0,1,1-5,12.71,12.71,0,0,1,2.73-4.08,12.87,12.87,0,0,1,4.13-2.75,13.09,13.09,0,0,1,5.21-1,13.47,13.47,0,0,1,5.21,1,12.75,12.75,0,0,1,4.12,2.74,12.66,12.66,0,0,1,3.69,9A12.35,12.35,0,0,1,584.62,157.34Zm-5.21-7.93a8,8,0,0,0-1.54-2.52,7.42,7.42,0,0,0-8.38-1.72,7.08,7.08,0,0,0-2.33,1.7,7.4,7.4,0,0,0-1.47,2.47,8.94,8.94,0,0,0-.51,3,8.58,8.58,0,0,0,.56,3.08,7.5,7.5,0,0,0,1.54,2.52,7.27,7.27,0,0,0,2.35,1.7,7.08,7.08,0,0,0,3,.62,7.37,7.37,0,0,0,3.06-.62A7,7,0,0,0,578,158a7.27,7.27,0,0,0,1.48-2.47,9.19,9.19,0,0,0,.5-3A8.43,8.43,0,0,0,579.41,149.41Z"/><path class="cls-2" d="M572.5,173.63a21.83,21.83,0,0,1-8.42-1.65,21,21,0,0,1-11.36-11.27,20.8,20.8,0,0,1-1.65-8.24,21.07,21.07,0,0,1,1.67-8.3,21.22,21.22,0,0,1,11.33-11.3,21.64,21.64,0,0,1,8.53-1.69,21.93,21.93,0,0,1,8.47,1.64,21.45,21.45,0,0,1,6.85,4.56,21.18,21.18,0,0,1,6.16,15,20.84,20.84,0,0,1-1.69,8.3,21.19,21.19,0,0,1-4.52,6.69,21.44,21.44,0,0,1-6.83,4.57A21.8,21.8,0,0,1,572.5,173.63Z"/><path d="M597,164.61h-5.65V140.15H597V144a13.26,13.26,0,0,1,1.32-1.65A8.54,8.54,0,0,1,602,140a8.43,8.43,0,0,1,2.56-.35,8.16,8.16,0,0,1,6.42,2.54,10,10,0,0,1,2.27,6.86v15.57h-5.65V150.74a6.5,6.5,0,0,0-1.36-4.41,4.83,4.83,0,0,0-3.84-1.55,5.21,5.21,0,0,0-3.95,1.59,6.24,6.24,0,0,0-1.51,4.47Z"/><path class="cls-2" d="M621.74,173.07H582.85V131.69h17.46a17.43,17.43,0,0,1,4.28-.51,16.44,16.44,0,0,1,12.75,5.38,18.3,18.3,0,0,1,4.4,12.48Z"/><path d="M635,164.61v-3a10.51,10.51,0,0,1-3.2,2.5,10.08,10.08,0,0,1-4.73,1,11,11,0,0,1-3.33-.49A8.23,8.23,0,0,1,621,163.2a7,7,0,0,1-2.62-5.63v-.1a7.74,7.74,0,0,1,.74-3.47,6.86,6.86,0,0,1,2.07-2.46,9.33,9.33,0,0,1,3.15-1.45,15.13,15.13,0,0,1,4-.49,20.38,20.38,0,0,1,6.76,1V150a4.87,4.87,0,0,0-1.55-3.9,6.65,6.65,0,0,0-4.47-1.34,14.85,14.85,0,0,0-3.71.42,24,24,0,0,0-3.29,1.11l-1.53-4.5a26.31,26.31,0,0,1,4.18-1.48,20.63,20.63,0,0,1,5.14-.55c3.64,0,6.35.9,8.11,2.71s2.64,4.34,2.64,7.62v14.5Zm.14-10.38a13.88,13.88,0,0,0-2.53-.69,16,16,0,0,0-3.08-.28,7.17,7.17,0,0,0-4.12,1,3.33,3.33,0,0,0-1.49,2.92v.09A3.06,3.06,0,0,0,625.3,160a5.82,5.82,0,0,0,3.36.92,8.45,8.45,0,0,0,2.57-.37,6.34,6.34,0,0,0,2.06-1,4.71,4.71,0,0,0,1.37-1.62,4.62,4.62,0,0,0,.49-2.11Z"/><path class="cls-2" d="M627.08,173.58a19.87,19.87,0,0,1-5.83-.86,16.74,16.74,0,0,1-5.56-2.93,15.48,15.48,0,0,1-5.78-12.22,16.13,16.13,0,0,1,1.64-7.36,15.25,15.25,0,0,1,1.88-2.91l-3.4-10,7-3.17a35.46,35.46,0,0,1,5.54-2,29,29,0,0,1,7.28-.83c6,0,10.76,1.78,14.17,5.27,2.3,2.36,5,6.63,5,13.53v23H631.72A20.43,20.43,0,0,1,627.08,173.58Zm2.24-20.33Zm0,0Z"/><path d="M647.56,164.61V130.79h5.66v33.82Z"/><rect class="cls-2" x="639.1" y="122.33" width="22.58" height="50.75"/><path id="Path_93-2" data-name="Path 93" class="cls-1" d="M188.09,14.78c-.92-3.21-4.81-5.8-8.7-5.79H115.06c3.89,0,7.78,2.83,8.7,6l49.78,156.56a6,6,0,0,0,5.74,4.2h58.16l6.47-9.42Z"/><path class="cls-3" d="M91.86,9a83.4,83.4,0,0,0-83.4,83.4h0a83.4,83.4,0,0,0,83.4,83.4h25.29L172.58,14.92c.88-3.21,4.75-5.8,8.64-5.79Z"/><path class="cls-4" d="M309.67,8.46H264.38l0,.1-17.7-.1c-3.89,0-7.76,2.58-8.64,5.79L179.74,175.79h57.7c11.79,0,13.35-11,13.35-11l14.3-41.69h44.58A57.34,57.34,0,0,0,367,65.8h0A57.34,57.34,0,0,0,309.67,8.46Z"/><path d="M417.64,50.61a18.36,18.36,0,0,1-2.94,1.8,15,15,0,0,1-3.46,1.16,20.34,20.34,0,0,1-4.14.4,16.51,16.51,0,0,1-6.58-1.3,16,16,0,0,1-8.67-8.85,17.95,17.95,0,0,1,0-13.11,16.41,16.41,0,0,1,3.45-5.35,16.18,16.18,0,0,1,5.28-3.62,16.93,16.93,0,0,1,6.77-1.32,21,21,0,0,1,4.05.37,17.17,17.17,0,0,1,3.36,1,16.57,16.57,0,0,1,2.83,1.6,22.64,22.64,0,0,1,2.45,2l-3.66,4.22a18.16,18.16,0,0,0-4.12-2.92,10.75,10.75,0,0,0-5-1.11,10.17,10.17,0,0,0-4.28.9A10.49,10.49,0,0,0,399.59,29a10.82,10.82,0,0,0-2.22,3.63,12.52,12.52,0,0,0-.79,4.5,12.75,12.75,0,0,0,.79,4.52,11.15,11.15,0,0,0,2.22,3.68A10.4,10.4,0,0,0,403,47.83a10.17,10.17,0,0,0,4.28.9,10.79,10.79,0,0,0,5.1-1.13,20.11,20.11,0,0,0,4.21-3.09l3.66,3.71A20.75,20.75,0,0,1,417.64,50.61Z"/><path d="M440.55,53.41v-3a10.39,10.39,0,0,1-3.2,2.5,10.06,10.06,0,0,1-4.72,1,11.06,11.06,0,0,1-3.34-.49A8.23,8.23,0,0,1,426.53,52a7,7,0,0,1-2.62-5.63v-.09a7.63,7.63,0,0,1,.75-3.48,6.73,6.73,0,0,1,2.06-2.46,9.33,9.33,0,0,1,3.15-1.45,15.13,15.13,0,0,1,4-.49,20.27,20.27,0,0,1,6.76,1v-.6a4.87,4.87,0,0,0-1.55-3.9,6.65,6.65,0,0,0-4.47-1.34,14.77,14.77,0,0,0-3.7.42,25.11,25.11,0,0,0-3.3,1.11l-1.52-4.5a26.2,26.2,0,0,1,4.17-1.48,20.63,20.63,0,0,1,5.14-.55c3.64,0,6.35.9,8.11,2.71s2.64,4.34,2.64,7.62v14.5ZM440.69,43a13.65,13.65,0,0,0-2.53-.69,16,16,0,0,0-3.08-.28,7.19,7.19,0,0,0-4.12,1A3.33,3.33,0,0,0,429.47,46v.09a3.06,3.06,0,0,0,1.37,2.69,5.82,5.82,0,0,0,3.36.92,8.45,8.45,0,0,0,2.57-.37,6.34,6.34,0,0,0,2.06-1,4.71,4.71,0,0,0,1.37-1.62,4.49,4.49,0,0,0,.49-2.11Z"/><path d="M458.43,53.41h-5.65V29h5.65v5.51A10.78,10.78,0,0,1,461.72,30a7.91,7.91,0,0,1,5.38-1.53v5.93h-.33a9.2,9.2,0,0,0-3.38.61,7.06,7.06,0,0,0-2.64,1.8,8.23,8.23,0,0,0-1.71,3,13.3,13.3,0,0,0-.61,4.24Z"/><path d="M478.72,45.76a3.06,3.06,0,0,0,.79,2.34,3.2,3.2,0,0,0,2.23.72,7.61,7.61,0,0,0,3.47-.83v4.59a9.57,9.57,0,0,1-2.27.92,10.55,10.55,0,0,1-2.78.33,10.72,10.72,0,0,1-2.84-.37,5.81,5.81,0,0,1-2.26-1.21A5.31,5.31,0,0,1,473.59,50a9.59,9.59,0,0,1-.52-3.41V33.72H470V29h3.1V22.23h5.65V29h6.58v4.77h-6.58Z"/><path d="M496.89,47.78a6.92,6.92,0,0,0,4.63,1.6,8.29,8.29,0,0,0,3.62-.74,12,12,0,0,0,3-2.18l3.29,2.92a13.76,13.76,0,0,1-4.2,3.34A12.61,12.61,0,0,1,501.43,54a13,13,0,0,1-4.94-.93,11.85,11.85,0,0,1-6.65-6.6,14.45,14.45,0,0,1-.09-10.17,12.42,12.42,0,0,1,2.48-4.06A12.06,12.06,0,0,1,496,29.46a11.19,11.19,0,0,1,4.82-1A11.65,11.65,0,0,1,506,29.5a10.61,10.61,0,0,1,3.66,2.88,12.61,12.61,0,0,1,2.2,4.21,17.23,17.23,0,0,1,.74,5c0,.25,0,.5,0,.74s0,.51-.07.79h-18A7.35,7.35,0,0,0,496.89,47.78ZM507,39.46a10.31,10.31,0,0,0-.6-2.52,6.54,6.54,0,0,0-1.25-2,6.11,6.11,0,0,0-1.88-1.37,5.79,5.79,0,0,0-2.48-.51,5.67,5.67,0,0,0-4.29,1.79,8.12,8.12,0,0,0-2.06,4.65Z"/><path d="M518.29,25.19V19.87h6.07v5.32Zm.23,28.22V29h5.66V53.41Z"/><path d="M537.1,53.41h-5.65V29h5.65v5.51A10.87,10.87,0,0,1,540.39,30a7.92,7.92,0,0,1,5.38-1.53v5.93h-.33a9.2,9.2,0,0,0-3.38.61,7.06,7.06,0,0,0-2.64,1.8,8.23,8.23,0,0,0-1.71,3,13.3,13.3,0,0,0-.61,4.24Z"/><path d="M564.39,53.41v-3a10.46,10.46,0,0,1-3.19,2.5,10.11,10.11,0,0,1-4.73,1,11,11,0,0,1-3.33-.49A8.13,8.13,0,0,1,550.38,52a7,7,0,0,1-2.62-5.63v-.09a7.76,7.76,0,0,1,.74-3.48,6.73,6.73,0,0,1,2.06-2.46,9.33,9.33,0,0,1,3.15-1.45,15.15,15.15,0,0,1,4-.49,21.26,21.26,0,0,1,3.77.28,21.77,21.77,0,0,1,3,.74v-.6a4.9,4.9,0,0,0-1.55-3.9,6.68,6.68,0,0,0-4.47-1.34,14.85,14.85,0,0,0-3.71.42,25,25,0,0,0-3.29,1.11l-1.53-4.5a26.55,26.55,0,0,1,4.17-1.48,20.72,20.72,0,0,1,5.15-.55q5.46,0,8.1,2.71T570,38.91v14.5ZM564.53,43a13.76,13.76,0,0,0-2.52-.69,16,16,0,0,0-3.08-.28,7.23,7.23,0,0,0-4.13,1A3.32,3.32,0,0,0,553.32,46v.09a3.06,3.06,0,0,0,1.37,2.69,5.82,5.82,0,0,0,3.36.92,8.49,8.49,0,0,0,2.57-.37,6.55,6.55,0,0,0,2.06-1,4.83,4.83,0,0,0,1.37-1.62,4.61,4.61,0,0,0,.48-2.11Z"/><path d="M414.65,76.58h5.65V109h-4.76L397.69,85.94V109H392V76.58h5.27L414.65,99Z"/><path d="M443,109v-3a10.51,10.51,0,0,1-3.2,2.5,10.08,10.08,0,0,1-4.73,1,11,11,0,0,1-3.33-.49,8.23,8.23,0,0,1-2.76-1.43,7,7,0,0,1-2.62-5.63v-.1a7.74,7.74,0,0,1,.74-3.47,6.86,6.86,0,0,1,2.07-2.46,9.34,9.34,0,0,1,3.15-1.46,15.57,15.57,0,0,1,4-.48A20.27,20.27,0,0,1,443,95v-.6a4.87,4.87,0,0,0-1.55-3.9A6.65,6.65,0,0,0,437,89.18a14.85,14.85,0,0,0-3.71.42A24,24,0,0,0,430,90.71l-1.52-4.5a25.85,25.85,0,0,1,4.17-1.48,20.63,20.63,0,0,1,5.14-.55c3.64,0,6.35.9,8.11,2.71s2.64,4.34,2.64,7.62V109Zm.14-10.38a13.88,13.88,0,0,0-2.53-.69,16,16,0,0,0-3.08-.28,7.17,7.17,0,0,0-4.12,1,3.33,3.33,0,0,0-1.49,2.92v.09a3.06,3.06,0,0,0,1.37,2.69,5.82,5.82,0,0,0,3.36.92,8.45,8.45,0,0,0,2.57-.37,6.34,6.34,0,0,0,2.06-1,4.71,4.71,0,0,0,1.37-1.62,4.62,4.62,0,0,0,.49-2.11Z"/><path d="M472.42,108.29a12.08,12.08,0,0,1-5.88,1.28,12.71,12.71,0,0,1-5.05-1,12.39,12.39,0,0,1-4-2.73,12.61,12.61,0,0,1-3.62-9,12.75,12.75,0,0,1,3.62-9,12.35,12.35,0,0,1,4-2.78,12.56,12.56,0,0,1,5.08-1,12.81,12.81,0,0,1,5.77,1.15,13.79,13.79,0,0,1,4,3.06L472.89,92a13.39,13.39,0,0,0-2.76-2.21,7,7,0,0,0-3.59-.85,6.47,6.47,0,0,0-2.82.62,6.9,6.9,0,0,0-2.23,1.69A8.29,8.29,0,0,0,460,93.74a8.71,8.71,0,0,0-.53,3,9,9,0,0,0,.53,3.1,7.6,7.6,0,0,0,1.51,2.5,7.37,7.37,0,0,0,2.31,1.7,7.08,7.08,0,0,0,3,.62,6.88,6.88,0,0,0,3.5-.86,13.46,13.46,0,0,0,2.85-2.2l3.38,3.34A15.41,15.41,0,0,1,472.42,108.29Z"/><path d="M481.74,80.79V75.46h6.07v5.33ZM482,109V84.55h5.65V109Z"/><path d="M518.64,101.74a12.71,12.71,0,0,1-6.88,6.81,13.89,13.89,0,0,1-10.4,0,12.62,12.62,0,0,1-4.12-2.73,12.8,12.8,0,0,1-2.69-14,12.71,12.71,0,0,1,2.73-4.08,12.87,12.87,0,0,1,4.13-2.75,13.09,13.09,0,0,1,5.21-1,13.47,13.47,0,0,1,5.21,1A12.79,12.79,0,0,1,516,87.77a12.45,12.45,0,0,1,2.7,4,12.69,12.69,0,0,1,1,5A12.52,12.52,0,0,1,518.64,101.74Zm-5.21-7.93a8,8,0,0,0-1.54-2.52,7.26,7.26,0,0,0-10.71,0,7.55,7.55,0,0,0-1.47,2.48,8.94,8.94,0,0,0-.5,3,8.58,8.58,0,0,0,.55,3.08,7.66,7.66,0,0,0,1.54,2.52,7.42,7.42,0,0,0,2.35,1.7,7.08,7.08,0,0,0,3,.62,7.37,7.37,0,0,0,3.06-.62,7.23,7.23,0,0,0,2.33-1.7,7.4,7.4,0,0,0,1.47-2.47,8.94,8.94,0,0,0,.5-3A8.43,8.43,0,0,0,513.43,93.81Z"/><path d="M531,109h-5.65V84.55H531v3.83a13.26,13.26,0,0,1,1.32-1.65,8.54,8.54,0,0,1,3.74-2.34,8.43,8.43,0,0,1,2.56-.35A8.17,8.17,0,0,1,545,86.58a10,10,0,0,1,2.26,6.86V109h-5.66V95.14a6.5,6.5,0,0,0-1.35-4.41,4.82,4.82,0,0,0-3.83-1.55,5.24,5.24,0,0,0-4,1.59A6.23,6.23,0,0,0,531,95.23Z"/><path d="M569,109v-3a10.39,10.39,0,0,1-3.2,2.5,10.06,10.06,0,0,1-4.72,1,11.06,11.06,0,0,1-3.34-.49A8.23,8.23,0,0,1,555,107.6a7,7,0,0,1-2.62-5.63v-.1a7.61,7.61,0,0,1,.75-3.47,6.73,6.73,0,0,1,2.06-2.46,9.34,9.34,0,0,1,3.15-1.46,15.57,15.57,0,0,1,4-.48,20.27,20.27,0,0,1,6.76,1v-.6a4.87,4.87,0,0,0-1.55-3.9,6.65,6.65,0,0,0-4.47-1.34,14.77,14.77,0,0,0-3.7.42,23.72,23.72,0,0,0-3.3,1.11l-1.52-4.5a26.55,26.55,0,0,1,4.17-1.48,20.63,20.63,0,0,1,5.14-.55c3.64,0,6.35.9,8.11,2.71s2.64,4.34,2.64,7.62V109Zm.14-10.38a13.65,13.65,0,0,0-2.53-.69,16,16,0,0,0-3.08-.28,7.19,7.19,0,0,0-4.12,1A3.32,3.32,0,0,0,558,101.6v.09a3.05,3.05,0,0,0,1.36,2.69,5.82,5.82,0,0,0,3.36.92,8.4,8.4,0,0,0,2.57-.37,6.34,6.34,0,0,0,2.06-1,4.71,4.71,0,0,0,1.37-1.62,4.49,4.49,0,0,0,.49-2.11Z"/><path d="M581.58,109V75.19h5.66V109Z"/><path d="M416.13,147.88a9.91,9.91,0,0,1-2.79,3.48,12.41,12.41,0,0,1-4.13,2.11,17.34,17.34,0,0,1-5.06.71h-6.46v10.43H392V132.18h12.79a16.15,16.15,0,0,1,5.12.76,11,11,0,0,1,3.89,2.2,9.76,9.76,0,0,1,2.45,3.43,11.3,11.3,0,0,1,.86,4.49A10.82,10.82,0,0,1,416.13,147.88Zm-6.68-9.1a8.21,8.21,0,0,0-5.11-1.46h-6.65V149h6.65a7.63,7.63,0,0,0,5.13-1.6,5.31,5.31,0,0,0,1.89-4.26A5.22,5.22,0,0,0,409.45,138.78Z"/><path d="M428,164.61h-5.65V140.15H428v5.51a10.78,10.78,0,0,1,3.29-4.45,7.91,7.91,0,0,1,5.38-1.53v5.93h-.33a9.2,9.2,0,0,0-3.38.6,7.21,7.21,0,0,0-2.64,1.81,8.39,8.39,0,0,0-1.72,3,13.6,13.6,0,0,0-.6,4.24Z"/><path d="M464.39,157.33a12.77,12.77,0,0,1-6.88,6.82,13.92,13.92,0,0,1-10.41,0,12.89,12.89,0,0,1-4.12-2.73,12.65,12.65,0,0,1-2.71-4,12.43,12.43,0,0,1-1-4.93,12.65,12.65,0,0,1,1-5,12.7,12.7,0,0,1,6.86-6.83,13.12,13.12,0,0,1,5.21-1,13.52,13.52,0,0,1,5.22,1,12.75,12.75,0,0,1,4.12,2.74,12.47,12.47,0,0,1,2.71,4,12.64,12.64,0,0,1,1,5A12.43,12.43,0,0,1,464.39,157.33Zm-5.21-7.92a8,8,0,0,0-1.54-2.52,7.4,7.4,0,0,0-2.35-1.72,7.67,7.67,0,0,0-6,0,7.16,7.16,0,0,0-2.32,1.69,7.38,7.38,0,0,0-1.47,2.48,8.94,8.94,0,0,0-.51,3,8.58,8.58,0,0,0,.55,3.08,7.68,7.68,0,0,0,1.55,2.52,7.31,7.31,0,0,0,2.34,1.69,7,7,0,0,0,3,.63,7.15,7.15,0,0,0,3.06-.63,7,7,0,0,0,2.33-1.69,7.19,7.19,0,0,0,1.47-2.48,8.84,8.84,0,0,0,.51-3A8.43,8.43,0,0,0,459.18,149.41Z"/><path d="M484.38,140.33V145H478v19.65h-5.65V145h-3.1v-4.68h3.1v-1.76c0-2.71.66-4.73,2-6a7.54,7.54,0,0,1,5.59-2,15.51,15.51,0,0,1,2.54.18,17.81,17.81,0,0,1,2,.47v4.72c-.56-.18-1.09-.33-1.6-.44a8.09,8.09,0,0,0-1.69-.16q-3.25,0-3.25,3.71v1.34Z"/><path d="M488.6,136.39v-5.33h6.06v5.33Zm.23,28.22V140.15h5.65v24.46Z"/><path d="M518.53,160.76a6.65,6.65,0,0,1-1.93,2.39,8.8,8.8,0,0,1-2.89,1.44,12.83,12.83,0,0,1-3.57.48,16.68,16.68,0,0,1-5.35-.92,17,17,0,0,1-5-2.74l2.5-3.8a16.24,16.24,0,0,0,4.06,2.25,11.32,11.32,0,0,0,4,.76,4.71,4.71,0,0,0,2.8-.71,2.25,2.25,0,0,0,1-1.93v-.09a1.8,1.8,0,0,0-.44-1.2,4.21,4.21,0,0,0-1.21-.91,10.42,10.42,0,0,0-1.76-.69l-2.06-.63c-.89-.28-1.8-.58-2.71-.92a9.46,9.46,0,0,1-2.45-1.33,6.56,6.56,0,0,1-1.79-2,5.71,5.71,0,0,1-.69-2.94v-.09a7.05,7.05,0,0,1,.67-3.11,6.86,6.86,0,0,1,1.85-2.36,8.33,8.33,0,0,1,2.78-1.48,11.16,11.16,0,0,1,3.41-.51,15.75,15.75,0,0,1,4.68.74,16.38,16.38,0,0,1,4.3,2l-2.22,4a18.67,18.67,0,0,0-3.57-1.69,10.11,10.11,0,0,0-3.33-.62,4.11,4.11,0,0,0-2.53.69,2.13,2.13,0,0,0-.9,1.76v.09a1.58,1.58,0,0,0,.46,1.14,4.63,4.63,0,0,0,1.23.88,14.14,14.14,0,0,0,1.76.74c.66.23,1.35.46,2.06.67.9.28,1.79.61,2.69,1a11,11,0,0,1,2.43,1.36,6.87,6.87,0,0,1,1.79,2,5.47,5.47,0,0,1,.69,2.83v.09A7.69,7.69,0,0,1,518.53,160.76Z"/><path d="M541.23,160.76a6.52,6.52,0,0,1-1.92,2.39,8.85,8.85,0,0,1-2.9,1.44,12.83,12.83,0,0,1-3.57.48,16.68,16.68,0,0,1-5.35-.92,17,17,0,0,1-5-2.74l2.5-3.8a16,16,0,0,0,4,2.25,11.36,11.36,0,0,0,4,.76,4.75,4.75,0,0,0,2.81-.71,2.26,2.26,0,0,0,1-1.93v-.09a1.75,1.75,0,0,0-.44-1.2,4,4,0,0,0-1.2-.91,10.77,10.77,0,0,0-1.76-.69l-2.07-.63c-.89-.28-1.8-.58-2.71-.92a9.46,9.46,0,0,1-2.45-1.33,6.69,6.69,0,0,1-1.79-2,5.71,5.71,0,0,1-.69-2.94v-.09a6.89,6.89,0,0,1,2.52-5.47,8.33,8.33,0,0,1,2.78-1.48,11.16,11.16,0,0,1,3.41-.51,15.75,15.75,0,0,1,4.68.74,16.44,16.44,0,0,1,4.31,2l-2.23,4a18.88,18.88,0,0,0-3.56-1.69,10.21,10.21,0,0,0-3.34-.62,4.06,4.06,0,0,0-2.52.69,2.11,2.11,0,0,0-.91,1.76v.09a1.59,1.59,0,0,0,.47,1.14,4.41,4.41,0,0,0,1.22.88,14.14,14.14,0,0,0,1.76.74c.67.23,1.36.46,2.07.67.89.28,1.79.61,2.68,1a11.29,11.29,0,0,1,2.44,1.36,6.83,6.83,0,0,1,1.78,2,5.47,5.47,0,0,1,.69,2.83v.09A7.69,7.69,0,0,1,541.23,160.76Z"/><path d="M547.72,136.39v-5.33h6.07v5.33Zm.23,28.22V140.15h5.65v24.46Z"/><path d="M584.62,157.33a12.73,12.73,0,0,1-2.73,4.06,12.88,12.88,0,0,1-4.15,2.76,13.89,13.89,0,0,1-10.4,0,12.56,12.56,0,0,1-6.84-6.77,12.76,12.76,0,0,1,6.89-16.74,13.05,13.05,0,0,1,5.21-1,13.47,13.47,0,0,1,5.21,1,12.75,12.75,0,0,1,4.12,2.74,12.47,12.47,0,0,1,2.71,4,12.65,12.65,0,0,1,1,5A12.44,12.44,0,0,1,584.62,157.33Zm-5.21-7.92a8,8,0,0,0-1.54-2.52,7.26,7.26,0,0,0-10.71,0,7.55,7.55,0,0,0-1.47,2.48,8.94,8.94,0,0,0-.51,3,8.58,8.58,0,0,0,.56,3.08,7.5,7.5,0,0,0,1.54,2.52,7.24,7.24,0,0,0,2.35,1.69,6.94,6.94,0,0,0,3,.63,7.22,7.22,0,0,0,3.06-.63A7,7,0,0,0,578,158a7.22,7.22,0,0,0,1.48-2.48,8.84,8.84,0,0,0,.5-3A8.43,8.43,0,0,0,579.41,149.41Z"/><path d="M597,164.61h-5.66V140.15H597V144a14.14,14.14,0,0,1,1.32-1.66A8.3,8.3,0,0,1,600,141a8.07,8.07,0,0,1,2.08-1,8.43,8.43,0,0,1,2.56-.35,8.16,8.16,0,0,1,6.42,2.54,10,10,0,0,1,2.27,6.86v15.57h-5.66V150.74a6.5,6.5,0,0,0-1.35-4.41,4.8,4.8,0,0,0-3.84-1.55,5.21,5.21,0,0,0-3.95,1.59,6.23,6.23,0,0,0-1.51,4.46Z"/><path d="M635,164.61v-3a10.51,10.51,0,0,1-3.2,2.5,10.08,10.08,0,0,1-4.73,1,11,11,0,0,1-3.33-.49A8.23,8.23,0,0,1,621,163.2a7,7,0,0,1-2.62-5.63v-.1a7.61,7.61,0,0,1,.75-3.47,6.73,6.73,0,0,1,2.06-2.46,9.34,9.34,0,0,1,3.15-1.46,15.57,15.57,0,0,1,4-.48,20.38,20.38,0,0,1,6.76,1V150a4.86,4.86,0,0,0-1.55-3.89,6.65,6.65,0,0,0-4.47-1.34,14.85,14.85,0,0,0-3.71.42,22.76,22.76,0,0,0-3.29,1.11l-1.53-4.5a26.55,26.55,0,0,1,4.17-1.48,20.77,20.77,0,0,1,5.15-.55c3.64,0,6.35.9,8.11,2.71s2.64,4.34,2.64,7.62v14.5Zm.14-10.38a13.88,13.88,0,0,0-2.53-.69,16,16,0,0,0-3.08-.28,7.17,7.17,0,0,0-4.12,1,3.33,3.33,0,0,0-1.49,2.92v.09A3.06,3.06,0,0,0,625.3,160a5.9,5.9,0,0,0,3.36.92,8.45,8.45,0,0,0,2.57-.37,6.34,6.34,0,0,0,2.06-1,4.71,4.71,0,0,0,1.37-1.62,4.62,4.62,0,0,0,.49-2.11Z"/><path d="M647.56,164.61V130.79h5.66v33.82Z"/></svg>