<svg id="Layer_1_copy" data-name="Layer 1 copy" xmlns="http://www.w3.org/2000/svg" xmlns:xlink="http://www.w3.org/1999/xlink" viewBox="0 0 661.68 184.25"><defs><style>.cls-1{fill:url(#linear-gradient);}.cls-2{fill:#fff;}.cls-3{fill:url(#linear-gradient-2);}.cls-4{fill:url(#linear-gradient-3);}</style><linearGradient id="linear-gradient" x1="183.71" y1="24.29" x2="183.71" y2="156.61" gradientUnits="userSpaceOnUse"><stop offset="0" stop-color="#f57f20"/><stop offset="0.18" stop-color="#febf10"/><stop offset="0.51" stop-color="#f57f20"/><stop offset="0.59" stop-color="#f57f20"/><stop offset="0.92" stop-color="#ffe601"/><stop offset="1" stop-color="#febf10"/></linearGradient><linearGradient id="linear-gradient-2" x1="99.07" y1="8.99" x2="99.07" y2="175.79" gradientUnits="userSpaceOnUse"><stop offset="0" stop-color="#c12026"/><stop offset="0.01" stop-color="#d32027"/><stop offset="0.04" stop-color="#ef3a2a"/><stop offset="0.08" stop-color="#c12026"/><stop offset="0.35" stop-color="#d22027"/><stop offset="0.88" stop-color="#ed2024"/><stop offset="0.95" stop-color="#c12026"/></linearGradient><linearGradient id="linear-gradient-3" x1="277.61" y1="8.46" x2="277.61" y2="175.79" gradientUnits="userSpaceOnUse"><stop offset="0" stop-color="#231f20"/><stop offset="0.01" stop-color="#414042"/><stop offset="0.04" stop-color="#58595b"/><stop offset="0.08" stop-color="#231f20"/><stop offset="0.35" stop-color="#231f20"/><stop offset="0.75" stop-color="#231f20"/><stop offset="0.88" stop-color="#414042"/><stop offset="0.97" stop-color="#231f20"/></linearGradient></defs><g id="Path_93" data-name="Path 93"><path class="cls-1" d="M192.32,14.78c-.92-3.21-4.81-5.8-8.7-5.79H119.29c3.89,0,7.78,2.83,8.7,6l49.78,156.56a6,6,0,0,0,5.74,4.2h58.16l6.47-9.42Z"/><path class="cls-2" d="M246.92,180.73l-5.25,3.52H183.51a14.44,14.44,0,0,1-13.8-10.09L120,17.8a1.65,1.65,0,0,0-.7-.35h0v-2l0-14.94h64.39c7.49,0,14.59,4.93,16.68,11.56l57.25,155.46Zm-61.63-13.4h51.93l1.47-2.14L184.38,17.71a1.69,1.69,0,0,0-.74-.26h-46Z"/></g><path class="cls-3" d="M96.09,9a83.4,83.4,0,0,0-83.4,83.4h0a83.4,83.4,0,0,0,83.4,83.4h25.29L176.81,14.92c.88-3.21,4.75-5.8,8.64-5.79Z"/><path class="cls-2" d="M127.42,184.25H96.09A91.86,91.86,0,0,1,96.09.53h0l89.36.14h0l-.05,16.92a1.44,1.44,0,0,0-.66.22ZM96.08,17.45a74.94,74.94,0,0,0,0,149.88h19.26L167,17.56Z"/><path class="cls-4" d="M313.9,8.46H268.61l0,.1-17.71-.1c-3.89,0-7.76,2.58-8.64,5.79L184,175.79h57.7c11.79,0,13.35-11,13.35-11l14.3-41.69H313.9A57.34,57.34,0,0,0,371.24,65.8h0A57.34,57.34,0,0,0,313.9,8.46Z"/><path class="cls-2" d="M241.67,184.25H184l-9-8.46L234.19,11.62C236.23,5,243.3,0,250.84,0h.06L264,.07,268.61,0H313.9a65.8,65.8,0,0,1,0,131.6H275.37L263.24,167C261.94,173.43,256.09,184.25,241.67,184.25ZM196,167.33h45.65c2.78,0,4.46-1.27,5-3.77l.09-.92.28-.55,16.26-47.42H313.9a48.88,48.88,0,1,0,0-97.75l-39.07,0-6.3.06-17.71-.1h0a1.58,1.58,0,0,0-.64.22Z"/><path class="cls-2" d="M421.87,50.61a16.89,16.89,0,0,1-2.94,1.8,14.66,14.66,0,0,1-3.46,1.16,19.65,19.65,0,0,1-4.14.4,16.51,16.51,0,0,1-6.58-1.3,16.08,16.08,0,0,1-5.21-3.54,16.43,16.43,0,0,1-3.46-5.31,17.95,17.95,0,0,1,0-13.11,16.18,16.18,0,0,1,8.73-9,16.93,16.93,0,0,1,6.77-1.32,21,21,0,0,1,4.05.37A16.52,16.52,0,0,1,419,21.84a15.88,15.88,0,0,1,2.83,1.59,22.64,22.64,0,0,1,2.45,2l-3.66,4.22a17.94,17.94,0,0,0-4.12-2.92,10.75,10.75,0,0,0-5-1.11,10.17,10.17,0,0,0-4.28.9A10.49,10.49,0,0,0,403.82,29a10.82,10.82,0,0,0-2.22,3.63,12.52,12.52,0,0,0-.79,4.5,12.71,12.71,0,0,0,.79,4.52,11.15,11.15,0,0,0,2.22,3.68,10.4,10.4,0,0,0,3.41,2.48,10.17,10.17,0,0,0,4.28.9,10.79,10.79,0,0,0,5.1-1.13,20.15,20.15,0,0,0,4.21-3.08l3.67,3.7A21.54,21.54,0,0,1,421.87,50.61Z"/><path class="cls-2" d="M444.78,53.41v-3a10.39,10.39,0,0,1-3.2,2.5,10.06,10.06,0,0,1-4.72,1,11.06,11.06,0,0,1-3.34-.49A8.23,8.23,0,0,1,430.76,52a7.23,7.23,0,0,1-1.9-2.36,7.15,7.15,0,0,1-.71-3.27v-.09a7.63,7.63,0,0,1,.74-3.48A6.62,6.62,0,0,1,431,40.35a9.15,9.15,0,0,1,3.15-1.46,15.13,15.13,0,0,1,4-.49,21.46,21.46,0,0,1,3.78.28,22.14,22.14,0,0,1,3,.74v-.6a4.88,4.88,0,0,0-1.56-3.9,6.65,6.65,0,0,0-4.47-1.34,14.77,14.77,0,0,0-3.7.42,24.5,24.5,0,0,0-3.29,1.11l-1.53-4.49a25.62,25.62,0,0,1,4.17-1.49,20.63,20.63,0,0,1,5.14-.55c3.64,0,6.35.9,8.11,2.71s2.64,4.35,2.64,7.62v14.5ZM444.92,43a13.65,13.65,0,0,0-2.53-.69,16,16,0,0,0-3.08-.28,7.19,7.19,0,0,0-4.12,1A3.32,3.32,0,0,0,433.71,46v.09a3,3,0,0,0,1.36,2.69,5.82,5.82,0,0,0,3.36.92,8.45,8.45,0,0,0,2.57-.37,6.34,6.34,0,0,0,2.06-1,4.71,4.71,0,0,0,1.37-1.62,4.49,4.49,0,0,0,.49-2.11Z"/><path class="cls-2" d="M462.66,53.41H457V29h5.65v5.51A10.84,10.84,0,0,1,466,30a7.91,7.91,0,0,1,5.38-1.53v5.93H471a9.2,9.2,0,0,0-3.38.61,7.06,7.06,0,0,0-2.64,1.8,8.39,8.39,0,0,0-1.72,3,13.6,13.6,0,0,0-.6,4.24Z"/><path class="cls-2" d="M483,45.76a3.06,3.06,0,0,0,.78,2.34,3.2,3.2,0,0,0,2.23.73,7.62,7.62,0,0,0,3.47-.84v4.59a9.4,9.4,0,0,1-2.27.92,10.55,10.55,0,0,1-2.78.33,10.32,10.32,0,0,1-2.84-.37,5.81,5.81,0,0,1-2.26-1.21A5.31,5.31,0,0,1,477.82,50a9.82,9.82,0,0,1-.52-3.41V33.72h-3.1V29h3.1V22.23H483V29h6.58v4.77H483Z"/><path class="cls-2" d="M501.12,47.78a6.94,6.94,0,0,0,4.63,1.6,8.29,8.29,0,0,0,3.62-.74,11.78,11.78,0,0,0,3-2.18l3.29,2.92a13.64,13.64,0,0,1-4.2,3.34A12.61,12.61,0,0,1,505.66,54a13,13,0,0,1-4.94-.93,12.17,12.17,0,0,1-4-2.59,12,12,0,0,1-2.66-4,13.44,13.44,0,0,1-1-5.21,14,14,0,0,1,.88-5,12.59,12.59,0,0,1,2.48-4.06,12.18,12.18,0,0,1,3.78-2.75,11.22,11.22,0,0,1,4.82-1,11.65,11.65,0,0,1,5.12,1.06,10.61,10.61,0,0,1,3.66,2.88,12.61,12.61,0,0,1,2.2,4.21,17.23,17.23,0,0,1,.74,5c0,.25,0,.5,0,.74s0,.51-.07.79h-18A7.35,7.35,0,0,0,501.12,47.78Zm10.1-8.31a9.45,9.45,0,0,0-.6-2.53,6.54,6.54,0,0,0-1.25-2,6.28,6.28,0,0,0-1.88-1.37A5.94,5.94,0,0,0,505,33a5.66,5.66,0,0,0-4.29,1.78,8.12,8.12,0,0,0-2.06,4.66Z"/><path class="cls-2" d="M522.52,25.19V19.87h6.07v5.32Zm.24,28.22V29h5.65V53.41Z"/><path class="cls-2" d="M541.34,53.41h-5.66V29h5.66v5.51A10.82,10.82,0,0,1,544.62,30,7.94,7.94,0,0,1,550,28.48v5.93h-.33a9.2,9.2,0,0,0-3.38.61,7.06,7.06,0,0,0-2.64,1.8,8.23,8.23,0,0,0-1.71,3,13.31,13.31,0,0,0-.6,4.24Z"/><path class="cls-2" d="M568.63,53.41v-3a10.51,10.51,0,0,1-3.2,2.5,10.08,10.08,0,0,1-4.73,1,11,11,0,0,1-3.33-.49A8.23,8.23,0,0,1,554.61,52,7,7,0,0,1,552,46.37v-.09a7.76,7.76,0,0,1,.74-3.48,6.71,6.71,0,0,1,2.06-2.45A9.12,9.12,0,0,1,558,38.89a15.13,15.13,0,0,1,4-.49,21.26,21.26,0,0,1,3.77.28,21.77,21.77,0,0,1,3,.74v-.6a4.9,4.9,0,0,0-1.55-3.9,6.68,6.68,0,0,0-4.47-1.34,14.85,14.85,0,0,0-3.71.42,25,25,0,0,0-3.29,1.11l-1.53-4.49a25.62,25.62,0,0,1,4.17-1.49,20.72,20.72,0,0,1,5.15-.55q5.46,0,8.1,2.71c1.77,1.8,2.64,4.35,2.64,7.62v14.5ZM568.76,43a13.76,13.76,0,0,0-2.52-.69,16,16,0,0,0-3.08-.28,7.23,7.23,0,0,0-4.13,1A3.34,3.34,0,0,0,557.55,46v.09a3.05,3.05,0,0,0,1.37,2.69,5.82,5.82,0,0,0,3.36.92,8.49,8.49,0,0,0,2.57-.37,6.44,6.44,0,0,0,2.06-1,4.83,4.83,0,0,0,1.37-1.62,4.61,4.61,0,0,0,.48-2.11Z"/><path class="cls-2" d="M418.88,76.58h5.65V109h-4.76L401.92,85.94V109h-5.65V76.58h5.27L418.88,99Z"/><path class="cls-2" d="M447.19,109v-3a10.51,10.51,0,0,1-3.2,2.5,10.06,10.06,0,0,1-4.72,1,11.06,11.06,0,0,1-3.34-.49,8.23,8.23,0,0,1-2.76-1.43,7.23,7.23,0,0,1-1.9-2.36,7.15,7.15,0,0,1-.72-3.27v-.09a7.63,7.63,0,0,1,.75-3.48A6.62,6.62,0,0,1,433.36,96a9.15,9.15,0,0,1,3.15-1.46,15.13,15.13,0,0,1,4-.49,20.27,20.27,0,0,1,6.76,1v-.6a4.87,4.87,0,0,0-1.55-3.9,6.65,6.65,0,0,0-4.47-1.34,14.91,14.91,0,0,0-3.71.42,25.49,25.49,0,0,0-3.29,1.11l-1.52-4.49a25,25,0,0,1,4.17-1.49,20.63,20.63,0,0,1,5.14-.55c3.64,0,6.35.9,8.11,2.71s2.64,4.35,2.64,7.62V109Zm.14-10.38a13.65,13.65,0,0,0-2.53-.69,16,16,0,0,0-3.08-.28,7.19,7.19,0,0,0-4.12,1,3.32,3.32,0,0,0-1.48,2.92v.09a3.05,3.05,0,0,0,1.36,2.69,5.82,5.82,0,0,0,3.36.92,8.45,8.45,0,0,0,2.57-.37,6.34,6.34,0,0,0,2.06-1,4.71,4.71,0,0,0,1.37-1.62,4.62,4.62,0,0,0,.49-2.11Z"/><path class="cls-2" d="M476.66,108.29a12.14,12.14,0,0,1-5.89,1.28,12.75,12.75,0,0,1-5-1,12.24,12.24,0,0,1-4-2.73,12.56,12.56,0,0,1-3.62-9,13,13,0,0,1,.95-5,12.83,12.83,0,0,1,2.67-4.07,12.35,12.35,0,0,1,4-2.78,14,14,0,0,1,10.85.14,13.76,13.76,0,0,1,4,3L477.12,92a12.77,12.77,0,0,0-2.76-2.2,6.89,6.89,0,0,0-3.59-.86,6.47,6.47,0,0,0-2.82.62,6.93,6.93,0,0,0-2.23,1.7,8.11,8.11,0,0,0-1.46,2.47,8.71,8.71,0,0,0-.53,3,8.93,8.93,0,0,0,.53,3.1,7.75,7.75,0,0,0,1.51,2.51,7.34,7.34,0,0,0,2.31,1.69,7.08,7.08,0,0,0,3,.62,6.88,6.88,0,0,0,3.5-.86,13.46,13.46,0,0,0,2.85-2.2l3.38,3.34A15.36,15.36,0,0,1,476.66,108.29Z"/><path class="cls-2" d="M486,80.79V75.47H492v5.32ZM486.2,109V84.55h5.65V109Z"/><path class="cls-2" d="M522.87,101.74a12.71,12.71,0,0,1-6.88,6.81,13.89,13.89,0,0,1-10.4,0,12.56,12.56,0,0,1-4.12-2.73,12.71,12.71,0,0,1-2.71-4,12.52,12.52,0,0,1-1-4.94,12.84,12.84,0,0,1,3.73-9.06A13.12,13.12,0,0,1,510.85,84a13.47,13.47,0,0,1,5.21,1,12.6,12.6,0,0,1,6.84,6.79,12.86,12.86,0,0,1,1,5A12.35,12.35,0,0,1,522.87,101.74Zm-5.21-7.93a7.8,7.8,0,0,0-1.54-2.52,7.42,7.42,0,0,0-8.38-1.72,7.08,7.08,0,0,0-2.32,1.7,7.27,7.27,0,0,0-1.48,2.47,8.94,8.94,0,0,0-.5,3,8.58,8.58,0,0,0,.55,3.08,7.81,7.81,0,0,0,1.54,2.53,7.39,7.39,0,0,0,2.35,1.69,7.08,7.08,0,0,0,3,.62,7.37,7.37,0,0,0,3.06-.62,7.2,7.2,0,0,0,2.33-1.69,7.55,7.55,0,0,0,1.47-2.48,8.94,8.94,0,0,0,.51-3A8.44,8.44,0,0,0,517.66,93.81Z"/><path class="cls-2" d="M535.22,109h-5.65V84.55h5.65v3.84a12.66,12.66,0,0,1,1.32-1.66,8,8,0,0,1,1.66-1.38,8.22,8.22,0,0,1,2.08-1,8.43,8.43,0,0,1,2.56-.35,8.14,8.14,0,0,1,6.43,2.55,10,10,0,0,1,2.26,6.85V109h-5.65V95.14a6.5,6.5,0,0,0-1.36-4.41,4.82,4.82,0,0,0-3.83-1.55,5.17,5.17,0,0,0-4,1.6,6.21,6.21,0,0,0-1.52,4.46Z"/><path class="cls-2" d="M573.26,109v-3a10.39,10.39,0,0,1-3.2,2.5,10.06,10.06,0,0,1-4.72,1A11.06,11.06,0,0,1,562,109a8.23,8.23,0,0,1-2.76-1.43,7.23,7.23,0,0,1-1.9-2.36,7.15,7.15,0,0,1-.71-3.27v-.09a7.63,7.63,0,0,1,.74-3.48A6.62,6.62,0,0,1,559.43,96a9.15,9.15,0,0,1,3.15-1.46,15.13,15.13,0,0,1,4-.49,21.46,21.46,0,0,1,3.78.28,22.14,22.14,0,0,1,3,.74v-.6a4.88,4.88,0,0,0-1.56-3.9,6.65,6.65,0,0,0-4.47-1.34,14.77,14.77,0,0,0-3.7.42,24.5,24.5,0,0,0-3.29,1.11l-1.53-4.49a25.62,25.62,0,0,1,4.17-1.49,20.63,20.63,0,0,1,5.14-.55c3.64,0,6.35.9,8.11,2.71s2.64,4.35,2.64,7.62V109Zm.14-10.38a13.65,13.65,0,0,0-2.53-.69,16,16,0,0,0-3.08-.28,7.19,7.19,0,0,0-4.12,1,3.32,3.32,0,0,0-1.48,2.92v.09a3.05,3.05,0,0,0,1.36,2.69,5.82,5.82,0,0,0,3.36.92,8.45,8.45,0,0,0,2.57-.37,6.34,6.34,0,0,0,2.06-1,4.71,4.71,0,0,0,1.37-1.62,4.49,4.49,0,0,0,.49-2.11Z"/><path class="cls-2" d="M585.82,109V75.19h5.65V109Z"/><path class="cls-2" d="M420.36,147.88a9.91,9.91,0,0,1-2.79,3.48,12.31,12.31,0,0,1-4.13,2.11,17.34,17.34,0,0,1-5.06.72h-6.46v10.42h-5.65V132.18h12.79a16.15,16.15,0,0,1,5.12.76,10.88,10.88,0,0,1,3.89,2.2,9.76,9.76,0,0,1,2.45,3.43,11.15,11.15,0,0,1,.86,4.5A10.8,10.8,0,0,1,420.36,147.88Zm-6.68-9.09a8.14,8.14,0,0,0-5.11-1.47h-6.65V149h6.65a7.68,7.68,0,0,0,5.14-1.6,5.33,5.33,0,0,0,1.88-4.26A5.19,5.19,0,0,0,413.68,138.79Z"/><path class="cls-2" d="M432.22,164.61h-5.65V140.15h5.65v5.51a10.87,10.87,0,0,1,3.29-4.45,7.91,7.91,0,0,1,5.38-1.53v5.93h-.33a9.2,9.2,0,0,0-3.38.61,7.06,7.06,0,0,0-2.64,1.8,8.23,8.23,0,0,0-1.71,3,13.3,13.3,0,0,0-.61,4.24Z"/><path class="cls-2" d="M468.62,157.34a13,13,0,0,1-2.74,4,12.83,12.83,0,0,1-4.14,2.76,13.89,13.89,0,0,1-10.4,0,12.5,12.5,0,0,1-7.81-11.7,12.48,12.48,0,0,1,1-5,12.71,12.71,0,0,1,2.73-4.08,12.94,12.94,0,0,1,4.12-2.75,13.12,13.12,0,0,1,5.21-1,13.48,13.48,0,0,1,5.22,1,12.75,12.75,0,0,1,4.12,2.74,12.89,12.89,0,0,1,2.69,14Zm-5.21-7.93a8,8,0,0,0-1.54-2.52,7,7,0,0,0-5.37-2.34,7.2,7.2,0,0,0-3,.62,7,7,0,0,0-2.33,1.7,7.24,7.24,0,0,0-1.47,2.47,8.94,8.94,0,0,0-.51,3,8.8,8.8,0,0,0,.55,3.08,7.68,7.68,0,0,0,1.55,2.52,7.34,7.34,0,0,0,2.34,1.7,7.15,7.15,0,0,0,3,.62,7.38,7.38,0,0,0,3.07-.62A7,7,0,0,0,462,158a7.27,7.27,0,0,0,1.48-2.47,9.19,9.19,0,0,0,.5-3A8.43,8.43,0,0,0,463.41,149.41Z"/><path class="cls-2" d="M488.61,140.33V145h-6.39v19.65h-5.66V145h-3.1v-4.67h3.1v-1.77c0-2.71.66-4.73,2-6a7.54,7.54,0,0,1,5.59-2,15.72,15.72,0,0,1,2.55.18,18.16,18.16,0,0,1,2,.47v4.72c-.56-.18-1.09-.33-1.6-.44a8.74,8.74,0,0,0-1.69-.16q-3.25,0-3.25,3.71v1.34Z"/><path class="cls-2" d="M492.83,136.39v-5.32h6.07v5.32Zm.23,28.22V140.15h5.65v24.46Z"/><path class="cls-2" d="M522.76,160.76a6.65,6.65,0,0,1-1.93,2.39,8.71,8.71,0,0,1-2.89,1.44,12.83,12.83,0,0,1-3.57.48,16.68,16.68,0,0,1-5.35-.92,17.14,17.14,0,0,1-5-2.74l2.5-3.8a16.24,16.24,0,0,0,4.06,2.25,11.34,11.34,0,0,0,4,.77,4.69,4.69,0,0,0,2.8-.72,2.25,2.25,0,0,0,1-1.93v-.09a1.8,1.8,0,0,0-.44-1.2,4.08,4.08,0,0,0-1.21-.91,10.42,10.42,0,0,0-1.76-.69l-2.06-.63c-.89-.27-1.8-.58-2.71-.92a9.74,9.74,0,0,1-2.45-1.32,6.73,6.73,0,0,1-1.79-2,5.71,5.71,0,0,1-.69-2.94v-.09a6.92,6.92,0,0,1,2.52-5.47,8.33,8.33,0,0,1,2.78-1.48,11.16,11.16,0,0,1,3.41-.51,15.75,15.75,0,0,1,4.68.74,17.27,17.27,0,0,1,4.31,2l-2.23,4a18.67,18.67,0,0,0-3.57-1.69,10.37,10.37,0,0,0-3.33-.62,4.11,4.11,0,0,0-2.53.69,2.14,2.14,0,0,0-.9,1.76v.1a1.57,1.57,0,0,0,.46,1.13,4.63,4.63,0,0,0,1.23.88,14.14,14.14,0,0,0,1.76.74c.67.23,1.35.46,2.06.67.9.28,1.79.61,2.69,1a11,11,0,0,1,2.43,1.36,6.87,6.87,0,0,1,1.79,2,5.47,5.47,0,0,1,.69,2.83v.09A7.69,7.69,0,0,1,522.76,160.76Z"/><path class="cls-2" d="M545.46,160.76a6.52,6.52,0,0,1-1.92,2.39,8.85,8.85,0,0,1-2.9,1.44,12.83,12.83,0,0,1-3.57.48,16.68,16.68,0,0,1-5.35-.92,17.09,17.09,0,0,1-5-2.74l2.5-3.8a16.19,16.19,0,0,0,4,2.25,11.43,11.43,0,0,0,4,.77,4.75,4.75,0,0,0,2.81-.72,2.26,2.26,0,0,0,1-1.93v-.09a1.8,1.8,0,0,0-.44-1.2,4,4,0,0,0-1.2-.91,10.77,10.77,0,0,0-1.76-.69l-2.07-.63c-.89-.27-1.8-.58-2.71-.92a9.74,9.74,0,0,1-2.45-1.32,6.56,6.56,0,0,1-1.78-2,5.61,5.61,0,0,1-.7-2.94v-.09a6.89,6.89,0,0,1,2.53-5.47,8.14,8.14,0,0,1,2.78-1.48,11.1,11.1,0,0,1,3.4-.51,15.7,15.7,0,0,1,4.68.74,17.1,17.1,0,0,1,4.31,2l-2.22,4a19.26,19.26,0,0,0-3.57-1.69,10.48,10.48,0,0,0-3.34-.62,4.06,4.06,0,0,0-2.52.69,2.13,2.13,0,0,0-.91,1.76v.1a1.58,1.58,0,0,0,.47,1.13,4.57,4.57,0,0,0,1.22.88,14.14,14.14,0,0,0,1.76.74c.67.23,1.36.46,2.07.67.89.28,1.79.61,2.68,1a11.29,11.29,0,0,1,2.44,1.36,6.83,6.83,0,0,1,1.78,2,5.47,5.47,0,0,1,.7,2.83v.09A7.69,7.69,0,0,1,545.46,160.76Z"/><path class="cls-2" d="M552,136.39v-5.32H558v5.32Zm.23,28.22V140.15h5.65v24.46Z"/><path class="cls-2" d="M588.85,157.34a12.71,12.71,0,0,1-6.88,6.81,13.89,13.89,0,0,1-10.4,0,12.46,12.46,0,0,1-4.12-2.73,12.46,12.46,0,0,1-3.69-9,12.48,12.48,0,0,1,1-5,12.71,12.71,0,0,1,2.73-4.08,12.87,12.87,0,0,1,4.13-2.75,13.09,13.09,0,0,1,5.21-1,13.47,13.47,0,0,1,5.21,1,12.6,12.6,0,0,1,6.84,6.79,12.86,12.86,0,0,1,1,5A12.35,12.35,0,0,1,588.85,157.34Zm-5.21-7.93a8,8,0,0,0-1.54-2.52,7.42,7.42,0,0,0-8.38-1.72,7.08,7.08,0,0,0-2.33,1.7,7.4,7.4,0,0,0-1.47,2.47,8.94,8.94,0,0,0-.5,3,8.58,8.58,0,0,0,.55,3.08,7.5,7.5,0,0,0,1.54,2.52,7.27,7.27,0,0,0,2.35,1.7,7.08,7.08,0,0,0,3,.62,7.37,7.37,0,0,0,3.06-.62,7.08,7.08,0,0,0,2.33-1.7,7.4,7.4,0,0,0,1.47-2.47,8.94,8.94,0,0,0,.5-3A8.43,8.43,0,0,0,583.64,149.41Z"/><path class="cls-2" d="M601.2,164.61h-5.65V140.15h5.65V144a13.26,13.26,0,0,1,1.32-1.65,8.54,8.54,0,0,1,3.74-2.34,8.43,8.43,0,0,1,2.56-.35,8.15,8.15,0,0,1,6.42,2.54,10,10,0,0,1,2.27,6.86v15.57h-5.65V150.74a6.5,6.5,0,0,0-1.36-4.41,4.83,4.83,0,0,0-3.84-1.55,5.23,5.23,0,0,0-3.95,1.59,6.24,6.24,0,0,0-1.51,4.47Z"/><path class="cls-2" d="M639.24,164.61v-3a10.51,10.51,0,0,1-3.2,2.5,10.08,10.08,0,0,1-4.73,1,11,11,0,0,1-3.33-.49,8.23,8.23,0,0,1-2.76-1.43,7,7,0,0,1-2.62-5.63v-.1a7.61,7.61,0,0,1,.75-3.47,6.73,6.73,0,0,1,2.06-2.46,9.33,9.33,0,0,1,3.15-1.45,15.13,15.13,0,0,1,4-.49,20.27,20.27,0,0,1,6.76,1V150a4.87,4.87,0,0,0-1.55-3.9,6.65,6.65,0,0,0-4.47-1.34,14.85,14.85,0,0,0-3.71.42,24,24,0,0,0-3.29,1.11l-1.53-4.5a26.31,26.31,0,0,1,4.18-1.48,20.63,20.63,0,0,1,5.14-.55c3.64,0,6.35.9,8.11,2.71s2.64,4.34,2.64,7.62v14.5Zm.14-10.38a13.88,13.88,0,0,0-2.53-.69,16,16,0,0,0-3.08-.28,7.17,7.17,0,0,0-4.12,1,3.33,3.33,0,0,0-1.49,2.92v.09a3.06,3.06,0,0,0,1.37,2.69,5.82,5.82,0,0,0,3.36.92,8.45,8.45,0,0,0,2.57-.37,6.34,6.34,0,0,0,2.06-1,4.71,4.71,0,0,0,1.37-1.62,4.62,4.62,0,0,0,.49-2.11Z"/><path class="cls-2" d="M651.79,164.61V130.79h5.66v33.82Z"/><path id="Path_93-2" data-name="Path 93" class="cls-1" d="M192.32,14.78c-.92-3.21-4.81-5.8-8.7-5.79H119.29c3.89,0,7.78,2.83,8.7,6l49.78,156.56a6,6,0,0,0,5.74,4.2h58.16l6.47-9.42Z"/><path class="cls-3" d="M96.09,9a83.4,83.4,0,0,0-83.4,83.4h0a83.4,83.4,0,0,0,83.4,83.4h25.29L176.81,14.92c.88-3.21,4.75-5.8,8.64-5.79Z"/><path class="cls-4" d="M313.9,8.46H268.61l0,.1-17.71-.1c-3.89,0-7.76,2.58-8.64,5.79L184,175.79h57.7c11.79,0,13.35-11,13.35-11l14.3-41.69H313.9A57.34,57.34,0,0,0,371.24,65.8h0A57.34,57.34,0,0,0,313.9,8.46Z"/></svg>