<?xml version="1.0" encoding="utf-8"?>
<!-- Generator: Adobe Illustrator 27.0.0, SVG Export Plug-In . SVG Version: 6.00 Build 0)  -->
<svg version="1.1" id="_02" xmlns="http://www.w3.org/2000/svg" xmlns:xlink="http://www.w3.org/1999/xlink" x="0px" y="0px"
	 viewBox="0 0 283.5 283.5" style="enable-background:new 0 0 283.5 283.5;" xml:space="preserve">
<style type="text/css">
	.st0{fill:#7FBF3C;}
</style>
<g>
	<g>
		<polygon class="st0" points="74.5,185.8 74.2,178.3 74.3,178.3 79.6,187.6 100.3,220.7 107.7,220.7 107.7,171.2 102,171.2 
			102,206.2 102.3,213.8 102.2,213.8 96.9,204.2 76.3,171.2 68.8,171.2 68.8,220.7 74.5,220.7 		"/>
		<path class="st0" d="M167,182.4c-1.9-3.8-4.5-6.7-7.9-8.8s-7.5-3.1-12.2-3.1s-8.8,1-12.2,3.1s-6.1,5-7.9,8.8
			c-1.9,3.8-2.8,8.3-2.8,13.6s0.9,9.8,2.8,13.6s4.5,6.7,7.9,8.8s7.5,3.1,12.2,3.1s8.8-1,12.2-3.1s6.1-5,7.9-8.8
			c1.9-3.8,2.8-8.3,2.8-13.6S168.9,186.2,167,182.4L167,182.4z M161.5,206.7c-1.4,3-3.3,5.2-5.7,6.8c-2.5,1.6-5.4,2.4-8.9,2.4
			s-6.4-0.8-8.9-2.4c-2.5-1.6-4.4-3.9-5.8-6.8c-1.4-3-2-6.5-2-10.7s0.7-7.7,2-10.7c1.4-3,3.3-5.2,5.8-6.8s5.4-2.4,8.9-2.4
			s6.4,0.8,8.9,2.4c2.5,1.6,4.4,3.9,5.7,6.8c1.4,3,2,6.5,2,10.7S162.8,203.7,161.5,206.7z"/>
		<polygon class="st0" points="204.4,220.7 223.2,171.2 216.7,171.2 204.1,205.5 201,215.3 197.8,205.4 185.2,171.2 178.8,171.2 
			197.6,220.7 		"/>
	</g>
	<g>
		<path class="st0" d="M274.3,54.5c0-20.4-16.7-37.1-37.2-37.1H207v19.4c0,3.8-3.1,6.9-6.9,6.9c-0.1,0-0.2,0-0.3,0
			c-3.7-0.2-6.6-3.3-6.6-7.2v-19H90.4v19.4c0,3.8-3.1,6.9-6.9,6.9s-6.9-3.1-6.9-6.9V17.5H46.3c-20.5,0-37.2,16.6-37.2,37.1v63.5v0.4
			v120.3c0,11.3,5.6,22.1,15.3,29.6c8.6,6.6,19.7,10.3,31.4,10.3h171.7c11.7,0,22.9-3.6,31.4-10.3c9.7-7.5,15.3-18.3,15.3-29.6
			C274.3,238.8,274.3,54.5,274.3,54.5z M269.3,238.8c0,9.7-4.9,19.1-13.3,25.6c-7.7,5.9-17.8,9.2-28.4,9.2H55.9
			c-10.6,0-20.7-3.3-28.4-9.2c-8.5-6.5-13.3-15.9-13.3-25.6V120.5h255.1L269.3,238.8L269.3,238.8z"/>
		<path class="st0" d="M83.4,40.8c2.2,0,3.9-1.8,3.9-3.9V8.8c0-2.2-1.8-3.9-3.9-3.9s-3.9,1.8-3.9,3.9V37
			C79.5,39.1,81.3,40.8,83.4,40.8z"/>
		<path class="st0" d="M199.9,40.8h0.2c2.2,0,3.9-1.8,3.9-3.9V8.8c0-2.2-1.8-3.9-3.9-3.9c-0.2,0-0.5,0-0.7,0.1
			c-1.9,0.3-3.2,2.1-3.2,4.1v27.7C196.1,38.8,197.8,40.7,199.9,40.8L199.9,40.8z"/>
	</g>
</g>
</svg>
