<?xml version="1.0" encoding="utf-8"?>
<!-- Generator: Adobe Illustrator 27.0.0, SVG Export Plug-In . SVG Version: 6.00 Build 0)  -->
<svg version="1.1" id="_02" xmlns="http://www.w3.org/2000/svg" xmlns:xlink="http://www.w3.org/1999/xlink" x="0px" y="0px"
	 viewBox="0 0 283.5 283.5" style="enable-background:new 0 0 283.5 283.5;" xml:space="preserve">
<style type="text/css">
	.st0{fill:#7FBF3C;}
</style>
<g>
	<path class="st0" d="M110.7,182.4c-1.9-3.8-4.5-6.7-7.9-8.8c-3.4-2.1-7.5-3.1-12.2-3.1s-8.8,1-12.2,3.1c-3.4,2.1-6.1,5-7.9,8.8
		c-1.9,3.8-2.8,8.3-2.8,13.6s0.9,9.8,2.8,13.6c1.9,3.8,4.5,6.7,7.9,8.8c3.4,2.1,7.5,3.1,12.2,3.1s8.8-1,12.2-3.1
		c3.4-2.1,6.1-5,7.9-8.8c1.9-3.8,2.8-8.3,2.8-13.6S112.6,186.2,110.7,182.4L110.7,182.4z M105.2,206.7c-1.3,3-3.3,5.2-5.7,6.8
		c-2.5,1.6-5.4,2.4-8.9,2.4s-6.3-0.8-8.8-2.4c-2.5-1.6-4.4-3.9-5.8-6.8c-1.3-3-2-6.5-2-10.7s0.7-7.7,2-10.7c1.3-3,3.3-5.2,5.8-6.8
		c2.5-1.6,5.4-2.4,8.8-2.4s6.4,0.8,8.9,2.4c2.5,1.6,4.4,3.9,5.7,6.8c1.3,3,2,6.5,2,10.7S106.5,203.7,105.2,206.7z"/>
	<path class="st0" d="M148.1,221.5c6.2,0,11.1-1.6,14.4-4.8c3.4-3.2,5-8,5-14.4v-31.1h-6v29.6c0,5.1-1.1,8.9-3.3,11.4
		c-2.2,2.4-5.6,3.7-10.2,3.7s-8-1.2-10.2-3.7s-3.3-6.2-3.3-11.4v-29.6h-6v31.1c0,6.4,1.7,11.1,5.1,14.4
		C137.2,219.9,141.9,221.5,148.1,221.5z"/>
	<polygon class="st0" points="197.4,220.7 203.4,220.7 203.4,176.9 220.6,176.9 220.6,171.2 180.1,171.2 180.1,176.9 197.4,176.9 	
		"/>
</g>
<g>
	<path class="st0" d="M274.3,54.5c0-20.4-16.7-37.1-37.2-37.1H207v19.4c0,3.8-3.1,6.9-6.9,6.9c-0.1,0-0.2,0-0.3,0
		c-3.7-0.2-6.6-3.3-6.6-7.2V17.5H90.4v19.4c0,3.8-3.1,6.9-6.9,6.9s-6.9-3.1-6.9-6.9V17.5H46.3c-20.5,0-37.2,16.6-37.2,37.1v63.5
		l0,0.4v120.3c0,11.3,5.6,22.1,15.3,29.6c8.6,6.6,19.7,10.3,31.4,10.3h171.7c11.7,0,22.9-3.6,31.4-10.3c9.7-7.5,15.3-18.3,15.3-29.6
		C274.3,238.8,274.3,54.5,274.3,54.5z M269.3,238.8c0,9.7-4.9,19.1-13.3,25.6c-7.7,5.9-17.8,9.2-28.4,9.2H55.9
		c-10.6,0-20.7-3.3-28.4-9.2c-8.5-6.5-13.3-15.9-13.3-25.6V120.5h255.1V238.8z"/>
	<path class="st0" d="M83.4,40.8c2.2,0,3.9-1.8,3.9-3.9V8.8c0-2.2-1.8-3.9-3.9-3.9s-3.9,1.8-3.9,3.9v28.2
		C79.5,39.1,81.3,40.8,83.4,40.8z"/>
	<path class="st0" d="M199.9,40.8h0.2c2.2,0,3.9-1.8,3.9-3.9V8.8c0-2.2-1.8-3.9-3.9-3.9c-0.2,0-0.5,0-0.7,0.1
		c-1.9,0.3-3.2,2.1-3.2,4.1v27.7C196.1,38.8,197.8,40.7,199.9,40.8L199.9,40.8z"/>
</g>
</svg>
