<svg width="104" height="96" viewBox="0 0 104 96" fill="none" xmlns="http://www.w3.org/2000/svg">
<path fill-rule="evenodd" clip-rule="evenodd" d="M86.2 49.17C86.2 49.2769 86.1906 49.3744 86.1625 49.4807C95.9012 52.2815 103.03 61.2309 103.03 71.86C103.03 84.71 92.61 95.13 79.76 95.13C71.25 95.13 63.81 90.56 59.75 83.74H6.48C2.91 83.74 0 80.84 0 77.26V13.39C0 9.81 2.91 6.9 6.48 6.9H14.26V1.26C14.26 0.56 14.82 0 15.52 0C16.22 0 16.78 0.56 16.78 1.26V6.9H32.66V1.26C32.66 0.56 33.22 0 33.92 0C34.62 0 35.18 0.56 35.18 1.26V6.9H51.07V1.26C51.07 0.56 51.63 0 52.33 0C53.03 0 53.59 0.56 53.59 1.26V6.9H69.48V1.26C69.48 0.56 70.04 0 70.74 0C71.44 0 72 0.56 72 1.26V6.91H79.72C83.29 6.91 86.2 9.81 86.2 13.39V49.17ZM2.53 13.39C2.53 11.21 4.3 9.44 6.48 9.44H14.2V14.74C14.2 15.44 14.76 16 15.46 16C16.16 16 16.72 15.44 16.72 14.74V9.44H32.61V14.74C32.61 15.44 33.18 16 33.87 16C34.56 16 35.13 15.44 35.13 14.74V9.44H51.02V14.74C51.02 15.44 51.58 16 52.28 16C52.98 16 53.54 15.44 53.54 14.74V9.44H69.43V14.74C69.43 15.44 69.99 16 70.69 16C71.39 16 71.95 15.44 71.95 14.74V9.44H79.67C81.85 9.44 83.62 11.21 83.62 13.39V23.67H2.53V13.39ZM6.48 81.22C4.3 81.22 2.53 79.44 2.53 77.26V26.2H83.67V48.92C82.4 48.7 81.09 48.58 79.75 48.58C66.9 48.58 56.48 59 56.48 71.85C56.48 75.18 57.18 78.34 58.44 81.21H6.48V81.22ZM79.75 92.6C68.31 92.6 59.01 83.29 59.01 71.86C59.01 60.43 68.32 51.12 79.75 51.12C91.18 51.12 100.49 60.43 100.49 71.86C100.49 83.29 91.18 92.6 79.75 92.6ZM88.8 72.88H79.69V61.49C79.69 60.79 79.13 60.23 78.43 60.23C77.73 60.23 77.17 60.79 77.17 61.49V74.14C77.17 74.84 77.73 75.41 78.43 75.41H88.8C89.5 75.41 90.06 74.85 90.06 74.14C90.06 73.43 89.5 72.88 88.8 72.88ZM76.61 41.14H61.75C61.05 41.14 60.49 40.58 60.49 39.88C60.49 39.18 61.05 38.61 61.75 38.61H76.61C77.31 38.61 77.87 39.18 77.87 39.88C77.87 40.58 77.31 41.14 76.61 41.14ZM52.09 38.61H37.23C36.53 38.61 35.97 39.18 35.97 39.88C35.97 40.58 36.53 41.14 37.23 41.14H52.09C52.79 41.14 53.35 40.58 53.35 39.88C53.35 39.18 52.79 38.61 52.09 38.61ZM37.23 52.44H52.09C52.79 52.44 53.35 53 53.35 53.7C53.35 54.4 52.79 54.97 52.09 54.97H37.23C36.53 54.97 35.97 54.4 35.97 53.7C35.97 53 36.53 52.44 37.23 52.44ZM52.09 66.27H37.23C36.53 66.27 35.97 66.83 35.97 67.54C35.97 68.25 36.53 68.8 37.23 68.8H52.09C52.79 68.8 53.35 68.24 53.35 67.54C53.35 66.84 52.79 66.27 52.09 66.27ZM12.71 38.61H27.57C28.27 38.61 28.83 39.18 28.83 39.88C28.83 40.58 28.27 41.14 27.57 41.14H12.71C12.01 41.14 11.45 40.58 11.45 39.88C11.45 39.18 12.01 38.61 12.71 38.61ZM27.57 52.44H12.71C12.01 52.44 11.45 53 11.45 53.7C11.45 54.4 12.01 54.97 12.71 54.97H27.57C28.27 54.97 28.83 54.4 28.83 53.7C28.83 53 28.27 52.44 27.57 52.44ZM12.71 66.27H27.57C28.27 66.27 28.83 66.84 28.83 67.54C28.83 68.24 28.27 68.8 27.57 68.8H12.71C12.01 68.8 11.45 68.25 11.45 67.54C11.45 66.83 12.01 66.27 12.71 66.27Z" fill="#683D92"/>
</svg>
