<svg width="79" height="73" viewBox="0 0 79 73" fill="none" xmlns="http://www.w3.org/2000/svg">
<path d="M65.3164 38.1727C65.3356 38.0962 65.3483 38.0197 65.3483 37.9368V10.8749C65.3483 8.17123 63.1484 5.97133 60.4448 5.97133H54.6039V1.70544C54.6039 1.17619 54.1766 0.748962 53.6474 0.748962C53.1181 0.748962 52.6909 1.17619 52.6909 1.70544V5.97133H40.6712V1.70544C40.6712 1.17619 40.244 0.748962 39.7147 0.748962C39.1855 0.748962 38.7582 1.17619 38.7582 1.70544V5.97133H26.7385V1.70544C26.7385 1.17619 26.3113 0.748962 25.782 0.748962C25.2528 0.748962 24.8255 1.17619 24.8255 1.70544V5.97133H12.8122V1.70544C12.8122 1.17619 12.3849 0.748962 11.8557 0.748962C11.3264 0.748962 10.8992 1.17619 10.8992 1.70544V5.97133H5.05833C2.35468 5.97133 0.154785 8.17123 0.154785 10.8749V59.1834C0.154785 61.887 2.35468 64.0869 5.05833 64.0869H45.3452C48.4123 69.2455 54.0427 72.7016 60.4766 72.7016C70.1945 72.7016 78.0758 64.8202 78.0758 55.1024C78.0758 47.0616 72.6813 40.2897 65.3164 38.1791V38.1727ZM2.06774 10.8749C2.06774 9.22336 3.40681 7.88429 5.05833 7.88429H10.8992V11.8951C10.8992 12.4244 11.3264 12.8516 11.8557 12.8516C12.3849 12.8516 12.8122 12.4244 12.8122 11.8951V7.88429H24.8319V11.8951C24.8319 12.4244 25.2591 12.8516 25.7884 12.8516C26.3176 12.8516 26.7449 12.4244 26.7449 11.8951V7.88429H38.7646V11.8951C38.7646 12.4244 39.1918 12.8516 39.7211 12.8516C40.2503 12.8516 40.6776 12.4244 40.6776 11.8951V7.88429H52.6973V11.8951C52.6973 12.4244 53.1245 12.8516 53.6538 12.8516C54.183 12.8516 54.6102 12.4244 54.6102 11.8951V7.88429H60.4511C62.1027 7.88429 63.4417 9.22336 63.4417 10.8749V18.6478H2.06774V10.8749ZM5.05833 62.1676C3.40681 62.1676 2.06774 60.8285 2.06774 59.177V20.5672H63.4353V37.7519C62.4725 37.5861 61.4841 37.4968 60.4703 37.4968C50.7525 37.4968 42.8711 45.3782 42.8711 55.096C42.8711 57.6148 43.4003 60.0059 44.3568 62.174H5.05833V62.1676ZM60.4766 70.7823C51.8237 70.7823 44.7904 63.7426 44.7904 55.096C44.7904 46.4495 51.8301 39.4098 60.4766 39.4098C69.1232 39.4098 76.1629 46.4495 76.1629 55.096C76.1629 63.7426 69.1232 70.7823 60.4766 70.7823Z" fill="#982DE8"/>
<path d="M67.3186 55.8739H60.432V47.2593C60.432 46.73 60.0048 46.3028 59.4755 46.3028C58.9463 46.3028 58.519 46.73 58.519 47.2593V56.8304C58.519 57.3597 58.9463 57.7869 59.4755 57.7869H67.3186C67.8479 57.7869 68.2751 57.3597 68.2751 56.8304C68.2751 56.3012 67.8479 55.8739 67.3186 55.8739Z" fill="#982DE8"/>
<path d="M46.8564 31.8663H58.0982C58.6274 31.8663 59.0547 31.4391 59.0547 30.9098C59.0547 30.3806 58.6274 29.9534 58.0982 29.9534H46.8564C46.3271 29.9534 45.8999 30.3806 45.8999 30.9098C45.8999 31.4391 46.3271 31.8663 46.8564 31.8663Z" fill="#982DE8"/>
<path d="M39.5552 29.9534H28.3134C27.7842 29.9534 27.3569 30.3806 27.3569 30.9098C27.3569 31.4391 27.7842 31.8663 28.3134 31.8663H39.5552C40.0845 31.8663 40.5117 31.4391 40.5117 30.9098C40.5117 30.3806 40.0845 29.9534 39.5552 29.9534Z" fill="#982DE8"/>
<path d="M39.5552 40.4109H28.3134C27.7842 40.4109 27.3569 40.8381 27.3569 41.3674C27.3569 41.8966 27.7842 42.3238 28.3134 42.3238H39.5552C40.0845 42.3238 40.5117 41.8966 40.5117 41.3674C40.5117 40.8381 40.0845 40.4109 39.5552 40.4109Z" fill="#982DE8"/>
<path d="M39.5552 50.8684H28.3134C27.7842 50.8684 27.3569 51.2956 27.3569 51.8249C27.3569 52.3541 27.7842 52.7814 28.3134 52.7814H39.5552C40.0845 52.7814 40.5117 52.3541 40.5117 51.8249C40.5117 51.2956 40.0845 50.8684 39.5552 50.8684Z" fill="#982DE8"/>
<path d="M21.0189 29.9534H9.77069C9.24144 29.9534 8.81421 30.3806 8.81421 30.9098C8.81421 31.4391 9.24144 31.8663 9.77069 31.8663H21.0125C21.5417 31.8663 21.969 31.4391 21.969 30.9098C21.969 30.3806 21.5417 29.9534 21.0125 29.9534H21.0189Z" fill="#982DE8"/>
<path d="M21.0189 40.4109H9.77069C9.24144 40.4109 8.81421 40.8381 8.81421 41.3674C8.81421 41.8966 9.24144 42.3238 9.77069 42.3238H21.0125C21.5417 42.3238 21.969 41.8966 21.969 41.3674C21.969 40.8381 21.5417 40.4109 21.0125 40.4109H21.0189Z" fill="#982DE8"/>
<path d="M21.0189 50.8684H9.77069C9.24144 50.8684 8.81421 51.2956 8.81421 51.8249C8.81421 52.3541 9.24144 52.7814 9.77069 52.7814H21.0125C21.5417 52.7814 21.969 52.3541 21.969 51.8249C21.969 51.2956 21.5417 50.8684 21.0125 50.8684H21.0189Z" fill="#982DE8"/>
</svg>
