<svg width="30" height="64" viewBox="0 0 30 64" fill="none" xmlns="http://www.w3.org/2000/svg">
<g id="Icon - Pilula ARMED">
<path id="Vector" d="M29.1142 35.5407C29.1142 35.2283 29.1142 34.9035 29.1142 34.5911H0.455994C0.455994 39.5768 0.455994 44.475 0.455994 49.3607C0.455994 50.1979 0.493968 51.0351 0.658525 51.8473C1.25346 54.9212 2.56992 57.6202 4.92435 59.7819C8.96232 63.5056 13.6712 64.6177 18.9243 63.1557C24.975 61.4688 29.2914 55.7959 29.1395 49.4982C29.0256 44.8498 29.1142 40.2015 29.1142 35.5407Z" fill="#7812C2"/>
<path id="Vector_2" d="M29.1395 11.8225C27.5446 2.85078 17.8611 -2.4473 9.36739 1.12641C3.68384 3.51304 0.645869 7.87396 0.405362 14.0217C0.329413 16.0585 0.392704 18.0953 0.392704 20.1445C0.392704 23.2309 0.392704 26.3173 0.392704 29.5161C0.721818 29.5411 0.92435 29.5661 1.12688 29.5661C10.2408 29.5661 19.3674 29.5661 28.4813 29.5911C29.2535 29.5911 29.3674 29.3037 29.3674 28.6414C29.3421 23.8682 29.3674 19.0949 29.3421 14.3341C29.3421 13.4969 29.2788 12.6597 29.1395 11.835V11.8225ZM9.12688 5.41235C12.8611 3.75045 16.418 3.82543 19.8231 5.76223C23.5446 7.88646 25.3674 11.1728 25.6079 15.5962C20.0509 12.1599 14.6712 8.82362 9.12688 5.39986V5.41235Z" fill="#F7941D"/>
</g>
</svg>
