<svg width="98" height="100" viewBox="0 0 98 100" fill="none" xmlns="http://www.w3.org/2000/svg">
<g clip-path="url(#clip0_31_1659)">
<path d="M88.68 30.08L97.91 18.45L57.57 0L48.95 10.87L40.34 0L0 18.45L9.23 30.08L0 41.72L9.51 46.07V79.67L48.95 99.17L88.39 79.67V46.07L97.9 41.72L88.67 30.08H88.68ZM58.18 2.51L94.69 19.21L87.08 28.81L50.56 12.12L58.18 2.52V2.51ZM3.22 19.22L39.73 2.52L47.34 12.12L10.83 28.82L3.22 19.22ZM3.22 40.94L10.84 31.34L47.35 48.04L39.74 57.64L3.22 40.94ZM47.94 96.37L11.55 78.39V46.99L40.33 60.15L47.93 50.57V96.37H47.94ZM48.95 46.52L12.99 30.08L47.94 14.1V41.3C47.94 41.86 48.39 42.32 48.96 42.32C49.52 42.32 49.98 41.86 49.98 41.3V14.1L84.93 30.08L48.96 46.53L48.95 46.52ZM86.36 78.39L49.98 96.37V50.58L57.58 60.16L86.36 47V78.4V78.39ZM58.18 57.63L50.56 48.03L87.07 31.33L94.68 40.93L58.17 57.63H58.18Z" fill="#683D92"/>
</g>
<defs>
<clipPath id="clip0_31_1659">
<rect width="97.92" height="99.17" fill="white"/>
</clipPath>
</defs>
</svg>
