<svg width="75" height="76" viewBox="0 0 75 76" fill="none" xmlns="http://www.w3.org/2000/svg">
<path id="Vector" d="M67.5151 22.7504L74.4938 13.9511L43.9869 0L37.4659 8.22228L30.95 0L0.443176 13.9511L7.42191 22.7504L0.443176 31.5548L7.6379 34.8468V60.2607L37.4711 75.0051L67.3042 60.2607V34.8468L74.499 31.56L67.5202 22.7607L67.5151 22.7504ZM44.4447 43.5946L38.6848 36.3305L66.3014 23.7035L72.0613 30.9675L44.4447 43.5946ZM37.4659 32.0082C37.8928 32.0082 38.2373 31.663 38.2373 31.2354V10.6642L64.6711 22.7504L37.4659 35.192L10.2659 22.7504L36.6997 10.6642V31.2354C36.6997 31.663 37.0442 32.0082 37.4711 32.0082H37.4659ZM44.4447 1.90617L72.0613 14.5332L66.3014 21.7921L38.6848 9.16506L44.4447 1.90102V1.90617ZM30.4923 1.90617L36.2522 9.17022L8.6356 21.7973L2.8757 14.5384L30.4923 1.90617ZM8.6356 23.7035L36.2522 36.3305L30.4923 43.5946L2.8757 30.9675L8.6356 23.7035ZM9.18073 35.5475L30.95 45.5008L36.6997 38.2522V72.8929L9.18073 59.2921V35.5423V35.5475ZM65.7614 59.2973L38.2425 72.8981V38.2573L43.9921 45.5059L65.7614 35.5526V59.3024V59.2973Z" fill="#982DE8"/>
</svg>
