<svg width="57" height="81" viewBox="0 0 57 81" fill="none" xmlns="http://www.w3.org/2000/svg">
<g id="Icon Li&#195;&#167;en&#195;&#167;a">
<path id="Vector" d="M56.7885 12.3369C56.7885 12.2814 56.783 12.2315 56.7719 12.1816C56.7719 12.1816 56.7719 12.176 56.7719 12.1705C56.7552 12.0983 56.733 12.0318 56.6998 11.9652C56.6942 11.9485 56.6831 11.9374 56.6776 11.9208C56.6387 11.8542 56.5999 11.7932 56.5444 11.7433L45.2095 0.414098C45.1595 0.364165 45.0985 0.319781 45.0319 0.280944C45.0153 0.269848 45.0042 0.2643 44.9875 0.258752C44.9265 0.225464 44.8599 0.203271 44.7878 0.186627C44.7823 0.186627 44.7767 0.186627 44.7712 0.186627C44.7212 0.175531 44.6713 0.169983 44.6214 0.169983H0.452301V71.7346H38.0912V79.8181C38.0912 80.151 38.2909 80.4506 38.596 80.5837C38.9012 80.7169 39.2563 80.6503 39.5004 80.4228L43.0901 77.0052L46.6797 80.4228C46.8351 80.5726 47.0459 80.6503 47.2512 80.6503C47.3622 80.6503 47.4731 80.6281 47.5785 80.5837C47.8837 80.4506 48.0834 80.151 48.0834 79.8181V71.7346H56.783V12.3369H56.7885ZM45.4536 3.0106L53.9479 11.5047H45.4536V3.0106ZM37.0481 59.8783L34.3073 58.5856L37.0481 57.2874C37.8248 56.9212 38.191 56.0335 37.9025 55.229L36.8761 52.3773L39.7334 53.3982C40.5379 53.6867 41.4256 53.3205 41.7918 52.5438L43.079 49.7975L44.3772 52.5382C44.7434 53.315 45.6311 53.6811 46.4356 53.3926L49.2874 52.3662L48.2665 55.2235C47.978 56.0335 48.3442 56.9156 49.1209 57.2818L51.8673 58.5745L49.1209 59.8728C48.3442 60.2389 47.978 61.1266 48.2665 61.9311L49.2929 64.7828L46.4356 63.762C45.6256 63.4735 44.7434 63.8396 44.3772 64.6164L43.0845 67.3627L41.7862 64.6164C41.5033 64.0227 40.9152 63.6676 40.2882 63.6676C40.0996 63.6676 39.911 63.7009 39.7279 63.7675L38.6293 64.1614C38.6293 64.1614 38.596 64.1725 38.5849 64.1781L36.8761 64.7939L37.897 61.9367C38.1855 61.1266 37.8193 60.2445 37.0425 59.8783H37.0481ZM46.419 77.8818L43.6615 75.2576C43.3397 74.9524 42.8349 74.9524 42.5131 75.2576L39.7556 77.8818V65.5263L40.2882 65.3321L41.5865 68.0784C41.8639 68.6665 42.4409 69.0271 43.0845 69.0271C43.7337 69.0271 44.3051 68.6609 44.5825 68.0784L45.8753 65.3376L46.4134 65.5318V77.8818H46.419ZM48.0834 70.0757V66.1254L48.7381 66.3585C49.3484 66.5804 50.0142 66.425 50.4692 65.9701C50.9296 65.5096 51.0739 64.8494 50.8575 64.2391L49.8311 61.3874L52.5775 60.0891C53.1656 59.8117 53.5262 59.2347 53.5262 58.5856C53.5262 57.9365 53.16 57.365 52.5775 57.0876L49.8367 55.7949L50.8575 52.9377C51.0739 52.3274 50.9241 51.6616 50.4692 51.2067C50.0087 50.7462 49.3484 50.5964 48.7381 50.8183L45.8863 51.8392L44.5881 49.0984C44.3107 48.5103 43.7337 48.1497 43.0901 48.1497C42.4409 48.1497 41.8695 48.5159 41.5921 49.0984L40.2993 51.8392L37.442 50.8183C36.8317 50.5964 36.1659 50.7517 35.711 51.2067C35.2505 51.6672 35.1062 52.3274 35.3226 52.9377L36.3435 55.7894L33.6027 57.0876C33.0146 57.365 32.6539 57.942 32.6539 58.5856C32.6539 59.2347 33.0201 59.8117 33.6027 60.0891L36.3435 61.3818L35.3226 64.2391C35.1062 64.8494 35.256 65.5152 35.711 65.9701C36.1715 66.4306 36.8317 66.5804 37.442 66.3585L38.0967 66.1254V70.0757H2.11676V1.8344H43.7891V12.3369C43.7891 12.7974 44.1609 13.1691 44.6214 13.1691H55.1241V70.0701H48.089L48.0834 70.0757Z" fill="#8814DF"/>
<path id="Vector_2" d="M46.7852 17.0527H10.4557C9.99517 17.0527 9.62344 17.4245 9.62344 17.8849C9.62344 18.3454 9.99517 18.7172 10.4557 18.7172H46.7852C47.2457 18.7172 47.6174 18.3454 47.6174 17.8849C47.6174 17.4245 47.2457 17.0527 46.7852 17.0527Z" fill="#8814DF"/>
<path id="Vector_3" d="M46.7852 24.526H10.4557C9.99517 24.526 9.62344 24.8977 9.62344 25.3582C9.62344 25.8187 9.99517 26.1904 10.4557 26.1904H46.7852C47.2457 26.1904 47.6174 25.8187 47.6174 25.3582C47.6174 24.8977 47.2457 24.526 46.7852 24.526Z" fill="#8814DF"/>
<path id="Vector_4" d="M46.7852 31.9937H10.4557C9.99517 31.9937 9.62344 32.3654 9.62344 32.8259C9.62344 33.2864 9.99517 33.6581 10.4557 33.6581H46.7852C47.2457 33.6581 47.6174 33.2864 47.6174 32.8259C47.6174 32.3654 47.2457 31.9937 46.7852 31.9937Z" fill="#8814DF"/>
<path id="Vector_5" d="M46.7852 39.467H10.4557C9.99517 39.467 9.62344 39.8387 9.62344 40.2992C9.62344 40.7597 9.99517 41.1314 10.4557 41.1314H46.7852C47.2457 41.1314 47.6174 40.7597 47.6174 40.2992C47.6174 39.8387 47.2457 39.467 46.7852 39.467Z" fill="#8814DF"/>
</g>
</svg>
