<svg width="65" height="74" viewBox="0 0 65 74" fill="none" xmlns="http://www.w3.org/2000/svg">
<g id="Layer_1" clip-path="url(#clip0_276_2)">
<g id="ll4UbY.tif">
<path id="Vector" d="M31.284 53.6194C30.7259 53.6194 30.1576 53.4402 29.7019 53.1022C29.6251 53.0459 29.5483 52.9947 29.4715 52.9383C29.2718 52.8001 29.0465 52.6465 28.8366 52.4416C26.553 50.25 25.9693 45.3648 29.2923 40.2747C29.4561 40.0187 29.3844 39.8907 29.3537 39.8343C29.2308 39.6039 28.8263 39.3735 28.2938 39.3735C26.9165 39.3735 25.5392 39.3735 24.167 39.3735C22.3647 39.3735 20.5573 39.3735 18.755 39.3735C17.4289 39.3684 16.1694 38.8358 15.2989 37.9141C14.4746 37.0384 14.0599 35.8965 14.1213 34.6931C14.1674 33.8379 14.4541 32.952 14.8996 32.2659C16.1591 30.3353 16.9272 28.4458 17.7413 26.4436C18.5656 24.4106 19.4207 22.306 20.8236 20.2116C22.0729 18.3425 23.8547 17.3952 26.1178 17.3952H28.9902C31.3915 17.3952 34.1717 17.3952 35.9587 17.3952H35.9791C38.1296 17.3952 39.8653 18.2657 41.1402 19.9863C41.2324 20.1143 41.3194 20.2423 41.4065 20.3704C41.601 20.652 41.7854 20.9183 41.9953 21.1282C42.9015 22.0756 42.9937 23.1458 42.9732 23.9754C42.9323 25.4962 42.9425 27.0427 42.9476 28.538C42.9476 29.132 42.9527 29.726 42.9527 30.32V32.1378C42.9527 33.925 42.9528 35.7173 42.9425 37.5044C42.9425 37.8936 42.8145 38.4415 42.451 38.7795L42.1335 39.0765C40.0752 41.0224 34.6069 46.1892 33.4088 52.0166C33.2706 52.6874 32.8149 53.2149 32.1595 53.4658C31.883 53.5733 31.5861 53.6245 31.2891 53.6245L31.284 53.6194ZM26.0307 37.8372C26.7885 37.8372 27.5412 37.8372 28.2989 37.8372C29.3435 37.8372 30.2907 38.334 30.7054 39.1021C31.0485 39.7319 31.0024 40.4642 30.5774 41.1145C27.7409 45.4569 28.1146 49.6252 29.9015 51.3356C30.0193 51.4533 30.1729 51.5609 30.3368 51.6684C30.4289 51.7299 30.5211 51.7964 30.6132 51.863C30.8949 52.0729 31.3045 52.1395 31.6066 52.0217C31.8267 51.9347 31.883 51.7964 31.9035 51.6991C33.1989 45.3955 38.9232 39.988 41.0788 37.9499L41.3655 37.6734C41.3809 37.6375 41.4014 37.5556 41.4014 37.4839C41.4167 35.6917 41.4116 33.9096 41.4116 32.1225V30.3046C41.4116 29.7106 41.4116 29.1217 41.4065 28.5277C41.4014 27.0222 41.3911 25.4655 41.4321 23.9242C41.4526 23.0997 41.2989 22.6132 40.8842 22.1831C40.5924 21.8861 40.3568 21.5481 40.1367 21.2255C40.0599 21.1129 39.978 20.9951 39.896 20.8824C38.9181 19.5613 37.6329 18.9161 35.9689 18.9161H35.9535C34.1666 18.9161 31.3813 18.9161 28.985 18.9161H26.1331C26.1331 18.9161 26.1229 18.9161 26.1178 18.9161C24.3718 18.9161 23.0611 19.6125 22.0985 21.0514C20.7877 23.0178 19.9992 24.9534 19.1646 27.0069C18.3608 28.9886 17.5262 31.0369 16.1899 33.0903C15.8878 33.5512 15.6881 34.1759 15.6574 34.7648C15.6164 35.5431 15.8826 36.2805 16.4151 36.8438C16.9988 37.4634 17.8488 37.8168 18.755 37.8219C20.5573 37.827 22.3596 37.8219 24.1619 37.8219C24.7814 37.8219 25.4061 37.8219 26.0256 37.8219L26.0307 37.8372ZM51.1962 40.71H44.4529V18.8188H51.1962V40.71ZM45.989 39.1738H49.6601V20.355H45.989V39.1738Z" fill="#68348D"/>
</g>
<path id="Vector_2" d="M14.9354 74C14.5821 74 14.2288 73.9129 13.9011 73.7337C13.0512 73.2729 12.6211 72.3255 12.8259 71.3833L15.2682 60.0664C5.69358 54.0803 0 43.8183 0 32.5065C0 14.5839 14.577 0 32.4974 0C50.4179 0 65 14.5839 65 32.5065C65 50.4292 50.4179 65.008 32.4974 65.008C30.1627 65.008 27.8279 64.757 25.5494 64.2654L16.451 73.365C16.0362 73.7849 15.4884 74 14.9354 74ZM32.4974 1.53623C15.4269 1.53623 1.53604 15.4288 1.53604 32.5065C1.53604 43.4598 7.14258 53.3787 16.5278 59.0423L16.9988 59.3239L14.3261 71.7059C14.2339 72.1309 14.5412 72.3306 14.6384 72.387C14.7357 72.4382 15.0685 72.5816 15.3655 72.2794L25.0681 62.5756L25.4829 62.6729C27.7818 63.2003 30.1422 63.4717 32.5026 63.4717C49.5782 63.4717 63.4691 49.5791 63.4691 32.5065C63.4691 15.4339 49.5731 1.53623 32.4974 1.53623ZM31.284 53.6194C30.7259 53.6194 30.1575 53.4402 29.7019 53.1022C29.625 53.0459 29.5482 52.9947 29.4714 52.9383C29.2718 52.8001 29.0465 52.6465 28.8365 52.4416C26.553 50.25 25.9693 45.3648 29.2922 40.2747C29.4561 40.0187 29.3844 39.8907 29.3537 39.8343C29.2308 39.6039 28.8263 39.3735 28.2938 39.3735C26.9165 39.3735 25.5392 39.3735 24.167 39.3735C22.3596 39.3735 20.5573 39.3735 18.755 39.3735C17.4289 39.3684 16.1694 38.8358 15.2989 37.9141C14.4746 37.0384 14.0599 35.8965 14.1213 34.6931C14.1674 33.8379 14.4541 32.952 14.8996 32.2659C16.1591 30.3353 16.9271 28.4458 17.7412 26.4436C18.5656 24.4106 19.4206 22.306 20.8236 20.2116C22.0729 18.3425 23.8547 17.3952 26.1178 17.3952H28.9902C31.3915 17.3952 34.1717 17.3952 35.9586 17.3952H35.9791C38.1296 17.3952 39.8653 18.2657 41.1402 19.9863C41.2324 20.1143 41.3194 20.2423 41.4065 20.3704C41.601 20.652 41.7853 20.9183 41.9953 21.1282C42.9015 22.0756 42.9937 23.1458 42.9732 23.9754C42.9323 25.4962 42.9425 27.0427 42.9476 28.538C42.9476 29.132 42.9527 29.726 42.9527 30.32V32.1378C42.9527 33.925 42.9527 35.7173 42.9425 37.5044C42.9425 37.8936 42.8145 38.4415 42.451 38.7795L42.1335 39.0765C40.0752 41.0224 34.6069 46.1892 33.4088 52.0166C33.2706 52.6874 32.8149 53.2149 32.1595 53.4658C31.883 53.5733 31.5861 53.6245 31.2891 53.6245L31.284 53.6194ZM26.0256 37.8372C26.7834 37.8372 27.5412 37.8372 28.2938 37.8372C29.3383 37.8372 30.2855 38.334 30.7003 39.1021C31.0433 39.7319 30.9972 40.4642 30.5723 41.1145C27.7357 45.4569 28.1095 49.6252 29.8964 51.3355C30.0142 51.4533 30.1678 51.5609 30.3316 51.6684C30.4238 51.7298 30.516 51.7964 30.6081 51.863C30.8897 52.0729 31.2993 52.1395 31.6014 52.0217C31.8216 51.9347 31.8779 51.7964 31.8984 51.6991C33.1938 45.3955 38.9181 39.988 41.0737 37.9499L41.3604 37.6734C41.3757 37.6375 41.3962 37.5556 41.3962 37.4839C41.4116 35.6916 41.4065 33.9096 41.4065 32.1225V30.3046C41.4065 29.7106 41.4065 29.1217 41.4013 28.5277C41.3962 27.0222 41.386 25.4655 41.4269 23.9242C41.4474 23.1048 41.2938 22.6132 40.8791 22.1831C40.5872 21.8861 40.3517 21.5481 40.1315 21.2255C40.0547 21.1129 39.9728 20.9951 39.8909 20.8824C38.913 19.5613 37.6278 18.9161 35.9638 18.9161H35.9484C34.1615 18.9161 31.3761 18.9161 28.9799 18.9161H26.128C26.128 18.9161 26.1178 18.9161 26.1126 18.9161C24.3667 18.9161 23.0559 19.6125 22.0933 21.0514C20.7826 23.0178 19.9941 24.9534 19.1595 27.0069C18.3556 28.9886 17.5211 31.0369 16.1847 33.0903C15.8826 33.5512 15.6829 34.1759 15.6522 34.7648C15.6113 35.5431 15.8775 36.2805 16.41 36.8438C16.9937 37.4634 17.8436 37.8168 18.7499 37.8219C20.5522 37.827 22.3545 37.8219 24.1568 37.8219C24.7763 37.8219 25.3958 37.8219 26.0154 37.8219L26.0256 37.8372ZM51.1961 40.71H44.4529V18.8188H51.1961V40.71ZM45.989 39.1738H49.6601V20.355H45.989V39.1738Z" fill="#8814DF"/>
<path id="Vector_3" d="M31.284 53.6194C30.7259 53.6194 30.1576 53.4402 29.7019 53.1022C29.6251 53.0459 29.5483 52.9947 29.4715 52.9383C29.2718 52.8001 29.0465 52.6465 28.8366 52.4416C26.553 50.25 25.9693 45.3648 29.2923 40.2747C29.4561 40.0187 29.3844 39.8907 29.3537 39.8343C29.2308 39.6039 28.8263 39.3735 28.2938 39.3735C26.9165 39.3735 25.5392 39.3735 24.167 39.3735C22.3647 39.3735 20.5573 39.3735 18.755 39.3735C17.4289 39.3684 16.1694 38.8358 15.2989 37.9141C14.4746 37.0384 14.0599 35.8965 14.1213 34.6931C14.1674 33.8379 14.4541 32.952 14.8996 32.2659C16.1591 30.3353 16.9272 28.4458 17.7413 26.4436C18.5656 24.4106 19.4207 22.306 20.8236 20.2116C22.0729 18.3425 23.8547 17.3952 26.1178 17.3952H28.9902C31.3915 17.3952 34.1717 17.3952 35.9587 17.3952H35.9791C38.1296 17.3952 39.8653 18.2657 41.1402 19.9863C41.2324 20.1143 41.3194 20.2423 41.4065 20.3704C41.601 20.652 41.7854 20.9183 41.9953 21.1282C42.9015 22.0756 42.9937 23.1458 42.9732 23.9754C42.9323 25.4962 42.9425 27.0427 42.9476 28.538C42.9476 29.132 42.9527 29.726 42.9527 30.32V32.1378C42.9527 33.925 42.9528 35.7173 42.9425 37.5044C42.9425 37.8936 42.8145 38.4415 42.451 38.7795L42.1335 39.0765C40.0752 41.0224 34.6069 46.1892 33.4088 52.0166C33.2706 52.6874 32.8149 53.2149 32.1595 53.4658C31.883 53.5733 31.5861 53.6245 31.2891 53.6245L31.284 53.6194ZM26.0307 37.8372C26.7885 37.8372 27.5412 37.8372 28.2989 37.8372C29.3435 37.8372 30.2907 38.334 30.7054 39.1021C31.0485 39.7319 31.0024 40.4642 30.5774 41.1145C27.7409 45.4569 28.1146 49.6252 29.9015 51.3356C30.0193 51.4533 30.1729 51.5609 30.3368 51.6684C30.4289 51.7299 30.5211 51.7964 30.6132 51.863C30.8949 52.0729 31.3045 52.1395 31.6066 52.0217C31.8267 51.9347 31.883 51.7964 31.9035 51.6991C33.1989 45.3955 38.9232 39.988 41.0788 37.9499L41.3655 37.6734C41.3809 37.6375 41.4014 37.5556 41.4014 37.4839C41.4167 35.6917 41.4116 33.9096 41.4116 32.1225V30.3046C41.4116 29.7106 41.4116 29.1217 41.4065 28.5277C41.4014 27.0222 41.3911 25.4655 41.4321 23.9242C41.4526 23.0997 41.2989 22.6132 40.8842 22.1831C40.5924 21.8861 40.3568 21.5481 40.1367 21.2255C40.0599 21.1129 39.978 20.9951 39.896 20.8824C38.9181 19.5613 37.6329 18.9161 35.9689 18.9161H35.9535C34.1666 18.9161 31.3813 18.9161 28.985 18.9161H26.1331C26.1331 18.9161 26.1229 18.9161 26.1178 18.9161C24.3718 18.9161 23.0611 19.6125 22.0985 21.0514C20.7877 23.0178 19.9992 24.9534 19.1646 27.0069C18.3608 28.9886 17.5262 31.0369 16.1899 33.0903C15.8878 33.5512 15.6881 34.1759 15.6574 34.7648C15.6164 35.5431 15.8826 36.2805 16.4151 36.8438C16.9988 37.4634 17.8488 37.8168 18.755 37.8219C20.5573 37.827 22.3596 37.8219 24.1619 37.8219C24.7814 37.8219 25.4061 37.8219 26.0256 37.8219L26.0307 37.8372Z" fill="#8814DF"/>
<path id="Vector_4" d="M51.1961 40.71H44.4529V18.8188H51.1961V40.71ZM45.9889 39.1737H49.66V20.355H45.9889V39.1737Z" fill="#8814DF"/>
</g>
<defs>
<clipPath id="clip0_276_2">
<rect width="65" height="74" fill="white"/>
</clipPath>
</defs>
</svg>
