<svg width="65" height="65" viewBox="0 0 65 65" fill="none" xmlns="http://www.w3.org/2000/svg">
<path d="M1.93628 32.4575C1.93628 15.449 15.8104 1.57489 32.8189 1.57489C49.8273 1.57489 63.7015 15.449 63.7015 32.4575C63.7015 49.4659 49.8273 63.3401 32.8189 63.3401C15.8104 63.3401 1.93628 49.4659 1.93628 32.4575Z" stroke="#8814DF" stroke-width="2"/>
<path d="M34.8433 45.8684V29.6741C34.8433 28.5561 33.937 27.6498 32.819 27.6498C31.701 27.6498 30.7947 28.5561 30.7947 29.6741V45.8684C30.7947 46.9864 31.701 47.8927 32.819 47.8927C33.937 47.8927 34.8433 46.9864 34.8433 45.8684Z" fill="#8814DF"/>
<path d="M30.7947 20.0587C30.7947 21.1767 31.701 22.083 32.819 22.083C33.937 22.083 34.8433 21.1767 34.8433 20.0587C34.8433 18.9407 33.937 18.0344 32.819 18.0344C31.701 18.0344 30.7947 18.9407 30.7947 20.0587Z" fill="#8814DF"/>
</svg>
