<svg width="36" height="35" viewBox="0 0 36 35" fill="none" xmlns="http://www.w3.org/2000/svg">
<g clip-path="url(#clip0_34_2460)">
<path d="M35.5357 18.9602C35.8497 18.629 36.0139 18.1699 35.9996 17.6957C35.9996 17.2441 35.8426 16.8075 35.5357 16.4838L21.4326 0.541912C20.776 -0.165615 19.6983 -0.180669 19.0202 0.511804C19.0131 0.519331 18.9988 0.534385 18.9917 0.541912C18.3279 1.25697 18.3279 2.40105 18.9917 3.1161L30.2827 15.8516L1.56981 15.8516C0.706205 15.9043 0.0281739 16.6419 -0.000374811 17.5527C-0.0289235 18.5462 0.713344 19.3742 1.65545 19.3968C1.66973 19.3968 1.684 19.3968 1.70541 19.3968L30.6539 19.3967L18.8561 32.1322C18.3208 32.9828 18.5421 34.1269 19.3486 34.6914C19.9766 35.1279 20.7974 35.0978 21.3898 34.6086L35.5357 18.9602Z" fill="#6C4590"/>
</g>
<defs>
<clipPath id="clip0_34_2460">
<rect width="36" height="35" fill="white"/>
</clipPath>
</defs>
</svg>
