<svg width="90" height="108" viewBox="0 0 90 108" fill="none" xmlns="http://www.w3.org/2000/svg">
<path fill-rule="evenodd" clip-rule="evenodd" d="M89.0057 16.8666C88.9818 16.7566 88.946 16.6666 88.8862 16.5766C88.8862 16.5632 88.8756 16.5499 88.8649 16.5366C88.8596 16.5299 88.8543 16.5232 88.8503 16.5166C88.7906 16.4266 88.7308 16.3466 88.6352 16.2766L70.7408 1.30656C70.6796 1.2554 70.6121 1.21492 70.5428 1.17342V1.17341C70.5173 1.15813 70.4916 1.14271 70.4659 1.12656L70.3941 1.09656C70.2985 1.05657 70.191 1.02657 70.0834 0.99658L70.0834 0.996577L70.0833 0.996562H70.0594L70.0316 0.993203C69.9595 0.98444 69.8946 0.976562 69.8204 0.976562H0V95.6066H59.4925V106.297C59.4925 106.737 59.8033 107.137 60.2934 107.307C60.7716 107.487 61.3334 107.397 61.7278 107.097L67.4058 102.577L73.0837 107.097C73.3347 107.297 73.6574 107.397 73.9921 107.397C74.1714 107.397 74.3388 107.367 74.5061 107.307C74.9843 107.127 75.307 106.737 75.307 106.297V95.6066H89.0535V17.0766C89.0535 17.0066 89.0535 16.9366 89.0296 16.8666H89.0057ZM71.1233 4.73656L84.5471 15.9666H71.1233V4.73656ZM72.6294 87.4066V103.717L68.2903 100.267C67.7763 99.8666 66.9874 99.8666 66.4734 100.267L62.1104 103.737V87.3966L62.9471 87.1366L65.0031 90.7666C65.4454 91.5466 66.3539 92.0166 67.3699 92.0166C68.3859 92.0166 69.2944 91.5366 69.7367 90.7666L71.7807 87.1466L72.6294 87.4066ZM72.6772 85.0666C71.3982 84.6866 69.9997 85.1666 69.4259 86.1966L67.3819 89.8266L65.3259 86.1966C64.8836 85.4166 63.9512 84.9466 62.9591 84.9466C62.6602 84.9466 62.3614 84.9866 62.0745 85.0766L60.3412 85.5966C60.3412 85.5966 60.2934 85.6066 60.2695 85.6166L57.568 86.4266L59.1818 82.6466C59.636 81.5766 59.0622 80.4066 57.831 79.9266L53.5038 78.2166L57.831 76.4966C59.0622 76.0166 59.636 74.8366 59.1818 73.7766L57.5561 70.0066L62.0745 71.3566C63.3416 71.7366 64.7521 71.2566 65.3259 70.2266L67.3579 66.5966L69.4139 70.2166C69.9877 71.2466 71.3982 71.7266 72.6653 71.3466L77.1718 69.9866L75.558 73.7666C75.1038 74.8366 75.6776 76.0066 76.9088 76.4866L81.2479 78.1966L76.9088 79.9166C75.6776 80.3966 75.1038 81.5766 75.558 82.6366L77.1837 86.4066L72.6653 85.0566L72.6772 85.0666ZM86.4118 93.4066H75.2831V88.1866L76.3231 88.4966C77.2913 88.7866 78.3432 88.5866 79.0604 87.9866C79.7896 87.3766 80.0167 86.5066 79.67 85.6966L78.0444 81.9266L82.3835 80.2066C83.3159 79.8366 83.8777 79.0766 83.8777 78.2166C83.8777 77.3566 83.3039 76.6066 82.3835 76.2366L78.0563 74.5266L79.67 70.7466C80.0167 69.9366 79.7776 69.0566 79.0604 68.4566C78.3312 67.8466 77.2913 67.6466 76.3231 67.9466L71.8166 69.2966L69.7606 65.6766C69.3183 64.8966 68.4099 64.4266 67.3938 64.4266C66.3778 64.4266 65.4693 64.9066 65.027 65.6766L62.983 69.2966L58.4645 67.9466C57.4963 67.6566 56.4444 67.8566 55.7272 68.4566C54.998 69.0666 54.7709 69.9366 55.1176 70.7466L56.7313 74.5166L52.4041 76.2366C51.4717 76.6066 50.9099 77.3666 50.9099 78.2166C50.9099 79.0666 51.4837 79.8366 52.4041 80.2066L56.7313 81.9166L55.1176 85.6966C54.7709 86.5066 55.01 87.3866 55.7272 87.9866C56.4564 88.5966 57.4963 88.7966 58.4645 88.4966L59.5045 88.1866V93.4066H2.62977V3.18656H68.4935V17.0766C68.4935 17.6866 69.0792 18.1766 69.8084 18.1766H86.4118V93.4066ZM14.4996 24.4066C14.4996 25.0166 15.0853 25.5066 15.8145 25.5066H73.2271C73.9563 25.5066 74.542 25.0166 74.542 24.4066C74.542 23.7966 73.9563 23.3066 73.2271 23.3066H15.8145C15.0853 23.3066 14.4996 23.7966 14.4996 24.4066ZM15.8145 33.1866H73.2271C73.9563 33.1866 74.542 33.6766 74.542 34.2866C74.542 34.8966 73.9563 35.3866 73.2271 35.3866H15.8145C15.0853 35.3866 14.4996 34.8966 14.4996 34.2866C14.4996 33.6766 15.0853 33.1866 15.8145 33.1866ZM73.2271 43.0666H15.8145C15.0853 43.0666 14.4996 43.5566 14.4996 44.1666C14.4996 44.7766 15.0853 45.2666 15.8145 45.2666H73.2271C73.9563 45.2666 74.542 44.7766 74.542 44.1666C74.542 43.5566 73.9563 43.0666 73.2271 43.0666ZM15.8145 52.9466H73.2271C73.9563 52.9466 74.542 53.4366 74.542 54.0466C74.542 54.6566 73.9563 55.1466 73.2271 55.1466H15.8145C15.0853 55.1466 14.4996 54.6566 14.4996 54.0466C14.4996 53.4366 15.0853 52.9466 15.8145 52.9466Z" fill="#6C4590"/>
</svg>
