<?xml version="1.0" encoding="utf-8"?>
<!-- Generator: Adobe Illustrator 26.3.1, SVG Export Plug-In . SVG Version: 6.00 Build 0)  -->
<svg version="1.1" id="Layer_1" xmlns="http://www.w3.org/2000/svg" xmlns:xlink="http://www.w3.org/1999/xlink" x="0px" y="0px"
	 viewBox="0 0 341.6 292.4" style="enable-background:new 0 0 341.6 292.4;" xml:space="preserve">
<style type="text/css">
	.st0{fill:#a16fe5;}
	.st1{font-family:'Impact';}
	.st2{font-size:54.82px;}
	.st3{letter-spacing:3;}
</style>
<g id="Layer_1_00000029025544744765243350000002307423262766012348_">
	<g id="Group_37">
		<path class="st0" d="M339.6,0c-9.9,0.1-19.7,0-29.6,0H57.3C55,0,55,0,55,2.4v40.1c0,2.3,0,2.3-2.3,2.3H0v142.6
			c0,20.3-0.1,40.6,0.1,60.9c0,4.2,0.5,8.3,1.4,12.4c1.6,6.3,4.7,12,9,16.9c4.6,5.4,10.5,9.5,17.2,12.1c5.3,2,10.8,2.9,16.5,2.7
			h131.3c40.8,0,81.5,0,122.3,0c7.6,0.1,15.1-1.7,21.8-5.4c13.9-7.7,22.4-22.5,22.1-38.3V118.5c0-38.8,0-77.6,0.1-116.4
			C341.6,0.4,341.2,0,339.6,0z M55,118.4V249c0.2,7.9-3.1,15.5-9,20.8c-2.8,2.6-6.1,4.5-9.8,5.5c-0.7,0.1-1.5,0-2.2-0.3
			c-10.9-3.7-18.2-14-18.1-25.5v-92.3l0,0c0-31.3,0-62.5,0-93.8c0-2.5,0-2.5,2.5-2.5h33.8c2.7,0,2.7,0,2.7,2.8L55,118.4z
			 M325.5,250.7c-0.2,12-8.6,22.3-20.3,25c-2.4,0.5-4.9,0.7-7.3,0.7c-36.3,0-72.7,0-109,0c-10.7,0-21.5,0.1-32.2,0.1L64,276.4
			c-0.7,0-1.3-0.1-2.3-0.1l0,0c3.8-4.6,6.5-10.1,7.9-15.9c0.9-4,1.4-8,1.5-12.1c0-76.4,0-152.9,0-229.3c0-3.3-0.4-3,2.9-3h249.2
			c2.5,0,2.5,0,2.5,2.5v115.2c0,8.8,0.1,17.7,0.1,26.5C325.7,190.4,325.7,220.6,325.5,250.7z"/>
		<path class="st0" d="M135.9,183.5c17.1,0,34.2,0,51.3,0c1.7,0,2.2-0.6,2.2-2.2c-0.1-6.6,0-13.2,0-19.8v-60.8c0-2.5,0-2.5-2.5-2.5
			H87v85.3H135.9z"/>
		<path class="st0" d="M307.2,238.8c-23.5,0.1-47.1,0.1-70.6,0.1c-2.1,0-4.2,0.2-6.4,0.2c-4.4,0-8.9-0.2-13.3-0.2
			c-35.7,0-71.5,0-107.2,0c-3.2,0-6.3,0.2-9.5,0.2c-4,0-8-0.2-12-0.2c-0.6,0-1.3,0.1-2,0.1v15.9h191c0.8,0,1.5-0.1,2.3-0.1
			c9.4,0,18.9,0,28.3,0.1c1.1,0,1.5-0.4,1.5-1.6c-0.1-4.1-0.1-8.2,0-12.4C309.3,239.3,308.9,238.8,307.2,238.8z"/>
		<path class="st0" d="M123.2,219.6h129.3c18.4,0,36.8,0,55.2,0c1.1,0,1.5-0.4,1.5-1.5c0-4.4,0-8.7,0-13.1c0-0.4-0.1-0.8-0.2-1.2
			H86.2v15.6c3,0,5.7,0,8.5,0C104.2,219.5,113.7,219.6,123.2,219.6z"/>
		<path class="st0" d="M309.1,98.2h-106c-0.6-0.1-1.3,0-1.9,0.1c-0.4,0.1-1,0.7-1,1c-0.1,4.8-0.1,9.7-0.1,14.7h109V98.2z"/>
		<path class="st0" d="M201.2,168.6c-0.5,0.2-1.1,0.7-1.1,1.1c-0.1,4.8-0.1,9.6-0.1,14.6h109v-15.8H202.5
			C202,168.6,201.6,168.4,201.2,168.6z"/>
		<path class="st0" d="M309.2,135.2c0-1.3-0.4-1.7-1.7-1.7c-3.8,0-7.6,0-11.5,0h-93.4c-0.5-0.1-1.1-0.1-1.6,0.1
			c-0.4,0.1-1,0.6-1,0.9c0,4.9,0,9.8,0,14.8h109.1C309.2,144.3,309.2,139.8,309.2,135.2z"/>
		<g id="INFORMA">
			<text transform="matrix(1 0 0 1 85.48 78.17)" class="st0 st1 st2 st3">INFORMA</text>
		</g>
	</g>
</g>
</svg>
