<svg width="36" height="35" viewBox="0 0 36 35" fill="none" xmlns="http://www.w3.org/2000/svg">
<g clip-path="url(#clip0_34_3284)">
<path d="M0.463799 16.0401C0.149763 16.3713 -0.0143927 16.8304 -0.000118263 17.3046C-0.000118263 17.7562 0.1569 18.1928 0.463799 18.5164L14.5669 34.4584C15.2235 35.1659 16.3012 35.1809 16.9793 34.4885C16.9864 34.4809 17.0007 34.4659 17.0078 34.4584C17.6716 33.7433 17.6716 32.5992 17.0078 31.8842L5.71677 19.1487H34.4297C35.2933 19.096 35.9713 18.3584 35.9999 17.4476C36.0284 16.4541 35.2862 15.6261 34.3441 15.6035C34.3298 15.6035 34.3155 15.6035 34.2941 15.6035H5.34564L17.1434 2.86804C17.6787 2.0175 17.4575 0.873417 16.651 0.308901C16.0229 -0.127658 15.2021 -0.0975504 14.6097 0.391697L0.463799 16.0401Z" fill="#85287e"/>
</g>
<defs>
<clipPath id="clip0_34_3284">
<rect width="36" height="35" fill="white"/>
</clipPath>
</defs>
</svg>
