<svg width="36" height="37" viewBox="0 0 36 37" fill="none" xmlns="http://www.w3.org/2000/svg">
<g clip-path="url(#clip0_34_2121)">
<path d="M16.5402 36.0363C16.8714 36.3504 17.3305 36.5145 17.8047 36.5002C18.2563 36.5002 18.6929 36.3432 19.0166 36.0363L34.9585 21.9332C35.666 21.2766 35.6811 20.1989 34.9886 19.5209C34.9811 19.5137 34.966 19.4994 34.9585 19.4923C34.2434 18.8285 33.0993 18.8285 32.3843 19.4923L19.6488 30.7833L19.6488 2.07042C19.5961 1.20682 18.8585 0.528786 17.9477 0.500237C16.9542 0.471688 16.1262 1.21396 16.1036 2.15607C16.1036 2.17034 16.1036 2.18461 16.1036 2.20603V31.1545L3.36816 19.3567C2.51763 18.8214 1.37354 19.0427 0.809023 19.8492C0.372464 20.4772 0.402572 21.298 0.891819 21.8904L16.5402 36.0363Z" fill="#6C4590"/>
</g>
<defs>
<clipPath id="clip0_34_2121">
<rect width="36" height="35" fill="white" transform="matrix(0 -1 1 0 0.5 36.5)"/>
</clipPath>
</defs>
</svg>
