<svg width="40" height="40" viewBox="0 0 40 40" fill="none" xmlns="http://www.w3.org/2000/svg">
<path d="M33.6406 0.12854H5.55613C2.48755 0.12854 0 2.61612 0 5.68469V33.7692C0 36.8378 2.48755 39.3253 5.55613 39.3253H33.6406C36.7092 39.3253 39.1968 36.8378 39.1968 33.7692V5.68469C39.1968 2.61612 36.7092 0.12854 33.6406 0.12854Z" fill="#85287e"/>
<g opacity="0.85">
<path d="M19.6276 24.0287C17.4815 24.0287 15.1689 22.3824 15.1689 19.7366C15.1689 17.0909 17.168 15.1212 19.6276 15.1212C22.0872 15.1212 24.0862 17.1888 24.0862 19.7366C24.0862 20.1384 23.9196 20.7949 23.6844 21.3339C23.5374 21.6573 23.3611 21.9709 23.1455 22.255C22.2929 23.3819 21.0191 24.0385 19.6276 24.0385V24.0287ZM19.6276 16.9047C18.1577 16.9047 16.9524 18.1786 16.9524 19.7366C16.9524 21.2947 18.3439 22.2452 19.6276 22.2452C20.4507 22.2452 21.215 21.8533 21.7246 21.1771C21.852 21.0007 21.9696 20.8145 22.0578 20.6088C22.2244 20.2168 22.3028 19.8248 22.3028 19.7268C22.3028 18.1688 21.1072 16.9047 19.6276 16.9047Z" fill="white"/>
</g>
<g opacity="0.85">
<path d="M19.5982 28.066C15.1788 28.066 10.9063 25.381 7.56481 20.501L7.03564 19.8249L7.31983 19.5995C7.33943 19.3839 7.41781 19.1782 7.555 18.9822C10.9063 14.0826 15.1788 11.3976 19.5982 11.3976C24.0177 11.3976 28.2803 14.0728 31.612 18.9332C31.7786 19.1683 31.857 19.4427 31.857 19.7269C31.857 20.0111 31.7688 20.2855 31.6022 20.5304C28.2705 25.3908 24.0079 28.0562 19.5982 28.0562V28.066ZM9.50503 20.1581C12.4154 24.1169 15.9823 26.2826 19.5982 26.2826C23.2141 26.2826 27.026 23.9602 29.9952 19.7367C27.026 15.5132 23.3513 13.1908 19.5982 13.1908C15.8451 13.1908 12.1802 15.5132 9.21107 19.7367L9.51484 20.1581H9.50503Z" fill="white"/>
</g>
</svg>
