<?xml version="1.0" encoding="utf-8"?>
<!-- Generator: Adobe Illustrator 27.0.0, SVG Export Plug-In . SVG Version: 6.00 Build 0)  -->
<svg version="1.1" id="_02" xmlns="http://www.w3.org/2000/svg" xmlns:xlink="http://www.w3.org/1999/xlink" x="0px" y="0px"
	 viewBox="0 0 283.5 283.5" style="enable-background:new 0 0 283.5 283.5;" xml:space="preserve">
<style type="text/css">
	.st0{fill:#949FAF;}
</style>
<path class="st0" d="M75,219.4c2.4,1.4,5.4,2.1,9.2,2.1c5.2,0,9.4-1.6,12.3-4.7c3-3.1,4.5-7.5,4.5-13v-32.6h-6v31.1
	c0,4.4-0.8,7.8-2.3,10.1s-4.4,3.5-8.7,3.5c-3.8,0-6.3-1-7.6-3.1c-1.3-2.1-1.7-5.2-1.2-9.5l-5.6,1.1c-0.7,3.4-0.5,6.5,0.4,9
	C71,216,72.6,218,75,219.4z"/>
<path class="st0" d="M123.3,207h22.4l5.2,13.7h6.4l-19.2-49.5h-7.1l-19.3,49.5h6.3L123.3,207L123.3,207z M134.5,177l9.1,24.4h-18.1
	L134.5,177z"/>
<polygon class="st0" points="176.1,185.8 175.8,178.3 175.9,178.3 181.1,187.6 201.9,220.7 209.3,220.7 209.3,171.2 203.6,171.2 
	203.6,206.2 203.9,213.8 203.8,213.8 198.5,204.2 177.9,171.2 170.4,171.2 170.4,220.7 176.1,220.7 "/>
<g>
	<path class="st0" d="M274.3,54.5c0-20.4-16.7-37.1-37.2-37.1H207v19.4c0,3.8-3.1,6.9-6.9,6.9c-0.1,0-0.2,0-0.3,0
		c-3.7-0.2-6.6-3.3-6.6-7.2V17.5H90.4v19.4c0,3.8-3.1,6.9-6.9,6.9s-6.9-3.1-6.9-6.9V17.5H46.3c-20.5,0-37.2,16.6-37.2,37.1v63.5
		l0,0.4v120.3c0,11.3,5.6,22.1,15.3,29.6c8.6,6.6,19.7,10.3,31.4,10.3h171.7c11.7,0,22.9-3.6,31.4-10.3c9.7-7.5,15.3-18.3,15.3-29.6
		C274.3,238.8,274.3,54.5,274.3,54.5z M269.3,238.8c0,9.7-4.9,19.1-13.3,25.6c-7.7,5.9-17.8,9.2-28.4,9.2H55.9
		c-10.6,0-20.7-3.3-28.4-9.2c-8.5-6.5-13.3-15.9-13.3-25.6V120.5h255.1V238.8z"/>
	<path class="st0" d="M83.4,40.8c2.2,0,3.9-1.8,3.9-3.9V8.8c0-2.2-1.8-3.9-3.9-3.9s-3.9,1.8-3.9,3.9v28.2
		C79.5,39.1,81.3,40.8,83.4,40.8z"/>
	<path class="st0" d="M199.9,40.8h0.2c2.2,0,3.9-1.8,3.9-3.9V8.8c0-2.2-1.8-3.9-3.9-3.9c-0.2,0-0.5,0-0.7,0.1
		c-1.9,0.3-3.2,2.1-3.2,4.1v27.7C196.1,38.8,197.8,40.7,199.9,40.8L199.9,40.8z"/>
</g>
</svg>
