<?xml version="1.0" encoding="utf-8"?>
<!-- Generator: Adobe Illustrator 27.0.0, SVG Export Plug-In . SVG Version: 6.00 Build 0)  -->
<svg version="1.1" id="_02" xmlns="http://www.w3.org/2000/svg" xmlns:xlink="http://www.w3.org/1999/xlink" x="0px" y="0px"
	 viewBox="0 0 283.5 283.5" style="enable-background:new 0 0 283.5 283.5;" xml:space="preserve">
<style type="text/css">
	.st0{fill:#949FAF;}
</style>
<g>
	<polygon class="st0" points="83,198.5 105.4,198.5 105.4,192.8 83,192.8 83,176.9 111.7,176.9 111.7,171.2 77,171.2 77,220.7 
		83,220.7 	"/>
	<polygon class="st0" points="161.6,215.1 131.8,215.1 131.8,198.5 154.1,198.5 154.1,192.8 131.8,192.8 131.8,176.9 160.5,176.9 
		160.5,171.2 125.8,171.2 125.8,220.7 161.6,220.7 	"/>
	<polygon class="st0" points="196.3,220.7 215,171.2 208.6,171.2 196,205.5 192.8,215.3 189.7,205.4 177.1,171.2 170.6,171.2 
		189.4,220.7 	"/>
</g>
<g>
	<path class="st0" d="M274.3,54.5c0-20.4-16.7-37.1-37.2-37.1H207v19.4c0,3.8-3.1,6.9-6.9,6.9c-0.1,0-0.2,0-0.3,0
		c-3.7-0.2-6.6-3.3-6.6-7.2V17.5H90.4v19.4c0,3.8-3.1,6.9-6.9,6.9s-6.9-3.1-6.9-6.9V17.5H46.3c-20.5,0-37.2,16.6-37.2,37.1v63.5
		l0,0.4v120.3c0,11.3,5.6,22.1,15.3,29.6c8.6,6.6,19.7,10.3,31.4,10.3h171.7c11.7,0,22.9-3.6,31.4-10.3c9.7-7.5,15.3-18.3,15.3-29.6
		C274.3,238.8,274.3,54.5,274.3,54.5z M269.3,238.8c0,9.7-4.9,19.1-13.3,25.6c-7.7,5.9-17.8,9.2-28.4,9.2H55.9
		c-10.6,0-20.7-3.3-28.4-9.2c-8.5-6.5-13.3-15.9-13.3-25.6V120.5h255.1V238.8z"/>
	<path class="st0" d="M83.4,40.8c2.2,0,3.9-1.8,3.9-3.9V8.8c0-2.2-1.8-3.9-3.9-3.9s-3.9,1.8-3.9,3.9v28.2
		C79.5,39.1,81.3,40.8,83.4,40.8z"/>
	<path class="st0" d="M199.9,40.8h0.2c2.2,0,3.9-1.8,3.9-3.9V8.8c0-2.2-1.8-3.9-3.9-3.9c-0.2,0-0.5,0-0.7,0.1
		c-1.9,0.3-3.2,2.1-3.2,4.1v27.7C196.1,38.8,197.8,40.7,199.9,40.8L199.9,40.8z"/>
</g>
</svg>
