<?xml version="1.0" encoding="utf-8"?>
<!-- Generator: Adobe Illustrator 27.0.0, SVG Export Plug-In . SVG Version: 6.00 Build 0)  -->
<svg version="1.1" id="_02" xmlns="http://www.w3.org/2000/svg" xmlns:xlink="http://www.w3.org/1999/xlink" x="0px" y="0px"
	 viewBox="0 0 283.5 283.5" style="enable-background:new 0 0 283.5 283.5;" xml:space="preserve">
<style type="text/css">
	.st0{fill:#949FAF;}
</style>
<g>
	<path class="st0" d="M92.9,171.2h-7.1l-19.3,49.5h6.3l5.2-13.7h22.4l5.2,13.7h6.4L92.9,171.2z M80.2,201.4l9-24.4l9.1,24.4H80.2z"
		/>
	<path class="st0" d="M158.4,199.6c-1.7-2.1-4.1-3.5-7-4v-0.1c2.6-0.6,4.7-1.8,6.1-3.9c1.4-2,2.2-4.3,2.2-6.8c0-4.2-1.4-7.5-4.1-10
		s-7-3.7-12.8-3.7h-17.6v49.5h17.5c5.9,0,10.4-1.3,13.5-3.8c3.1-2.5,4.7-5.9,4.7-10.1C160.9,204.2,160.1,201.8,158.4,199.6
		L158.4,199.6z M131.2,176.9h11.7c7,0,10.5,2.7,10.5,8s-3.5,8.1-10.5,8.1h-11.7V176.9L131.2,176.9z M152.1,212.9
		c-1.7,1.4-4.4,2.2-7.9,2.2h-13v-16.5h13c3.6,0,6.2,0.7,7.9,2.1c1.7,1.4,2.6,3.5,2.6,6.1S153.8,211.5,152.1,212.9z"/>
	<path class="st0" d="M201.5,199.2c2.5-0.6,4.7-1.6,6.5-3.1c3.1-2.5,4.6-5.9,4.6-10.4s-1.5-8-4.6-10.6s-7.1-3.9-12.1-3.9h-18.8v49.5
		h6v-20.6H195l13.5,20.6h7.1L201.5,199.2L201.5,199.2z M183.1,194.6v-17.7h12.7c3.6,0,6.2,0.7,7.9,2.2c1.7,1.5,2.6,3.7,2.6,6.6
		s-0.9,5.2-2.6,6.6c-1.7,1.5-4.4,2.2-7.9,2.2L183.1,194.6L183.1,194.6z"/>
</g>
<g>
	<path class="st0" d="M274.3,54.5c0-20.4-16.7-37.1-37.2-37.1H207v19.4c0,3.8-3.1,6.9-6.9,6.9c-0.1,0-0.2,0-0.3,0
		c-3.7-0.2-6.6-3.3-6.6-7.2V17.5H90.4v19.4c0,3.8-3.1,6.9-6.9,6.9s-6.9-3.1-6.9-6.9V17.5H46.3c-20.5,0-37.2,16.6-37.2,37.1v63.5
		l0,0.4v120.3c0,11.3,5.6,22.1,15.3,29.6c8.6,6.6,19.7,10.3,31.4,10.3h171.7c11.7,0,22.9-3.6,31.4-10.3c9.7-7.5,15.3-18.3,15.3-29.6
		C274.3,238.8,274.3,54.5,274.3,54.5z M269.3,238.8c0,9.7-4.9,19.1-13.3,25.6c-7.7,5.9-17.8,9.2-28.4,9.2H55.9
		c-10.6,0-20.7-3.3-28.4-9.2c-8.5-6.5-13.3-15.9-13.3-25.6V120.5h255.1V238.8z"/>
	<path class="st0" d="M83.4,40.8c2.2,0,3.9-1.8,3.9-3.9V8.8c0-2.2-1.8-3.9-3.9-3.9s-3.9,1.8-3.9,3.9v28.2
		C79.5,39.1,81.3,40.8,83.4,40.8z"/>
	<path class="st0" d="M199.9,40.8h0.2c2.2,0,3.9-1.8,3.9-3.9V8.8c0-2.2-1.8-3.9-3.9-3.9c-0.2,0-0.5,0-0.7,0.1
		c-1.9,0.3-3.2,2.1-3.2,4.1v27.7C196.1,38.8,197.8,40.7,199.9,40.8L199.9,40.8z"/>
</g>
</svg>
