<?xml version="1.0" encoding="utf-8"?>
<!-- Generator: Adobe Illustrator 27.0.0, SVG Export Plug-In . SVG Version: 6.00 Build 0)  -->
<svg version="1.1" id="_02" xmlns="http://www.w3.org/2000/svg" xmlns:xlink="http://www.w3.org/1999/xlink" x="0px" y="0px"
	 viewBox="0 0 283.5 283.5" style="enable-background:new 0 0 283.5 283.5;" xml:space="preserve">
<style type="text/css">
	.st0{fill:#949FAF;}
</style>
<g>
	<path class="st0" d="M88,171.2h-7.1l-19.3,49.5h6.3l5.2-13.7h22.4l5.2,13.7h6.4C107.2,220.7,88,171.2,88,171.2z M75.3,201.4l9-24.4
		l9.1,24.4H75.3z"/>
	<path class="st0" d="M126.3,218.4c3.4,2.1,7.5,3.1,12.2,3.1c4.1,0,7.6-0.9,10.4-2.6c2.1-1.2,3.7-2.9,5-4.9l0.2,6.7h4.7v-25h-21.2
		v5.6h15.8v1.7c0,2.1-0.4,4-1.1,5.6c-0.8,1.6-1.8,2.9-3.1,4c-1.3,1.1-2.9,1.8-4.6,2.4c-1.8,0.5-3.7,0.8-5.7,0.8
		c-3.6,0-6.7-0.8-9.3-2.4c-2.5-1.6-4.4-3.9-5.7-6.8c-1.3-3-1.9-6.5-1.9-10.7s0.7-7.7,2.2-10.7c1.5-3,3.5-5.2,6.1-6.8
		c2.6-1.6,5.5-2.4,8.9-2.4s6.4,0.7,8.7,2.2c2.4,1.5,4.1,3.6,5.2,6.5l5.5-3c-1.9-3.9-4.4-6.7-7.5-8.6s-7.1-2.8-12-2.8
		c-4.6,0-8.7,1-12.2,3.1c-3.6,2.1-6.3,5-8.3,8.8s-3,8.3-3,13.6s0.9,9.8,2.8,13.6S122.9,216.3,126.3,218.4L126.3,218.4z"/>
	<path class="st0" d="M215.9,182.4c-1.9-3.8-4.5-6.7-7.9-8.8c-3.4-2.1-7.5-3.1-12.2-3.1s-8.8,1-12.2,3.1c-3.4,2.1-6.1,5-7.9,8.8
		c-1.9,3.8-2.8,8.3-2.8,13.6s0.9,9.8,2.8,13.6c1.9,3.8,4.5,6.7,7.9,8.8c3.4,2.1,7.5,3.1,12.2,3.1s8.8-1,12.2-3.1
		c3.4-2.1,6.1-5,7.9-8.8c1.9-3.8,2.8-8.3,2.8-13.6S217.8,186.2,215.9,182.4L215.9,182.4z M210.4,206.7c-1.4,3-3.3,5.2-5.7,6.8
		c-2.5,1.6-5.4,2.4-8.9,2.4s-6.4-0.8-8.9-2.4c-2.5-1.6-4.4-3.9-5.8-6.8c-1.4-3-2-6.5-2-10.7s0.7-7.7,2-10.7c1.4-3,3.3-5.2,5.8-6.8
		c2.5-1.6,5.4-2.4,8.9-2.4s6.4,0.8,8.9,2.4c2.5,1.6,4.4,3.9,5.7,6.8c1.4,3,2,6.5,2,10.7S211.8,203.7,210.4,206.7z"/>
</g>
<g>
	<path class="st0" d="M274.3,54.5c0-20.4-16.7-37.1-37.2-37.1H207v19.4c0,3.8-3.1,6.9-6.9,6.9c-0.1,0-0.2,0-0.3,0
		c-3.7-0.2-6.6-3.3-6.6-7.2V17.5H90.4v19.4c0,3.8-3.1,6.9-6.9,6.9s-6.9-3.1-6.9-6.9V17.5H46.3c-20.5,0-37.2,16.6-37.2,37.1v63.5
		l0,0.4v120.3c0,11.3,5.6,22.1,15.3,29.6c8.6,6.6,19.7,10.3,31.4,10.3h171.7c11.7,0,22.9-3.6,31.4-10.3c9.7-7.5,15.3-18.3,15.3-29.6
		C274.3,238.8,274.3,54.5,274.3,54.5z M269.3,238.8c0,9.7-4.9,19.1-13.3,25.6c-7.7,5.9-17.8,9.2-28.4,9.2H55.9
		c-10.6,0-20.7-3.3-28.4-9.2c-8.5-6.5-13.3-15.9-13.3-25.6V120.5h255.1V238.8z"/>
	<path class="st0" d="M83.4,40.8c2.2,0,3.9-1.8,3.9-3.9V8.8c0-2.2-1.8-3.9-3.9-3.9s-3.9,1.8-3.9,3.9v28.2
		C79.5,39.1,81.3,40.8,83.4,40.8z"/>
	<path class="st0" d="M199.9,40.8h0.2c2.2,0,3.9-1.8,3.9-3.9V8.8c0-2.2-1.8-3.9-3.9-3.9c-0.2,0-0.5,0-0.7,0.1
		c-1.9,0.3-3.2,2.1-3.2,4.1v27.7C196.1,38.8,197.8,40.7,199.9,40.8L199.9,40.8z"/>
</g>
</svg>
