<?xml version="1.0" encoding="utf-8"?>
<!-- Generator: Adobe Illustrator 27.0.0, SVG Export Plug-In . SVG Version: 6.00 Build 0)  -->
<svg version="1.1" id="_02" xmlns="http://www.w3.org/2000/svg" xmlns:xlink="http://www.w3.org/1999/xlink" x="0px" y="0px"
	 viewBox="0 0 283.5 283.5" style="enable-background:new 0 0 283.5 283.5;" xml:space="preserve">
<style type="text/css">
	.st0{fill:#949FAF;}
</style>
<g>
	<path class="st0" d="M100.7,214.9c-1.9,0.6-4.1,0.9-6.6,0.9c-2.8,0-5.2-0.4-7.3-1.2c-2.1-0.8-3.9-1.9-5.4-3.4
		c-1.5-1.4-2.7-3.1-3.7-5l-5.2,4.3c1.2,2.1,2.8,3.9,4.8,5.6c1.9,1.6,4.3,3,7,3.9s5.9,1.5,9.5,1.5c3.8,0,7.2-0.6,10.1-1.8
		c2.8-1.2,5.1-2.9,6.6-5.1c1.6-2.2,2.4-4.7,2.4-7.5c0-3.1-0.9-5.8-2.8-7.9c-1.9-2.1-5.2-3.7-9.9-4.8l-10.7-2.4
		c-3.3-0.8-5.5-1.8-6.6-3.1s-1.7-2.9-1.7-4.6c0-1.6,0.4-2.9,1.2-4.2c0.8-1.2,2.1-2.2,3.8-3c1.7-0.8,3.9-1.1,6.6-1.1
		c3.3,0,6.1,0.7,8.4,2c2.3,1.3,4.4,3.6,6.3,6.8l5-3.9c-2.1-3.4-4.7-6.1-7.9-7.8c-3.2-1.8-6.9-2.7-11.2-2.7c-3.8,0-7.1,0.7-9.9,2
		c-2.8,1.4-4.9,3.1-6.4,5.4c-1.5,2.2-2.2,4.7-2.2,7.3c0,1.9,0.4,3.8,1.2,5.4c0.8,1.7,2.2,3.1,4.1,4.4c1.9,1.2,4.3,2.2,7.4,2.9
		l11.6,2.6c2.9,0.6,4.9,1.6,5.9,2.9c1.1,1.3,1.6,2.7,1.6,4.3c0,1.8-0.5,3.2-1.5,4.5C104,213.4,102.5,214.3,100.7,214.9L100.7,214.9z
		"/>
	<polygon class="st0" points="164.2,215.1 134.3,215.1 134.3,198.5 156.7,198.5 156.7,192.8 134.3,192.8 134.3,176.9 163,176.9 
		163,171.2 128.3,171.2 128.3,220.7 164.2,220.7 	"/>
	<polygon class="st0" points="190.7,220.7 196.7,220.7 196.7,176.9 214,176.9 214,171.2 173.5,171.2 173.5,176.9 190.7,176.9 	"/>
</g>
<g>
	<path class="st0" d="M274.3,54.5c0-20.4-16.7-37.1-37.2-37.1H207v19.4c0,3.8-3.1,6.9-6.9,6.9c-0.1,0-0.2,0-0.3,0
		c-3.7-0.2-6.6-3.3-6.6-7.2V17.5H90.4v19.4c0,3.8-3.1,6.9-6.9,6.9s-6.9-3.1-6.9-6.9V17.5H46.3c-20.5,0-37.2,16.6-37.2,37.1v63.5
		l0,0.4v120.3c0,11.3,5.6,22.1,15.3,29.6c8.6,6.6,19.7,10.3,31.4,10.3h171.7c11.7,0,22.9-3.6,31.4-10.3c9.7-7.5,15.3-18.3,15.3-29.6
		C274.3,238.8,274.3,54.5,274.3,54.5z M269.3,238.8c0,9.7-4.9,19.1-13.3,25.6c-7.7,5.9-17.8,9.2-28.4,9.2H55.9
		c-10.6,0-20.7-3.3-28.4-9.2c-8.5-6.5-13.3-15.9-13.3-25.6V120.5h255.1V238.8z"/>
	<path class="st0" d="M83.4,40.8c2.2,0,3.9-1.8,3.9-3.9V8.8c0-2.2-1.8-3.9-3.9-3.9s-3.9,1.8-3.9,3.9v28.2
		C79.5,39.1,81.3,40.8,83.4,40.8z"/>
	<path class="st0" d="M199.9,40.8h0.2c2.2,0,3.9-1.8,3.9-3.9V8.8c0-2.2-1.8-3.9-3.9-3.9c-0.2,0-0.5,0-0.7,0.1
		c-1.9,0.3-3.2,2.1-3.2,4.1v27.7C196.1,38.8,197.8,40.7,199.9,40.8L199.9,40.8z"/>
</g>
</svg>
