<?xml version="1.0" encoding="utf-8"?>
<!-- Generator: Adobe Illustrator 27.0.0, SVG Export Plug-In . SVG Version: 6.00 Build 0)  -->
<svg version="1.1" id="Layer_1" xmlns="http://www.w3.org/2000/svg" xmlns:xlink="http://www.w3.org/1999/xlink" x="0px" y="0px"
	 viewBox="0 0 586.7 236.7" style="enable-background:new 0 0 586.7 236.7;" xml:space="preserve">
<style type="text/css">
	.st0{fill:#FFFFFF;}
	.st1{fill:#67348D;}
	.st2{fill:#EAA925;}
</style>
<g>
	<path class="st0" d="M186.5,177.3c0.1,0.4,0.2,0.7,0.2,0.9c0,0.2-0.1,0.4-0.2,0.5c-0.1,0.1-0.4,0.2-0.7,0.2s-0.7,0.1-1.2,0.1
		s-0.9,0-1.2,0c-0.3,0-0.5-0.1-0.7-0.1s-0.3-0.1-0.4-0.2s-0.1-0.2-0.2-0.4l-2.8-7.9h-13.4l-2.6,7.8c-0.1,0.1-0.1,0.3-0.2,0.4
		s-0.2,0.2-0.4,0.3c-0.2,0.1-0.4,0.1-0.7,0.2s-0.7,0.1-1.1,0.1s-0.9,0-1.2-0.1c-0.3,0-0.5-0.1-0.6-0.2c-0.1-0.1-0.2-0.3-0.2-0.5
		c0-0.2,0.1-0.5,0.2-0.9l10.8-30c0.1-0.2,0.1-0.3,0.3-0.4s0.3-0.2,0.5-0.3c0.2-0.1,0.5-0.1,0.8-0.1c0.3,0,0.7,0,1.2,0
		c0.5,0,1,0,1.3,0s0.6,0.1,0.9,0.1s0.4,0.2,0.5,0.3c0.1,0.1,0.2,0.3,0.3,0.5L186.5,177.3L186.5,177.3L186.5,177.3z M172.6,150.8
		L172.6,150.8l-5.6,16.1h11.2L172.6,150.8z"/>
	<path class="st0" d="M209.6,156.8c0,0.6-0.1,1-0.2,1.3s-0.4,0.4-0.6,0.4h-3.2c0.6,0.6,1,1.3,1.2,2s0.4,1.5,0.4,2.3
		c0,1.3-0.2,2.4-0.6,3.4c-0.4,1-1,1.8-1.8,2.5s-1.7,1.2-2.8,1.6c-1.1,0.4-2.2,0.6-3.5,0.6c-0.9,0-1.8-0.1-2.6-0.4
		c-0.8-0.2-1.5-0.5-1.9-0.9c-0.3,0.3-0.5,0.6-0.7,1c-0.2,0.4-0.3,0.8-0.3,1.3c0,0.6,0.3,1.1,0.8,1.4c0.5,0.4,1.3,0.6,2.2,0.6
		l5.9,0.2c1.1,0,2.1,0.2,3.1,0.5s1.7,0.7,2.4,1.2s1.2,1.1,1.6,1.9c0.4,0.7,0.6,1.6,0.6,2.6c0,1-0.2,2-0.6,2.9s-1.1,1.8-2,2.5
		s-2,1.3-3.4,1.7s-3,0.6-4.9,0.6s-3.4-0.1-4.6-0.5c-1.3-0.3-2.3-0.7-3.1-1.3s-1.4-1.2-1.8-1.9c-0.4-0.7-0.6-1.5-0.6-2.4
		c0-0.6,0.1-1.1,0.2-1.6c0.1-0.5,0.3-1,0.6-1.5c0.3-0.5,0.6-0.9,1-1.3c0.4-0.4,0.9-0.8,1.4-1.3c-0.8-0.4-1.4-0.9-1.8-1.6
		s-0.6-1.3-0.6-2.1c0-1,0.2-1.9,0.6-2.7c0.4-0.8,0.9-1.5,1.6-2.1c-0.5-0.6-0.9-1.3-1.2-2.1s-0.4-1.7-0.4-2.8c0-1.3,0.2-2.4,0.6-3.4
		s1-1.9,1.8-2.6c0.8-0.7,1.7-1.2,2.8-1.6c1.1-0.4,2.2-0.6,3.5-0.6c0.7,0,1.3,0,1.9,0.1c0.6,0.1,1.1,0.2,1.7,0.3h6.8
		c0.3,0,0.5,0.1,0.6,0.4C209.5,155.7,209.6,156.2,209.6,156.8L209.6,156.8L209.6,156.8z M205.2,180.5c0-1-0.4-1.7-1.2-2.2
		c-0.8-0.5-1.9-0.8-3.2-0.8l-5.8-0.2c-0.5,0.4-1,0.8-1.3,1.2s-0.6,0.7-0.8,1.1s-0.3,0.7-0.4,1s-0.1,0.7-0.1,1c0,1.1,0.6,1.9,1.6,2.5
		s2.6,0.8,4.6,0.8c1.2,0,2.3-0.1,3.1-0.4s1.5-0.6,2-1c0.5-0.4,0.9-0.9,1.1-1.4C205.1,181.6,205.2,181,205.2,180.5L205.2,180.5
		L205.2,180.5z M203.1,162.7c0-1.5-0.4-2.7-1.3-3.6s-2-1.3-3.6-1.3c-0.8,0-1.5,0.1-2.1,0.4s-1.1,0.6-1.5,1.1s-0.7,1-0.9,1.6
		s-0.3,1.2-0.3,1.9c0,1.5,0.4,2.6,1.3,3.5s2,1.3,3.5,1.3c0.8,0,1.5-0.1,2.1-0.4s1.1-0.6,1.5-1.1s0.7-1,0.9-1.6
		S203.1,163.3,203.1,162.7L203.1,162.7L203.1,162.7z"/>
	<path class="st0" d="M233,166c0,0.6-0.2,1.1-0.5,1.4s-0.7,0.4-1.1,0.4h-14.8c0,1.2,0.1,2.4,0.4,3.4s0.7,1.9,1.2,2.6
		s1.3,1.3,2.3,1.6c0.9,0.4,2.1,0.6,3.4,0.6c1.1,0,2-0.1,2.9-0.3s1.6-0.4,2.2-0.6s1.1-0.4,1.5-0.6s0.7-0.3,0.9-0.3
		c0.1,0,0.2,0,0.3,0.1s0.2,0.1,0.2,0.3c0.1,0.1,0.1,0.3,0.1,0.5s0,0.5,0,0.8c0,0.2,0,0.4,0,0.6s0,0.3-0.1,0.4c0,0.1-0.1,0.2-0.1,0.3
		c-0.1,0.1-0.1,0.2-0.2,0.3s-0.4,0.2-0.8,0.4c-0.4,0.2-1,0.4-1.8,0.6s-1.5,0.4-2.5,0.5s-1.9,0.2-3,0.2c-1.9,0-3.5-0.3-4.9-0.8
		c-1.4-0.5-2.6-1.3-3.5-2.3c-0.9-1-1.7-2.3-2.1-3.8c-0.5-1.5-0.7-3.3-0.7-5.3s0.2-3.7,0.8-5.2s1.2-2.8,2.2-3.9
		c0.9-1.1,2.1-1.9,3.4-2.5c1.3-0.6,2.8-0.9,4.5-0.9c1.8,0,3.3,0.3,4.5,0.9s2.3,1.3,3.1,2.3c0.8,1,1.4,2.1,1.8,3.4
		c0.4,1.3,0.6,2.7,0.6,4.1L233,166L233,166L233,166z M219.7,150.8c-0.1,0.2-0.2,0.3-0.3,0.4s-0.2,0.2-0.4,0.2s-0.3,0.1-0.5,0.1
		c-0.2,0-0.5,0-0.8,0c-0.4,0-0.8,0-1-0.1c-0.2-0.1-0.4-0.1-0.5-0.2c-0.1-0.1-0.1-0.2,0-0.4s0.2-0.4,0.4-0.6l4.1-5.7
		c0.1-0.1,0.2-0.2,0.3-0.3s0.3-0.1,0.4-0.2c0.2-0.1,0.4-0.1,0.6-0.1s0.6,0,0.9,0s0.6,0,0.9,0s0.4,0.1,0.6,0.1s0.3,0.1,0.4,0.2
		c0.1,0.1,0.2,0.2,0.3,0.3l4.1,5.7c0.2,0.2,0.3,0.5,0.4,0.6c0.1,0.2,0.1,0.3,0,0.4c-0.1,0.1-0.2,0.2-0.5,0.2s-0.6,0.1-1,0.1
		c-0.4,0-0.6,0-0.8,0c-0.2,0-0.4-0.1-0.5-0.1s-0.2-0.1-0.3-0.2c-0.1-0.1-0.2-0.2-0.3-0.4l-3.2-4.5L219.7,150.8L219.7,150.8
		L219.7,150.8z M228.8,164.8c0.1-2.2-0.4-3.9-1.4-5.1s-2.5-1.9-4.5-1.9c-1,0-1.9,0.2-2.7,0.6s-1.4,0.9-1.9,1.5
		c-0.5,0.6-0.9,1.4-1.2,2.2s-0.4,1.7-0.5,2.6L228.8,164.8L228.8,164.8z"/>
	<path class="st0" d="M257.9,178.2c0,0.1,0,0.2-0.1,0.3s-0.2,0.2-0.3,0.2s-0.4,0.1-0.6,0.1c-0.3,0-0.6,0.1-1,0.1s-0.8,0-1-0.1
		c-0.3,0-0.5-0.1-0.6-0.1s-0.3-0.1-0.3-0.2c-0.1-0.1-0.1-0.2-0.1-0.3v-13.1c0-1.3-0.1-2.3-0.3-3.1s-0.5-1.4-0.9-2
		c-0.4-0.6-0.9-1-1.5-1.3c-0.6-0.3-1.3-0.4-2.1-0.4c-1,0-2.1,0.4-3.1,1.1s-2.1,1.8-3.2,3.2v15.7c0,0.1,0,0.2-0.1,0.3
		s-0.2,0.2-0.3,0.2c-0.1,0.1-0.4,0.1-0.6,0.1c-0.3,0-0.6,0.1-1,0.1s-0.7,0-1-0.1s-0.5-0.1-0.6-0.1s-0.3-0.1-0.3-0.2
		c-0.1-0.1-0.1-0.2-0.1-0.3v-22.4c0-0.1,0-0.2,0.1-0.3c0.1-0.1,0.1-0.2,0.3-0.2s0.3-0.1,0.6-0.1c0.2,0,0.5,0,0.9,0s0.7,0,0.9,0
		c0.2,0,0.4,0.1,0.6,0.1c0.1,0.1,0.2,0.2,0.3,0.2s0.1,0.2,0.1,0.3v3c1.3-1.4,2.5-2.4,3.8-3.1s2.5-1,3.8-1c1.5,0,2.8,0.2,3.8,0.8
		s1.9,1.2,2.5,2c0.6,0.9,1.1,1.8,1.4,3s0.4,2.5,0.4,4.1L257.9,178.2L257.9,178.2L257.9,178.2z"/>
	<path class="st0" d="M281,174.8c0,0.3,0,0.5,0,0.7s0,0.4-0.1,0.5s-0.1,0.3-0.1,0.4c-0.1,0.1-0.2,0.3-0.4,0.5s-0.6,0.5-1.1,0.8
		c-0.5,0.3-1.1,0.6-1.7,0.8s-1.3,0.4-2,0.6s-1.5,0.2-2.3,0.2c-1.6,0-3-0.3-4.3-0.8s-2.3-1.3-3.1-2.3s-1.5-2.3-1.9-3.8
		s-0.7-3.2-0.7-5.1c0-2.2,0.3-4.1,0.8-5.7s1.3-2.9,2.2-3.9s2-1.8,3.3-2.3c1.3-0.5,2.6-0.7,4.1-0.7c0.7,0,1.4,0.1,2.1,0.2
		c0.7,0.1,1.3,0.3,1.9,0.5c0.6,0.2,1.1,0.5,1.5,0.8s0.8,0.5,1,0.7c0.2,0.2,0.3,0.4,0.4,0.5c0.1,0.1,0.1,0.2,0.2,0.4s0.1,0.3,0.1,0.5
		s0,0.4,0,0.8c0,0.6-0.1,1.1-0.2,1.4s-0.3,0.4-0.5,0.4c-0.2,0-0.5-0.1-0.9-0.4c-0.3-0.3-0.7-0.6-1.2-0.9c-0.5-0.3-1.1-0.6-1.8-0.9
		s-1.5-0.4-2.5-0.4c-2,0-3.5,0.8-4.5,2.3c-1.1,1.5-1.6,3.7-1.6,6.6c0,1.4,0.1,2.7,0.4,3.8s0.7,2,1.2,2.7s1.2,1.3,2,1.6
		c0.8,0.4,1.7,0.5,2.7,0.5s1.8-0.1,2.5-0.4c0.7-0.3,1.3-0.6,1.9-1c0.5-0.4,1-0.7,1.3-1c0.4-0.3,0.6-0.4,0.8-0.4c0.1,0,0.2,0,0.3,0.1
		s0.1,0.2,0.2,0.3s0.1,0.4,0.1,0.6S281,174.4,281,174.8L281,174.8z"/>
	<path class="st0" d="M290.4,148.2c0,1-0.2,1.6-0.5,2s-1,0.5-2,0.5s-1.6-0.2-2-0.5c-0.4-0.3-0.5-1-0.5-1.9s0.2-1.6,0.5-2
		s1-0.5,2-0.5s1.6,0.2,2,0.5C290.2,146.6,290.4,147.2,290.4,148.2z M289.9,178.2c0,0.1,0,0.2-0.1,0.3s-0.2,0.2-0.3,0.2
		s-0.4,0.1-0.6,0.1c-0.3,0-0.6,0.1-1,0.1s-0.7,0-1-0.1s-0.5-0.1-0.6-0.1s-0.3-0.1-0.3-0.2c-0.1-0.1-0.1-0.2-0.1-0.3v-22.4
		c0-0.1,0-0.2,0.1-0.3s0.2-0.2,0.3-0.2c0.2-0.1,0.4-0.1,0.6-0.1c0.3,0,0.6-0.1,1-0.1s0.8,0,1,0.1c0.3,0,0.5,0.1,0.6,0.1
		s0.3,0.1,0.3,0.2c0.1,0.1,0.1,0.2,0.1,0.3V178.2z"/>
	<path class="st0" d="M313.9,178.2c0,0.2-0.1,0.4-0.2,0.4s-0.3,0.2-0.5,0.2s-0.6,0.1-1,0.1s-0.8,0-1-0.1c-0.3-0.1-0.5-0.1-0.6-0.2
		c-0.1-0.1-0.2-0.2-0.2-0.4V176c-1,1.1-2.1,1.9-3.3,2.4s-2.5,0.9-3.8,0.9c-1.2,0-2.2-0.1-3.2-0.5c-1-0.3-1.8-0.8-2.4-1.3
		s-1.2-1.3-1.6-2.1s-0.6-1.8-0.6-2.9c0-1.3,0.3-2.4,0.8-3.3c0.5-0.9,1.3-1.7,2.2-2.3c1-0.6,2.1-1.1,3.5-1.4c1.4-0.3,3-0.5,4.7-0.5
		h3.1v-1.8c0-0.9-0.1-1.6-0.3-2.3s-0.5-1.2-0.9-1.7s-0.9-0.8-1.6-1c-0.6-0.2-1.5-0.3-2.4-0.3c-1,0-1.9,0.1-2.7,0.4s-1.5,0.5-2.1,0.8
		c-0.6,0.3-1.1,0.6-1.5,0.8s-0.7,0.4-0.9,0.4c-0.1,0-0.2,0-0.4-0.1s-0.2-0.2-0.3-0.3s-0.1-0.3-0.2-0.5c0-0.2,0-0.4,0-0.7
		c0-0.4,0-0.7,0.1-1c0.1-0.2,0.2-0.5,0.4-0.7s0.6-0.5,1.2-0.8c0.5-0.3,1.2-0.6,1.9-0.8c0.7-0.2,1.5-0.4,2.3-0.6
		c0.9-0.2,1.7-0.2,2.6-0.2c1.6,0,3,0.2,4.1,0.6c1.1,0.4,2,0.9,2.7,1.6c0.7,0.7,1.2,1.6,1.5,2.6s0.5,2.3,0.5,3.7L313.9,178.2
		L313.9,178.2L313.9,178.2z M309.8,168h-3.5c-1.1,0-2.1,0.1-2.9,0.3c-0.8,0.2-1.5,0.5-2.1,0.9c-0.5,0.4-1,0.8-1.2,1.4
		c-0.3,0.5-0.4,1.1-0.4,1.8c0,1.2,0.4,2.1,1.1,2.8s1.8,1,3.1,1c1.1,0,2.1-0.3,3-0.8c0.9-0.6,1.9-1.4,2.9-2.5L309.8,168L309.8,168
		L309.8,168z"/>
	<path class="st0" d="M353.7,178.2c0,0.1,0,0.2-0.1,0.4s-0.2,0.2-0.3,0.2c-0.2,0.1-0.4,0.1-0.7,0.1c-0.3,0-0.7,0.1-1.2,0.1
		c-0.4,0-0.8,0-1.1-0.1s-0.5-0.1-0.7-0.2s-0.3-0.2-0.4-0.3s-0.2-0.3-0.2-0.5l-3-7.6c-0.4-0.9-0.7-1.7-1.1-2.4
		c-0.4-0.7-0.8-1.4-1.3-1.9s-1.1-0.9-1.8-1.2s-1.5-0.4-2.5-0.4h-2.9v13.7c0,0.1,0,0.2-0.1,0.4c-0.1,0.1-0.2,0.2-0.4,0.2
		s-0.4,0.1-0.6,0.1c-0.3,0-0.6,0.1-1,0.1s-0.8,0-1-0.1s-0.5-0.1-0.7-0.1c-0.2-0.1-0.3-0.1-0.4-0.2s-0.1-0.2-0.1-0.4v-29.9
		c0-0.6,0.2-1.1,0.5-1.4s0.7-0.4,1.1-0.4h6.9c0.8,0,1.5,0,2,0.1s1,0.1,1.5,0.1c1.2,0.2,2.4,0.6,3.3,1c1,0.5,1.8,1.1,2.4,1.8
		s1.1,1.5,1.5,2.5c0.3,0.9,0.5,1.9,0.5,3.1s-0.1,2.1-0.4,2.9s-0.7,1.6-1.3,2.3c-0.5,0.7-1.2,1.2-2,1.7c-0.8,0.5-1.6,0.9-2.6,1.2
		c0.5,0.2,1,0.5,1.5,0.9s0.8,0.8,1.2,1.3c0.4,0.5,0.7,1.1,1.1,1.7s0.7,1.4,1,2.2l2.9,7.1c0.2,0.6,0.4,1,0.5,1.3
		C353.7,177.9,353.7,178,353.7,178.2L353.7,178.2L353.7,178.2z M347.3,155.5c0-1.3-0.3-2.3-0.9-3.2c-0.6-0.9-1.5-1.5-2.8-1.9
		c-0.4-0.1-0.9-0.2-1.4-0.2s-1.2-0.1-2.1-0.1h-3.6V161h4.2c1.1,0,2.1-0.1,2.9-0.4s1.5-0.7,2.1-1.1s1-1.1,1.2-1.7
		C347.1,157,347.3,156.3,347.3,155.5z"/>
	<path class="st0" d="M377.1,166c0,0.6-0.2,1.1-0.5,1.4s-0.7,0.4-1.1,0.4h-14.8c0,1.2,0.1,2.4,0.4,3.4s0.7,1.9,1.2,2.6
		s1.3,1.3,2.3,1.6c0.9,0.4,2.1,0.6,3.4,0.6c1.1,0,2-0.1,2.9-0.3s1.6-0.4,2.2-0.6c0.6-0.2,1.1-0.4,1.5-0.6s0.7-0.3,0.9-0.3
		c0.1,0,0.2,0,0.3,0.1s0.2,0.1,0.2,0.3c0,0.1,0.1,0.3,0.1,0.5s0,0.5,0,0.8c0,0.2,0,0.4,0,0.6s0,0.3-0.1,0.4c0,0.1-0.1,0.2-0.1,0.3
		c-0.1,0.1-0.1,0.2-0.2,0.3c-0.1,0.1-0.4,0.2-0.8,0.4c-0.5,0.2-1,0.4-1.8,0.6s-1.5,0.4-2.5,0.5s-1.9,0.2-3,0.2
		c-1.9,0-3.5-0.3-4.9-0.8c-1.4-0.5-2.6-1.3-3.5-2.3c-1-1-1.7-2.3-2.1-3.8s-0.7-3.3-0.7-5.3s0.2-3.7,0.8-5.2s1.2-2.8,2.2-3.9
		c0.9-1.1,2.1-1.9,3.4-2.5s2.8-0.9,4.5-0.9c1.8,0,3.3,0.3,4.5,0.9s2.3,1.3,3.1,2.3c0.8,1,1.4,2.1,1.8,3.4c0.4,1.3,0.6,2.7,0.6,4.1
		L377.1,166L377.1,166L377.1,166z M373,164.8c0-2.2-0.4-3.9-1.4-5.1s-2.5-1.9-4.5-1.9c-1,0-1.9,0.2-2.7,0.6s-1.4,0.9-1.9,1.5
		s-0.9,1.4-1.2,2.2c-0.3,0.8-0.4,1.7-0.5,2.6L373,164.8L373,164.8z"/>
	<path class="st0" d="M401.5,156.8c0,0.6-0.1,1-0.2,1.3s-0.4,0.4-0.6,0.4h-3.2c0.6,0.6,1,1.3,1.2,2s0.4,1.5,0.4,2.3
		c0,1.3-0.2,2.4-0.6,3.4c-0.4,1-1,1.8-1.8,2.5s-1.7,1.2-2.8,1.6c-1.1,0.4-2.2,0.6-3.5,0.6c-0.9,0-1.8-0.1-2.6-0.4
		c-0.8-0.2-1.5-0.5-1.9-0.9c-0.3,0.3-0.5,0.6-0.7,1c-0.2,0.4-0.3,0.8-0.3,1.3c0,0.6,0.3,1.1,0.8,1.4c0.5,0.4,1.3,0.6,2.2,0.6
		l5.9,0.2c1.1,0,2.1,0.2,3.1,0.5s1.7,0.7,2.4,1.2s1.2,1.1,1.6,1.9c0.4,0.7,0.6,1.6,0.6,2.6c0,1-0.2,2-0.6,2.9
		c-0.4,0.9-1.1,1.8-2,2.5s-2,1.3-3.4,1.7s-3,0.6-4.9,0.6s-3.4-0.1-4.6-0.5c-1.3-0.3-2.3-0.7-3.1-1.3s-1.4-1.2-1.8-1.9
		c-0.4-0.7-0.5-1.5-0.5-2.4c0-0.6,0.1-1.1,0.2-1.6s0.3-1,0.6-1.5c0.3-0.5,0.6-0.9,1-1.3s0.9-0.8,1.4-1.3c-0.8-0.4-1.4-0.9-1.8-1.6
		c-0.4-0.6-0.6-1.3-0.6-2.1c0-1,0.2-1.9,0.6-2.7c0.4-0.8,0.9-1.5,1.5-2.1c-0.5-0.6-0.9-1.3-1.2-2.1s-0.5-1.7-0.5-2.8
		c0-1.3,0.2-2.4,0.6-3.4s1-1.9,1.8-2.6c0.8-0.7,1.7-1.2,2.8-1.6s2.2-0.6,3.5-0.6c0.7,0,1.3,0,1.9,0.1c0.6,0.1,1.1,0.2,1.7,0.3h6.8
		c0.3,0,0.5,0.1,0.6,0.4C401.4,155.7,401.5,156.2,401.5,156.8L401.5,156.8L401.5,156.8z M397.2,180.5c0-1-0.4-1.7-1.2-2.2
		c-0.8-0.5-1.9-0.8-3.2-0.8l-5.8-0.2c-0.5,0.4-1,0.8-1.3,1.2s-0.6,0.7-0.8,1.1s-0.3,0.7-0.4,1s-0.1,0.7-0.1,1c0,1.1,0.5,1.9,1.6,2.5
		c1.1,0.6,2.6,0.8,4.6,0.8c1.2,0,2.3-0.1,3.1-0.4s1.5-0.6,2-1c0.5-0.4,0.9-0.9,1.1-1.4C397.1,181.6,397.2,181,397.2,180.5
		L397.2,180.5L397.2,180.5z M395.1,162.7c0-1.5-0.4-2.7-1.3-3.6s-2-1.3-3.6-1.3c-0.8,0-1.5,0.1-2.1,0.4s-1.1,0.6-1.5,1.1
		s-0.7,1-0.9,1.6s-0.3,1.2-0.3,1.9c0,1.5,0.4,2.6,1.3,3.5s2,1.3,3.5,1.3c0.8,0,1.5-0.1,2.1-0.4s1.1-0.6,1.5-1.1s0.7-1,0.9-1.6
		S395.1,163.3,395.1,162.7L395.1,162.7L395.1,162.7z"/>
	<path class="st0" d="M425.4,178.2c0,0.1,0,0.2-0.1,0.3s-0.2,0.2-0.3,0.2s-0.3,0.1-0.6,0.1c-0.2,0-0.5,0.1-0.9,0.1
		c-0.4,0-0.7,0-0.9-0.1s-0.4-0.1-0.6-0.1s-0.2-0.1-0.3-0.2c0-0.1-0.1-0.2-0.1-0.3v-3c-1.3,1.4-2.5,2.4-3.8,3.1s-2.5,1-3.8,1
		c-1.5,0-2.8-0.2-3.8-0.8s-1.9-1.2-2.5-2c-0.6-0.9-1.1-1.9-1.4-3c-0.3-1.1-0.4-2.5-0.4-4.1v-13.6c0-0.1,0-0.2,0.1-0.3
		c0.1-0.1,0.2-0.2,0.3-0.2c0.2-0.1,0.4-0.1,0.6-0.1c0.3,0,0.6,0,1,0s0.7,0,1,0c0.3,0,0.5,0.1,0.6,0.1c0.2,0.1,0.3,0.2,0.3,0.2
		s0.1,0.2,0.1,0.3v13.1c0,1.3,0.1,2.4,0.3,3.2s0.5,1.5,0.9,2s0.9,1,1.5,1.3c0.6,0.3,1.3,0.5,2.1,0.5c1,0,2.1-0.4,3.1-1.1
		s2.1-1.8,3.2-3.2v-15.7c0-0.1,0-0.2,0.1-0.3c0.1-0.1,0.2-0.2,0.3-0.2c0.2-0.1,0.4-0.1,0.6-0.1c0.3,0,0.6,0,1,0s0.7,0,1,0
		c0.3,0,0.5,0.1,0.6,0.1c0.1,0.1,0.3,0.2,0.3,0.2s0.1,0.2,0.1,0.3L425.4,178.2L425.4,178.2L425.4,178.2z"/>
	<path class="st0" d="M436.5,178.2c0,0.1,0,0.2-0.1,0.3s-0.2,0.2-0.3,0.2s-0.4,0.1-0.6,0.1c-0.3,0-0.6,0.1-1,0.1s-0.7,0-1-0.1
		s-0.5-0.1-0.6-0.1c-0.2-0.1-0.3-0.1-0.3-0.2c-0.1-0.1-0.1-0.2-0.1-0.3v-33.3c0-0.1,0-0.2,0.1-0.4s0.2-0.2,0.3-0.2
		c0.2-0.1,0.4-0.1,0.6-0.1s0.6-0.1,1-0.1s0.8,0,1,0.1c0.3,0,0.5,0.1,0.6,0.1s0.3,0.1,0.3,0.2s0.1,0.2,0.1,0.4V178.2z"/>
	<path class="st0" d="M460.4,178.2c0,0.2-0.1,0.4-0.2,0.4s-0.3,0.2-0.5,0.2s-0.6,0.1-1,0.1s-0.8,0-1-0.1c-0.3-0.1-0.5-0.1-0.6-0.2
		c-0.1-0.1-0.2-0.2-0.2-0.4V176c-1,1.1-2.1,1.9-3.3,2.4s-2.5,0.9-3.8,0.9c-1.2,0-2.2-0.1-3.2-0.5c-1-0.3-1.8-0.8-2.4-1.3
		s-1.2-1.3-1.6-2.1s-0.6-1.8-0.6-2.9c0-1.3,0.3-2.4,0.8-3.3c0.5-0.9,1.3-1.7,2.2-2.3c1-0.6,2.1-1.1,3.5-1.4c1.4-0.3,3-0.5,4.7-0.5
		h3.1v-1.8c0-0.9-0.1-1.6-0.3-2.3s-0.5-1.2-0.9-1.7s-0.9-0.8-1.6-1c-0.6-0.2-1.5-0.3-2.4-0.3c-1,0-1.9,0.1-2.7,0.4s-1.5,0.5-2.1,0.8
		c-0.6,0.3-1.1,0.6-1.5,0.8s-0.7,0.4-0.9,0.4c-0.1,0-0.2,0-0.4-0.1s-0.2-0.2-0.3-0.3s-0.1-0.3-0.2-0.5c0-0.2,0-0.4,0-0.7
		c0-0.4,0-0.7,0.1-1c0.1-0.2,0.2-0.5,0.4-0.7s0.6-0.5,1.2-0.8s1.2-0.6,1.9-0.8c0.7-0.2,1.5-0.4,2.3-0.6c0.9-0.2,1.7-0.2,2.6-0.2
		c1.6,0,3,0.2,4.1,0.6c1.1,0.4,2,0.9,2.7,1.6c0.7,0.7,1.2,1.6,1.5,2.6c0.3,1.1,0.5,2.3,0.5,3.7L460.4,178.2L460.4,178.2L460.4,178.2
		z M456.4,168h-3.5c-1.1,0-2.1,0.1-2.9,0.3s-1.5,0.5-2.1,0.9c-0.5,0.4-1,0.8-1.2,1.4c-0.3,0.5-0.4,1.1-0.4,1.8
		c0,1.2,0.4,2.1,1.1,2.8s1.8,1,3.1,1c1.1,0,2.1-0.3,3-0.8c0.9-0.6,1.9-1.4,2.9-2.5L456.4,168L456.4,168L456.4,168z"/>
	<path class="st0" d="M486.6,178.2c0,0.1,0,0.2-0.1,0.4s-0.2,0.2-0.3,0.2s-0.3,0.1-0.6,0.1s-0.5,0.1-0.9,0.1c-0.4,0-0.6,0-0.9-0.1
		s-0.4-0.1-0.6-0.1s-0.3-0.1-0.3-0.2s-0.1-0.2-0.1-0.4v-3c-1.2,1.3-2.4,2.3-3.7,3c-1.3,0.7-2.7,1.1-4.2,1.1c-1.6,0-3-0.3-4.2-1
		c-1.2-0.6-2.1-1.5-2.8-2.6s-1.2-2.4-1.6-3.8s-0.5-3-0.5-4.6c0-1.9,0.2-3.7,0.6-5.2c0.4-1.6,1-2.9,1.9-4c0.8-1.1,1.8-1.9,3-2.5
		s2.6-0.9,4.2-0.9c1.3,0,2.5,0.3,3.6,0.9s2.2,1.4,3.2,2.5v-13c0-0.1,0-0.2,0.1-0.3s0.2-0.2,0.3-0.2c0.2-0.1,0.4-0.1,0.6-0.1
		s0.6-0.1,1-0.1s0.8,0,1,0.1c0.3,0,0.5,0.1,0.6,0.1s0.3,0.1,0.3,0.2s0.1,0.2,0.1,0.3L486.6,178.2L486.6,178.2L486.6,178.2z
		 M482.5,162.4c-1.1-1.4-2.2-2.4-3.2-3.2c-1-0.7-2.1-1.1-3.3-1.1c-1,0-1.9,0.2-2.7,0.8s-1.3,1.2-1.8,2c-0.5,0.8-0.8,1.7-1,2.8
		s-0.3,2.1-0.3,3.1c0,1.1,0.1,2.2,0.3,3.3s0.5,2,0.9,2.9s1,1.5,1.7,2c0.7,0.5,1.6,0.8,2.7,0.8c0.5,0,1.1-0.1,1.6-0.2
		c0.5-0.1,1-0.4,1.6-0.8s1.1-0.8,1.7-1.4c0.6-0.6,1.2-1.2,1.9-2.1L482.5,162.4L482.5,162.4L482.5,162.4z"/>
	<path class="st0" d="M514.5,166.7c0,1.8-0.2,3.5-0.7,5.1c-0.5,1.5-1.2,2.9-2.2,4c-1,1.1-2.1,2-3.6,2.6c-1.4,0.6-3.1,0.9-5,0.9
		s-3.5-0.3-4.8-0.8c-1.4-0.6-2.5-1.4-3.4-2.4c-0.9-1.1-1.6-2.3-2-3.8s-0.7-3.2-0.7-5.1s0.2-3.5,0.7-5.1c0.5-1.5,1.2-2.9,2.1-4
		c1-1.1,2.1-2,3.6-2.6c1.4-0.6,3.1-0.9,5-0.9s3.5,0.3,4.8,0.8c1.4,0.6,2.5,1.4,3.4,2.4c0.9,1.1,1.6,2.3,2.1,3.8
		S514.5,164.9,514.5,166.7L514.5,166.7z M510.2,167c0-1.2-0.1-2.4-0.3-3.4s-0.6-2-1.1-2.8s-1.2-1.5-2.1-1.9s-2-0.7-3.3-0.7
		c-1.2,0-2.3,0.2-3.2,0.6s-1.6,1-2.2,1.8c-0.6,0.8-1,1.7-1.3,2.8s-0.4,2.3-0.4,3.5s0.1,2.4,0.3,3.5s0.6,2,1.1,2.8s1.2,1.4,2.1,1.9
		s2,0.7,3.3,0.7c1.2,0,2.3-0.2,3.1-0.6s1.6-1,2.2-1.8s1-1.7,1.3-2.8C510.1,169.5,510.2,168.3,510.2,167L510.2,167L510.2,167z"/>
	<path class="st0" d="M533,157.2c0,0.4,0,0.7,0,0.9s0,0.4-0.1,0.6c0,0.1-0.1,0.2-0.2,0.3s-0.2,0.1-0.3,0.1s-0.3,0-0.5-0.1
		c-0.2-0.1-0.4-0.1-0.7-0.2c-0.2-0.1-0.5-0.1-0.8-0.2s-0.6-0.1-1-0.1c-0.4,0-0.8,0.1-1.2,0.2c-0.4,0.2-0.8,0.4-1.3,0.8
		s-0.9,0.9-1.4,1.5s-1,1.4-1.6,2.3v14.8c0,0.1,0,0.2-0.1,0.3c-0.1,0.1-0.2,0.2-0.3,0.2s-0.4,0.1-0.6,0.1c-0.3,0-0.6,0.1-1,0.1
		s-0.7,0-1-0.1s-0.5-0.1-0.6-0.1c-0.2-0.1-0.3-0.1-0.3-0.2c-0.1-0.1-0.1-0.2-0.1-0.3v-22.4c0-0.1,0-0.2,0.1-0.3
		c0-0.1,0.2-0.2,0.3-0.2c0.2-0.1,0.3-0.1,0.6-0.1c0.2,0,0.5,0,0.9,0s0.7,0,0.9,0c0.2,0,0.4,0.1,0.6,0.1c0.1,0.1,0.2,0.2,0.3,0.2
		s0.1,0.2,0.1,0.3v3.3c0.6-0.9,1.2-1.6,1.7-2.2s1-1,1.5-1.3s1-0.6,1.4-0.7c0.5-0.1,1-0.2,1.4-0.2c0.2,0,0.5,0,0.7,0s0.6,0.1,0.9,0.1
		s0.6,0.1,0.8,0.2s0.4,0.2,0.5,0.2c0.1,0.1,0.2,0.2,0.2,0.2s0.1,0.2,0.1,0.3c0,0.1,0,0.3,0,0.5C533,156.5,533,156.8,533,157.2
		L533,157.2L533,157.2z"/>
	<path class="st0" d="M553,178.2c0,0.2-0.1,0.4-0.2,0.4s-0.3,0.2-0.5,0.2s-0.6,0.1-1,0.1s-0.8,0-1-0.1c-0.3-0.1-0.5-0.1-0.6-0.2
		c-0.1-0.1-0.2-0.2-0.2-0.4V176c-1,1.1-2.1,1.9-3.3,2.4s-2.5,0.9-3.8,0.9c-1.2,0-2.2-0.1-3.2-0.5c-1-0.3-1.8-0.8-2.4-1.3
		s-1.2-1.3-1.6-2.1s-0.6-1.8-0.6-2.9c0-1.3,0.3-2.4,0.8-3.3c0.5-0.9,1.3-1.7,2.2-2.3c1-0.6,2.1-1.1,3.5-1.4c1.4-0.3,3-0.5,4.7-0.5
		h3.1v-1.8c0-0.9-0.1-1.6-0.3-2.3s-0.5-1.2-0.9-1.7c-0.4-0.4-0.9-0.8-1.6-1c-0.7-0.2-1.5-0.3-2.4-0.3c-1,0-1.9,0.1-2.7,0.4
		s-1.5,0.5-2.1,0.8c-0.6,0.3-1.1,0.6-1.5,0.8c-0.4,0.2-0.7,0.4-0.9,0.4c-0.1,0-0.2,0-0.3-0.1s-0.2-0.2-0.3-0.3s-0.1-0.3-0.2-0.5
		c0-0.2,0-0.4,0-0.7c0-0.4,0-0.7,0.1-1c0.1-0.2,0.2-0.5,0.4-0.7s0.6-0.5,1.2-0.8s1.2-0.6,1.9-0.8c0.7-0.2,1.5-0.4,2.3-0.6
		c0.8-0.2,1.7-0.2,2.6-0.2c1.6,0,3,0.2,4.1,0.6c1.1,0.4,2,0.9,2.7,1.6c0.7,0.7,1.2,1.6,1.5,2.6s0.5,2.3,0.5,3.7L553,178.2L553,178.2
		L553,178.2z M548.9,168h-3.5c-1.1,0-2.1,0.1-2.9,0.3s-1.5,0.5-2.1,0.9c-0.5,0.4-1,0.8-1.2,1.4c-0.3,0.5-0.4,1.1-0.4,1.8
		c0,1.2,0.4,2.1,1.1,2.8s1.8,1,3.1,1c1.1,0,2.1-0.3,3-0.8c0.9-0.6,1.9-1.4,2.9-2.5L548.9,168L548.9,168L548.9,168z"/>
	<path class="st0" d="M45.6,214.7c0,0.1,0,0.2-0.1,0.2s-0.1,0.1-0.2,0.2s-0.2,0.1-0.4,0.1s-0.3,0-0.6,0s-0.4,0-0.6,0
		s-0.3-0.1-0.4-0.1s-0.2-0.1-0.2-0.2s-0.1-0.1-0.1-0.2v-2c-0.8,0.8-1.6,1.5-2.4,2s-1.8,0.7-2.8,0.7c-1.1,0-2-0.2-2.8-0.6
		s-1.4-1-1.9-1.7s-0.8-1.6-1-2.5s-0.3-2-0.3-3.1c0-1.3,0.1-2.4,0.4-3.4s0.7-1.9,1.2-2.6s1.2-1.3,2-1.7s1.7-0.6,2.8-0.6
		c0.9,0,1.7,0.2,2.4,0.6s1.4,0.9,2.1,1.7v-8.6c0-0.1,0-0.1,0.1-0.2s0.1-0.1,0.2-0.2c0.1,0,0.2-0.1,0.4-0.1s0.4,0,0.7,0s0.5,0,0.7,0
		s0.3,0.1,0.4,0.1s0.2,0.1,0.2,0.2s0.1,0.1,0.1,0.2L45.6,214.7L45.6,214.7L45.6,214.7z M42.8,204.3c-0.7-0.9-1.5-1.6-2.1-2.1
		c-0.7-0.5-1.4-0.7-2.2-0.7c-0.7,0-1.3,0.2-1.8,0.5s-0.9,0.8-1.2,1.3c-0.3,0.5-0.5,1.1-0.7,1.8s-0.2,1.4-0.2,2.1
		c0,0.8,0.1,1.5,0.2,2.2c0.1,0.7,0.3,1.4,0.6,1.9c0.3,0.6,0.7,1,1.1,1.3c0.5,0.3,1.1,0.5,1.8,0.5c0.4,0,0.7-0.1,1-0.1
		c0.3-0.1,0.7-0.3,1-0.5c0.3-0.2,0.7-0.5,1.1-0.9s0.8-0.8,1.2-1.4L42.8,204.3L42.8,204.3L42.8,204.3z"/>
	<path class="st0" d="M62,206.7c0,0.4-0.1,0.7-0.3,0.9c-0.2,0.2-0.5,0.3-0.7,0.3h-9.8c0,0.8,0.1,1.6,0.2,2.2s0.4,1.2,0.8,1.7
		s0.9,0.8,1.5,1.1c0.6,0.2,1.4,0.4,2.3,0.4c0.7,0,1.3-0.1,1.9-0.2s1-0.2,1.4-0.4c0.4-0.1,0.7-0.3,1-0.4s0.5-0.2,0.6-0.2
		c0.1,0,0.2,0,0.2,0.1c0.1,0,0.1,0.1,0.1,0.2c0,0.1,0.1,0.2,0.1,0.3c0,0.1,0,0.3,0,0.5c0,0.1,0,0.3,0,0.4c0,0.1,0,0.2,0,0.3
		s0,0.2-0.1,0.2c0,0.1-0.1,0.1-0.2,0.2s-0.2,0.2-0.5,0.3c-0.3,0.1-0.7,0.3-1.2,0.4s-1,0.2-1.6,0.4s-1.3,0.2-2,0.2
		c-1.2,0-2.3-0.2-3.2-0.5s-1.7-0.8-2.3-1.5c-0.6-0.7-1.1-1.5-1.4-2.5c-0.3-1-0.5-2.2-0.5-3.5s0.2-2.4,0.5-3.4s0.8-1.9,1.4-2.6
		c0.6-0.7,1.4-1.2,2.2-1.6s1.9-0.6,3-0.6c1.2,0,2.2,0.2,3,0.6s1.5,0.9,2,1.5c0.5,0.6,0.9,1.4,1.2,2.2s0.4,1.8,0.4,2.7L62,206.7
		L62,206.7L62,206.7z M59.3,205.9c0-1.4-0.3-2.5-1-3.4c-0.7-0.8-1.7-1.2-3-1.2c-0.7,0-1.3,0.1-1.8,0.4c-0.5,0.2-0.9,0.6-1.3,1
		c-0.3,0.4-0.6,0.9-0.8,1.5c-0.2,0.6-0.3,1.1-0.3,1.7L59.3,205.9L59.3,205.9z"/>
	<path class="st0" d="M94.9,214.7c0,0.1,0,0.2-0.1,0.2s-0.1,0.1-0.2,0.2c-0.1,0-0.3,0.1-0.4,0.1c-0.2,0-0.4,0-0.7,0
		c-0.3,0-0.5,0-0.7,0s-0.3-0.1-0.4-0.1s-0.2-0.1-0.2-0.2s-0.1-0.1-0.1-0.2v-18.5h0l-7.5,18.6c0,0.1-0.1,0.1-0.1,0.2
		s-0.2,0.1-0.3,0.1c-0.1,0-0.2,0.1-0.4,0.1c-0.2,0-0.3,0-0.6,0s-0.4,0-0.6,0s-0.3-0.1-0.4-0.1S82,215,81.9,215
		c-0.1-0.1-0.1-0.1-0.1-0.2l-7.2-18.6h0v18.5c0,0.1,0,0.2-0.1,0.2s-0.1,0.1-0.2,0.2c-0.1,0-0.3,0.1-0.4,0.1s-0.4,0-0.7,0
		s-0.5,0-0.7,0s-0.3-0.1-0.4-0.1c-0.1,0-0.2-0.1-0.2-0.2s-0.1-0.1-0.1-0.2v-19.6c0-0.5,0.1-0.8,0.4-1c0.2-0.2,0.5-0.3,0.8-0.3h1.7
		c0.4,0,0.7,0,0.9,0.1s0.5,0.2,0.7,0.3s0.4,0.3,0.5,0.5s0.2,0.5,0.3,0.8l6.1,15.4h0.1l6.3-15.4c0.1-0.3,0.3-0.6,0.4-0.8
		s0.3-0.4,0.5-0.6s0.4-0.2,0.6-0.3c0.2-0.1,0.5-0.1,0.7-0.1h1.8c0.2,0,0.3,0,0.5,0.1s0.3,0.1,0.4,0.2c0.1,0.1,0.2,0.2,0.3,0.4
		c0.1,0.2,0.1,0.4,0.1,0.6L94.9,214.7L94.9,214.7z"/>
	<path class="st0" d="M111.7,206.7c0,0.4-0.1,0.7-0.3,0.9c-0.2,0.2-0.5,0.3-0.7,0.3h-9.8c0,0.8,0.1,1.6,0.2,2.2s0.4,1.2,0.8,1.7
		s0.9,0.8,1.5,1.1c0.6,0.2,1.4,0.4,2.3,0.4c0.7,0,1.3-0.1,1.9-0.2s1-0.2,1.4-0.4c0.4-0.1,0.7-0.3,1-0.4s0.4-0.2,0.6-0.2
		c0.1,0,0.2,0,0.2,0.1s0.1,0.1,0.1,0.2c0,0.1,0.1,0.2,0.1,0.3c0,0.1,0,0.3,0,0.5c0,0.1,0,0.3,0,0.4c0,0.1,0,0.2,0,0.3s0,0.2-0.1,0.2
		c0,0.1-0.1,0.1-0.2,0.2s-0.2,0.2-0.5,0.3c-0.3,0.1-0.7,0.3-1.2,0.4s-1,0.2-1.6,0.4s-1.3,0.2-2,0.2c-1.2,0-2.3-0.2-3.2-0.5
		s-1.7-0.8-2.3-1.5c-0.6-0.7-1.1-1.5-1.4-2.5c-0.3-1-0.5-2.2-0.5-3.5s0.2-2.4,0.5-3.4c0.3-1,0.8-1.9,1.4-2.6
		c0.6-0.7,1.4-1.2,2.2-1.6s1.9-0.6,2.9-0.6c1.2,0,2.2,0.2,3,0.6s1.5,0.9,2,1.5c0.5,0.6,0.9,1.4,1.2,2.2s0.4,1.8,0.4,2.7L111.7,206.7
		L111.7,206.7L111.7,206.7z M109,205.9c0-1.4-0.3-2.5-0.9-3.4c-0.7-0.8-1.7-1.2-3-1.2c-0.7,0-1.3,0.1-1.8,0.4
		c-0.5,0.2-0.9,0.6-1.3,1c-0.3,0.4-0.6,0.9-0.8,1.5c-0.2,0.6-0.3,1.1-0.3,1.7L109,205.9L109,205.9z"/>
	<path class="st0" d="M127.3,214.7c0,0.1,0,0.2-0.1,0.2s-0.1,0.1-0.2,0.2s-0.2,0.1-0.4,0.1s-0.3,0-0.6,0s-0.4,0-0.6,0
		s-0.3-0.1-0.4-0.1S125,215,125,215s-0.1-0.1-0.1-0.2v-2c-0.8,0.8-1.6,1.5-2.4,2s-1.8,0.7-2.8,0.7c-1.1,0-2-0.2-2.8-0.6
		s-1.4-1-1.9-1.7s-0.8-1.6-1-2.5c-0.2-1-0.3-2-0.3-3.1c0-1.3,0.1-2.4,0.4-3.4s0.7-1.9,1.2-2.6s1.2-1.3,2-1.7s1.7-0.6,2.8-0.6
		c0.9,0,1.7,0.2,2.4,0.6s1.4,0.9,2.1,1.7v-8.6c0-0.1,0-0.1,0.1-0.2s0.1-0.1,0.2-0.2c0.1,0,0.2-0.1,0.4-0.1s0.4,0,0.7,0s0.5,0,0.7,0
		s0.3,0.1,0.4,0.1s0.2,0.1,0.2,0.2s0.1,0.1,0.1,0.2L127.3,214.7L127.3,214.7L127.3,214.7z M124.6,204.3c-0.7-0.9-1.4-1.6-2.1-2.1
		s-1.4-0.7-2.2-0.7c-0.7,0-1.3,0.2-1.8,0.5s-0.9,0.8-1.2,1.3c-0.3,0.5-0.5,1.1-0.7,1.8s-0.2,1.4-0.2,2.1c0,0.8,0.1,1.5,0.2,2.2
		c0.1,0.7,0.3,1.4,0.6,1.9c0.3,0.6,0.7,1,1.1,1.3c0.5,0.3,1.1,0.5,1.8,0.5c0.4,0,0.7-0.1,1-0.1c0.3-0.1,0.7-0.3,1-0.5
		c0.3-0.2,0.7-0.5,1.1-0.9s0.8-0.8,1.2-1.4L124.6,204.3L124.6,204.3L124.6,204.3z"/>
	<path class="st0" d="M134.2,194.9c0,0.6-0.1,1.1-0.4,1.3s-0.7,0.4-1.3,0.4s-1.1-0.1-1.3-0.3s-0.4-0.6-0.4-1.3s0.1-1.1,0.4-1.3
		s0.7-0.4,1.3-0.4s1.1,0.1,1.3,0.3S134.2,194.3,134.2,194.9z M133.9,214.7c0,0.1,0,0.2-0.1,0.2c0,0.1-0.1,0.1-0.2,0.2
		c-0.1,0-0.2,0.1-0.4,0.1s-0.4,0-0.7,0s-0.5,0-0.7,0s-0.3-0.1-0.4-0.1c-0.1,0-0.2-0.1-0.2-0.2s-0.1-0.1-0.1-0.2v-14.8
		c0-0.1,0-0.1,0.1-0.2s0.1-0.1,0.2-0.2s0.2-0.1,0.4-0.1s0.4,0,0.7,0s0.5,0,0.7,0c0.2,0,0.3,0.1,0.4,0.1c0.1,0,0.2,0.1,0.2,0.2
		c0,0.1,0.1,0.1,0.1,0.2V214.7z"/>
	<path class="st0" d="M148.4,212.5c0,0.2,0,0.4,0,0.5c0,0.1,0,0.2-0.1,0.4c0,0.1-0.1,0.2-0.1,0.2s-0.1,0.2-0.3,0.3
		c-0.1,0.1-0.4,0.3-0.7,0.5s-0.7,0.4-1.1,0.5c-0.4,0.2-0.9,0.3-1.3,0.4s-1,0.1-1.5,0.1c-1.1,0-2-0.2-2.8-0.5s-1.5-0.9-2.1-1.5
		s-1-1.5-1.3-2.5c-0.3-1-0.4-2.1-0.4-3.4c0-1.5,0.2-2.7,0.5-3.8c0.4-1.1,0.8-1.9,1.5-2.6c0.6-0.7,1.4-1.2,2.2-1.5s1.8-0.5,2.7-0.5
		c0.5,0,0.9,0,1.4,0.1s0.9,0.2,1.2,0.4c0.4,0.1,0.7,0.3,1,0.5c0.3,0.2,0.5,0.4,0.6,0.5s0.2,0.2,0.3,0.3c0.1,0.1,0.1,0.2,0.1,0.3
		s0.1,0.2,0.1,0.4c0,0.1,0,0.3,0,0.5c0,0.4-0.1,0.7-0.1,0.9c-0.1,0.2-0.2,0.2-0.4,0.2c-0.2,0-0.4-0.1-0.6-0.3
		c-0.2-0.2-0.5-0.4-0.8-0.6c-0.3-0.2-0.7-0.4-1.2-0.6c-0.5-0.2-1-0.3-1.6-0.3c-1.3,0-2.3,0.5-3,1.5c-0.7,1-1,2.5-1,4.4
		c0,0.9,0.1,1.8,0.3,2.5s0.4,1.3,0.8,1.8s0.8,0.8,1.3,1.1s1.1,0.4,1.8,0.4s1.2-0.1,1.6-0.3c0.5-0.2,0.9-0.4,1.2-0.6s0.6-0.4,0.9-0.6
		c0.2-0.2,0.4-0.3,0.6-0.3c0.1,0,0.1,0,0.2,0.1c0.1,0,0.1,0.1,0.1,0.2s0.1,0.2,0.1,0.4C148.4,212.1,148.4,212.3,148.4,212.5
		L148.4,212.5L148.4,212.5z"/>
	<path class="st0" d="M161.7,214.8c0,0.1,0,0.2-0.1,0.3c-0.1,0.1-0.2,0.1-0.4,0.1s-0.4,0.1-0.7,0.1s-0.5,0-0.7-0.1s-0.3-0.1-0.4-0.1
		s-0.1-0.2-0.1-0.3v-1.5c-0.6,0.7-1.4,1.2-2.2,1.6c-0.8,0.4-1.6,0.6-2.5,0.6c-0.8,0-1.5-0.1-2.1-0.3c-0.6-0.2-1.2-0.5-1.6-0.9
		s-0.8-0.9-1-1.4s-0.4-1.2-0.4-1.9c0-0.8,0.2-1.6,0.5-2.2s0.8-1.1,1.5-1.5c0.6-0.4,1.4-0.7,2.3-0.9s2-0.3,3.1-0.3h2v-1.1
		c0-0.6-0.1-1.1-0.2-1.5c-0.1-0.4-0.3-0.8-0.6-1.1c-0.3-0.3-0.6-0.5-1-0.7c-0.4-0.1-0.9-0.2-1.6-0.2c-0.7,0-1.3,0.1-1.8,0.2
		s-1,0.3-1.4,0.5c-0.4,0.2-0.7,0.4-1,0.5s-0.5,0.2-0.6,0.2c-0.1,0-0.2,0-0.2-0.1s-0.1-0.1-0.2-0.2s-0.1-0.2-0.1-0.3s0-0.3,0-0.4
		c0-0.3,0-0.5,0.1-0.6s0.1-0.3,0.3-0.4s0.4-0.3,0.8-0.5s0.8-0.4,1.2-0.5s1-0.3,1.6-0.4s1.1-0.2,1.7-0.2c1.1,0,2,0.1,2.7,0.4
		c0.8,0.2,1.4,0.6,1.8,1.1c0.5,0.5,0.8,1.1,1,1.7c0.2,0.7,0.3,1.5,0.3,2.4L161.7,214.8L161.7,214.8L161.7,214.8z M159,208h-2.3
		c-0.8,0-1.4,0.1-1.9,0.2s-1,0.3-1.4,0.6c-0.4,0.2-0.6,0.5-0.8,0.9s-0.3,0.7-0.3,1.2c0,0.8,0.2,1.4,0.7,1.8c0.5,0.5,1.2,0.7,2.1,0.7
		c0.7,0,1.4-0.2,2-0.5s1.2-0.9,1.9-1.7L159,208L159,208L159,208z"/>
	<path class="st0" d="M187.4,214.7c0,0.1,0,0.2-0.1,0.2s-0.1,0.1-0.2,0.2c-0.1,0-0.2,0.1-0.4,0.1c-0.2,0-0.4,0-0.7,0s-0.5,0-0.7,0
		s-0.3-0.1-0.4-0.1c-0.1,0-0.2-0.1-0.2-0.2s-0.1-0.1-0.1-0.2v-9c0-0.6-0.1-1.2-0.2-1.7c-0.1-0.5-0.3-1-0.5-1.3s-0.6-0.7-0.9-0.9
		s-0.8-0.3-1.3-0.3c-0.6,0-1.2,0.2-1.9,0.7s-1.3,1.2-2.1,2.1v10.4c0,0.1,0,0.2-0.1,0.2c0,0.1-0.1,0.1-0.2,0.2
		c-0.1,0-0.2,0.1-0.4,0.1s-0.4,0-0.7,0s-0.5,0-0.6,0s-0.3-0.1-0.4-0.1c-0.1,0-0.2-0.1-0.2-0.2s-0.1-0.1-0.1-0.2v-9
		c0-0.6-0.1-1.2-0.2-1.7c-0.1-0.5-0.3-1-0.5-1.3c-0.2-0.4-0.6-0.7-0.9-0.9c-0.4-0.2-0.8-0.3-1.3-0.3c-0.6,0-1.3,0.2-1.9,0.7
		c-0.6,0.5-1.3,1.2-2.1,2.1v10.4c0,0.1,0,0.2-0.1,0.2c0,0.1-0.1,0.1-0.2,0.2c-0.1,0-0.2,0.1-0.4,0.1s-0.4,0-0.7,0s-0.5,0-0.7,0
		s-0.3-0.1-0.4-0.1c-0.1,0-0.2-0.1-0.2-0.2s-0.1-0.1-0.1-0.2v-14.8c0-0.1,0-0.2,0.1-0.2s0.1-0.1,0.2-0.2c0.1-0.1,0.2-0.1,0.4-0.1
		c0.1,0,0.4,0,0.6,0s0.4,0,0.6,0s0.3,0.1,0.4,0.1s0.1,0.1,0.2,0.2s0.1,0.1,0.1,0.2v2c0.8-0.9,1.6-1.6,2.4-2.1
		c0.8-0.4,1.6-0.6,2.4-0.6c0.6,0,1.2,0.1,1.6,0.2c0.5,0.1,0.9,0.3,1.3,0.6s0.7,0.6,0.9,0.9s0.5,0.8,0.7,1.2c0.5-0.5,1-1,1.4-1.4
		c0.4-0.4,0.9-0.7,1.3-0.9s0.8-0.4,1.2-0.5s0.8-0.2,1.2-0.2c0.9,0,1.8,0.2,2.4,0.5s1.2,0.8,1.6,1.3s0.7,1.2,0.9,2
		c0.2,0.8,0.3,1.5,0.3,2.4L187.4,214.7L187.4,214.7L187.4,214.7z"/>
	<path class="st0" d="M203.9,206.7c0,0.4-0.1,0.7-0.3,0.9c-0.2,0.2-0.5,0.3-0.7,0.3H193c0,0.8,0.1,1.6,0.2,2.2s0.4,1.2,0.8,1.7
		s0.9,0.8,1.5,1.1c0.6,0.2,1.4,0.4,2.3,0.4c0.7,0,1.3-0.1,1.9-0.2s1-0.2,1.4-0.4c0.4-0.1,0.7-0.3,1-0.4s0.4-0.2,0.6-0.2
		c0.1,0,0.1,0,0.2,0.1s0.1,0.1,0.1,0.2c0,0.1,0.1,0.2,0.1,0.3c0,0.1,0,0.3,0,0.5c0,0.1,0,0.3,0,0.4c0,0.1,0,0.2,0,0.3s0,0.2-0.1,0.2
		c0,0.1-0.1,0.1-0.1,0.2s-0.2,0.2-0.5,0.3c-0.3,0.1-0.7,0.3-1.1,0.4s-1,0.2-1.6,0.4s-1.3,0.2-2,0.2c-1.2,0-2.3-0.2-3.2-0.5
		s-1.7-0.8-2.3-1.5c-0.6-0.7-1.1-1.5-1.4-2.5c-0.3-1-0.5-2.2-0.5-3.5s0.2-2.4,0.5-3.4s0.8-1.9,1.4-2.6c0.6-0.7,1.4-1.2,2.2-1.6
		s1.9-0.6,2.9-0.6c1.2,0,2.1,0.2,3,0.6s1.5,0.9,2,1.5c0.5,0.6,0.9,1.4,1.2,2.2s0.4,1.8,0.4,2.7L203.9,206.7L203.9,206.7L203.9,206.7
		z M201.1,205.9c0-1.4-0.3-2.5-0.9-3.4c-0.7-0.8-1.7-1.2-3-1.2c-0.7,0-1.3,0.1-1.8,0.4c-0.5,0.2-0.9,0.6-1.3,1s-0.6,0.9-0.8,1.5
		c-0.2,0.6-0.3,1.1-0.3,1.7L201.1,205.9L201.1,205.9z"/>
	<path class="st0" d="M219.6,214.7c0,0.1,0,0.2-0.1,0.2c0,0.1-0.1,0.1-0.2,0.2c-0.1,0-0.2,0.1-0.4,0.1c-0.2,0-0.4,0-0.7,0
		s-0.5,0-0.7,0s-0.3-0.1-0.4-0.1c-0.1,0-0.2-0.1-0.2-0.2c0-0.1-0.1-0.1-0.1-0.2v-8.7c0-0.8-0.1-1.5-0.2-2c-0.1-0.5-0.3-1-0.6-1.3
		c-0.2-0.4-0.6-0.7-1-0.9s-0.9-0.3-1.4-0.3c-0.7,0-1.4,0.2-2,0.7s-1.4,1.2-2.1,2.1v10.4c0,0.1,0,0.2-0.1,0.2c0,0.1-0.1,0.1-0.2,0.2
		c-0.1,0-0.2,0.1-0.4,0.1s-0.4,0-0.7,0s-0.5,0-0.7,0s-0.3-0.1-0.4-0.1c-0.1,0-0.2-0.1-0.2-0.2s-0.1-0.1-0.1-0.2v-14.8
		c0-0.1,0-0.2,0.1-0.2s0.1-0.1,0.2-0.2c0.1-0.1,0.2-0.1,0.4-0.1c0.1,0,0.4,0,0.6,0s0.4,0,0.6,0s0.3,0.1,0.4,0.1s0.1,0.1,0.2,0.2
		s0.1,0.1,0.1,0.2v2c0.8-0.9,1.7-1.6,2.5-2.1c0.8-0.4,1.7-0.6,2.5-0.6c1,0,1.8,0.2,2.5,0.5s1.2,0.8,1.6,1.3s0.7,1.2,0.9,2
		c0.2,0.8,0.3,1.6,0.3,2.7L219.6,214.7L219.6,214.7L219.6,214.7z"/>
	<path class="st0" d="M230.7,213.6c0,0.3,0,0.6-0.1,0.8c0,0.2-0.1,0.3-0.2,0.4s-0.2,0.2-0.4,0.2s-0.4,0.1-0.6,0.2
		c-0.2,0.1-0.5,0.1-0.7,0.1c-0.2,0-0.5,0.1-0.8,0.1c-0.8,0-1.4-0.1-2-0.3s-1-0.5-1.4-0.9s-0.6-0.9-0.8-1.6c-0.2-0.6-0.2-1.4-0.2-2.2
		v-8.6h-2.1c-0.2,0-0.3-0.1-0.4-0.3c-0.1-0.2-0.1-0.5-0.1-0.9c0-0.2,0-0.4,0-0.5s0.1-0.3,0.1-0.4c0-0.1,0.1-0.2,0.2-0.2
		s0.1-0.1,0.2-0.1h2.1V196c0-0.1,0-0.1,0.1-0.2s0.1-0.1,0.2-0.2s0.2-0.1,0.4-0.1c0.2,0,0.4,0,0.7,0s0.5,0,0.7,0
		c0.2,0,0.3,0.1,0.4,0.1s0.2,0.1,0.2,0.2c0,0.1,0.1,0.1,0.1,0.2v3.5h3.8c0.1,0,0.2,0,0.2,0.1s0.1,0.1,0.2,0.2
		c0.1,0.1,0.1,0.2,0.1,0.4c0,0.1,0,0.3,0,0.5c0,0.4-0.1,0.7-0.1,0.9c-0.1,0.2-0.2,0.3-0.4,0.3h-3.8v8.3c0,1,0.1,1.8,0.4,2.3
		s0.8,0.8,1.6,0.8c0.2,0,0.5,0,0.7-0.1c0.2-0.1,0.4-0.1,0.5-0.2c0.1-0.1,0.3-0.1,0.4-0.2c0.1-0.1,0.2-0.1,0.3-0.1c0.1,0,0.1,0,0.2,0
		s0.1,0.1,0.1,0.2s0.1,0.2,0.1,0.3S230.7,213.5,230.7,213.6L230.7,213.6L230.7,213.6z"/>
	<path class="st0" d="M246.6,207.2c0,1.2-0.2,2.3-0.5,3.3c-0.3,1-0.8,1.9-1.4,2.6c-0.6,0.7-1.4,1.3-2.4,1.7s-2.1,0.6-3.3,0.6
		s-2.3-0.2-3.2-0.5c-0.9-0.4-1.7-0.9-2.3-1.6c-0.6-0.7-1.1-1.5-1.4-2.5s-0.4-2.1-0.4-3.4s0.2-2.3,0.5-3.3s0.8-1.9,1.4-2.6
		c0.6-0.7,1.4-1.3,2.4-1.7s2.1-0.6,3.3-0.6s2.3,0.2,3.2,0.5c0.9,0.4,1.7,0.9,2.3,1.6c0.6,0.7,1.1,1.5,1.4,2.5
		S246.6,205.9,246.6,207.2L246.6,207.2L246.6,207.2z M243.8,207.3c0-0.8-0.1-1.6-0.2-2.3s-0.4-1.3-0.7-1.9s-0.8-1-1.4-1.3
		c-0.6-0.3-1.3-0.5-2.2-0.5c-0.8,0-1.5,0.1-2.1,0.4s-1.1,0.7-1.4,1.2s-0.7,1.1-0.8,1.9s-0.3,1.5-0.3,2.3s0.1,1.6,0.2,2.3
		c0.1,0.7,0.4,1.3,0.8,1.9s0.8,0.9,1.4,1.3c0.6,0.3,1.3,0.5,2.2,0.5c0.8,0,1.5-0.1,2.1-0.4c0.6-0.3,1.1-0.7,1.4-1.2
		c0.4-0.5,0.6-1.1,0.8-1.8S243.8,208.2,243.8,207.3L243.8,207.3L243.8,207.3z"/>
	<path class="st0" d="M258.7,210.7c0,0.8-0.1,1.4-0.4,2s-0.7,1.1-1.2,1.5c-0.5,0.4-1.1,0.7-1.8,0.9c-0.7,0.2-1.5,0.3-2.4,0.3
		c-0.5,0-1,0-1.5-0.1s-0.9-0.2-1.3-0.3s-0.7-0.3-1-0.4c-0.3-0.1-0.5-0.3-0.6-0.4s-0.2-0.3-0.3-0.5c-0.1-0.2-0.1-0.5-0.1-0.8
		c0-0.2,0-0.4,0-0.5c0-0.1,0.1-0.3,0.1-0.4s0.1-0.1,0.1-0.2c0.1,0,0.1-0.1,0.2-0.1c0.1,0,0.3,0.1,0.5,0.2s0.5,0.3,0.9,0.5
		c0.4,0.2,0.8,0.3,1.2,0.5s1,0.2,1.6,0.2c0.5,0,0.9-0.1,1.2-0.1s0.7-0.2,1-0.4c0.3-0.2,0.5-0.4,0.6-0.7c0.1-0.3,0.2-0.6,0.2-1.1
		s-0.1-0.8-0.3-1.1s-0.5-0.5-0.9-0.8s-0.8-0.4-1.2-0.6c-0.4-0.2-0.9-0.4-1.4-0.5c-0.5-0.2-0.9-0.4-1.4-0.6s-0.8-0.5-1.2-0.9
		s-0.6-0.8-0.9-1.2c-0.2-0.5-0.3-1-0.3-1.7c0-0.6,0.1-1.1,0.3-1.7c0.2-0.5,0.6-1,1-1.4s1-0.7,1.7-1c0.7-0.2,1.5-0.4,2.4-0.4
		c0.4,0,0.8,0,1.2,0.1s0.8,0.1,1.1,0.2s0.6,0.2,0.8,0.3c0.2,0.1,0.4,0.2,0.5,0.3c0.1,0.1,0.2,0.2,0.2,0.2s0.1,0.1,0.1,0.2
		c0,0.1,0,0.2,0,0.3c0,0.1,0,0.3,0,0.4c0,0.2,0,0.4,0,0.5s0,0.2-0.1,0.3c0,0.1-0.1,0.1-0.1,0.2c-0.1,0-0.1,0.1-0.2,0.1
		c-0.1,0-0.2-0.1-0.4-0.2s-0.4-0.2-0.7-0.4c-0.3-0.1-0.6-0.3-1-0.4s-0.9-0.2-1.4-0.2c-0.5,0-0.9,0.1-1.2,0.2
		c-0.4,0.1-0.6,0.2-0.9,0.4c-0.2,0.2-0.4,0.4-0.5,0.7s-0.2,0.6-0.2,0.9c0,0.4,0.1,0.8,0.3,1.1c0.2,0.3,0.5,0.6,0.9,0.8
		c0.4,0.2,0.8,0.4,1.2,0.6c0.4,0.2,0.9,0.4,1.4,0.5c0.5,0.2,0.9,0.4,1.4,0.6c0.5,0.2,0.9,0.5,1.2,0.8s0.6,0.7,0.9,1.2
		S258.7,210.1,258.7,210.7L258.7,210.7L258.7,210.7z"/>
	<path class="st0" d="M280.5,206.7c0,0.4-0.1,0.7-0.3,0.9c-0.2,0.2-0.5,0.3-0.7,0.3h-9.8c0,0.8,0.1,1.6,0.2,2.2s0.4,1.2,0.8,1.7
		c0.4,0.5,0.9,0.8,1.5,1.1c0.6,0.2,1.4,0.4,2.3,0.4c0.7,0,1.3-0.1,1.9-0.2s1-0.2,1.4-0.4c0.4-0.1,0.7-0.3,1-0.4s0.5-0.2,0.6-0.2
		c0.1,0,0.1,0,0.2,0.1s0.1,0.1,0.1,0.2c0,0.1,0.1,0.2,0.1,0.3c0,0.1,0,0.3,0,0.5c0,0.1,0,0.3,0,0.4c0,0.1,0,0.2,0,0.3s0,0.2-0.1,0.2
		c0,0.1-0.1,0.1-0.1,0.2s-0.2,0.2-0.5,0.3c-0.3,0.1-0.7,0.3-1.1,0.4s-1,0.2-1.6,0.4c-0.6,0.1-1.3,0.2-2,0.2c-1.2,0-2.3-0.2-3.2-0.5
		s-1.7-0.8-2.3-1.5c-0.6-0.7-1.1-1.5-1.4-2.5c-0.3-1-0.5-2.2-0.5-3.5s0.2-2.4,0.5-3.4s0.8-1.9,1.4-2.6c0.6-0.7,1.4-1.2,2.2-1.6
		s1.9-0.6,3-0.6c1.2,0,2.1,0.2,3,0.6s1.5,0.9,2,1.5s0.9,1.4,1.2,2.2s0.4,1.8,0.4,2.7L280.5,206.7L280.5,206.7L280.5,206.7z
		 M277.7,205.9c0-1.4-0.3-2.5-1-3.4c-0.7-0.8-1.7-1.2-3-1.2c-0.7,0-1.3,0.1-1.8,0.4c-0.5,0.2-0.9,0.6-1.3,1
		c-0.3,0.4-0.6,0.9-0.8,1.5c-0.2,0.6-0.3,1.1-0.3,1.7L277.7,205.9L277.7,205.9z"/>
	<path class="st0" d="M303.5,195.1c0,0.2,0,0.4,0,0.5s-0.1,0.3-0.1,0.4s-0.1,0.2-0.2,0.2c-0.1,0-0.1,0.1-0.2,0.1h-6v18.5
		c0,0.1,0,0.2-0.1,0.2s-0.1,0.1-0.2,0.2c-0.1,0-0.3,0.1-0.4,0.1s-0.4,0-0.7,0s-0.5,0-0.7,0s-0.3-0.1-0.4-0.1c-0.1,0-0.2-0.1-0.2-0.2
		s-0.1-0.1-0.1-0.2v-18.5h-6c-0.1,0-0.2,0-0.2-0.1c-0.1,0-0.1-0.1-0.2-0.2c0-0.1-0.1-0.2-0.1-0.4s0-0.3,0-0.5s0-0.4,0-0.6
		s0.1-0.3,0.1-0.4c0-0.1,0.1-0.2,0.2-0.2c0.1,0,0.1-0.1,0.2-0.1h14.8c0.1,0,0.2,0,0.2,0.1c0.1,0,0.1,0.1,0.2,0.2s0.1,0.2,0.1,0.4
		C303.5,194.7,303.5,194.9,303.5,195.1L303.5,195.1z"/>
	<path class="st0" d="M314.7,206.7c0,0.4-0.1,0.7-0.3,0.9c-0.2,0.2-0.5,0.3-0.7,0.3h-9.8c0,0.8,0.1,1.6,0.2,2.2
		c0.2,0.7,0.4,1.2,0.8,1.7s0.9,0.8,1.5,1.1c0.6,0.2,1.4,0.4,2.3,0.4c0.7,0,1.3-0.1,1.9-0.2s1-0.2,1.4-0.4s0.7-0.3,1-0.4
		s0.5-0.2,0.6-0.2c0.1,0,0.1,0,0.2,0.1s0.1,0.1,0.1,0.2c0,0.1,0.1,0.2,0.1,0.3c0,0.1,0,0.3,0,0.5c0,0.1,0,0.3,0,0.4
		c0,0.1,0,0.2,0,0.3c0,0.1,0,0.2-0.1,0.2c0,0.1-0.1,0.1-0.1,0.2s-0.2,0.2-0.5,0.3s-0.7,0.3-1.1,0.4s-1,0.2-1.6,0.4
		c-0.6,0.1-1.3,0.2-2,0.2c-1.2,0-2.3-0.2-3.2-0.5s-1.7-0.8-2.3-1.5c-0.6-0.7-1.1-1.5-1.4-2.5c-0.3-1-0.5-2.2-0.5-3.5
		s0.2-2.4,0.5-3.4s0.8-1.9,1.4-2.6c0.6-0.7,1.4-1.2,2.2-1.6s1.9-0.6,2.9-0.6c1.2,0,2.1,0.2,3,0.6s1.5,0.9,2,1.5
		c0.5,0.6,0.9,1.4,1.2,2.2s0.4,1.8,0.4,2.7L314.7,206.7L314.7,206.7L314.7,206.7z M312,205.9c0-1.4-0.3-2.5-1-3.4
		c-0.7-0.8-1.7-1.2-3-1.2c-0.7,0-1.3,0.1-1.8,0.4c-0.5,0.2-0.9,0.6-1.3,1c-0.3,0.4-0.6,0.9-0.8,1.5s-0.3,1.1-0.3,1.7L312,205.9
		L312,205.9z"/>
	<path class="st0" d="M328.3,212.5c0,0.2,0,0.4,0,0.5s0,0.2-0.1,0.4c0,0.1-0.1,0.2-0.1,0.2s-0.1,0.2-0.3,0.3s-0.4,0.3-0.7,0.5
		c-0.3,0.2-0.7,0.4-1.1,0.5s-0.9,0.3-1.3,0.4s-1,0.1-1.5,0.1c-1.1,0-2-0.2-2.8-0.5c-0.8-0.4-1.5-0.9-2.1-1.5s-1-1.5-1.3-2.5
		c-0.3-1-0.4-2.1-0.4-3.4c0-1.5,0.2-2.7,0.5-3.8c0.4-1.1,0.8-1.9,1.5-2.6c0.6-0.7,1.4-1.2,2.2-1.5s1.8-0.5,2.7-0.5
		c0.5,0,0.9,0,1.4,0.1s0.9,0.2,1.2,0.4c0.4,0.1,0.7,0.3,1,0.5c0.3,0.2,0.5,0.4,0.6,0.5s0.2,0.2,0.3,0.3s0.1,0.2,0.1,0.3
		s0,0.2,0.1,0.4s0,0.3,0,0.5c0,0.4,0,0.7-0.1,0.9s-0.2,0.2-0.4,0.2c-0.2,0-0.4-0.1-0.6-0.3c-0.2-0.2-0.5-0.4-0.8-0.6
		c-0.3-0.2-0.7-0.4-1.2-0.6c-0.5-0.2-1-0.3-1.6-0.3c-1.3,0-2.3,0.5-3,1.5c-0.7,1-1,2.5-1,4.4c0,0.9,0.1,1.8,0.3,2.5s0.5,1.3,0.8,1.8
		s0.8,0.8,1.3,1.1s1.1,0.4,1.8,0.4s1.2-0.1,1.6-0.3c0.5-0.2,0.9-0.4,1.2-0.6s0.6-0.4,0.9-0.6c0.2-0.2,0.4-0.3,0.5-0.3
		c0.1,0,0.1,0,0.2,0.1c0,0,0.1,0.1,0.1,0.2s0.1,0.2,0.1,0.4C328.3,212.1,328.3,212.3,328.3,212.5L328.3,212.5L328.3,212.5z"/>
	<path class="st0" d="M343.5,214.7c0,0.1,0,0.2-0.1,0.2c0,0.1-0.1,0.1-0.2,0.2c-0.1,0-0.2,0.1-0.4,0.1c-0.2,0-0.4,0-0.7,0
		s-0.5,0-0.7,0c-0.2,0-0.3-0.1-0.4-0.1c-0.1,0-0.2-0.1-0.2-0.2c0-0.1-0.1-0.1-0.1-0.2v-8.7c0-0.8-0.1-1.5-0.2-2
		c-0.1-0.5-0.3-1-0.6-1.3c-0.2-0.4-0.6-0.7-1-0.9c-0.4-0.2-0.9-0.3-1.4-0.3c-0.7,0-1.4,0.2-2,0.7c-0.7,0.5-1.4,1.2-2.1,2.1v10.4
		c0,0.1,0,0.2-0.1,0.2s-0.1,0.1-0.2,0.2c-0.1,0-0.2,0.1-0.4,0.1c-0.2,0-0.4,0-0.7,0s-0.5,0-0.7,0s-0.3-0.1-0.4-0.1
		c-0.1,0-0.2-0.1-0.2-0.2c0-0.1-0.1-0.1-0.1-0.2v-14.8c0-0.1,0-0.2,0-0.2s0.1-0.1,0.2-0.2s0.2-0.1,0.4-0.1s0.4,0,0.6,0s0.4,0,0.6,0
		s0.3,0.1,0.4,0.1s0.1,0.1,0.2,0.2s0.1,0.1,0.1,0.2v2c0.8-0.9,1.7-1.6,2.5-2.1c0.8-0.4,1.7-0.6,2.5-0.6c1,0,1.8,0.2,2.5,0.5
		c0.7,0.3,1.2,0.8,1.6,1.3s0.7,1.2,0.9,2c0.2,0.8,0.3,1.6,0.3,2.7L343.5,214.7L343.5,214.7L343.5,214.7z"/>
	<path class="st0" d="M361,207.2c0,1.2-0.2,2.3-0.5,3.3s-0.8,1.9-1.4,2.6c-0.6,0.7-1.4,1.3-2.4,1.7c-1,0.4-2,0.6-3.3,0.6
		s-2.3-0.2-3.2-0.5s-1.7-0.9-2.3-1.6s-1-1.5-1.4-2.5c-0.3-1-0.4-2.1-0.4-3.4s0.2-2.3,0.5-3.3s0.8-1.9,1.4-2.6s1.4-1.3,2.4-1.7
		c0.9-0.4,2-0.6,3.3-0.6s2.3,0.2,3.2,0.5s1.7,0.9,2.3,1.6s1.1,1.5,1.4,2.5S361,205.9,361,207.2L361,207.2L361,207.2z M358.2,207.3
		c0-0.8-0.1-1.6-0.2-2.3s-0.4-1.3-0.7-1.9s-0.8-1-1.4-1.3c-0.6-0.3-1.3-0.5-2.2-0.5c-0.8,0-1.5,0.1-2.1,0.4s-1.1,0.7-1.4,1.2
		s-0.7,1.1-0.8,1.9s-0.3,1.5-0.3,2.3s0.1,1.6,0.2,2.3c0.1,0.7,0.4,1.3,0.8,1.9s0.8,0.9,1.4,1.3c0.6,0.3,1.3,0.5,2.2,0.5
		c0.8,0,1.5-0.1,2.1-0.4c0.6-0.3,1.1-0.7,1.4-1.2c0.4-0.5,0.6-1.1,0.8-1.8S358.2,208.2,358.2,207.3L358.2,207.3L358.2,207.3z"/>
	<path class="st0" d="M366.6,214.7c0,0.1,0,0.2-0.1,0.2s-0.1,0.1-0.2,0.2c-0.1,0-0.2,0.1-0.4,0.1c-0.2,0-0.4,0-0.7,0s-0.5,0-0.7,0
		s-0.3-0.1-0.4-0.1c-0.1,0-0.2-0.1-0.2-0.2c0-0.1-0.1-0.1-0.1-0.2v-22c0-0.1,0-0.2,0.1-0.2s0.1-0.1,0.2-0.2s0.2-0.1,0.4-0.1
		c0.2,0,0.4,0,0.7,0s0.5,0,0.7,0c0.2,0,0.3,0.1,0.4,0.1s0.2,0.1,0.2,0.2s0.1,0.1,0.1,0.2V214.7z"/>
	<path class="st0" d="M384.2,207.2c0,1.2-0.2,2.3-0.5,3.3s-0.8,1.9-1.4,2.6c-0.6,0.7-1.4,1.3-2.4,1.7c-1,0.4-2,0.6-3.3,0.6
		s-2.3-0.2-3.2-0.5s-1.7-0.9-2.3-1.6s-1-1.5-1.4-2.5c-0.3-1-0.4-2.1-0.4-3.4s0.2-2.3,0.5-3.3s0.8-1.9,1.4-2.6s1.4-1.3,2.4-1.7
		c0.9-0.4,2-0.6,3.3-0.6s2.3,0.2,3.2,0.5s1.7,0.9,2.3,1.6s1.1,1.5,1.4,2.5S384.2,205.9,384.2,207.2L384.2,207.2L384.2,207.2z
		 M381.4,207.3c0-0.8-0.1-1.6-0.2-2.3s-0.4-1.3-0.7-1.9s-0.8-1-1.4-1.3c-0.6-0.3-1.3-0.5-2.2-0.5c-0.8,0-1.5,0.1-2.1,0.4
		s-1.1,0.7-1.4,1.2s-0.7,1.1-0.8,1.9s-0.3,1.5-0.3,2.3s0.1,1.6,0.2,2.3c0.1,0.7,0.4,1.3,0.8,1.9s0.8,0.9,1.4,1.3
		c0.6,0.3,1.3,0.5,2.2,0.5c0.8,0,1.5-0.1,2.1-0.4c0.6-0.3,1.1-0.7,1.4-1.2c0.4-0.5,0.6-1.1,0.8-1.8S381.4,208.2,381.4,207.3
		L381.4,207.3L381.4,207.3z"/>
	<path class="st0" d="M399.4,200.6c0,0.4,0,0.7-0.2,0.8c-0.1,0.2-0.2,0.3-0.4,0.3h-2.1c0.4,0.4,0.6,0.8,0.8,1.3
		c0.1,0.5,0.2,1,0.2,1.5c0,0.9-0.1,1.6-0.4,2.3s-0.7,1.2-1.2,1.7c-0.5,0.4-1.1,0.8-1.8,1c-0.7,0.2-1.5,0.4-2.3,0.4
		c-0.6,0-1.2-0.1-1.7-0.2s-1-0.4-1.3-0.6c-0.2,0.2-0.4,0.4-0.5,0.7c-0.1,0.2-0.2,0.5-0.2,0.9c0,0.4,0.2,0.7,0.5,0.9
		c0.4,0.2,0.8,0.4,1.4,0.4l3.9,0.2c0.7,0,1.4,0.1,2,0.3c0.6,0.2,1.1,0.4,1.6,0.8c0.5,0.3,0.8,0.8,1,1.2c0.2,0.5,0.4,1.1,0.4,1.7
		c0,0.7-0.1,1.3-0.4,1.9c-0.3,0.6-0.7,1.1-1.3,1.6s-1.3,0.8-2.2,1.1s-2,0.4-3.2,0.4s-2.2-0.1-3-0.3s-1.5-0.5-2.1-0.8
		c-0.5-0.4-0.9-0.8-1.2-1.3c-0.2-0.5-0.4-1-0.4-1.6c0-0.4,0-0.7,0.1-1.1s0.2-0.7,0.4-1s0.4-0.6,0.7-0.9s0.6-0.6,0.9-0.8
		c-0.5-0.3-0.9-0.6-1.2-1s-0.4-0.9-0.4-1.4c0-0.7,0.1-1.3,0.4-1.8c0.3-0.5,0.6-1,1-1.4c-0.3-0.4-0.6-0.9-0.8-1.4s-0.3-1.1-0.3-1.9
		c0-0.8,0.1-1.6,0.4-2.3c0.3-0.7,0.7-1.2,1.2-1.7s1.1-0.8,1.8-1.1s1.5-0.4,2.3-0.4c0.5,0,0.9,0,1.3,0.1s0.8,0.1,1.1,0.2h4.5
		c0.2,0,0.3,0.1,0.4,0.3C399.3,199.9,399.4,200.2,399.4,200.6L399.4,200.6L399.4,200.6z M396.5,216.2c0-0.6-0.3-1.1-0.8-1.5
		c-0.5-0.4-1.2-0.5-2.1-0.6l-3.8-0.1c-0.4,0.3-0.6,0.5-0.9,0.8c-0.2,0.2-0.4,0.5-0.5,0.7c-0.1,0.2-0.2,0.4-0.3,0.7s-0.1,0.4-0.1,0.7
		c0,0.7,0.4,1.2,1.1,1.6s1.7,0.6,3,0.6c0.8,0,1.5-0.1,2.1-0.2s1-0.4,1.3-0.6s0.6-0.6,0.7-0.9S396.5,216.6,396.5,216.2L396.5,216.2
		L396.5,216.2z M395.1,204.5c0-1-0.3-1.8-0.8-2.4s-1.3-0.9-2.4-0.9c-0.5,0-1,0.1-1.4,0.3c-0.4,0.2-0.7,0.4-1,0.7
		c-0.3,0.3-0.5,0.7-0.6,1.1s-0.2,0.8-0.2,1.3c0,1,0.3,1.7,0.8,2.3s1.3,0.8,2.3,0.8c0.5,0,1-0.1,1.4-0.3c0.4-0.2,0.7-0.4,1-0.7
		s0.5-0.6,0.6-1C395.1,205.3,395.1,204.9,395.1,204.5L395.1,204.5L395.1,204.5z"/>
	<path class="st0" d="M404.7,194.9c0,0.6-0.1,1.1-0.4,1.3s-0.7,0.4-1.3,0.4s-1.1-0.1-1.3-0.3s-0.4-0.6-0.4-1.3s0.1-1.1,0.4-1.3
		s0.7-0.4,1.3-0.4s1.1,0.1,1.3,0.3S404.7,194.3,404.7,194.9z M404.4,214.7c0,0.1,0,0.2-0.1,0.2s-0.1,0.1-0.2,0.2
		c-0.1,0-0.2,0.1-0.4,0.1c-0.2,0-0.4,0-0.7,0s-0.5,0-0.7,0s-0.3-0.1-0.4-0.1c-0.1,0-0.2-0.1-0.2-0.2c0-0.1-0.1-0.1-0.1-0.2v-14.8
		c0-0.1,0-0.1,0.1-0.2c0-0.1,0.1-0.1,0.2-0.2c0.1,0,0.2-0.1,0.4-0.1c0.2,0,0.4,0,0.7,0s0.5,0,0.7,0c0.2,0,0.3,0.1,0.4,0.1
		c0.1,0,0.2,0.1,0.2,0.2s0.1,0.1,0.1,0.2V214.7z"/>
	<path class="st0" d="M419.4,214.8c0,0.1,0,0.2-0.1,0.3s-0.2,0.1-0.4,0.1s-0.4,0.1-0.7,0.1s-0.5,0-0.7-0.1s-0.3-0.1-0.4-0.1
		s-0.1-0.2-0.1-0.3v-1.5c-0.6,0.7-1.4,1.2-2.2,1.6c-0.8,0.4-1.6,0.6-2.5,0.6c-0.8,0-1.5-0.1-2.1-0.3c-0.6-0.2-1.2-0.5-1.6-0.9
		s-0.8-0.9-1-1.4s-0.4-1.2-0.4-1.9c0-0.8,0.2-1.6,0.5-2.2s0.8-1.1,1.5-1.5s1.4-0.7,2.3-0.9c0.9-0.2,2-0.3,3.1-0.3h2v-1.1
		c0-0.6-0.1-1.1-0.2-1.5c-0.1-0.4-0.3-0.8-0.6-1.1s-0.6-0.5-1-0.7c-0.4-0.1-1-0.2-1.6-0.2c-0.7,0-1.3,0.1-1.8,0.2s-1,0.3-1.4,0.5
		c-0.4,0.2-0.7,0.4-1,0.5s-0.5,0.2-0.6,0.2c-0.1,0-0.2,0-0.2-0.1c-0.1,0-0.1-0.1-0.2-0.2c0-0.1-0.1-0.2-0.1-0.3c0-0.1,0-0.3,0-0.4
		c0-0.3,0-0.5,0.1-0.6s0.1-0.3,0.3-0.4s0.4-0.3,0.8-0.5s0.8-0.4,1.2-0.5s1-0.3,1.5-0.4s1.1-0.2,1.7-0.2c1.1,0,2,0.1,2.7,0.4
		c0.8,0.2,1.4,0.6,1.8,1.1c0.5,0.5,0.8,1.1,1,1.7c0.2,0.7,0.3,1.5,0.3,2.4L419.4,214.8L419.4,214.8L419.4,214.8z M416.7,208h-2.3
		c-0.8,0-1.4,0.1-1.9,0.2s-1,0.3-1.4,0.6c-0.4,0.2-0.6,0.5-0.8,0.9s-0.2,0.7-0.2,1.2c0,0.8,0.2,1.4,0.7,1.8c0.5,0.5,1.2,0.7,2,0.7
		c0.7,0,1.4-0.2,2-0.5c0.6-0.4,1.2-0.9,1.9-1.7L416.7,208L416.7,208L416.7,208z"/>
	<path class="st0" d="M432.5,210.7c0,0.8-0.1,1.4-0.4,2c-0.3,0.6-0.7,1.1-1.2,1.5c-0.5,0.4-1.1,0.7-1.8,0.9
		c-0.7,0.2-1.5,0.3-2.4,0.3c-0.5,0-1,0-1.5-0.1s-0.9-0.2-1.3-0.3c-0.4-0.1-0.7-0.3-1-0.4s-0.5-0.3-0.6-0.4s-0.2-0.3-0.3-0.5
		c-0.1-0.2-0.1-0.5-0.1-0.8c0-0.2,0-0.4,0-0.5c0-0.1,0-0.3,0.1-0.4s0.1-0.1,0.1-0.2s0.1-0.1,0.2-0.1c0.1,0,0.3,0.1,0.5,0.2
		s0.5,0.3,0.9,0.5c0.4,0.2,0.8,0.3,1.2,0.5c0.5,0.1,1,0.2,1.6,0.2c0.5,0,0.9-0.1,1.2-0.1s0.7-0.2,1-0.4c0.3-0.2,0.5-0.4,0.6-0.7
		c0.1-0.3,0.2-0.6,0.2-1.1s-0.1-0.8-0.3-1.1c-0.2-0.3-0.5-0.5-0.9-0.8s-0.8-0.4-1.2-0.6c-0.4-0.2-0.9-0.4-1.4-0.5
		c-0.5-0.2-0.9-0.4-1.4-0.6c-0.4-0.2-0.8-0.5-1.2-0.9s-0.6-0.8-0.9-1.2c-0.2-0.5-0.3-1-0.3-1.7c0-0.6,0.1-1.1,0.3-1.7s0.6-1,1-1.4
		s1-0.7,1.7-1c0.7-0.2,1.5-0.4,2.4-0.4c0.4,0,0.8,0,1.2,0.1s0.8,0.1,1.1,0.2s0.6,0.2,0.8,0.3c0.2,0.1,0.4,0.2,0.5,0.3
		c0.1,0.1,0.2,0.2,0.2,0.2s0.1,0.1,0.1,0.2c0,0.1,0,0.2,0,0.3c0,0.1,0,0.3,0,0.4c0,0.2,0,0.4,0,0.5s0,0.2-0.1,0.3
		c0,0.1-0.1,0.1-0.1,0.2s-0.1,0.1-0.2,0.1c-0.1,0-0.2-0.1-0.4-0.2s-0.4-0.2-0.7-0.4c-0.3-0.1-0.6-0.3-1-0.4s-0.9-0.2-1.4-0.2
		c-0.5,0-0.9,0.1-1.2,0.2c-0.4,0.1-0.6,0.2-0.9,0.4s-0.4,0.4-0.5,0.7s-0.2,0.6-0.2,0.9c0,0.4,0.1,0.8,0.3,1.1s0.5,0.6,0.9,0.8
		c0.4,0.2,0.8,0.4,1.2,0.6c0.5,0.2,0.9,0.4,1.4,0.5c0.5,0.2,0.9,0.4,1.4,0.6c0.5,0.2,0.9,0.5,1.2,0.8s0.6,0.7,0.9,1.2
		S432.5,210.1,432.5,210.7L432.5,210.7L432.5,210.7z"/>
	<path class="st0" d="M454.3,214.7c0,0.1,0,0.2-0.1,0.2s-0.1,0.1-0.2,0.2c-0.1,0-0.2,0.1-0.4,0.1s-0.3,0-0.6,0s-0.4,0-0.6,0
		c-0.1,0-0.3-0.1-0.4-0.1S452,215,452,215c0-0.1-0.1-0.1-0.1-0.2v-2c-0.8,0.8-1.6,1.5-2.4,2s-1.8,0.7-2.8,0.7c-1.1,0-2-0.2-2.8-0.6
		s-1.4-1-1.9-1.7s-0.8-1.6-1-2.5c-0.2-1-0.3-2-0.3-3.1c0-1.3,0.1-2.4,0.4-3.4s0.7-1.9,1.2-2.6s1.2-1.3,2-1.7s1.7-0.6,2.8-0.6
		c0.9,0,1.7,0.2,2.4,0.6s1.4,0.9,2.1,1.7v-8.6c0-0.1,0-0.1,0.1-0.2s0.1-0.1,0.2-0.2c0.1,0,0.2-0.1,0.4-0.1s0.4,0,0.6,0s0.5,0,0.7,0
		s0.3,0.1,0.4,0.1s0.2,0.1,0.2,0.2s0.1,0.1,0.1,0.2L454.3,214.7L454.3,214.7z M451.6,204.3c-0.7-0.9-1.5-1.6-2.1-2.1
		c-0.7-0.5-1.4-0.7-2.1-0.7c-0.7,0-1.3,0.2-1.8,0.5s-0.9,0.8-1.2,1.3c-0.3,0.5-0.5,1.1-0.7,1.8c-0.1,0.7-0.2,1.4-0.2,2.1
		c0,0.8,0.1,1.5,0.2,2.2c0.1,0.7,0.3,1.4,0.6,1.9c0.3,0.6,0.7,1,1.1,1.3c0.5,0.3,1.1,0.5,1.8,0.5c0.4,0,0.7-0.1,1-0.1
		c0.3-0.1,0.7-0.3,1-0.5s0.7-0.5,1.1-0.9s0.8-0.8,1.2-1.4L451.6,204.3L451.6,204.3L451.6,204.3z"/>
	<path class="st0" d="M470.8,206.7c0,0.4-0.1,0.7-0.3,0.9s-0.5,0.3-0.7,0.3H460c0,0.8,0.1,1.6,0.2,2.2c0.2,0.7,0.4,1.2,0.8,1.7
		s0.9,0.8,1.5,1.1c0.6,0.2,1.4,0.4,2.3,0.4c0.7,0,1.3-0.1,1.9-0.2s1-0.2,1.4-0.4s0.7-0.3,1-0.4s0.5-0.2,0.6-0.2c0.1,0,0.1,0,0.2,0.1
		s0.1,0.1,0.1,0.2c0,0.1,0.1,0.2,0.1,0.3c0,0.1,0,0.3,0,0.5c0,0.1,0,0.3,0,0.4c0,0.1,0,0.2,0,0.3c0,0.1,0,0.2-0.1,0.2
		c0,0.1-0.1,0.1-0.1,0.2s-0.2,0.2-0.5,0.3s-0.7,0.3-1.1,0.4c-0.5,0.1-1,0.2-1.6,0.4s-1.3,0.2-2,0.2c-1.2,0-2.3-0.2-3.2-0.5
		s-1.7-0.8-2.3-1.5c-0.6-0.7-1.1-1.5-1.4-2.5c-0.3-1-0.5-2.2-0.5-3.5s0.2-2.4,0.5-3.4s0.8-1.9,1.4-2.6c0.6-0.7,1.4-1.2,2.2-1.6
		s1.9-0.6,2.9-0.6c1.2,0,2.1,0.2,3,0.6s1.5,0.9,2,1.5c0.5,0.6,0.9,1.4,1.2,2.2s0.4,1.8,0.4,2.7L470.8,206.7L470.8,206.7L470.8,206.7
		z M468.1,205.9c0-1.4-0.3-2.5-1-3.4c-0.7-0.8-1.7-1.2-3-1.2c-0.7,0-1.3,0.1-1.8,0.4s-0.9,0.6-1.3,1c-0.3,0.4-0.6,0.9-0.8,1.5
		c-0.2,0.6-0.3,1.1-0.3,1.7L468.1,205.9L468.1,205.9z"/>
	<path class="st0" d="M491.9,209.2c0,1-0.2,1.9-0.5,2.7s-0.9,1.4-1.5,2s-1.4,0.9-2.3,1.2c-0.9,0.3-1.8,0.4-2.9,0.4
		c-0.7,0-1.4-0.1-2-0.2s-1.1-0.3-1.6-0.4c-0.5-0.2-0.9-0.4-1.2-0.5c-0.3-0.2-0.5-0.4-0.7-0.5s-0.2-0.3-0.3-0.5s-0.1-0.5-0.1-0.8
		c0-0.2,0-0.4,0-0.6s0-0.3,0.1-0.4c0-0.1,0.1-0.2,0.2-0.2c0.1,0,0.1-0.1,0.2-0.1c0.1,0,0.4,0.1,0.6,0.3s0.6,0.4,1.1,0.6
		s1,0.4,1.6,0.6s1.3,0.3,2.1,0.3c0.6,0,1.2-0.1,1.7-0.2c0.5-0.2,1-0.4,1.3-0.7s0.6-0.7,0.9-1.1s0.3-0.9,0.3-1.5
		c0-0.6-0.1-1.1-0.4-1.6c-0.3-0.4-0.6-0.8-1.1-1.1c-0.5-0.3-1-0.6-1.5-0.9c-0.6-0.3-1.2-0.5-1.8-0.8s-1.2-0.6-1.8-0.9
		s-1.1-0.7-1.5-1.2c-0.5-0.5-0.8-1-1.1-1.6s-0.4-1.4-0.4-2.2s0.2-1.7,0.5-2.4s0.8-1.3,1.4-1.8c0.6-0.5,1.3-0.8,2.1-1.1
		c0.8-0.2,1.6-0.4,2.6-0.4c0.5,0,1,0,1.4,0.1c0.5,0.1,0.9,0.2,1.4,0.3s0.8,0.3,1.1,0.5c0.3,0.2,0.5,0.3,0.6,0.4s0.2,0.2,0.2,0.2
		c0,0.1,0.1,0.1,0.1,0.2s0,0.2,0,0.3s0,0.3,0,0.5s0,0.4,0,0.5s0,0.3-0.1,0.4c0,0.1-0.1,0.2-0.1,0.2c-0.1,0.1-0.1,0.1-0.2,0.1
		c-0.1,0-0.3-0.1-0.6-0.2s-0.6-0.3-1-0.5s-0.8-0.4-1.3-0.5s-1.1-0.2-1.7-0.2c-0.6,0-1.1,0.1-1.5,0.2s-0.8,0.4-1.1,0.6
		c-0.3,0.3-0.5,0.6-0.6,0.9s-0.2,0.8-0.2,1.1c0,0.6,0.1,1.1,0.4,1.5s0.6,0.8,1.1,1.1c0.5,0.3,1,0.6,1.5,0.9s1.2,0.6,1.8,0.8
		c0.6,0.3,1.2,0.6,1.8,0.9c0.6,0.3,1.1,0.7,1.5,1.2c0.5,0.5,0.8,1,1.1,1.6S491.9,208.3,491.9,209.2L491.9,209.2L491.9,209.2z"/>
	<path class="st0" d="M505.6,214.8c0,0.1,0,0.2-0.1,0.3s-0.2,0.1-0.4,0.1s-0.4,0.1-0.7,0.1s-0.5,0-0.7-0.1s-0.3-0.1-0.4-0.1
		s-0.1-0.2-0.1-0.3v-1.5c-0.6,0.7-1.4,1.2-2.2,1.6c-0.8,0.4-1.6,0.6-2.5,0.6c-0.8,0-1.5-0.1-2.1-0.3c-0.6-0.2-1.2-0.5-1.6-0.9
		s-0.8-0.9-1-1.4s-0.4-1.2-0.4-1.9c0-0.8,0.2-1.6,0.5-2.2s0.8-1.1,1.5-1.5c0.6-0.4,1.4-0.7,2.3-0.9c0.9-0.2,2-0.3,3.1-0.3h2v-1.1
		c0-0.6-0.1-1.1-0.2-1.5c-0.1-0.4-0.3-0.8-0.6-1.1s-0.6-0.5-1-0.7c-0.4-0.1-1-0.2-1.6-0.2c-0.7,0-1.3,0.1-1.8,0.2s-1,0.3-1.4,0.5
		c-0.4,0.2-0.7,0.4-1,0.5s-0.5,0.2-0.6,0.2c-0.1,0-0.2,0-0.2-0.1c-0.1,0-0.1-0.1-0.2-0.2c0-0.1-0.1-0.2-0.1-0.3c0-0.1,0-0.3,0-0.4
		c0-0.3,0-0.5,0.1-0.6s0.1-0.3,0.3-0.4s0.4-0.3,0.8-0.5s0.8-0.4,1.2-0.5s1-0.3,1.5-0.4s1.1-0.2,1.7-0.2c1.1,0,2,0.1,2.7,0.4
		c0.8,0.2,1.4,0.6,1.8,1.1c0.5,0.5,0.8,1.1,1,1.7c0.2,0.7,0.3,1.5,0.3,2.4L505.6,214.8L505.6,214.8L505.6,214.8z M502.9,208h-2.3
		c-0.8,0-1.4,0.1-1.9,0.2s-1,0.3-1.4,0.6c-0.4,0.2-0.6,0.5-0.8,0.9s-0.2,0.7-0.2,1.2c0,0.8,0.2,1.4,0.7,1.8c0.5,0.5,1.2,0.7,2,0.7
		c0.7,0,1.4-0.2,2-0.5c0.6-0.4,1.2-0.9,1.9-1.7L502.9,208L502.9,208L502.9,208z"/>
	<path class="st0" d="M522.1,214.7c0,0.1,0,0.2-0.1,0.2s-0.1,0.1-0.2,0.2c-0.1,0-0.2,0.1-0.4,0.1s-0.3,0-0.6,0c-0.2,0-0.5,0-0.6,0
		s-0.3-0.1-0.4-0.1c-0.1,0-0.2-0.1-0.2-0.2s0-0.1,0-0.2v-2c-0.8,0.9-1.7,1.6-2.5,2s-1.7,0.6-2.5,0.6c-1,0-1.8-0.2-2.5-0.5
		c-0.7-0.3-1.2-0.8-1.6-1.3s-0.7-1.2-0.9-2s-0.3-1.7-0.3-2.7v-9c0-0.1,0-0.2,0.1-0.2s0.1-0.1,0.2-0.2c0.1-0.1,0.2-0.1,0.4-0.1
		s0.4,0,0.7,0s0.5,0,0.7,0s0.3,0.1,0.4,0.1s0.2,0.1,0.2,0.2s0.1,0.1,0.1,0.2v8.6c0,0.9,0.1,1.6,0.2,2.1s0.3,1,0.6,1.3
		c0.3,0.4,0.6,0.6,1,0.9s0.9,0.3,1.4,0.3c0.7,0,1.4-0.2,2-0.7c0.7-0.5,1.4-1.2,2.2-2.1v-10.4c0-0.1,0-0.2,0.1-0.2s0.1-0.1,0.2-0.2
		s0.2-0.1,0.4-0.1s0.4,0,0.7,0s0.5,0,0.7,0s0.3,0.1,0.4,0.1s0.2,0.1,0.2,0.2s0.1,0.1,0.1,0.2L522.1,214.7L522.1,214.7L522.1,214.7z
		 M517.1,192.7c0.1-0.1,0.1-0.2,0.2-0.3c0.1-0.1,0.2-0.1,0.3-0.2s0.3-0.1,0.5-0.1c0.2,0,0.4,0,0.7,0c0.3,0,0.6,0,0.8,0.1
		s0.3,0.1,0.4,0.2c0.1,0.1,0.1,0.1,0.1,0.2s-0.1,0.2-0.2,0.3l-3,3.8c-0.1,0.1-0.2,0.2-0.2,0.3c-0.1,0.1-0.2,0.1-0.2,0.2
		c-0.1,0-0.2,0.1-0.4,0.1c-0.2,0-0.3,0-0.5,0c-0.2,0-0.4,0-0.6-0.1c-0.1,0-0.2-0.1-0.3-0.1s-0.1-0.1-0.1-0.2c0-0.1,0.1-0.2,0.1-0.3
		L517.1,192.7L517.1,192.7L517.1,192.7z"/>
	<path class="st0" d="M538.7,214.7c0,0.1,0,0.2-0.1,0.2s-0.1,0.1-0.2,0.2c-0.1,0-0.2,0.1-0.4,0.1s-0.3,0-0.6,0s-0.4,0-0.6,0
		c-0.2,0-0.3-0.1-0.4-0.1s-0.2-0.1-0.2-0.2s-0.1-0.1-0.1-0.2v-2c-0.8,0.8-1.6,1.5-2.4,2c-0.8,0.5-1.8,0.7-2.8,0.7
		c-1.1,0-2-0.2-2.8-0.6s-1.4-1-1.9-1.7s-0.8-1.6-1-2.5c-0.2-1-0.3-2-0.3-3.1c0-1.3,0.1-2.4,0.4-3.4c0.3-1,0.7-1.9,1.2-2.6
		s1.2-1.3,2-1.7s1.7-0.6,2.8-0.6c0.9,0,1.7,0.2,2.4,0.6c0.7,0.4,1.4,0.9,2.1,1.7v-8.6c0-0.1,0-0.1,0.1-0.2s0.1-0.1,0.2-0.2
		c0.1,0,0.2-0.1,0.4-0.1s0.4,0,0.7,0s0.5,0,0.7,0s0.3,0.1,0.4,0.1s0.2,0.1,0.2,0.2s0.1,0.1,0.1,0.2L538.7,214.7L538.7,214.7z
		 M535.9,204.3c-0.7-0.9-1.5-1.6-2.1-2.1c-0.7-0.5-1.4-0.7-2.2-0.7c-0.7,0-1.3,0.2-1.8,0.5s-0.9,0.8-1.2,1.3
		c-0.3,0.5-0.5,1.1-0.7,1.8c-0.1,0.7-0.2,1.4-0.2,2.1c0,0.8,0.1,1.5,0.2,2.2c0.1,0.7,0.3,1.4,0.6,1.9c0.3,0.6,0.7,1,1.1,1.3
		c0.5,0.3,1.1,0.5,1.8,0.5c0.4,0,0.7-0.1,1-0.1c0.3-0.1,0.7-0.3,1-0.5s0.7-0.5,1.1-0.9s0.8-0.8,1.2-1.4L535.9,204.3L535.9,204.3
		L535.9,204.3z"/>
	<path class="st0" d="M555.1,206.7c0,0.4-0.1,0.7-0.3,0.9s-0.5,0.3-0.7,0.3h-9.8c0,0.8,0.1,1.6,0.2,2.2c0.2,0.7,0.4,1.2,0.8,1.7
		s0.9,0.8,1.5,1.1c0.6,0.2,1.4,0.4,2.3,0.4c0.7,0,1.3-0.1,1.9-0.2s1-0.2,1.4-0.4s0.7-0.3,1-0.4s0.5-0.2,0.6-0.2c0.1,0,0.2,0,0.2,0.1
		s0.1,0.1,0.1,0.2c0,0.1,0.1,0.2,0.1,0.3c0,0.1,0,0.3,0,0.5c0,0.1,0,0.3,0,0.4c0,0.1,0,0.2,0,0.3c0,0.1,0,0.2-0.1,0.2
		c0,0.1-0.1,0.1-0.2,0.2s-0.2,0.2-0.5,0.3s-0.7,0.3-1.2,0.4s-1,0.2-1.6,0.4s-1.3,0.2-2,0.2c-1.2,0-2.3-0.2-3.2-0.5s-1.7-0.8-2.3-1.5
		c-0.6-0.7-1.1-1.5-1.4-2.5c-0.3-1-0.5-2.2-0.5-3.5s0.2-2.4,0.5-3.4s0.8-1.9,1.4-2.6c0.6-0.7,1.4-1.2,2.2-1.6s1.9-0.6,2.9-0.6
		c1.2,0,2.2,0.2,3,0.6c0.8,0.4,1.5,0.9,2,1.5c0.5,0.6,0.9,1.4,1.2,2.2s0.4,1.8,0.4,2.7L555.1,206.7L555.1,206.7L555.1,206.7z
		 M552.4,205.9c0-1.4-0.3-2.5-1-3.4c-0.7-0.8-1.7-1.2-3-1.2c-0.7,0-1.3,0.1-1.8,0.4s-0.9,0.6-1.3,1c-0.3,0.4-0.6,0.9-0.8,1.5
		s-0.3,1.1-0.3,1.7L552.4,205.9L552.4,205.9z"/>
</g>
<g>
	<path class="st1" d="M359.6,32.3c-0.8-2.5-2.7-4-5.4-4.3c-3.1-0.3-5.5,1-7.1,3.7c-4.3,7.4-8.7,14.8-13,22.1c-7.7,13-15.4,26-23,39
		c-1.3,2.2-2.6,4.4-4,6.7c-2.9-4.9-5.6-9.6-8.3-14.2c-6.5-11-13-21.9-19.5-32.9c-4.2-7.1-8.4-14.2-12.6-21.2
		c-1.7-2.8-4.7-3.9-7.5-3.1c-3.3,1-5.1,3.4-5.1,6.8v94c0,0.6,0,1.2,0.2,1.9c1,3.7,4.4,5.4,7.3,5.1c3.6-0.4,6-3.3,6-7.1v-69
		c0.5,0.7,0.8,1,1,1.3c7.5,12.5,15,25,22.5,37.5c3.4,5.7,7,11.4,10.3,17.2c2.6,4.6,10,4.1,11.8-0.3c0.6-1.4,1.6-2.7,2.4-4.1
		c8.8-14.8,17.7-29.6,26.5-44.4c1.4-2.3,2.8-4.6,4.1-6.9c0.1,0,0.3,0.1,0.4,0.1V129c0,2.6,1.2,4.6,3.4,5.9c2.3,1.4,4.6,1.4,6.9,0
		c2.7-1.6,3.5-4.2,3.5-7.2c0-30.5,0-61.1-0.1-91.6C360.2,34.9,360.1,33.6,359.6,32.3L359.6,32.3L359.6,32.3z"/>
	<path class="st1" d="M141.5,59.3c-2.9-12.9-9.5-23.7-20-32c-9.8-7.7-21-11.6-33.3-12c-4.3-0.1-8.7,0.5-12.8,1.4
		C62.1,19.4,51.4,26.5,43.1,37c-8.4,10.7-11.9,23-11.9,36.5c0,32.4,0,64.9,0,97.3c0,1.2,0.1,2.4,0.4,3.6c0.9,4.3,6.4,6.2,9.8,3.4
		c2-1.6,2.4-3.7,2.3-6.1c0-14.9-0.1-29.9-0.1-44.8c0-16.8-0.1-33.7,0.1-50.5c0-5.1,0.1-10.3,1.1-15.3C47,50.5,52.6,42,61.1,35.5
		c5-3.8,10.6-6.3,16.7-7.1c4.4-0.5,8.9-0.5,13.4-0.4c3,0.1,6.1,0.5,9.1,1.3c9.1,2.4,16.1,7.8,21.5,15.3c5.6,7.8,8.4,16.4,8.4,26.1
		c-0.1,33.6,0,67.3,0,100.9c0,0.5,0,0.9,0,1.4c0.2,3.7,2.9,6.1,6.6,6.1c3.2-0.1,5.8-2.9,5.8-6.3v-52.4c0-17.5,0.1-33.9-0.1-50.9
		C142.6,66,142.2,62.6,141.5,59.3L141.5,59.3L141.5,59.3z"/>
	<path class="st1" d="M554.4,71.9c-2.9-13.8-10.2-24.9-21.7-33.1c-8.8-6.3-18.7-10-29.5-10.4c-11.6-0.4-23.2-0.1-34.8-0.1
		c-3,0-6.7,3-6.7,6.6c0.1,15.8,0.1,31.5,0.1,47.2s0.1,31.4-0.1,47.1c0,3.1,2.7,6.7,6.7,6.7c12-0.1,24-0.1,36-0.4
		c3.6-0.1,7.3-0.9,10.8-1.9c12.2-3.4,22.1-10.3,29.7-20.3c6.4-8.5,10.1-18.2,10.6-28.9C555.7,80.3,555.3,76,554.4,71.9L554.4,71.9
		L554.4,71.9z M534.8,104.1c-6.5,9.3-15.6,14.9-26.6,17.3c-2.4,0.5-4.8,0.7-7.3,0.8c-7.9,0.1-15.7,0-23.6,0h-2V41.8h1.9
		c8,0,16-0.2,24,0c9.5,0.2,18,3.3,25.4,9.3c6.7,5.4,11.5,12.1,14,20.4C544,83.2,541.8,94.1,534.8,104.1L534.8,104.1L534.8,104.1z"/>
	<path class="st1" d="M443.7,122.5h-58.8V88.7h2.2c15.8,0,31.5,0,47.3,0c1.1,0,2.2-0.1,3.2-0.4c3.2-0.7,5.3-4,4.8-7.6
		c-0.4-3-3.2-5.5-6.2-5.5c-11.2,0-22.4,0-33.6,0h-16c-0.9,0-1.8,0.2-1.7-1.2c0-10.6,0-21.3,0-32.2h57.2c4.1,0,6.8-2.8,7-6.8
		c0.2-3.3-3.1-6.8-7-6.8c-21.2,0.1-42.3,0.1-63.5,0c-3.9,0-7.2,3.1-7.2,7.3c0.1,31,0.1,62,0,93c0,3.9,2.8,7.5,7.5,7.4
		c17.3-0.1,34.6,0,51.9,0c4.4,0,8.7,0.1,13.1,0c3.6-0.1,6.9-3.3,6.6-7.2C450.2,125.1,447.6,122.5,443.7,122.5L443.7,122.5
		L443.7,122.5z"/>
	<path class="st1" d="M234.4,39.2c-6.8-7.6-15.7-10.8-25.6-11.2c-4.6-0.2-9.2,0-13.8,0c-8.5,0-17,0-25.5,0.1c-4.5,0-7.5,2.8-7.5,6.5
		c0,31.6,0,63.1,0,94.7c0,2.4,1.9,5.2,4.1,6c4.6,1.8,9.3-1.5,9.3-6.4V41.8c8.6,0,16.9,0,25.2,0c4.2,0,8.5-0.2,12.7,0.5
		c6.6,1,11.5,4.7,14,11.1c1.9,5,2.3,10.1,1.6,15.4c-0.8,5.9-3.8,10.2-9,12.9c-4.7,2.5-9.8,3.6-15.1,3.9c-2.9,0.2-5.9,0.2-8.8,0.7
		c-3.3,0.6-5.4,3.9-4.9,7.2c0.5,3.2,3.3,6.1,6.4,5.9c1.7-0.1,3.4-0.2,5,0c2.8,0.4,5.6,0.8,8.2,1.9c6.5,2.7,10.5,8,13.5,14.1
		c2.3,4.9,3.6,10.1,4.9,15.3c0.8,3.5,4.1,5.4,7.9,4.8c2.7-0.4,5.4-2.9,5.1-6.5c-0.2-2.5-0.7-4.9-1.4-7.3c-1.9-7.6-4.8-14.8-9.7-21
		c-1.8-2.2-3.8-4.2-5.7-6.4c0,0,0-0.1,0.1-0.2c0.4-0.3,0.9-0.5,1.3-0.7c9.9-5.5,15.1-14.1,16-25.2c0.3-4.2-0.1-8.6-0.7-12.8
		C241.1,49.4,238.5,43.9,234.4,39.2L234.4,39.2L234.4,39.2z"/>
	<path class="st1" d="M114,125.1v-1.8H59.8c0,9.6,0,18.9,0,28.3c0,1.6,0.1,3.2,0.4,4.8c1.1,5.9,3.6,11.1,8.1,15.2
		c7.6,7.1,16.5,9.3,26.5,6.5c11.4-3.2,19.6-14.1,19.3-26.2C113.8,142.9,114,134,114,125.1L114,125.1L114,125.1z"/>
	<path class="st2" d="M114.1,69.7c-3-17.2-21.3-27.3-37.4-20.5c-10.7,4.6-16.5,12.9-16.9,24.7c-0.2,3.9,0,7.8,0,11.7v17.9
		c0.6,0,1,0.1,1.4,0.1c17.2,0,34.5,0,51.7,0.1c1.4,0,1.7-0.5,1.7-1.8c0-9.1,0-18.3,0-27.4C114.4,72.9,114.3,71.2,114.1,69.7
		L114.1,69.7L114.1,69.7z M76.2,57.4c7.1-3.2,13.8-3,20.2,0.7c7,4.1,10.5,10.4,10.9,18.8C96.9,70.3,86.7,64,76.2,57.4L76.2,57.4z"/>
</g>
</svg>
