<svg width="192" height="41" viewBox="0 0 192 41" fill="none" xmlns="http://www.w3.org/2000/svg">
<g id="Group">
<path id="Vector" d="M110.332 0.719971H109.642V40.28H110.332V0.719971Z" fill="#231F20"/>
<g id="Group_2">
<g id="Group_3">
<path id="Vector_2" d="M125.232 25.95H125.702V30.62H125.192V26.89L123.442 29.71H123.252L121.492 26.89V30.62H120.982V25.95H121.452L123.342 29.06L125.222 25.95H125.232Z" fill="#231F20"/>
<path id="Vector_3" d="M126.902 26.4999V25.7599H127.432V26.4999H126.902ZM126.912 30.6199V27.0099H127.402V30.6199H126.912Z" fill="#231F20"/>
<path id="Vector_4" d="M131.852 28.49V30.62H131.352V28.56C131.352 27.84 130.972 27.41 130.292 27.41C129.612 27.41 129.022 27.97 129.022 28.75V30.62H128.532V27.01H129.022V27.66C129.292 27.26 129.772 26.95 130.402 26.95C131.272 26.95 131.842 27.54 131.842 28.49H131.852Z" fill="#231F20"/>
<path id="Vector_5" d="M132.892 26.4999V25.7599H133.422V26.4999H132.892ZM132.902 30.6199V27.0099H133.392V30.6199H132.902Z" fill="#231F20"/>
<path id="Vector_6" d="M134.202 30.21L134.412 29.8C134.812 30.08 135.282 30.23 135.732 30.23C136.322 30.23 136.682 30.04 136.682 29.64C136.682 29.3 136.422 29.15 135.662 29.01C134.632 28.82 134.322 28.51 134.322 27.97C134.322 27.34 134.822 26.95 135.662 26.95C136.132 26.95 136.722 27.09 137.062 27.33L136.852 27.75C136.532 27.53 136.072 27.41 135.632 27.41C135.132 27.41 134.842 27.6 134.842 27.93C134.842 28.23 135.062 28.38 135.822 28.53C136.872 28.75 137.202 29.06 137.202 29.62C137.202 30.29 136.632 30.68 135.722 30.68C135.152 30.68 134.582 30.47 134.212 30.21H134.202Z" fill="#231F20"/>
<path id="Vector_7" d="M140.312 30.4699C140.082 30.6099 139.702 30.6899 139.432 30.6899C138.782 30.6899 138.362 30.2999 138.362 29.6199V27.4699H137.642V27.0099H138.372L138.412 26.0399H138.862V27.0099H140.162V27.4699H138.862V29.5299C138.862 29.9599 139.132 30.2299 139.512 30.2299C139.722 30.2299 140.022 30.1699 140.202 30.0699L140.302 30.4599L140.312 30.4699Z" fill="#231F20"/>
<path id="Vector_8" d="M141.252 29.01C141.322 29.74 141.882 30.23 142.672 30.23C143.122 30.23 143.472 30.09 143.742 29.79L144.072 30.08C143.732 30.45 143.252 30.68 142.652 30.68C141.542 30.68 140.752 29.9 140.752 28.81C140.752 27.72 141.492 26.95 142.592 26.95C143.582 26.95 144.272 27.66 144.272 28.71C144.272 28.8 144.272 28.88 144.242 29.01H141.262H141.252ZM141.252 28.58H143.772C143.702 27.83 143.242 27.41 142.582 27.41C141.852 27.41 141.342 27.88 141.252 28.58ZM143.432 25.82L142.662 26.67L142.312 26.62L142.962 25.71L143.432 25.82Z" fill="#231F20"/>
<path id="Vector_9" d="M147.052 27L147.032 27.51C146.922 27.48 146.802 27.46 146.702 27.46C145.982 27.46 145.572 28.14 145.572 28.96V30.61H145.082V27H145.572V27.68C145.812 27.22 146.232 26.96 146.712 26.96C146.842 26.96 146.942 26.97 147.052 26.99V27Z" fill="#231F20"/>
<path id="Vector_10" d="M147.732 26.4999V25.7599H148.262V26.4999H147.732ZM147.742 30.6199V27.0099H148.232V30.6199H147.742Z" fill="#231F20"/>
<path id="Vector_11" d="M149.152 28.81C149.152 27.73 149.942 26.95 151.052 26.95C152.162 26.95 152.952 27.73 152.952 28.81C152.952 29.89 152.162 30.69 151.052 30.69C149.942 30.69 149.152 29.9 149.152 28.81ZM152.452 28.81C152.452 27.98 151.862 27.4 151.052 27.4C150.242 27.4 149.652 27.97 149.652 28.81C149.652 29.65 150.242 30.23 151.052 30.23C151.862 30.23 152.452 29.65 152.452 28.81Z" fill="#231F20"/>
<path id="Vector_12" d="M158.852 25.6899H159.352V30.6199H158.852V29.9499C158.542 30.4199 158.012 30.6799 157.392 30.6799C156.402 30.6799 155.632 29.8899 155.632 28.7999C155.632 27.7099 156.402 26.9399 157.392 26.9399C158.002 26.9399 158.542 27.1999 158.852 27.6699V25.6799V25.6899ZM158.852 28.8099C158.852 27.9699 158.272 27.4099 157.472 27.4099C156.672 27.4099 156.132 27.9899 156.132 28.8099C156.132 29.6299 156.682 30.2299 157.472 30.2299C158.262 30.2299 158.852 29.6599 158.852 28.8099Z" fill="#231F20"/>
<path id="Vector_13" d="M163.332 28.3799V30.6199H162.832V29.9399C162.632 30.2799 162.152 30.6899 161.442 30.6899C160.672 30.6899 160.192 30.2399 160.192 29.5799C160.192 28.9199 160.622 28.4299 161.612 28.4299C162.042 28.4299 162.462 28.4599 162.832 28.4999V28.3799C162.832 27.7399 162.452 27.3999 161.742 27.3999C161.362 27.3999 160.952 27.5399 160.632 27.7999L160.382 27.4299C160.792 27.0899 161.302 26.9399 161.792 26.9399C162.812 26.9399 163.332 27.4599 163.332 28.3699V28.3799ZM162.832 29.0399V28.9299C162.492 28.8799 162.152 28.8499 161.722 28.8499C160.982 28.8499 160.672 29.1099 160.672 29.5499C160.672 29.9899 161.002 30.2199 161.592 30.2199C162.312 30.2199 162.832 29.5999 162.832 29.0299V29.0399Z" fill="#231F20"/>
<path id="Vector_14" d="M166.132 29.9899L166.382 29.5999C166.832 29.9799 167.412 30.2099 168.022 30.2099C168.772 30.2099 169.182 29.8599 169.182 29.4099C169.182 28.8899 168.782 28.7099 167.922 28.5299C166.862 28.2999 166.282 27.9499 166.282 27.1699C166.282 26.3899 167.012 25.8899 167.962 25.8899C168.562 25.8899 169.102 26.0799 169.552 26.4199L169.272 26.7999C168.912 26.5499 168.422 26.3699 167.932 26.3699C167.252 26.3699 166.822 26.6799 166.822 27.1799C166.822 27.6799 167.192 27.8699 168.072 28.0699C169.182 28.3099 169.722 28.5999 169.722 29.3899C169.722 30.1799 169.012 30.6999 167.992 30.6999C167.262 30.6999 166.602 30.4199 166.142 30.0099L166.132 29.9899Z" fill="#231F20"/>
<path id="Vector_15" d="M173.422 28.3799V30.6199H172.922V29.9399C172.722 30.2799 172.242 30.6899 171.532 30.6899C170.762 30.6899 170.282 30.2399 170.282 29.5799C170.282 28.9199 170.712 28.4299 171.702 28.4299C172.132 28.4299 172.552 28.4599 172.922 28.4999V28.3799C172.922 27.7399 172.542 27.3999 171.832 27.3999C171.452 27.3999 171.042 27.5399 170.722 27.7999L170.472 27.4299C170.882 27.0899 171.392 26.9399 171.882 26.9399C172.902 26.9399 173.422 27.4599 173.422 28.3699V28.3799ZM172.922 29.0399V28.9299C172.582 28.8799 172.242 28.8499 171.812 28.8499C171.072 28.8499 170.762 29.1099 170.762 29.5499C170.762 29.9899 171.092 30.2199 171.682 30.2199C172.402 30.2199 172.922 29.5999 172.922 29.0299V29.0399Z" fill="#231F20"/>
<path id="Vector_16" d="M177.232 27.01H177.732V30.62H177.232V29.97C176.962 30.37 176.482 30.68 175.852 30.68C174.982 30.68 174.412 30.09 174.412 29.14V27.01H174.912V29.07C174.912 29.79 175.292 30.22 175.962 30.22C176.632 30.22 177.232 29.66 177.232 28.88V27.01ZM176.992 25.82L176.222 26.67L175.872 26.62L176.522 25.71L176.992 25.82Z" fill="#231F20"/>
<path id="Vector_17" d="M181.862 25.6899H182.362V30.6199H181.862V29.9499C181.552 30.4199 181.022 30.6799 180.402 30.6799C179.412 30.6799 178.642 29.8899 178.642 28.7999C178.642 27.7099 179.412 26.9399 180.402 26.9399C181.012 26.9399 181.552 27.1999 181.862 27.6699V25.6799V25.6899ZM181.862 28.8099C181.862 27.9699 181.282 27.4099 180.482 27.4099C179.682 27.4099 179.142 27.9899 179.142 28.8099C179.142 29.6299 179.692 30.2299 180.482 30.2299C181.272 30.2299 181.862 29.6599 181.862 28.8099Z" fill="#231F20"/>
<path id="Vector_18" d="M183.822 29.01C183.892 29.74 184.452 30.23 185.232 30.23C185.682 30.23 186.032 30.09 186.302 29.79L186.632 30.08C186.292 30.45 185.812 30.68 185.212 30.68C184.102 30.68 183.312 29.9 183.312 28.81C183.312 27.72 184.052 26.95 185.152 26.95C186.142 26.95 186.832 27.66 186.832 28.71C186.832 28.8 186.832 28.88 186.802 29.01H183.822ZM183.822 28.58H186.342C186.272 27.83 185.802 27.41 185.152 27.41C184.422 27.41 183.912 27.88 183.822 28.58Z" fill="#231F20"/>
</g>
<g id="Group_4">
<g id="Group_5">
<path id="Vector_19" d="M132.122 15.1299V19.1799H130.132V15.4699C130.132 14.6299 129.782 14.1499 129.042 14.1499C128.232 14.1499 127.532 14.8699 127.532 15.8799V19.1899H125.552V15.4799C125.552 14.6399 125.202 14.1599 124.462 14.1599C123.632 14.1599 122.952 14.8799 122.952 15.8899V19.1999H120.972V12.5799H122.952V13.4099C123.442 12.8499 124.202 12.4399 125.092 12.4399C126.122 12.4399 126.872 12.9199 127.262 13.7699C127.722 13.0299 128.582 12.4399 129.672 12.4399C131.172 12.4399 132.112 13.4599 132.112 15.1599L132.122 15.1299Z" fill="#231F20"/>
<path id="Vector_20" d="M133.502 11.8699V10.3099H135.552V11.8699H133.502ZM133.542 19.1799V12.5599H135.522V19.1799H133.542Z" fill="#231F20"/>
<path id="Vector_21" d="M143.792 15.1699V19.1799H141.812V15.4999C141.812 14.6299 141.392 14.1499 140.552 14.1499C139.652 14.1499 138.992 14.8799 138.992 15.8999V19.1799H137.012V12.5599H138.992V13.3699C139.482 12.8099 140.212 12.4099 141.172 12.4099C142.762 12.4099 143.782 13.4299 143.782 15.1599L143.792 15.1699Z" fill="#231F20"/>
<path id="Vector_22" d="M144.682 18.5699L145.342 17.1399C146.152 17.5499 146.962 17.7399 147.802 17.7399C148.422 17.7399 148.832 17.6199 148.832 17.2099C148.832 16.8599 148.512 16.7199 147.492 16.5499C145.562 16.2399 144.892 15.6599 144.892 14.5399C144.892 13.1599 145.982 12.4099 147.662 12.4099C148.582 12.4099 149.822 12.6899 150.502 13.0899L149.832 14.5099C149.172 14.1899 148.352 13.9699 147.552 13.9699C147.022 13.9699 146.802 14.1399 146.802 14.4099C146.802 14.6799 147.032 14.8299 148.022 15.0099C150.022 15.3799 150.712 15.9999 150.712 17.1399C150.712 18.5299 149.482 19.3099 147.682 19.3099C146.522 19.3099 145.452 18.9599 144.682 18.5599V18.5699Z" fill="#231F20"/>
<path id="Vector_23" d="M157.812 15.3099V19.1799H155.832V18.4099C155.452 18.8799 154.722 19.3199 153.652 19.3199C152.262 19.3199 151.342 18.4599 151.342 17.2099C151.342 15.9599 152.142 15.0699 154.052 15.0699C154.602 15.0699 155.312 15.1099 155.822 15.1499C155.782 14.4399 155.282 14.0399 154.292 14.0399C153.702 14.0399 152.962 14.2699 152.482 14.6399L151.692 13.2699C152.492 12.6799 153.552 12.4099 154.502 12.4099C156.802 12.4099 157.812 13.5199 157.812 15.3099ZM155.822 16.4499V16.3099C155.442 16.2599 155.042 16.2399 154.542 16.2399C153.572 16.2399 153.232 16.5599 153.232 17.0399C153.232 17.5199 153.642 17.7699 154.322 17.7699C155.112 17.7699 155.742 17.2299 155.822 16.4499Z" fill="#231F20"/>
</g>
<g id="Group_6">
<path id="Vector_24" d="M160.682 18.12C160.782 18.22 160.832 18.35 160.832 18.52C160.832 18.7 160.782 18.84 160.672 18.95C160.562 19.06 160.422 19.11 160.252 19.11C160.082 19.11 159.952 19.06 159.852 18.96C159.762 18.86 159.712 18.72 159.712 18.54C159.712 18.36 159.762 18.23 159.872 18.12C159.982 18.01 160.122 17.96 160.302 17.96C160.462 17.96 160.602 18.01 160.692 18.11L160.682 18.12Z" fill="#ED1C24"/>
<path id="Vector_25" d="M167.632 13.9C167.342 13.99 166.972 14.07 166.502 14.16L166.472 14.21C166.652 14.5 166.742 14.84 166.742 15.25C166.742 15.85 166.542 16.32 166.142 16.68C165.742 17.03 165.202 17.21 164.522 17.21C164.262 17.21 164.012 17.18 163.762 17.11C163.622 17.22 163.532 17.3 163.482 17.37C163.432 17.44 163.402 17.51 163.402 17.59C163.402 17.7 163.452 17.79 163.562 17.86C163.662 17.93 163.802 17.99 163.972 18.03C164.142 18.07 164.342 18.1 164.562 18.14C164.782 18.18 165.002 18.21 165.232 18.24C165.462 18.27 165.682 18.32 165.902 18.39C166.122 18.46 166.312 18.53 166.482 18.62C166.652 18.71 166.792 18.84 166.892 19C167.002 19.16 167.052 19.35 167.052 19.57C167.052 19.83 166.982 20.07 166.842 20.3C166.702 20.53 166.522 20.73 166.282 20.9C166.042 21.07 165.762 21.2 165.442 21.29C165.122 21.38 164.772 21.44 164.402 21.44C164.072 21.44 163.772 21.4 163.512 21.32C163.252 21.24 163.032 21.13 162.852 20.99C162.682 20.85 162.552 20.68 162.462 20.48C162.372 20.28 162.332 20.07 162.332 19.84C162.442 19.62 162.582 19.42 162.762 19.26C162.942 19.09 163.152 18.93 163.412 18.78V18.72C163.122 18.63 162.892 18.51 162.732 18.35C162.572 18.19 162.492 17.99 162.492 17.73C162.672 17.44 162.922 17.19 163.242 16.98V16.93C162.982 16.77 162.782 16.55 162.652 16.29C162.512 16.02 162.452 15.71 162.452 15.35C162.452 14.74 162.652 14.26 163.052 13.91C163.452 13.56 163.982 13.39 164.652 13.39C165.082 13.39 165.452 13.46 165.752 13.62C166.302 13.52 166.902 13.38 167.532 13.2L167.632 13.27V13.93V13.9ZM166.162 19.51C166.122 19.44 166.082 19.38 166.032 19.33C165.982 19.28 165.912 19.23 165.822 19.19C165.732 19.15 165.642 19.11 165.562 19.09C165.482 19.07 165.372 19.04 165.242 19.01C165.112 18.98 164.992 18.96 164.902 18.95C164.812 18.94 164.682 18.92 164.532 18.89C164.372 18.87 164.252 18.85 164.172 18.83C163.862 19.02 163.622 19.2 163.462 19.37C163.302 19.54 163.222 19.72 163.222 19.91C163.222 20.15 163.342 20.35 163.572 20.51C163.802 20.67 164.132 20.74 164.552 20.74C165.032 20.74 165.422 20.64 165.752 20.45C166.072 20.26 166.232 20.02 166.232 19.74C166.232 19.65 166.212 19.58 166.182 19.5L166.162 19.51ZM165.282 16.39C165.472 16.28 165.622 16.13 165.722 15.94C165.822 15.75 165.872 15.51 165.872 15.25C165.872 14.99 165.822 14.77 165.732 14.58C165.642 14.4 165.502 14.26 165.312 14.16C165.122 14.06 164.902 14.01 164.632 14.01C164.222 14.01 163.902 14.12 163.672 14.34C163.442 14.56 163.322 14.88 163.322 15.29C163.322 15.68 163.432 15.99 163.652 16.21C163.872 16.43 164.182 16.54 164.582 16.54C164.852 16.54 165.092 16.49 165.282 16.38V16.39Z" fill="#ED1C24"/>
<path id="Vector_26" d="M172.512 14.07C172.932 14.57 173.142 15.26 173.142 16.17C173.142 17.12 172.922 17.85 172.472 18.37C172.022 18.89 171.392 19.15 170.582 19.15C170.072 19.15 169.632 19.04 169.272 18.82C168.912 18.6 168.632 18.28 168.442 17.85C168.252 17.42 168.162 16.91 168.162 16.31C168.162 15.36 168.382 14.63 168.832 14.11C169.282 13.59 169.912 13.33 170.732 13.33C171.492 13.33 172.082 13.58 172.512 14.07ZM169.492 14.54C169.222 14.9 169.092 15.41 169.092 16.09C169.092 16.88 169.222 17.47 169.492 17.86C169.762 18.25 170.142 18.45 170.652 18.45C171.162 18.45 171.562 18.28 171.832 17.93C172.102 17.58 172.232 17.07 172.232 16.39C172.232 15.61 172.102 15.02 171.832 14.61C171.562 14.21 171.172 14 170.672 14C170.172 14 169.762 14.18 169.492 14.53V14.54Z" fill="#ED1C24"/>
<path id="Vector_27" d="M176.052 18.08H176.112L177.552 14.18L177.752 13.41H178.622L176.562 19.05H175.512L173.762 13.44L174.672 13.38L174.832 14.13L176.052 18.08Z" fill="#ED1C24"/>
<path id="Vector_28" d="M179.772 18.12C179.872 18.22 179.922 18.35 179.922 18.52C179.922 18.7 179.872 18.84 179.762 18.95C179.652 19.06 179.512 19.11 179.342 19.11C179.172 19.11 179.042 19.06 178.942 18.96C178.852 18.86 178.802 18.72 178.802 18.54C178.802 18.36 178.852 18.23 178.962 18.12C179.072 18.01 179.212 17.96 179.392 17.96C179.552 17.96 179.692 18.01 179.782 18.11L179.772 18.12Z" fill="#ED1C24"/>
<path id="Vector_29" d="M184.862 13.7099C185.172 13.9699 185.322 14.3299 185.322 14.7899C185.322 14.9299 185.302 15.4399 185.252 16.3099C185.202 17.1799 185.172 17.6899 185.172 17.8299C185.172 18.0099 185.202 18.1299 185.262 18.1999C185.322 18.2699 185.422 18.3099 185.562 18.3099C185.682 18.3099 185.822 18.2899 185.972 18.2399L186.072 18.3199L185.972 18.8799C185.722 19.0199 185.492 19.0999 185.272 19.1199C185.022 19.0999 184.812 19.0099 184.662 18.8499C184.512 18.6899 184.432 18.4799 184.412 18.2099H184.332C183.892 18.6599 183.452 18.9699 183.012 19.1299C182.462 19.1299 182.032 18.9899 181.732 18.7199C181.432 18.4499 181.272 18.0699 181.272 17.5899C181.272 17.2299 181.372 16.9399 181.562 16.7299C181.752 16.5199 182.042 16.3699 182.412 16.2799L184.402 15.8099V15.0099C184.412 14.6899 184.332 14.4399 184.162 14.2699C183.992 14.0999 183.752 14.0099 183.452 14.0099C183.172 14.0099 182.902 14.0799 182.622 14.2099C182.342 14.3399 182.042 14.5499 181.722 14.8299L181.622 14.7799L181.502 14.0799C182.182 13.5699 182.882 13.3199 183.602 13.3199C184.132 13.3199 184.552 13.4499 184.862 13.7099ZM182.622 16.8799C182.462 16.9199 182.342 16.9899 182.272 17.0799C182.192 17.1699 182.162 17.2999 182.162 17.4699C182.162 17.7399 182.242 17.9499 182.392 18.0999C182.542 18.2499 182.752 18.3299 183.002 18.3299C183.452 18.3299 183.902 18.0399 184.372 17.4599L184.412 16.4499L182.622 16.8799Z" fill="#ED1C24"/>
<path id="Vector_30" d="M191.312 14.07C191.732 14.57 191.942 15.26 191.942 16.17C191.942 17.12 191.722 17.85 191.272 18.37C190.822 18.89 190.192 19.15 189.382 19.15C188.872 19.15 188.432 19.04 188.072 18.82C187.712 18.6 187.432 18.28 187.242 17.85C187.052 17.42 186.962 16.91 186.962 16.31C186.962 15.36 187.182 14.63 187.632 14.11C188.082 13.59 188.712 13.33 189.532 13.33C190.292 13.33 190.882 13.58 191.312 14.07ZM188.292 14.54C188.022 14.9 187.892 15.41 187.892 16.09C187.892 16.88 188.022 17.47 188.292 17.86C188.562 18.25 188.942 18.45 189.452 18.45C189.962 18.45 190.362 18.28 190.632 17.93C190.902 17.58 191.032 17.07 191.032 16.39C191.032 15.61 190.902 15.02 190.632 14.61C190.362 14.21 189.972 14 189.472 14C188.972 14 188.562 14.18 188.292 14.53V14.54Z" fill="#ED1C24"/>
</g>
</g>
</g>
<g id="Group_7">
<path id="Vector_31" d="M32.8924 33.0299L23.7024 8.06994C23.3924 7.06994 22.3124 6.32994 21.1824 6.32994H16.1824L11.2424 6.30994C10.1024 6.30994 9.03243 7.05994 8.72243 8.05994C7.83243 10.5099 0.652426 30.3999 0.462426 30.9899C0.162426 31.9499 0.282426 32.9499 0.802426 33.6599C1.13243 34.1099 1.75243 34.6199 2.87243 34.6899L3.10243 34.6999H13.0524C14.0624 34.6999 15.2324 33.7999 18.0424 31.5899C18.3524 31.3499 18.6724 31.0899 19.0024 30.8399L20.0624 33.8699L20.3524 34.6999H33.5124L32.9024 33.0299H32.8924Z" fill="white"/>
<g id="Group_8">
<path id="Vector_32" d="M22.4424 8.45994C22.3024 7.95994 21.6924 7.55994 21.0924 7.55994H11.1024C11.7024 7.55994 12.3124 7.99994 12.4524 8.49994L21.1424 33.4599H31.6424L22.4424 8.45994Z" fill="#231F20"/>
<path id="Vector_33" d="M17.1524 23.7399C15.2324 23.7399 14.1224 24.4999 12.4624 25.5999C9.21243 27.7599 6.06243 31.2499 3.86243 32.9899C3.42243 33.3399 3.27243 33.4299 2.80243 33.4699H12.9824C14.2724 33.4699 19.8024 27.9799 24.8524 25.2299C25.9824 24.6199 27.3224 23.9799 28.1624 23.7499H17.1524V23.7399Z" fill="url(#paint0_linear_26_1076)"/>
<path id="Vector_34" d="M1.57243 31.3699C1.75243 30.7899 9.81243 8.43992 9.81243 8.43992C9.95243 7.93992 10.5524 7.53992 11.1524 7.53992L21.1424 7.57992C20.5424 7.57992 19.9424 7.97992 19.8024 8.47992L11.8024 31.8199C11.8024 31.8199 11.2524 33.4599 12.8524 33.4599H3.03243C1.39243 33.4599 1.33243 32.1199 1.57243 31.3599V31.3699Z" fill="url(#paint1_linear_26_1076)"/>
</g>
<g id="Group_9">
<g id="Group_10">
<path id="Vector_35" d="M43.1324 16.9799C42.8724 17.3199 42.1324 17.7199 41.2524 17.7199C39.9924 17.7199 39.1824 16.9799 39.1824 15.7499C39.1824 14.5199 39.9824 13.7899 41.2924 13.7899C41.8724 13.7899 42.5024 13.8999 42.8524 14.0799V15.0799H42.8024C42.5924 14.2799 42.0824 14.0399 41.4824 14.0399C40.6024 14.0399 40.1424 14.6799 40.1424 15.7899C40.1424 16.8399 40.5624 17.4799 41.3424 17.4799C41.7424 17.4799 42.1224 17.2899 42.2424 16.9099V16.1499C42.2424 15.9899 42.1424 15.8999 41.9724 15.8999H41.8824V15.8399H43.5024V15.8999H43.4224C43.2424 15.8999 43.1524 15.9899 43.1524 16.1499V16.9899L43.1324 16.9799Z" fill="#231F20"/>
<path id="Vector_36" d="M50.0724 15.7499C50.0724 16.9599 49.1824 17.7199 47.8424 17.7199C46.5024 17.7199 45.6224 16.9699 45.6224 15.7499C45.6224 14.5299 46.5124 13.7799 47.8424 13.7799C49.1724 13.7799 50.0724 14.5299 50.0724 15.7499ZM49.1024 15.7499C49.1024 14.6899 48.6124 14.0299 47.8424 14.0299C47.0724 14.0299 46.5824 14.6899 46.5824 15.7499C46.5824 16.8099 47.0824 17.4699 47.8424 17.4699C48.6024 17.4699 49.1024 16.8099 49.1024 15.7499Z" fill="#231F20"/>
<path id="Vector_37" d="M56.1524 13.8599V13.9199H56.1024C55.9424 13.9199 55.7424 14.0099 55.6224 14.2399L54.3424 16.9399C54.3024 17.0299 54.0624 17.5299 54.0524 17.7099H53.9924L52.3224 14.2499C52.2024 14.0099 52.0124 13.9199 51.8424 13.9199H51.8024V13.8599H53.6424V13.9199H53.5924C53.4524 13.9199 53.2924 14.0499 53.3724 14.2799L54.2524 16.3299L55.1524 14.2799C55.2424 14.0499 55.0824 13.9199 54.9424 13.9199H54.8924V13.8599H56.1424H56.1524Z" fill="#231F20"/>
<path id="Vector_38" d="M61.0024 17.6299H58.0424V17.5699H58.1224C58.3024 17.5699 58.4624 17.4299 58.4624 17.2399V14.2499C58.4624 14.0599 58.3124 13.9199 58.1224 13.9199H58.0424V13.8599H60.2524C60.4924 13.8599 60.8024 13.7999 60.9024 13.7599V14.7599H60.8424V14.6999C60.8424 14.3399 60.6324 14.1099 60.2724 14.1099H59.3624V15.6299H60.0724C60.3724 15.6299 60.5524 15.4099 60.5524 15.1299V15.0899H60.6224V16.4199H60.5524V16.3799C60.5524 16.0999 60.3724 15.8899 60.0824 15.8799H59.3624V17.3699H60.1224C60.6524 17.3699 61.0224 17.0199 61.1824 16.4699H61.2424L61.0024 17.6299Z" fill="#231F20"/>
<path id="Vector_39" d="M65.3524 13.8599C66.0524 13.8599 66.7224 14.1099 66.7224 14.8899C66.7224 15.3299 66.4724 15.8199 65.8524 15.9099C66.1024 15.9899 66.3424 16.2499 66.4624 16.4399C66.5124 16.5399 66.7024 16.8499 66.9224 17.1399C67.1724 17.4699 67.3124 17.5699 67.5724 17.5699V17.6299H67.0424C66.3624 17.6299 66.0424 17.4999 65.7424 17.0299C65.6024 16.8099 65.3824 16.3799 65.3224 16.1699C65.2124 15.9099 65.0624 15.7899 64.9424 15.7799V15.7299H65.1024C65.3624 15.7299 65.6524 15.6299 65.7524 15.0999C65.7624 15.0499 65.7824 14.9599 65.7724 14.8399C65.7424 14.2199 65.3224 14.1299 65.1024 14.1199C64.9424 14.1199 64.8124 14.1199 64.7424 14.1199V17.2399C64.7424 17.4499 64.9124 17.5699 65.0824 17.5699H65.1524V17.6299H63.4224V17.5699H63.5024C63.6824 17.5699 63.8324 17.4299 63.8324 17.2399V14.2499C63.8324 14.0599 63.6824 13.9199 63.5024 13.9199H63.4224V13.8599H65.3524Z" fill="#231F20"/>
<path id="Vector_40" d="M73.8824 13.8599V13.9199H73.7724C73.5824 13.9199 73.4324 14.0499 73.4224 14.2299V16.9799C73.4224 17.4199 73.4924 17.7099 73.4924 17.7099H73.4324L70.5424 15.1699V17.2499C70.5424 17.4299 70.7024 17.5699 70.8924 17.5699H71.0024V17.6299H69.2424V17.5699H69.3424C69.5324 17.5699 69.6824 17.4299 69.6924 17.2499V14.4899C69.6924 14.0599 69.6224 13.7799 69.6224 13.7799H69.6824L72.5624 16.3199V14.2499C72.5624 14.0699 72.4124 13.9299 72.2224 13.9299H72.1124V13.8699H73.8724L73.8824 13.8599Z" fill="#231F20"/>
<path id="Vector_41" d="M80.4524 15.7499C80.4524 16.9599 79.5624 17.7199 78.2224 17.7199C76.8824 17.7199 76.0024 16.9699 76.0024 15.7499C76.0024 14.5299 76.8924 13.7799 78.2224 13.7799C79.5524 13.7799 80.4524 14.5299 80.4524 15.7499ZM79.4824 15.7499C79.4824 14.6899 78.9924 14.0299 78.2224 14.0299C77.4524 14.0299 76.9624 14.6899 76.9624 15.7499C76.9624 16.8099 77.4624 17.4699 78.2224 17.4699C78.9824 17.4699 79.4824 16.8099 79.4824 15.7499Z" fill="#231F20"/>
<path id="Vector_42" d="M88.2124 13.8599C89.5624 13.8599 90.3724 14.5599 90.3724 15.7499C90.3724 16.9399 89.5624 17.6299 88.2124 17.6299H86.0924V17.5699H86.1724C86.3624 17.5699 86.5224 17.4199 86.5224 17.2299V14.2499C86.5224 14.0599 86.3624 13.9199 86.1624 13.9199H86.0824V13.8599H88.2124ZM87.4324 17.3799H88.1424C88.9324 17.3799 89.4124 16.7699 89.4124 15.7499C89.4124 14.7299 88.9324 14.1099 88.1424 14.1099H87.4324V17.3799Z" fill="#231F20"/>
<path id="Vector_43" d="M95.5024 17.6299H92.5424V17.5699H92.6224C92.8024 17.5699 92.9624 17.4299 92.9624 17.2399V14.2499C92.9624 14.0599 92.8124 13.9199 92.6224 13.9199H92.5424V13.8599H94.7524C94.9924 13.8599 95.3024 13.7999 95.4024 13.7599V14.7599H95.3424V14.6999C95.3424 14.3399 95.1324 14.1099 94.7724 14.1099H93.8624V15.6299H94.5724C94.8724 15.6299 95.0524 15.4099 95.0524 15.1299V15.0899H95.1224V16.4199H95.0524V16.3799C95.0524 16.0999 94.8724 15.8899 94.5824 15.8799H93.8624V17.3699H94.6224C95.1524 17.3699 95.5224 17.0199 95.6824 16.4699H95.7424L95.5024 17.6299Z" fill="#231F20"/>
</g>
<path id="Vector_44" d="M57.1124 19.7199V19.8699H56.8624C56.4224 19.8699 56.0524 20.1799 56.0524 20.5999V27.1899C56.0524 28.2799 56.2224 28.7999 56.2224 28.7999H56.0924L49.8524 23.5599V27.7299C49.8724 28.1599 50.2224 28.4799 50.6624 28.4799H50.9124V28.6299H45.8824V28.4799H46.1224C46.5724 28.4799 46.9324 28.1699 46.9324 27.7299V21.0899C46.9324 20.0899 46.7624 19.5199 46.7624 19.5199H46.8924L53.1224 24.7699V20.6099C53.1224 20.1799 52.7724 19.8599 52.3224 19.8599H52.0724V19.7099H57.1224L57.1124 19.7199Z" fill="#231F20"/>
<path id="Vector_45" d="M67.3624 27.1799C66.7824 27.9499 64.8624 28.8099 62.7624 28.8099C59.7724 28.8099 57.8424 27.0899 57.8424 24.1499C57.8424 21.2099 59.6924 19.5399 62.9124 19.5399C64.2824 19.5399 66.0124 19.7899 66.7324 20.0699L66.5224 22.5999H66.4224C65.8724 20.6199 64.6624 20.2099 63.6624 20.2099C61.7024 20.2099 60.8824 21.6699 60.8824 24.2899C60.8824 26.6699 61.5424 28.1299 63.0924 28.1299C63.8324 28.1299 64.6224 27.6399 64.4824 26.7299V25.0599C64.4824 24.6899 64.2424 24.4799 63.8524 24.4799H63.6424V24.3599H68.1724V24.4799H67.9924C67.5824 24.4799 67.3624 24.6899 67.3624 25.0599V27.1799Z" fill="#231F20"/>
<path id="Vector_46" d="M79.9524 24.1799C79.9524 27.1099 77.9324 28.8099 74.5324 28.8099C71.1324 28.8099 69.1224 27.1199 69.1224 24.1799C69.1224 21.2399 71.1424 19.5399 74.5324 19.5399C77.9224 19.5399 79.9524 21.2299 79.9524 24.1799ZM76.9024 24.1799C76.9024 21.6599 76.1024 20.2099 74.5324 20.2099C72.9624 20.2099 72.1624 21.6599 72.1624 24.1799C72.1624 26.6999 72.9824 28.1299 74.5324 28.1299C76.0824 28.1299 76.9024 26.6799 76.9024 24.1799Z" fill="#231F20"/>
<path id="Vector_47" d="M88.4624 28.6298H80.8624V28.4798H81.0224C81.4324 28.4798 81.7924 28.1498 81.7924 27.6998V20.6298C81.7924 20.1798 81.4324 19.8598 81.0224 19.8598H80.8624V19.7098H85.6524V19.8598H85.4924C85.0624 19.8598 84.7224 20.1898 84.7124 20.6398V27.9398H86.1424C87.2824 27.9398 88.3724 27.0598 88.7424 25.5098H88.8924L88.4624 28.6298Z" fill="#231F20"/>
<path id="Vector_48" d="M98.4024 27.7299C98.6824 28.2799 99.1524 28.4899 99.5624 28.4899H99.6724V28.6399H94.4524V28.4899H94.5724C94.9124 28.4899 95.2924 28.2299 95.0724 27.7299L94.6424 26.7499H91.8824L91.4424 27.7699C91.2624 28.2399 91.6324 28.4899 91.9624 28.4899H92.0824V28.6399H89.0124V28.4899H89.1324C89.5024 28.4899 89.9924 28.2899 90.2624 27.7699L93.3224 21.1599C93.4924 20.7799 94.0424 19.6199 94.0924 19.1799H94.2124L98.4124 27.7299H98.4024ZM94.3524 26.0699L93.2624 23.5799L92.1724 26.0699H94.3424H94.3524Z" fill="#231F20"/>
<path id="Vector_49" d="M44.6524 27.7299C44.9324 28.2799 45.4024 28.4899 45.8124 28.4899H45.9224V28.6399H40.7024V28.4899H40.8224C41.1624 28.4899 41.5424 28.2299 41.3224 27.7299L40.8924 26.7499H38.1324L37.6924 27.7699C37.5124 28.2399 37.8824 28.4899 38.2124 28.4899H38.3324V28.6399H35.2624V28.4899H35.3824C35.7524 28.4899 36.2424 28.2899 36.5124 27.7699L39.5724 21.1599C39.7424 20.7799 40.2924 19.6199 40.3424 19.1799H40.4624L44.6624 27.7299H44.6524ZM40.6024 26.0699L39.5124 23.5799L38.4224 26.0699H40.5924H40.6024Z" fill="#231F20"/>
</g>
</g>
</g>
<defs>
<linearGradient id="paint0_linear_26_1076" x1="15.0924" y1="33.4599" x2="15.0924" y2="23.7399" gradientUnits="userSpaceOnUse">
<stop stop-color="#F7941D"/>
<stop offset="0.19" stop-color="#FFC20E"/>
<stop offset="0.51" stop-color="#F7941D"/>
<stop offset="0.59" stop-color="#F7941D"/>
<stop offset="0.92" stop-color="#FFDE17"/>
<stop offset="1" stop-color="#FFC20E"/>
</linearGradient>
<linearGradient id="paint1_linear_26_1076" x1="346.435" y1="-1180.23" x2="339.349" y2="-1154.41" gradientUnits="userSpaceOnUse">
<stop stop-color="#BE1E2D"/>
<stop offset="0.01" stop-color="#CC2F32"/>
<stop offset="0.04" stop-color="#F15B41"/>
<stop offset="0.08" stop-color="#BE1E2D"/>
<stop offset="0.42" stop-color="#CF1D29"/>
<stop offset="0.88" stop-color="#ED1C24"/>
<stop offset="0.95" stop-color="#BE1E2D"/>
</linearGradient>
</defs>
</svg>
