<?xml version="1.0" encoding="UTF-8"?>
<svg id="Layer_2" data-name="Layer 2" xmlns="http://www.w3.org/2000/svg" viewBox="0 0 229.61 229.61">
  <defs>
    <style>
      .cls-1, .cls-2 {
        fill: #85287e;
      }

      .cls-3 {
        letter-spacing: 0em;
      }

      .cls-2 {
        font-family: MyriadPro-Semibold, 'Myriad Pro';
        font-size: 21.28px;
        font-weight: 600;
      }

      .cls-4 {
        letter-spacing: 0em;
      }
    </style>
  </defs>
  <path class="cls-1" d="M39.45,132.08c-.08,.62-.38,1.2-.83,1.63l-22.99,22.05-9.33,34.58c-.09,.35-.25,.67-.47,.96l-4.42,5.82,22.1-3.16,24.91-6.5c.6-.15,1.23-.11,1.79,.13l15.26,6.54c.88,.38,1.5,1.18,1.65,2.12l1.92,12.49,19.64,6.55,9.31-4.74c.24-.12,.49-.19,.75-.24,.08-.01,.15-.02,.23-.03,.09,0,.18-.03,.28-.03,.06,0,.11,.03,.17,.03,.23,.01,.45,.06,.67,.13,.1,.03,.19,.05,.29,.09,.3,.13,.59,.31,.83,.55l5.71,5.7,48.29-1.03,10.18-22.39c.39-.86,1.2-1.47,2.15-1.6l23.28-3.17,15.78-11.57,9.33-7.33-16.22-16.85c-.44-.45-.71-1.04-.76-1.67l-1.05-11.57-7.47-18.14c-.14-.34-.21-.69-.21-1.05v-16.35c0-1.53,1.24-2.77,2.77-2.77h16.85v-10.31c0-.59,.19-1.16,.53-1.63l8.72-11.99c.08-.12,.18-.23,.28-.33l8.84-8.84-2.61-20.02s-.04,0-.05-.01c-.1-.01-.2-.03-.3-.05l-4.26-1.07c-.68-.17-1.28-.59-1.66-1.19l-4.22-6.56-6.66-1.78-14.61-.52c-1.11-.04-2.08-.73-2.48-1.76l-2.67-6.87-3.2,1.45c-1,.46-2.18,.27-3-.46l-9.04-8.13-6.58,4.52-11.06,10c-.75,.68-1.81,.89-2.77,.56-.96-.33-1.65-1.16-1.82-2.16l-.8-4.78-9.11-3.19c-1.11-.39-1.85-1.44-1.85-2.61v-7.33l-13.56-2.71-13.55-.66c-.01,.07-.03,.15-.04,.22l-10.65,45.16c-.08,.35-.24,.69-.45,.98l-28.02,38.79c-.28,.39-.65,.69-1.09,.89l-30.01,13.84-2.6,19.34Z"/>
  <text class="cls-2" transform="translate(70.33 120.83)"><tspan x="0" y="0">BENGUE</tspan><tspan class="cls-3" x="76.89" y="0">L</tspan><tspan class="cls-4" x="87.47" y="0">A</tspan></text>
</svg>