<?xml version="1.0" encoding="UTF-8"?>
<svg id="Layer_2" data-name="Layer 2" xmlns="http://www.w3.org/2000/svg" viewBox="0 0 229.61 229.61">
  <defs>
    <style>
      .cls-1, .cls-2 {
        fill: #85287e;
      }

      .cls-2 {
        font-family: MyriadPro-Semibold, 'Myriad Pro';
        font-size: 21.28px;
        font-weight: 600;
      }
    </style>
  </defs>
  <path class="cls-1" d="M216.76,54.28l-11.18,5.59c-.95,.47-2.04,.59-3.06,.31l-36.6-9.76c-1-.27-1.87-.88-2.46-1.73l-16.57-24.1-37.5,.73c-.3,.22-.61,.41-.96,.55l-41.49,16.27c-.99,.39-2.09,.4-3.09,.03l-20.07-7.43-22.65,12.83c-.27,.15-.56,.28-.85,.37L1.42,53.78l10.21,30.64,18.57,37.14c.2,.4,.33,.82,.4,1.26l5.27,33.13,20.5,6.36,14.92,.79c1.77,.09,3.3,1.25,3.87,2.93l8.73,25.47,54.52,13.53c.47-1.24,3.27-3.91,4.53-4.32l19.52-6.25,13.51-11.38,1.19-8.9-12.89-18.97c-.58-.85-.84-1.89-.73-2.92l1.63-14.64c.13-1.18,.74-2.25,1.68-2.97l17.08-13.01c.96-.73,2.18-1.03,3.37-.82l21.69,3.74,8.29-6.51,.75-22.38c.02-.59,.16-1.18,.42-1.71l7.03-14.85,2.72-19.71-11.43-5.14Z"/>
  <text class="cls-2" transform="translate(85.47 120.88)"><tspan x="0" y="0">BENGO</tspan></text>
</svg>