<?xml version="1.0" encoding="UTF-8"?>
<svg id="Layer_2" data-name="Layer 2" xmlns="http://www.w3.org/2000/svg" viewBox="0 0 229.61 229.61">
  <defs>
    <style>
      .cls-1, .cls-2 {
        fill: #85287e;
      }

      .cls-2 {
        font-family: MyriadPro-Semibold, 'Myriad Pro';
        font-size: 21.28px;
        font-weight: 600;
      }
    </style>
  </defs>
  <path class="cls-1" d="M198,67.4l5.24-1.96,5.51-9.02,1.98-3.24s.02-.1,.03-.14c0-.04,.02-.08,.03-.12,.04-.15,.1-.3,.18-.45l4.89-8.44-5.71-2.86c-.06-.03-.12-.06-.18-.1l-9.08-5.87-3.66-2.2s0,0,0,.01c.02,.06,.03,.13,.05,.19,.01,.05,.03,.1,.04,.15,.01,.07,.01,.14,.01,.22,0,.05,0,.09,0,.14,0,.08-.02,.15-.03,.23,0,.04,0,.09-.02,.13-.02,.09-.05,.17-.09,.25-.01,.03-.02,.06-.03,.1l-2.85,6.17,2.32,5.1c.37,.81,.11,1.76-.61,2.28l-3.74,2.67c-.32,.22-.69,.34-1.08,.34h-9.14l-13.47,7.25c-.23,.12-.48,.2-.74,.22l-6.81,.52-11.62,2.64c-.76,.18-1.55-.15-1.97-.81l-3-4.72-4.55,1.24c-.74,.2-1.53-.07-1.98-.69l-2.52-3.44v1.81c0,.46-.17,.91-.48,1.25l-10.68,11.75c-.29,.32-.67,.52-1.1,.59l-10.68,1.6c-.09,.01-.18,.02-.28,.02-.01,0-.03,0-.04,0-.18,0-.35-.03-.52-.09-.04-.01-.07-.03-.11-.04-.17-.07-.34-.15-.49-.27-.4-.32-.65-.8-.69-1.32l-.53-7.48c-.01-.19,0-.37,.04-.56l2.03-8.63-2.37-9.02-4.22-2.81c-.41-.27-.69-.7-.79-1.18-.1-.48,0-.98,.28-1.39l2.61-3.91-6.18-12.35-9.78-4.66-3.97,2.21c-.63,.35-1.41,.3-2-.13l-7.52-5.51h-5.8c-.33,0-.65-.09-.93-.25l-10.15-5.87c-.37-.22-.66-.56-.81-.96l-1.68-4.55-3.68,6.23c-.14,.23-.32,.43-.54,.58l-11.38,7.93-4.43,9.2c-.44,.91-1.52,1.3-2.44,.88l-6.87-3.12-3.05,2.22c-.64,.47-1.51,.47-2.15,.02l-1.49-1.04-2.81,9c-.05,.15-.11,.3-.2,.43l-5.78,9.18v7.36l1.04,.18,12.82-2.14c.32-.05,.66-.02,.96,.1l15.32,5.84c.65,.25,1.11,.84,1.18,1.53l.66,5.94,16.35,17.06c.64,.67,.69,1.69,.12,2.42l-10.22,13.13-4.72,6.74v10.36c0,.41-.14,.81-.39,1.14l-4.36,5.61,3.67,6.73,6.38,6.38c.29,.29,.48,.68,.53,1.09l4.38,36.48c.05,.39-.03,.8-.23,1.14l-.68,1.18s.01,.04,.02,.06c.04,.09,.07,.18,.1,.27,.01,.04,.03,.08,.03,.12,.03,.13,.04,.27,.04,.41l-.71,38.27c.06,0,.12-.02,.18-.02l10.21-.73c.09,0,.18,0,.28,0l9.15,.7,4.79-1.37c.94-.27,1.92,.24,2.25,1.15l2.83,7.78,5.3,7.29,11.04,3.07,4.42-8.85c.04-.08,.09-.16,.14-.23l5.11-7.3c.27-.38,.66-.65,1.12-.75l6.18-1.37,7.7-5.77v-12.21c0-.58,.27-1.12,.73-1.47l7.49-5.73s-.04-.1-.06-.15c-.02-.04-.03-.08-.05-.12-.05-.15-.08-.3-.09-.46l-.73-14.59c-.05-.93,.6-1.74,1.51-1.92l9.33-1.75-4.1-8.78c-.24-.51-.23-1.11,.02-1.61l5.55-11.1-1.33-6.67c-.16-.79,.21-1.59,.91-1.98l11.32-6.37,9.25-12.8c.09-.12,.19-.24,.31-.33l18.1-15.2,8.03-10.04-2.63-8.55c-.23-.76,.04-1.58,.68-2.04l7.04-5.12-1.19-5.38c-.2-.9,.29-1.81,1.16-2.14Z"/>
  <text class="cls-2" transform="translate(101.74 122.24)"><tspan x="0" y="0">BIÉ</tspan></text>
</svg>