<?xml version="1.0" encoding="UTF-8"?>
<svg id="Layer_2" data-name="Layer 2" xmlns="http://www.w3.org/2000/svg" viewBox="0 0 229.61 229.61">
  <defs>
    <style>
      .cls-1 {
        letter-spacing: 0em;
      }

      .cls-2 {
        letter-spacing: -.01em;
      }

      .cls-3, .cls-4 {
        fill: #85287e;
      }

      .cls-4 {
        font-family: MyriadPro-Semibold, 'Myriad Pro';
        font-size: 15.76px;
        font-weight: 600;
      }
    </style>
  </defs>
  <path class="cls-3" d="M53.13,119.93l13.95,91.61,18.67,16.65,22.73-9.22,7.83-80.92c.02-.23,.06-.45,.11-.67l11.17-47.22c.25-1.04,.82-1.98,1.64-2.67l59.07-50.02-11.83-26.2L152.24,1.42l-23.96,14.67-19.68,42.69c-.39,.85-1.02,1.57-1.8,2.09L41.3,104.01l10.8,13.54c.55,.69,.9,1.5,1.04,2.37Z"/>
  <text class="cls-4" transform="translate(54.24 111.18)"><tspan class="cls-1" x="0" y="0">C</tspan><tspan x="9.37" y="0">ABIN</tspan><tspan class="cls-2" x="43.28" y="0">D</tspan><tspan x="53.81" y="0">A</tspan></text>
</svg>