<?xml version="1.0" encoding="UTF-8"?>
<svg id="Layer_2" data-name="Layer 2" xmlns="http://www.w3.org/2000/svg" viewBox="0 0 229.61 229.61">
  <defs>
    <style>
      .cls-1 {
        letter-spacing: 0em;
      }

      .cls-2, .cls-3 {
        fill: #85287e;
      }

      .cls-3 {
        font-family: MyriadPro-Semibold, 'Myriad Pro';
        font-size: 21.28px;
        font-weight: 600;
      }

      .cls-4 {
        letter-spacing: 0em;
      }

      .cls-5 {
        letter-spacing: -.03em;
      }

      .cls-6 {
        letter-spacing: 0em;
      }

      .cls-7 {
        letter-spacing: 0em;
      }
    </style>
  </defs>
  <path class="cls-2" d="M198.38,59.96c.27-1.28,1.17-2.33,2.4-2.79l9.62-3.61,4.64-8.24-4.93-14.78c-.03-.09-.06-.19-.08-.28l-5.61-22.43-29.38,4.78c-1.26,.2-2.52-.23-3.39-1.16l-9.41-10.04-12.6,1.51v6.63c0,.52-.1,1.03-.31,1.5l-2.15,5.01c-.41,.96-1.19,1.7-2.17,2.07l-3.25,1.22v9.52c0,1.58-.97,2.99-2.44,3.56l-9.3,3.58-7.66,3.49c-.5,.22-1.04,.34-1.58,.34h-13.13l-10.3,13.52c-.19,.25-.41,.47-.65,.66-.11,.09-.24,.15-.36,.23-.14,.09-.27,.18-.41,.25-.14,.07-.29,.11-.44,.16-.15,.05-.29,.1-.44,.13-.14,.03-.29,.04-.43,.05-.1,0-.2,.03-.3,.03-.14,0-.28,0-.42-.02l-11.78-1.31-9.76,7.67c-.85,.67-1.94,.94-3,.76l-19.1-3.29-12.4,9.45-1.09,9.85,11.37,16.72c.53,.77,.75,1.72,.63,2.65l-1.43,10.73c-.13,.94-.6,1.8-1.33,2.41l-13.59,11.44c-.38,.32-.82,.56-1.29,.72l-16.12,5.16-.41,1.1,5.26,3.35c.74,.47,1.29,1.18,1.57,2.01l2.86,8.58c.56,1.67-.1,3.51-1.6,4.44l-5.52,3.45,6.9,.99c1.14,.16,2.14,.83,2.73,1.81,.59,.99,.71,2.19,.32,3.27l-2.11,5.81,2.18,2.61c.57,.69,.88,1.55,.88,2.44v10.01c0,1.2-.57,2.33-1.53,3.05l-7.42,5.56-2.38,11.91,3.2,10.13,10.95,.57c1.49,.08,2.79,1.01,3.34,2.39l2.98,7.44,10.21-3.23s.01,0,.02,0c.32-.1,.65-.14,.99-.16,.05,0,.09-.02,.14-.02,0,0,0,0,0,0,.05,0,.11,.02,.16,.02,.16,0,.31,.02,.47,.05,.1,.02,.21,.03,.31,.06,.04,0,.08,.01,.11,.02,.02,0,.04,.01,.06,.02,.1,.03,.2,.08,.3,.12,.09,.04,.18,.06,.27,.11,.1,.05,.2,.11,.3,.17,.07,.04,.14,.09,.2,.13,.06,.04,.12,.07,.17,.11,.21,.17,.41,.35,.59,.57l9.5,11.5,25.38-7.25c.13-.04,.26-.07,.39-.09l26.13-4.57,5.29-5.29c1.21-1.21,3.06-1.46,4.55-.64l9.43,5.24,6.04-7.76-4.99-9.43c-.72-1.36-.55-3.02,.43-4.21l6.94-8.42-10.28-7.19c-1.27-.89-1.88-2.47-1.53-3.98,.35-1.51,1.58-2.67,3.12-2.91l39.8-6.32v-19.96c0-1.03,.42-2.02,1.16-2.74,.74-.72,1.77-1.1,2.78-1.07l18.04,.6,1.82-3.63-1.24-11.17c-.06-.56,0-1.13,.19-1.66l6.66-19.32,1.24-18.52-6.61-8.41c-.7-.89-.96-2.03-.74-3.13l3.41-16.39Z"/>
  <text class="cls-3" transform="translate(81.03 110.07)"><tspan x="0" y="0">C</tspan><tspan class="cls-5" x="12.51" y="0">U</tspan><tspan x="26" y="0">AN</tspan><tspan class="cls-6" x="53.92" y="0">Z</tspan><tspan class="cls-1" x="66.06" y="0">A</tspan><tspan x="0" y="25.53">NO</tspan><tspan class="cls-7" x="29.36" y="25.53">R</tspan><tspan class="cls-4" x="41.57" y="25.53">TE</tspan></text>
</svg>