<?xml version="1.0" encoding="UTF-8"?>
<svg id="Layer_2" data-name="Layer 2" xmlns="http://www.w3.org/2000/svg" viewBox="0 0 229.61 229.61">
  <defs>
    <style>
      .cls-1 {
        letter-spacing: 0em;
      }

      .cls-2 {
        letter-spacing: 0em;
      }

      .cls-3, .cls-4 {
        fill: #85287e;
      }

      .cls-4 {
        font-family: MyriadPro-Semibold, 'Myriad Pro';
        font-size: 21.28px;
        font-weight: 600;
      }

      .cls-5 {
        letter-spacing: -.03em;
      }
    </style>
  </defs>
  <path class="cls-3" d="M224.63,176.56l-2.26-3.61-5.23-3.02c-.09-.05-.17-.11-.24-.18l-11.93-12.33-7.33-4.9c-.12-.08-.22-.18-.3-.3l-5.9-8.8c-.12-.18-.18-.39-.18-.6v-16.64l-20.15-23.44-22.14-18.8h-18.29c-.22,0-.43-.07-.61-.19l-20.38-14.01c-.12-.08-.22-.18-.29-.3l-6.1-9.36-9.75-1.44v5.12c0,.37-.19,.71-.5,.91-.31,.2-.7,.22-1.03,.07l-5.13-2.37-5.96,1.99c-.53,.18-1.11-.08-1.33-.59l-6.66-15.41-6.88-4.45-6.3-2.94-11.21-4.86-4.66,3.56v7.11c0,.34-.16,.66-.43,.86l-5.1,3.82c-.12,.09-.26,.16-.41,.19l-3.41,.76-2.69,3.84-2.94,5.87c-.05,.11-.12,.2-.2,.28-.03,.03-.06,.05-.09,.07-.06,.05-.12,.09-.18,.12-.04,.02-.08,.04-.12,.05-.07,.02-.13,.04-.2,.05-.04,0-.08,.02-.12,.02-.02,0-.03,0-.05,0-.1,0-.19-.01-.29-.04l-7.64-2.12c-.23-.07-.44-.21-.58-.4l-3.4-4.67c-.06-.08-.11-.17-.14-.27l-1.35-3.73-2.01,.57c-.12,.04-.25,.05-.38,.04l-5.44-.42-4.92,.35-.37,5.85v6.2s1.26,6.7,1.26,6.7c.01,.07,.02,.13,.02,.2v2.9l5.14,4.35c.17,.14,.29,.33,.35,.55l2.12,8.07,1.35,4.73,.28,.97,6.64,7.89,6.41,8.54s.04,.05,.05,.08l5.52,8.92c.04,.06,.06,.12,.09,.18l5.09,13.16c.09,.24,.1,.51,.01,.75l-6.69,18.8,3.32,13.7c.02,.08,.03,.17,.03,.25v2.92l33.69-.26c.28,0,.51,.09,.71,.25l9.61,8.12c.08,.07,.15,.14,.2,.23l3.51,5.33,10.38,3.43,33.88-1.12s.02,0,.04,0c.06,0,.13,0,.19,.02l44.77,8.12c.22,.04,.43,.15,.58,.31l1.31,1.35,56.9-14.75-3.18-1.84c-.15-.09-.28-.21-.37-.36Z"/>
  <text class="cls-4" transform="translate(64.22 120.08)"><tspan x="0" y="0">C</tspan><tspan class="cls-5" x="12.51" y="0">U</tspan><tspan x="26" y="0">ANDO</tspan><tspan x="0" y="25.53">CU</tspan><tspan class="cls-1" x="26.68" y="25.53">B</tspan><tspan class="cls-2" x="38.87" y="25.53">ANGO</tspan></text>
</svg>