<?xml version="1.0" encoding="UTF-8"?>
<svg id="Layer_2" data-name="Layer 2" xmlns="http://www.w3.org/2000/svg" viewBox="0 0 226.77 226.77">
  <defs>
    <style>
      .cls-1 {
        letter-spacing: 0em;
      }

      .cls-2, .cls-3 {
        fill: #85287e;
      }

      .cls-3 {
        font-family: MyriadPro-Semibold, 'Myriad Pro';
        font-size: 21.28px;
        font-weight: 600;
      }

      .cls-4 {
        letter-spacing: -.03em;
      }

      .cls-5 {
        letter-spacing: 0em;
      }
    </style>
  </defs>
  <path class="cls-2" d="M213.61,46.95l-5.76-15.21-7.08-8.33-12.02-2.58-10.85-.83-4.33,3.94c-.39,.35-.87,.57-1.39,.62l-14.83,1.39-13.89,1.39c-.35,.04-.71,0-1.05-.13l-6.49-2.32-12.46-4.15c-.16-.05-.31-.12-.46-.21-.08,.03-.16,.04-.24,.06-.04,.01-.09,.02-.13,.03-.06,.01-.11,.02-.17,.03-.05,0-.09,0-.14,0-.14,0-.27,0-.41-.01,0,0,0,0,0,0-.02,0-.04,0-.06,0-.04,0-.08-.02-.12-.03-.12-.02-.24-.06-.35-.1-.07-.03-.14-.05-.2-.09-.04-.02-.09-.03-.13-.06l-6.17-3.43-2.59,2.59c-.35,.35-.8,.58-1.29,.67l-17.11,2.99-14.14,4.04c.04,.17,.06,.35,.06,.53v12.18c0,.33-.07,.65-.19,.95l-2.3,5.36,2.74,6.27c.2,.46,.25,.98,.15,1.47l-1.1,5.15,5.08,5.86c.62,.71,.76,1.73,.37,2.58l-5.42,11.73c-.27,.58-.76,1.03-1.36,1.25-.25,.09-.5,.13-.76,.13-.02,0-.04,.01-.07,.01-.02,0-.03,0-.05,0-.11,0-.22-.02-.33-.04-.05,0-.11-.01-.16-.02-.16-.04-.32-.09-.48-.16l-7.67-3.61c-.72-.34-1.23-1.02-1.35-1.81l-.61-3.98-3.96-.31c-.69-.05-1.33-.4-1.74-.96l-1.73-2.31-10.88,2.9-2.23,4.84c-.39,.85-1.25,1.4-2.19,1.4h-8.58c-.24,0-.49-.04-.72-.11l-6.79-2.12-12.64,.87c-.77,.06-1.48-.25-1.98-.82l-8.67-9.91-2.98,.27-1.21,1.04,3.37,6.29,17.16,13.78c.41,.33,.7,.79,.83,1.3l6.82,27.68c.16,.63,.05,1.29-.29,1.84l-6.41,10.42,1.41,20.37c.02,.24,0,.48-.06,.71l-2.86,12.31v18.92l12.17,.59c.12,0,.24,.02,.35,.04l13.9,2.78c1.13,.22,1.94,1.21,1.94,2.36v6.63l7.65,2.68c.83,.29,1.44,1.01,1.58,1.88l.2,1.22,6.47-5.85c.08-.07,.16-.14,.25-.2l7.41-5.1c.92-.63,2.15-.55,2.97,.19l8.1,7.29,3.66-1.67c.6-.27,1.29-.29,1.9-.04,.61,.25,1.1,.74,1.34,1.36l2.67,6.87,11.39,.41c.18,0,.36,.03,.53,.08l6.95,1.85c.58,.15,1.08,.52,1.4,1.02l3.66,5.68,.99,.25,6.05-10.9c.42-.76,1.23-1.24,2.1-1.24h8.82l3.94-6.69c.51-.87,1.5-1.32,2.49-1.15l5.05,.89v-5.94l.43-8.27-5.26-10.08c-.59-1.13-.2-2.52,.89-3.18l4.63-2.78c.15-.09,.31-.16,.48-.22l19.21-6.4v-13.09c0-.45,.13-.9,.37-1.28l7.71-12.25,4.54-14.53c.23-.73,.79-1.31,1.52-1.56,.73-.25,1.53-.13,2.16,.31l3.23,2.26,3.71-2.7c.7-.51,1.62-.6,2.41-.25l8.05,3.66,5-10.39c.18-.37,.45-.69,.79-.93l14.86-10.36,5.53-9.36,.57-3.44-7.77-4.28c-.54-.3-.95-.79-1.13-1.38l-3.24-10.19-4.59-11.91c-.36-.94-.1-2,.65-2.66l2.93-2.61Z"/>
  <text class="cls-3" transform="translate(43.4 120.56)"><tspan x="0" y="0">C</tspan><tspan class="cls-4" x="12.51" y="0">U</tspan><tspan x="26" y="0">AN</tspan><tspan class="cls-5" x="53.92" y="0">Z</tspan><tspan class="cls-1" x="66.06" y="0">A SUL</tspan></text>
</svg>