<?xml version="1.0" encoding="UTF-8"?>
<svg id="Layer_2" data-name="Layer 2" xmlns="http://www.w3.org/2000/svg" viewBox="0 0 229.61 229.61">
  <defs>
    <style>
      .cls-1, .cls-2 {
        fill: #85287e;
      }

      .cls-2 {
        font-family: MyriadPro-Semibold, 'Myriad Pro';
        font-size: 21.28px;
        font-weight: 600;
      }
    </style>
  </defs>
  <path class="cls-1" d="M217.55,145.23l4.07-11.53,6.57-18.4-7.85-20.28-8.7-14.05-10.13-13.51-10.79-12.82c-.16-.19-.27-.4-.34-.64l-.17-.58-8.64,.45-7.48,3.12-11.27,13.25c-.35,.41-.88,.62-1.41,.6l-23.93-1.33-11.34,6.3-18.08,32.81c-.06,.11-.13,.2-.2,.29-.23,.27-.54,.46-.9,.55-.08,.02-.16,.03-.25,.03-.04,0-.07,.01-.11,.02-.36,.01-.71-.09-1.01-.29l-10.03-6.69-15.79-6.32-13.45,12.17c-.09,.08-.2,.16-.31,.22l-25.1,14.25c-.41,.23-.9,.29-1.35,.15-.45-.14-.83-.45-1.04-.88l-.97-1.93-7.76,7.76-.95,1.1-3.08,3.6c-.61,.72-1.69,.8-2.41,.2l-7.11-5.93-12.5,9.09,1.8,2.69c.35,.53,.39,1.21,.08,1.77l-4.21,7.81,9.68,1.78c.49,.09,.92,.39,1.17,.82l4.58,7.77,12.7,4.83c.21,.08,.41,.21,.58,.36l12.88,12.28,6.01-1.86c.16-.05,.33-.08,.5-.08l173.38-1.36v-4.48l-5.38-22.19c-.08-.32-.06-.67,.05-.98Z"/>
  <text class="cls-2" transform="translate(96.14 141.97)"><tspan x="0" y="0">CUNENE</tspan></text>
</svg>