<?xml version="1.0" encoding="UTF-8"?>
<svg id="Layer_2" data-name="Layer 2" xmlns="http://www.w3.org/2000/svg" viewBox="0 0 229.61 229.61">
  <defs>
    <style>
      .cls-1 {
        letter-spacing: 0em;
      }

      .cls-2, .cls-3 {
        fill: #85287e;
      }

      .cls-3 {
        font-family: MyriadPro-Semibold, 'Myriad Pro';
        font-size: 21.28px;
        font-weight: 600;
      }

      .cls-4 {
        letter-spacing: -.03em;
      }
    </style>
  </defs>
  <path class="cls-2" d="M173.67,92.79v-16.03c0-.59,.18-1.17,.52-1.65l7.94-11.35,14.45-18.58-24.38-25.44c-.44-.46-.71-1.05-.78-1.68l-.94-8.46L149.01,1.42l-19.66,3.28c-.32,.05-.64,.05-.96,0l-1.14-.2c-.01,.11-.06,.2-.08,.31-.03,.12-.05,.23-.09,.34-.06,.16-.15,.31-.24,.46-.06,.09-.1,.19-.17,.27-.12,.15-.26,.28-.4,.41-.07,.06-.12,.13-.2,.18-.23,.17-.49,.31-.77,.4l-24.68,8.23-2.95,1.77,5.41,10.36c.24,.46,.35,.97,.32,1.49l-.56,10.55v10.4c0,.85-.37,1.66-1.03,2.21-.65,.55-1.52,.77-2.35,.63l-7.47-1.32-4.54,7.71c-.52,.88-1.46,1.42-2.49,1.42h-10.52l-5.33,9.6,.08,.26c.06,.17,.1,.35,.12,.52l3.41,26.1c.12,.89-.19,1.78-.82,2.41l-10.06,10.05-8.39,11.54v12.68c0,1.59-1.29,2.88-2.88,2.88h-17.55v13.57l7.73,18.77c.11,.27,.18,.55,.21,.84l1.04,11.48,16.6,17.24,1.54-1.21c.51-.4,1.14-.62,1.78-.62h17.02c1.24,0,2.34,.79,2.74,1.97l6.2,18.6,13.97,1c1.51,.11,2.68,1.36,2.68,2.88v7.3l6.33-6.96,21.48-26c.73-.89,1.93-1.26,3.04-.93l16.75,4.93,4.72-12.27c.43-1.11,1.5-1.85,2.69-1.85h28.64l1.29-2.26-6.58-54.81-9.51-9.51c-.2-.2-.36-.42-.49-.66l-6.81-12.49c-.55-1.01-.45-2.24,.26-3.15l7.34-9.43Z"/>
  <text class="cls-3" transform="translate(71.38 121.98)"><tspan x="0" y="0">H</tspan><tspan class="cls-4" x="14.3" y="0">U</tspan><tspan class="cls-1" x="27.79" y="0">A</tspan><tspan x="41.26" y="0">MBO</tspan></text>
</svg>