<?xml version="1.0" encoding="UTF-8"?>
<svg id="Layer_2" data-name="Layer 2" xmlns="http://www.w3.org/2000/svg" viewBox="0 0 229.61 229.61">
  <defs>
    <style>
      .cls-1 {
        letter-spacing: 0em;
      }

      .cls-2 {
        letter-spacing: 0em;
      }

      .cls-3, .cls-4 {
        fill: #85287e;
      }

      .cls-4 {
        font-family: MyriadPro-Semibold, 'Myriad Pro';
        font-size: 21.28px;
        font-weight: 600;
      }
    </style>
  </defs>
  <path class="cls-3" d="M23.28,203.2l.98,12.67,8.75,4.34,1.25-1.45s.07-.08,.11-.12l11.37-11.37c.47-.47,1.14-.69,1.79-.58,.65,.11,1.22,.52,1.52,1.11l1.46,2.93,27.96-15.87,16.88-15.28c.44-.4,1.02-.58,1.59-.52,.06,0,.11,.03,.17,.04,.13,.02,.26,.04,.39,.1l20.3,8.12c.13,.05,.26,.12,.38,.2l10.31,6.88,20.84-37.83c.19-.34,.47-.62,.8-.81l14.62-8.12c.34-.19,.73-.27,1.12-.26l28.21,1.57,13.14-15.46c.21-.25,.48-.44,.78-.57l9.74-4.06c.22-.09,.45-.14,.69-.16l9.76-.51-1.89-6.6-3.91-14.84-10.06-8.51c-.46-.39-.73-.97-.73-1.58v-6.3l-2.4-12.81c-.02-.12-.03-.25-.03-.38v-12.27s0-.03,0-.04l.66-10.54-1.68-1.68c-.4-.4-.61-.94-.6-1.5l.77-41.75h-19.22l-3.55,9.23c-.39,1-1.47,1.54-2.51,1.24l-12.5-3.68-14.56,17.63-8.18,9.01c-.13,.14-.28,.25-.43,.35-.04,.03-.09,.05-.13,.08-.13,.07-.27,.13-.42,.17-.03,0-.06,.02-.09,.03-.15,.03-.3,.05-.45,.05-.02,0-.04-.01-.06-.01-.23,0-.46-.04-.69-.13-.8-.31-1.32-1.07-1.32-1.92v-8.64l-9.45-.68c-.83-.06-1.55-.61-1.81-1.41l-4.4-13.21h-9.98l-2.01,1.58-8.8,6.92-12.24,8.97c-.28,.2-.6,.33-.94,.38l-16.74,2.28-7.65,16.83c-.33,.72-1.04,1.19-1.83,1.21l-38.17,.81h-.04c-.55,0-1.07-.22-1.46-.6l-3.81-3.81-4.28,2.18,3.28,6.56c.25,.51,.29,1.1,.09,1.63l-2.99,8.22,4.61,12.28c.08,.2,.12,.42,.13,.63l.81,17.87c.02,.4-.08,.8-.28,1.14l-8.12,13.8c-.14,.24-.32,.44-.54,.6l-12.48,9.36-2.21,6.62-1.47,5.86,2.87,9.32,9.97,6.9c.32,.22,.57,.53,.72,.88l12.18,28.42c.17,.4,.21,.84,.12,1.27l-3.99,17.56Z"/>
  <text class="cls-4" transform="translate(85.2 123.52)"><tspan x="0" y="0">HUÍ</tspan><tspan class="cls-2" x="34.08" y="0">L</tspan><tspan class="cls-1" x="44.66" y="0">A</tspan></text>
</svg>