<?xml version="1.0" encoding="UTF-8"?>
<svg id="Layer_2" data-name="Layer 2" xmlns="http://www.w3.org/2000/svg" viewBox="0 0 229.61 229.61">
  <defs>
    <style>
      .cls-1, .cls-2 {
        fill: #85287e;
      }

      .cls-3 {
        letter-spacing: -.01em;
      }

      .cls-2 {
        font-family: MyriadPro-Semibold, 'Myriad Pro';
        font-size: 21.28px;
        font-weight: 600;
      }

      .cls-4 {
        letter-spacing: 0em;
      }

      .cls-5 {
        letter-spacing: -.03em;
      }

      .cls-6 {
        letter-spacing: -.03em;
      }
    </style>
  </defs>
  <path class="cls-1" d="M49.45,29.55s0,0,0,0l-23.96,26.55,3.39,22.77,1.62,11.57,38.03,106.37s0,0,0,0l3.07,8.6,.82-.7c.62-.53,1.38-.85,2.19-.93l8.09-.74c1.23-.12,2.48,.38,3.3,1.32l14.15,16.17,19.37-1.34c.5-.03,.98,.02,1.44,.17l11.19,3.5h10.86l3.36-7.28c.49-1.06,1.42-1.84,2.55-2.14l22.05-5.88c1.54-.41,3.18,.15,4.15,1.44l3.34,4.46,7.78,.6c1.81,.14,3.29,1.51,3.57,3.31l1.16,7.49,7.03,3.31,6.1-13.23-7.9-9.11c-.81-.93-1.13-2.18-.87-3.39l1.94-9.05-4.64-10.6c-.43-.99-.44-2.12-.01-3.12l4.09-9.55v-17.63l-11.39-13.78-11.44,3.61c-1.97,.62-4.06-.38-4.82-2.28l-3.48-8.7-11.46-.6c-1.63-.09-3.04-1.18-3.53-2.73l-4.41-13.96c-.2-.63-.23-1.3-.1-1.95l2.94-14.7c.19-.95,.72-1.79,1.49-2.37l7.25-5.44v-6.91l-2.77-3.32c-.89-1.07-1.15-2.54-.67-3.85l1.29-3.55-5.51-.79c-.75-.11-1.46-.43-2.03-.93l-5.88-5.14c-1.12-.98-1.59-2.52-1.2-3.96,.39-1.44,1.55-2.54,3.02-2.83l6.65-1.33,2.65-1.66-1.52-4.57-6.91-4.4-53.34-13.36-5.32-3.63v-4.68l-6.02-17.54-11.32-.6c-.32-.02-.65-.08-.95-.17L51.86,1.42l.59,23.2c.03,1-.33,1.98-1.01,2.73l-1.99,2.2Z"/>
  <text class="cls-2" transform="translate(56.24 121.91)"><tspan class="cls-5" x="0" y="0">L</tspan><tspan class="cls-6" x="9.79" y="0">U</tspan><tspan class="cls-4" x="23.28" y="0">AN</tspan><tspan class="cls-3" x="51.19" y="0">D</tspan><tspan x="65.41" y="0">A</tspan></text>
</svg>