<?xml version="1.0" encoding="UTF-8"?>
<svg id="Layer_2" data-name="Layer 2" xmlns="http://www.w3.org/2000/svg" viewBox="0 0 229.61 229.61">
  <defs>
    <style>
      .cls-1, .cls-2 {
        fill: #85287e;
      }

      .cls-2 {
        font-family: MyriadPro-Semibold, 'Myriad Pro';
        font-size: 21.28px;
        font-weight: 600;
      }

      .cls-3 {
        letter-spacing: 0em;
      }

      .cls-4 {
        letter-spacing: -.02em;
      }

      .cls-5 {
        letter-spacing: -.03em;
      }

      .cls-6 {
        letter-spacing: 0em;
      }
    </style>
  </defs>
  <path class="cls-1" d="M15.41,99.51l-3.41,3.79,3.68,8.17c.11,.24,.15,.5,.14,.75l-.91,13.66c-.02,.25-.09,.49-.22,.71l-2.3,3.83,3.74,7.89c.2,.42,.2,.91,0,1.34l-2.73,5.92c-.17,.37-.48,.66-.86,.81l-11.11,4.37,4.19,8c.12,.23,.18,.48,.18,.73v3.62l8.29,4.56c.32,.18,.57,.46,.71,.8l2.47,6.18,27.58,10.23c.51,.19,.89,.63,1,1.17l.91,4.55c.09,.43-.01,.88-.27,1.24l-3.13,4.3,2.22,5.54,5.96,3.69,7.49-1.44c.17-.03,.34-.04,.5-.01l9.81,1.28,8.58-6.87c.24-.19,.53-.31,.83-.34l8.63-.86,7.83-6.52c.24-.2,.53-.32,.84-.36l7.7-.86,3.72-3.31c.29-.26,.66-.4,1.05-.4h3.15l6.88-4.73c.08-.05,.16-.1,.24-.14l14.19-6.45,1.28-14.57c.04-.5,.32-.95,.75-1.21l14.12-8.65c.25-.15,.54-.23,.83-.23h3.5l3.24-7.69c.19-.46,.59-.8,1.07-.92l10.65-2.66,3.99-2.79,6.2-12.4c.15-.29,.38-.53,.67-.69l6.83-3.64c.08-.04,.17-.08,.26-.11l14.12-4.55c.27-.09,.57-.1,.85-.03l7.53,1.77,8.52-.43,10.81-6.01-4.35-52.77-4.92-10.75-44.46-.97c-.44,0-.85-.2-1.15-.53-.29-.33-.44-.76-.4-1.2l1.76-19.11h-19.25l-1.54,4.25c-.22,.61-.8,1.03-1.45,1.04l-37.3,.95-.58,.17-12.16,50.26c-.18,.73-.86,1.22-1.58,1.21l-32.75-.98-31.79,8.21c-.13,.03-.26,.05-.4,.05h-12.49c-.15,0-.3-.02-.44-.06l-7.6-2.21v6.27l.45,4.94c.04,.44-.1,.87-.4,1.2Z"/>
  <text class="cls-2" transform="translate(39.09 120.88)"><tspan class="cls-5" x="0" y="0">L</tspan><tspan x="9.79" y="0">UN</tspan><tspan class="cls-4" x="38.34" y="0">D</tspan><tspan x="52.55" y="0">A NO</tspan><tspan class="cls-6" x="99.85" y="0">R</tspan><tspan class="cls-3" x="112.06" y="0">TE</tspan></text>
</svg>