<?xml version="1.0" encoding="UTF-8"?>
<svg id="Layer_2" data-name="Layer 2" xmlns="http://www.w3.org/2000/svg" viewBox="0 0 229.61 229.61">
  <defs>
    <style>
      .cls-1, .cls-2 {
        fill: #85287e;
      }

      .cls-2 {
        font-family: MyriadPro-Semibold, 'Myriad Pro';
        font-size: 21.28px;
        font-weight: 600;
      }

      .cls-3 {
        letter-spacing: 0em;
      }

      .cls-4 {
        letter-spacing: -.02em;
      }

      .cls-5 {
        letter-spacing: -.03em;
      }
    </style>
  </defs>
  <path class="cls-1" d="M190.64,30.68l-11.1,.56c-.18,.01-.36,0-.54-.05l-8.92-2.1-16.54,5.34-7.63,4.07-7.5,15c-.14,.29-.36,.53-.62,.72l-5.55,3.89c-.19,.13-.41,.23-.64,.29l-12.39,3.1-4.07,9.66c-.3,.71-1,1.18-1.78,1.18h-5.01l-15.92,9.76-1.58,17.91c-.06,.69-.49,1.3-1.12,1.59l-18.17,8.26-8.74,6.01c-.32,.22-.7,.34-1.09,.34h-3.71l-4.45,3.95c-.3,.26-.67,.43-1.07,.48l-9.42,1.05-9.55,7.96c-.29,.25-.66,.4-1.04,.44l-10.54,1.05-10.66,8.53c-.31,.24-.68,.39-1.06,.42-.13,0-.26,0-.39-.01l-8.43-1.1,4.04,6.24,4.24,3.71c.67,.59,.85,1.56,.44,2.35l-5.03,9.55,5.46,8.44,4.88,6.51,9.52,5.71,9.41,6.08,7.68,3.84c.48,.24,.83,.66,.98,1.17,.15,.51,.09,1.06-.18,1.52l-3.97,6.86,4.15-.83,9.09-1.61,10.78-7c.37-.24,.81-.35,1.25-.3l15.74,1.63,13.53-3.79c.25-.07,.5-.09,.76-.06l8.88,1.11c.25,.03,.49,.11,.71,.23l12.56,7.1,31.13,8.44,5.35-8.76c.3-.48,.79-.81,1.35-.9l14.27-2.2,21.7-7.41,1.67-5-2.42-4.84c-.39-.77-.21-1.7,.42-2.28l6.17-5.66,2.11-12.67c.16-.96,1-1.64,1.98-1.61l24.58,.98,1.78,.07,1.76-5.75-14.17-43.13-10.41-16.32c-.12-.18-.2-.39-.25-.6l-2.34-10.08c-.05-.22-.06-.45-.04-.67l4.27-34.48-1.71-20.81-12.05,6.69c-.26,.14-.54,.23-.84,.24Z"/>
  <text class="cls-2" transform="translate(75.19 142.97)"><tspan class="cls-5" x="0" y="0">L</tspan><tspan class="cls-3" x="9.79" y="0">UN</tspan><tspan class="cls-4" x="38.34" y="0">D</tspan><tspan x="52.55" y="0">A SUL</tspan></text>
</svg>