<?xml version="1.0" encoding="UTF-8"?>
<svg id="Layer_2" data-name="Layer 2" xmlns="http://www.w3.org/2000/svg" viewBox="0 0 229.61 229.61">
  <defs>
    <style>
      .cls-1 {
        letter-spacing: 0em;
      }

      .cls-2 {
        letter-spacing: 0em;
      }

      .cls-3 {
        letter-spacing: 0em;
      }

      .cls-4, .cls-5 {
        fill: #85287e;
      }

      .cls-5 {
        font-family: MyriadPro-Semibold, 'Myriad Pro';
        font-size: 21.28px;
        font-weight: 600;
      }
    </style>
  </defs>
  <path class="cls-4" d="M107.85,14.96l-8.42-9.62s-.05-.06-.08-.09l-2.87-3.83-9.99,3.94-9.39,9.09c-.3,.29-.7,.45-1.12,.45h-5.05l2.73,17.99c.04,.27,.01,.56-.09,.82l-3.01,7.81c-.16,.4-.47,.73-.87,.9l-6.07,2.6-2.51,2.23c-.35,.31-.82,.46-1.29,.39l-4.25-.61,1.66,4.99c.14,.43,.1,.9-.12,1.29l-2.58,4.59c-.19,.33-.48,.58-.83,.71l-3.76,1.41-1.1,5.29,2.7,3.43c.24,.31,.37,.7,.34,1.1l-.57,8.61c0,.14-.04,.28-.08,.42l-2.75,7.98,.53,4.81c.03,.31-.02,.62-.16,.89l-1.43,2.87c-.28,.56-.86,.91-1.49,.89l-6.95-.23v8.1c0,.79-.57,1.46-1.35,1.58l-14.16,2.25,2.49,1.74c.37,.26,.61,.65,.67,1.1,.06,.44-.07,.89-.35,1.24l-3.34,4.05,2.08,3.93c.29,.56,.24,1.24-.15,1.73l-2.43,3.13,7.33,2.44,4.01,1.43,8.9-.89,9.35-.88,3-2.73c.33-.3,.75-.45,1.2-.41l8.02,.62c.07,0,.14,.02,.21,.03l8.64,1.85c.35,.07,.66,.26,.88,.53l5.25,6.17c.12,.14,.21,.3,.28,.47l4.32,11.42c.23,.62,.06,1.32-.44,1.76l-1.95,1.73,2.69,6.99,2,6.27,5.61,3.09s.02,.01,.02,.02c.13,.07,.24,.16,.34,.27,0,0,.02,.01,.02,.02,.01,.01,.02,.03,.03,.04,.09,.1,.16,.21,.22,.32,0,.01,.02,.02,.02,.03,0,0,0,0,0,.01,.06,.13,.1,.27,.13,.41,0,.02,.01,.03,.01,.04,0,.02,0,.03,0,.05,.02,.15,.02,.29,0,.44,0,0,0,0,0,0l-.02,.12-.08,.46,2.71,7.36,7.9,4.57h5.11c.34,0,.67,.11,.95,.31l6.1,4.47,3.26-1.81c.08-.05,.17-.08,.26-.11,.39-.14,.83-.12,1.21,.06l9.7,4.62c.32,.15,.59,.41,.75,.73l6,12c.26,.51,.22,1.13-.1,1.61l-1.88,2.82,2.82,1.88c.33,.22,.56,.55,.66,.93l2.31,8.77c.07,.25,.07,.52,.01,.78l-1.79,7.61,.32,4.49,6.96-1.04,8.43-9.28v-5.84c0-.69,.45-1.31,1.1-1.52,.43-.14,.88-.07,1.25,.13,.2,.11,.39,.25,.54,.44l4.43,6.04,4.02-1.09c.68-.18,1.4,.09,1.77,.69l2.63,4.12,9.06-2.06c.08-.02,.15-.03,.23-.03l5.66-.44,11.71-6.3c.23-.13,.49-.19,.76-.19h7.8l1.74-1.24-1.76-3.88c-.19-.42-.19-.91,0-1.34l2.12-4.59-1.38-.69c-.54-.27-.89-.83-.89-1.43v-3.16l-3.83-5.11s-.04-.06-.06-.09l-5.08-7.85c-.31-.49-.34-1.1-.07-1.62l4.03-7.65-2.74-2.4c-.11-.1-.21-.21-.29-.34l-4.32-6.68-4.74,2.19c-.24,.11-.51,.16-.77,.15-.13,0-.26-.03-.39-.07s-.25-.09-.36-.17l-2.67-1.65s0,0,0,0l-7.02-4.35c-.29-.18-.52-.45-.64-.77l-2.77-6.93c-.2-.51-.13-1.09,.19-1.54l3.28-4.51-.61-3.05-27.79-10.31c-.42-.16-.76-.49-.93-.91l-2.56-6.39-8.73-4.8c-.51-.28-.83-.82-.83-1.4v-4.22l-4.9-9.35c-.21-.4-.24-.88-.08-1.3,.16-.43,.49-.77,.92-.93l12.33-4.84,2.19-4.74-3.83-8.1c-.23-.48-.2-1.05,.07-1.51l2.57-4.29,.87-13.07-3.99-8.87c-.26-.58-.15-1.26,.27-1.73l3.69-4.1-.4-4.38s0-.1,0-.15v-7.37l-1.75-.51c-.32-.09-.61-.29-.82-.55l-23.87-30.68-.64,2.72c-.12,.5-.47,.91-.94,1.11l-7.21,3.01c-.63,.26-1.37,.09-1.82-.42Z"/>
  <text class="cls-5" transform="translate(38.99 119.13)"><tspan class="cls-1" x="0" y="0">M</tspan><tspan class="cls-2" x="17.47" y="0">A</tspan><tspan class="cls-3" x="31" y="0">L</tspan><tspan class="cls-2" x="41.58" y="0">ANJE</tspan></text>
</svg>