<?xml version="1.0" encoding="UTF-8"?>
<svg id="Layer_2" data-name="Layer 2" xmlns="http://www.w3.org/2000/svg" viewBox="0 0 229.61 229.61">
  <defs>
    <style>
      .cls-1 {
        letter-spacing: -.03em;
      }

      .cls-2, .cls-3 {
        fill: #85287e;
      }

      .cls-3 {
        font-family: MyriadPro-Semibold, 'Myriad Pro';
        font-size: 21.28px;
        font-weight: 600;
      }

      .cls-4 {
        letter-spacing: -.03em;
      }
    </style>
  </defs>
  <path class="cls-2" d="M227.48,40.44l-1.34-5.75c-.07-.29-.02-.59,.13-.84l1.52-2.55-1.64-3.08-5.88,4.05c-.29,.2-.64,.25-.97,.15l-6.74-2.02-6.53,3.15c-.15,.07-.32,.11-.5,.11h-33.98l-2.87,1.11-.6,4.58c-.03,.22-.12,.43-.27,.6l-3.93,4.54c-.3,.35-.78,.48-1.21,.34l-3.7-1.19c-.21-.07-.39-.19-.53-.36l-3.71-4.51-3.6-1.09c-.43-.13-.74-.49-.8-.94l-.46-3.34c-.04-.31,.04-.63,.24-.87l8.7-10.83-13.19-.53-1.15,6.9c-.04,.25-.17,.48-.35,.65l-3.31,3.03,1.26,2.52c.14,.27,.16,.58,.06,.87l-1.32,3.94c-.11,.34-.38,.6-.71,.72l-13.48,4.6c-.06,.02-.13,.04-.19,.05l-8.02,1.23-3.34,5.46c-.06,.1-.14,.18-.22,.26-.03,.03-.06,.04-.09,.07-.06,.04-.12,.08-.19,.11-.04,.02-.08,.03-.12,.05-.07,.02-.13,.04-.2,.05-.04,0-.08,.01-.12,.02-.01,0-.02,0-.03,0-.1,0-.2-.01-.3-.04l-19.4-5.26c-.09-.02-.18-.06-.26-.11l-7.36-4.16-4.81-.6-8,2.24c-.14,.04-.28,.05-.43,.04l-9.13-.94-6.24,4.05c-.13,.08-.27,.14-.42,.17l-5.59,.99-4.28,.86-4.86,7.95c-.13,.22-.34,.38-.57,.47l-2.66,1,.68,3.07c.02,.11,.03,.22,.02,.33-.02,.33-.19,.64-.47,.84l-4.28,3.11,1.56,5.06c.11,.36,.04,.75-.2,1.05l-5.39,6.74c-.05,.06-.1,.11-.16,.16l-11.12,9.34-5.76,7.97c-.1,.13-.22,.25-.37,.33l-6.47,3.64,.74,3.68c.05,.25,.02,.51-.1,.73l-3.35,6.69,2.91,6.24c.15,.32,.14,.69-.02,1-.16,.31-.46,.53-.8,.6l-6.21,1.16,.36,7.28,12.83,5.56,6.77,3.16s.09,.05,.14,.08l7.64,4.94c.19,.12,.34,.3,.43,.51l6.77,15.66,5.74-1.91c.27-.09,.58-.08,.84,.05l4.22,1.95v-4.95c0-.33,.14-.65,.4-.86,.25-.22,.58-.32,.91-.26l12.13,1.8c.32,.05,.61,.23,.79,.51l6.62,10.14,21.08,14.49h19.41c.27,0,.53,.1,.74,.27l23.81,20.21s.09,.08,.13,.13l19.65,22.86V107.47c0-.63,.51-1.14,1.14-1.14h71.7c-.05-.06-.1-.12-.14-.19l-3.24-5.49c-.12-.21-.18-.45-.15-.69l2.53-24.97-.69-9.93c0-.09,0-.17,.01-.26l3.89-24.36Z"/>
  <text class="cls-3" transform="translate(57.53 111.25)"><tspan x="0" y="0">M</tspan><tspan class="cls-1" x="17.6" y="0">O</tspan><tspan x="31.94" y="0">XI</tspan><tspan class="cls-4" x="50.19" y="0">C</tspan><tspan x="62.15" y="0">O</tspan></text>
</svg>