<?xml version="1.0" encoding="UTF-8"?>
<svg id="Layer_2" data-name="Layer 2" xmlns="http://www.w3.org/2000/svg" viewBox="0 0 229.61 229.61">
  <defs>
    <style>
      .cls-1 {
        letter-spacing: 0em;
      }

      .cls-2, .cls-3 {
        fill: #85287e;
      }

      .cls-3 {
        font-family: MyriadPro-Semibold, 'Myriad Pro';
        font-size: 21.28px;
        font-weight: 600;
      }
    </style>
  </defs>
  <path class="cls-2" d="M149.43,187.27c-.58-.87-.37-2.04,.48-2.65l16.84-12.25s.08-.06,.12-.08l-.92-11.97c-.02-.2,0-.39,.04-.58l3.69-16.23-11.02-25.7-9.49-6.57c-.36-.25-.62-.61-.75-1.03l-3.06-9.95c-.1-.34-.11-.7-.03-1.04l1.53-6.13s.03-.1,.04-.14l2.3-6.89c.13-.37,.36-.7,.68-.94l11.94-8.95,7.17-12.18-.73-15.96-4.49-11.96c-.16-.43-.17-.91,0-1.35l2.78-7.64-3.09-6.19-15.32-5.11c-.69-.23-1.2-.83-1.31-1.55l-1.37-8.89-9.11-3.91-16.97,4.43c-.07,.02-.14,.03-.22,.04l-17.01,2.43v5.33c0,.23-.04,.46-.12,.67l-7.43,20.21-4.29,20.14-5.5,39.4c-.01,.08-.03,.17-.05,.25l-11.03,39.46c-.08,.3-.24,.57-.45,.8l-8.14,8.79,.78,55.77c.01,1.04-.8,1.91-1.84,1.97-1.09,.03-1.94-.72-2.04-1.76l-.67-6.92-1.45-.53,3.68,36.29,21.3-15.15c.64-.46,1.49-.48,2.16-.06l9.91,6.22,17.45-12.65c.11-.08,.22-.14,.34-.2l9.85-4.47c.22-.1,.47-.16,.71-.17l21.49-1.04c0-.09,.02-.17,.04-.26,0-.05,.01-.1,.02-.14,.04-.15,.09-.3,.17-.44l4.8-8.93-2.41-3.62Z"/>
  <text class="cls-3" transform="translate(82.8 160.46)"><tspan x="0" y="0">N</tspan><tspan class="cls-1" x="14.38" y="0">A</tspan><tspan x="27.85" y="0">MIBE</tspan></text>
</svg>