<?xml version="1.0" encoding="UTF-8"?>
<svg id="Layer_2" data-name="Layer 2" xmlns="http://www.w3.org/2000/svg" viewBox="0 0 229.61 229.61">
  <defs>
    <style>
      .cls-1, .cls-2 {
        fill: #85287e;
      }

      .cls-2 {
        font-family: MyriadPro-Semibold, 'Myriad Pro';
        font-size: 21.28px;
        font-weight: 600;
      }
    </style>
  </defs>
  <path class="cls-1" d="M73.72,32.07l5,15.42,2.74,3.53c.51,.66,.62,1.55,.28,2.32l-9.82,22.2c-.32,.71-.98,1.22-1.75,1.33l-13.83,2.03-9.3,8.5c-.27,.25-.6,.43-.96,.52l-10.44,2.71-3.4,7.94c-.27,.62-.8,1.09-1.45,1.29l-11.12,3.29-10.76,8.28c-.31,.24-.68,.39-1.07,.45l-6.42,.92,2.15,7.99,5.5,5.11c.83,.77,.97,2.04,.32,2.97l-5.91,8.5,7.61,10.65c.15,.21,.26,.45,.33,.69,.07,.24,.1,.49,.09,.74-.02,.5-.21,.99-.56,1.39l-2.99,3.41c-.34,.39-.8,.65-1.31,.74l-3.37,.61-.52,1.55,5.93-.27h13.34c.65,0,1.27,.28,1.7,.76l6.83,7.68c.08,.09,.15,.18,.21,.28l3.53,5.49,.83,.46,14.82,3.95,6.06-3.03c.61-.31,1.33-.32,1.95-.04l8.54,3.84s.03,.03,.05,.04c.2,.1,.39,.22,.55,.36,.01,.01,.02,.03,.04,.04,.15,.14,.27,.3,.38,.48,.02,.03,.04,.06,.06,.09,.1,.18,.17,.38,.21,.59,0,.04,.01,.08,.02,.13,.03,.21,.05,.43,.02,.66h0s-.11,.77-.11,.77l-.44,3.2-.29,7.76c-.01,.34-.1,.68-.26,.98l-3.6,6.79-.34,11.03,4.31,.48,6.05-7.94c.43-.56,1.1-.9,1.81-.9h8.47l4.25-1.93,4.22-1.62v-5.7c0-.95,.59-1.8,1.48-2.13l2.51-.94,.71-1.67v-5.51c0-1.15,.86-2.12,2.01-2.26l10.67-1.28c.72-.09,1.44,.17,1.93,.7l5.57,5.95,19.71-3.22c1.21-.21,2.36,.59,2.61,1.8l2.67,13.36,6.32,.9,3.05-2.71c.18-.16,.39-.29,.62-.39l8.08-3.46,3.71-9.64-4.18-27.58c-.1-.66,.09-1.32,.52-1.83,.43-.5,1.06-.79,1.73-.79h8.9l13-12.59c.21-.21,.47-.37,.75-.48l16.22-6.4c.95-.38,2.04-.07,2.66,.75l5.07,6.76,10.82,12.36,7.66-3.19,1.44-6.13c.01-.06,.03-.11,.05-.17l-5.84-7.52c-.24-.31-.39-.67-.45-1.05l-3.62-23.38-12.69-22.01c-.13-.23-.23-.49-.27-.75l-7.78-44.86-5.52-10.19-8.58,1.21c-.78,.11-1.54-.18-2.05-.78l-9.52-11.17-20.54-1.35-78.21,5.23c-.05,0-.1,0-.15,0h-3.38l3.9,6.41c.09,.15,.17,.31,.22,.48Z"/>
  <text class="cls-2" transform="translate(101.53 114.8)"><tspan x="0" y="0">UÍGE</tspan></text>
</svg>