<?xml version="1.0" encoding="UTF-8"?>
<svg id="Layer_2" data-name="Layer 2" xmlns="http://www.w3.org/2000/svg" viewBox="0 0 229.61 229.61">
  <defs>
    <style>
      .cls-1, .cls-2 {
        fill: #85287e;
      }

      .cls-2 {
        font-family: MyriadPro-Semibold, 'Myriad Pro';
        font-size: 21.28px;
        font-weight: 600;
      }

      .cls-3 {
        letter-spacing: 0em;
      }
    </style>
  </defs>
  <path class="cls-1" d="M1.42,63.74l3.85,13.95,39.73,57c.17,.24,.3,.51,.38,.79l20.62,69.87,11.96-3.71,14.68-8.1c.69-.38,1.51-.45,2.25-.18l13.45,4.8,24.21-9.31,2.04-6.13c.32-.95,1.13-1.65,2.11-1.83l4.72-.86,1.54-1.76-9.03-12.64c-.67-.94-.68-2.21-.02-3.16l6.87-9.88-5.46-5.07c-.38-.35-.65-.8-.78-1.3l-3.6-13.38c-.21-.76-.07-1.57,.36-2.22,.43-.66,1.13-1.1,1.9-1.21l10.09-1.44,12.81-9.85c.27-.21,.57-.36,.89-.46l12.66-3.75,4.12-9.62c.33-.78,1.01-1.36,1.84-1.58l13.23-3.43,11.33-10.35c.41-.37,.91-.61,1.45-.69l16-2.35,10.56-23.87-2.59-3.34c-.19-.25-.34-.53-.44-.84l-6.08-18.73-6.27-10.3h-20.06c-.32,0-.63-.05-.93-.16l-12.26-4.41-96.25,4.55L10.29,56.01,1.42,63.74Z"/>
  <text class="cls-2" transform="translate(78.87 109.68)"><tspan class="cls-3" x="0" y="0">Z</tspan><tspan x="12.15" y="0">AIRE</tspan></text>
</svg>