<?xml version="1.0" encoding="UTF-8"?>
<svg id="_02" data-name="02" xmlns="http://www.w3.org/2000/svg" viewBox="0 0 283.46 283.46">
  <defs>
    <style>
      .cls-1 {
        fill: #d02027;
      }
    </style>
  </defs>
  <g>
    <polygon class="cls-1" points="74.54 185.79 74.24 178.29 74.32 178.29 79.57 187.59 100.27 220.74 107.69 220.74 107.69 171.24 101.99 171.24 101.99 206.19 102.29 213.77 102.22 213.77 96.89 204.24 76.27 171.24 68.84 171.24 68.84 220.74 74.54 220.74 74.54 185.79"/>
    <path class="cls-1" d="M166.98,182.42c-1.87-3.8-4.52-6.74-7.95-8.82-3.42-2.07-7.49-3.11-12.19-3.11s-8.76,1.04-12.18,3.11c-3.43,2.08-6.08,5.02-7.95,8.82-1.88,3.8-2.82,8.32-2.82,13.57s.94,9.78,2.82,13.58c1.87,3.8,4.52,6.74,7.95,8.81,3.42,2.08,7.48,3.11,12.18,3.11s8.77-1.03,12.19-3.11c3.43-2.07,6.08-5.01,7.95-8.81,1.88-3.8,2.81-8.33,2.81-13.58s-.93-9.77-2.81-13.57Zm-5.51,24.26c-1.35,2.98-3.26,5.25-5.74,6.83-2.47,1.57-5.44,2.36-8.89,2.36s-6.35-.79-8.85-2.36c-2.5-1.58-4.42-3.85-5.77-6.83-1.35-2.97-2.03-6.54-2.03-10.69s.68-7.71,2.03-10.69c1.35-2.97,3.27-5.25,5.77-6.82,2.5-1.58,5.45-2.36,8.85-2.36s6.42,.78,8.89,2.36c2.48,1.57,4.39,3.85,5.74,6.82,1.35,2.98,2.02,6.54,2.02,10.69s-.67,7.72-2.02,10.69Z"/>
    <polygon class="cls-1" points="204.44 220.74 223.19 171.24 216.74 171.24 204.14 205.52 200.99 215.27 197.84 205.44 185.24 171.24 178.79 171.24 197.62 220.74 204.44 220.74"/>
  </g>
  <g>
    <path class="cls-1" d="M274.29,54.54c0-20.43-16.66-37.06-37.16-37.07h-30.13v19.43c0,3.81-3.11,6.92-6.92,6.92-.11,0-.21,0-.31,0-3.71-.16-6.62-3.31-6.62-7.17V17.47H90.36v19.43c0,3.81-3.1,6.92-6.92,6.92s-6.92-3.11-6.92-6.92V17.47h-30.2c-20.48,0-37.15,16.62-37.16,37.07v63.53l.02,.43v120.32c0,11.29,5.56,22.07,15.27,29.56,8.57,6.61,19.73,10.26,31.42,10.26H227.61c11.69,0,22.85-3.65,31.43-10.26,9.7-7.49,15.27-18.26,15.27-29.56l-.02-184.28Zm-4.98,184.28c0,9.73-4.86,19.06-13.33,25.6-7.7,5.94-17.78,9.22-28.37,9.22H55.87c-10.59,0-20.66-3.28-28.37-9.22-8.47-6.54-13.32-15.87-13.32-25.6V120.5h255.13v118.32Z"/>
    <path class="cls-1" d="M83.44,40.82c2.17,0,3.92-1.76,3.92-3.92V8.75c0-2.17-1.75-3.93-3.92-3.93s-3.92,1.76-3.92,3.93v28.15c0,2.16,1.75,3.92,3.92,3.92Z"/>
    <path class="cls-1" d="M199.9,40.82h.18c2.16,0,3.92-1.76,3.92-3.92V8.75c0-2.17-1.76-3.93-3.92-3.93-.23,0-.47,.02-.71,.07-1.91,.33-3.22,2.14-3.22,4.08v27.67c0,2.14,1.61,4.08,3.75,4.18Z"/>
  </g>
</svg>