<?xml version="1.0" encoding="UTF-8"?>
<svg id="_02" data-name="02" xmlns="http://www.w3.org/2000/svg" viewBox="0 0 283.46 283.46">
  <defs>
    <style>
      .cls-1 {
        fill: #d02027;
      }
    </style>
  </defs>
  <g>
    <path class="cls-1" d="M106.49,177.65c-4.42-4.27-10.51-6.41-18.26-6.41h-15.98v49.5h15.98c7.75,0,13.84-2.14,18.26-6.41,4.43-4.28,6.64-10.39,6.64-18.34s-2.21-14.06-6.64-18.34Zm-4.42,32.4c-3.18,3.38-7.59,5.07-13.24,5.07h-10.58v-38.25h10.58c5.65,0,10.06,1.68,13.24,5.06,3.17,3.37,4.76,8.06,4.76,14.06s-1.59,10.69-4.76,14.06Z"/>
    <polygon class="cls-1" points="165.18 215.12 135.33 215.12 135.33 198.47 157.68 198.47 157.68 192.84 135.33 192.84 135.33 176.87 164.06 176.87 164.06 171.24 129.33 171.24 129.33 220.74 165.18 220.74 165.18 215.12"/>
    <polygon class="cls-1" points="215.21 215.12 183.42 215.12 214.23 176.57 214.23 171.24 177.03 171.24 177.03 176.87 207.09 176.87 176.28 215.42 176.28 220.74 215.21 220.74 215.21 215.12"/>
  </g>
  <g>
    <path class="cls-1" d="M274.29,54.54c0-20.43-16.66-37.06-37.16-37.07h-30.13v19.43c0,3.81-3.11,6.92-6.92,6.92-.11,0-.21,0-.31,0-3.71-.16-6.62-3.31-6.62-7.17V17.47H90.36v19.43c0,3.81-3.1,6.92-6.92,6.92s-6.92-3.11-6.92-6.92V17.47h-30.2c-20.48,0-37.15,16.62-37.16,37.07v63.53l.02,.43v120.32c0,11.29,5.56,22.07,15.27,29.56,8.57,6.61,19.73,10.26,31.42,10.26H227.61c11.69,0,22.85-3.65,31.43-10.26,9.7-7.49,15.27-18.26,15.27-29.56l-.02-184.28Zm-4.98,184.28c0,9.73-4.86,19.06-13.33,25.6-7.7,5.94-17.78,9.22-28.37,9.22H55.87c-10.59,0-20.66-3.28-28.37-9.22-8.47-6.54-13.32-15.87-13.32-25.6V120.5h255.13v118.32Z"/>
    <path class="cls-1" d="M83.44,40.82c2.17,0,3.92-1.76,3.92-3.92V8.75c0-2.17-1.75-3.93-3.92-3.93s-3.92,1.76-3.92,3.93v28.15c0,2.16,1.75,3.92,3.92,3.92Z"/>
    <path class="cls-1" d="M199.9,40.82h.18c2.16,0,3.92-1.76,3.92-3.92V8.75c0-2.17-1.76-3.93-3.92-3.93-.23,0-.47,.02-.71,.07-1.91,.33-3.22,2.14-3.22,4.08v27.67c0,2.14,1.61,4.08,3.75,4.18Z"/>
  </g>
</svg>