<?xml version="1.0" encoding="UTF-8"?>
<svg id="_02" data-name="02" xmlns="http://www.w3.org/2000/svg" viewBox="0 0 283.46 283.46">
  <defs>
    <style>
      .cls-1 {
        fill: #d02027;
      }
    </style>
  </defs>
  <g>
    <polygon class="cls-1" points="70.83 189.62 70.16 176.57 70.23 176.57 86.51 220.74 91.61 220.74 107.88 176.57 107.96 176.57 107.28 189.62 107.28 220.74 112.98 220.74 112.98 171.24 103.76 171.24 92.96 201.39 89.13 213.69 88.98 213.69 85.23 201.32 74.36 171.24 65.13 171.24 65.13 220.74 70.83 220.74 70.83 189.62"/>
    <path class="cls-1" d="M152.43,171.24h-7.13l-19.27,49.5h6.3l5.25-13.72h22.42l5.25,13.72h6.38l-19.2-49.5Zm-12.68,30.15l9-24.37,9.08,24.37h-18.08Z"/>
    <path class="cls-1" d="M209.04,199.19c2.51-.6,4.68-1.62,6.5-3.09,3.07-2.47,4.61-5.93,4.61-10.38s-1.53-7.98-4.58-10.58c-3.05-2.6-7.1-3.9-12.15-3.9h-18.75v49.5h6v-20.55h11.84l13.52,20.55h7.12l-14.11-21.55Zm-18.37-4.62v-17.7h12.68c3.55,0,6.19,.73,7.91,2.21,1.73,1.47,2.59,3.69,2.59,6.64s-.86,5.16-2.59,6.63c-1.72,1.48-4.36,2.22-7.91,2.22h-12.68Z"/>
  </g>
  <g>
    <path class="cls-1" d="M274.29,54.54c0-20.43-16.66-37.06-37.16-37.07h-30.13v19.43c0,3.81-3.11,6.92-6.92,6.92-.11,0-.21,0-.31,0-3.71-.16-6.62-3.31-6.62-7.17V17.47H90.36v19.43c0,3.81-3.1,6.92-6.92,6.92s-6.92-3.11-6.92-6.92V17.47h-30.2c-20.48,0-37.15,16.62-37.16,37.07v63.53l.02,.43v120.32c0,11.29,5.56,22.07,15.27,29.56,8.57,6.61,19.73,10.26,31.42,10.26H227.61c11.69,0,22.85-3.65,31.43-10.26,9.7-7.49,15.27-18.26,15.27-29.56l-.02-184.28Zm-4.98,184.28c0,9.73-4.86,19.06-13.33,25.6-7.7,5.94-17.78,9.22-28.37,9.22H55.87c-10.59,0-20.66-3.28-28.37-9.22-8.47-6.54-13.32-15.87-13.32-25.6V120.5h255.13v118.32Z"/>
    <path class="cls-1" d="M83.44,40.82c2.17,0,3.92-1.76,3.92-3.92V8.75c0-2.17-1.75-3.93-3.92-3.93s-3.92,1.76-3.92,3.93v28.15c0,2.16,1.75,3.92,3.92,3.92Z"/>
    <path class="cls-1" d="M199.9,40.82h.18c2.16,0,3.92-1.76,3.92-3.92V8.75c0-2.17-1.76-3.93-3.92-3.93-.23,0-.47,.02-.71,.07-1.91,.33-3.22,2.14-3.22,4.08v27.67c0,2.14,1.61,4.08,3.75,4.18Z"/>
  </g>
</svg>