<?xml version="1.0" encoding="UTF-8"?>
<svg id="_02" data-name="02" xmlns="http://www.w3.org/2000/svg" viewBox="0 0 283.46 283.46">
  <defs>
    <style>
      .cls-1 {
        fill: #d02027;
      }
    </style>
  </defs>
  <g>
    <path class="cls-1" d="M92.92,171.24h-7.12l-19.28,49.5h6.3l5.25-13.72h22.43l5.25,13.72h6.37l-19.2-49.5Zm-12.67,30.15l9-24.37,9.07,24.37h-18.07Z"/>
    <path class="cls-1" d="M158.36,199.63c-1.73-2.13-4.06-3.46-7.01-4.01v-.08c2.65-.55,4.7-1.84,6.15-3.86,1.45-2.03,2.17-4.29,2.17-6.79,0-4.2-1.35-7.52-4.05-9.97s-6.97-3.68-12.82-3.68h-17.63v49.5h17.55c5.85,0,10.35-1.26,13.5-3.79,3.15-2.52,4.73-5.88,4.73-10.08,0-2.7-.87-5.11-2.59-7.24Zm-27.19-22.76h11.7c7,0,10.5,2.67,10.5,8.02s-3.5,8.1-10.5,8.1h-11.7v-16.12Zm20.89,36.07c-1.73,1.45-4.36,2.18-7.91,2.18h-12.98v-16.5h12.98c3.55,0,6.18,.71,7.91,2.13,1.72,1.43,2.59,3.47,2.59,6.12s-.87,4.62-2.59,6.07Z"/>
    <path class="cls-1" d="M201.51,199.19c2.51-.6,4.68-1.62,6.5-3.09,3.07-2.47,4.61-5.93,4.61-10.38s-1.52-7.98-4.57-10.58c-3.05-2.6-7.1-3.9-12.15-3.9h-18.75v49.5h6v-20.55h11.84l13.51,20.55h7.12l-14.11-21.55Zm-18.36-4.62v-17.7h12.67c3.55,0,6.19,.73,7.91,2.21,1.73,1.47,2.59,3.69,2.59,6.64s-.86,5.16-2.59,6.63c-1.72,1.48-4.36,2.22-7.91,2.22h-12.67Z"/>
  </g>
  <g>
    <path class="cls-1" d="M274.29,54.54c0-20.43-16.66-37.06-37.16-37.07h-30.13v19.43c0,3.81-3.11,6.92-6.92,6.92-.11,0-.21,0-.31,0-3.71-.16-6.62-3.31-6.62-7.17V17.47H90.36v19.43c0,3.81-3.1,6.92-6.92,6.92s-6.92-3.11-6.92-6.92V17.47h-30.2c-20.48,0-37.15,16.62-37.16,37.07v63.53l.02,.43v120.32c0,11.29,5.56,22.07,15.27,29.56,8.57,6.61,19.73,10.26,31.42,10.26H227.61c11.69,0,22.85-3.65,31.43-10.26,9.7-7.49,15.27-18.26,15.27-29.56l-.02-184.28Zm-4.98,184.28c0,9.73-4.86,19.06-13.33,25.6-7.7,5.94-17.78,9.22-28.37,9.22H55.87c-10.59,0-20.66-3.28-28.37-9.22-8.47-6.54-13.32-15.87-13.32-25.6V120.5h255.13v118.32Z"/>
    <path class="cls-1" d="M83.44,40.82c2.17,0,3.92-1.76,3.92-3.92V8.75c0-2.17-1.75-3.93-3.92-3.93s-3.92,1.76-3.92,3.93v28.15c0,2.16,1.75,3.92,3.92,3.92Z"/>
    <path class="cls-1" d="M199.9,40.82h.18c2.16,0,3.92-1.76,3.92-3.92V8.75c0-2.17-1.76-3.93-3.92-3.93-.23,0-.47,.02-.71,.07-1.91,.33-3.22,2.14-3.22,4.08v27.67c0,2.14,1.61,4.08,3.75,4.18Z"/>
  </g>
</svg>