<?xml version="1.0" encoding="UTF-8"?>
<svg id="_02" data-name="02" xmlns="http://www.w3.org/2000/svg" viewBox="0 0 283.46 283.46">
  <defs>
    <style>
      .cls-1 {
        fill: #d02027;
      }
    </style>
  </defs>
  <g>
    <path class="cls-1" d="M72.37,219.39c2.4,1.4,5.45,2.1,9.15,2.1,5.25,0,9.36-1.56,12.34-4.69,2.97-3.12,4.46-7.46,4.46-13.01v-32.55h-6v31.05c0,4.4-.78,7.76-2.33,10.09s-4.45,3.49-8.7,3.49c-3.75,0-6.29-1.04-7.61-3.11-1.33-2.07-1.71-5.24-1.16-9.49l-5.55,1.12c-.65,3.45-.51,6.46,.41,9.04,.92,2.58,2.59,4.56,4.99,5.96Z"/>
    <path class="cls-1" d="M135.44,221.49c6.25,0,11.05-1.61,14.4-4.84,3.35-3.22,5.02-8.01,5.02-14.36v-31.05h-6v29.55c0,5.15-1.09,8.95-3.26,11.4-2.18,2.45-5.56,3.67-10.16,3.67s-7.99-1.22-10.16-3.67c-2.17-2.45-3.26-6.25-3.26-11.4v-29.55h-6v31.05c0,6.35,1.69,11.14,5.06,14.36,3.38,3.23,8.16,4.84,14.36,4.84Z"/>
    <polygon class="cls-1" points="178.79 185.79 178.49 178.29 178.57 178.29 183.82 187.59 204.52 220.74 211.94 220.74 211.94 171.24 206.24 171.24 206.24 206.19 206.54 213.77 206.47 213.77 201.14 204.24 180.52 171.24 173.09 171.24 173.09 220.74 178.79 220.74 178.79 185.79"/>
  </g>
  <g>
    <path class="cls-1" d="M274.29,54.54c0-20.43-16.66-37.06-37.16-37.07h-30.13v19.43c0,3.81-3.11,6.92-6.92,6.92-.11,0-.21,0-.31,0-3.71-.16-6.62-3.31-6.62-7.17V17.47H90.36v19.43c0,3.81-3.1,6.92-6.92,6.92s-6.92-3.11-6.92-6.92V17.47h-30.2c-20.48,0-37.15,16.62-37.16,37.07v63.53l.02,.43v120.32c0,11.29,5.56,22.07,15.27,29.56,8.57,6.61,19.73,10.26,31.42,10.26H227.61c11.69,0,22.85-3.65,31.43-10.26,9.7-7.49,15.27-18.26,15.27-29.56l-.02-184.28Zm-4.98,184.28c0,9.73-4.86,19.06-13.33,25.6-7.7,5.94-17.78,9.22-28.37,9.22H55.87c-10.59,0-20.66-3.28-28.37-9.22-8.47-6.54-13.32-15.87-13.32-25.6V120.5h255.13v118.32Z"/>
    <path class="cls-1" d="M83.44,40.82c2.17,0,3.92-1.76,3.92-3.92V8.75c0-2.17-1.75-3.93-3.92-3.93s-3.92,1.76-3.92,3.93v28.15c0,2.16,1.75,3.92,3.92,3.92Z"/>
    <path class="cls-1" d="M199.9,40.82h.18c2.16,0,3.92-1.76,3.92-3.92V8.75c0-2.17-1.76-3.93-3.92-3.93-.23,0-.47,.02-.71,.07-1.91,.33-3.22,2.14-3.22,4.08v27.67c0,2.14,1.61,4.08,3.75,4.18Z"/>
  </g>
</svg>