<?xml version="1.0" encoding="UTF-8"?>
<svg id="_02" data-name="02" xmlns="http://www.w3.org/2000/svg" viewBox="0 0 283.46 283.46">
  <defs>
    <style>
      .cls-1 {
        fill: #d02027;
      }
    </style>
  </defs>
  <g>
    <path class="cls-1" d="M100.68,214.93c-1.88,.63-4.09,.94-6.64,.94-2.75,0-5.19-.4-7.31-1.2-2.13-.8-3.94-1.92-5.44-3.38-1.5-1.45-2.73-3.12-3.68-5.02l-5.25,4.27c1.25,2.05,2.85,3.9,4.8,5.55,1.95,1.65,4.29,2.96,7.01,3.94,2.72,.98,5.89,1.46,9.49,1.46,3.85,0,7.2-.6,10.05-1.8,2.85-1.2,5.06-2.89,6.64-5.06,1.57-2.17,2.36-4.66,2.36-7.46,0-3.15-.94-5.79-2.81-7.91-1.88-2.12-5.19-3.71-9.94-4.76l-10.73-2.4c-3.3-.75-5.5-1.79-6.6-3.11-1.1-1.32-1.65-2.86-1.65-4.61,0-1.55,.4-2.94,1.2-4.16,.8-1.22,2.06-2.21,3.79-2.96,1.72-.75,3.91-1.12,6.56-1.12,3.3,0,6.11,.66,8.44,1.99,2.32,1.33,4.41,3.59,6.26,6.79l5.03-3.9c-2.1-3.45-4.72-6.06-7.88-7.84-3.15-1.77-6.9-2.66-11.25-2.66-3.8,0-7.09,.67-9.86,2.03-2.78,1.35-4.9,3.14-6.38,5.36-1.48,2.23-2.21,4.66-2.21,7.31,0,1.95,.41,3.76,1.24,5.44,.83,1.68,2.18,3.12,4.05,4.35,1.88,1.23,4.34,2.19,7.39,2.89l11.62,2.62c2.9,.65,4.88,1.61,5.93,2.89,1.05,1.27,1.57,2.71,1.57,4.31,0,1.75-.5,3.24-1.5,4.46-1,1.23-2.44,2.15-4.31,2.78Z"/>
    <polygon class="cls-1" points="164.17 215.12 134.32 215.12 134.32 198.47 156.67 198.47 156.67 192.84 134.32 192.84 134.32 176.87 163.04 176.87 163.04 171.24 128.32 171.24 128.32 220.74 164.17 220.74 164.17 215.12"/>
    <polygon class="cls-1" points="190.72 220.74 196.72 220.74 196.72 176.87 213.97 176.87 213.97 171.24 173.47 171.24 173.47 176.87 190.72 176.87 190.72 220.74"/>
  </g>
  <g>
    <path class="cls-1" d="M274.29,54.54c0-20.43-16.66-37.06-37.16-37.07h-30.13v19.43c0,3.81-3.11,6.92-6.92,6.92-.11,0-.21,0-.31,0-3.71-.16-6.62-3.31-6.62-7.17V17.47H90.36v19.43c0,3.81-3.1,6.92-6.92,6.92s-6.92-3.11-6.92-6.92V17.47h-30.2c-20.48,0-37.15,16.62-37.16,37.07v63.53l.02,.43v120.32c0,11.29,5.56,22.07,15.27,29.56,8.57,6.61,19.73,10.26,31.42,10.26H227.61c11.69,0,22.85-3.65,31.43-10.26,9.7-7.49,15.27-18.26,15.27-29.56l-.02-184.28Zm-4.98,184.28c0,9.73-4.86,19.06-13.33,25.6-7.7,5.94-17.78,9.22-28.37,9.22H55.87c-10.59,0-20.66-3.28-28.37-9.22-8.47-6.54-13.32-15.87-13.32-25.6V120.5h255.13v118.32Z"/>
    <path class="cls-1" d="M83.44,40.82c2.17,0,3.92-1.76,3.92-3.92V8.75c0-2.17-1.75-3.93-3.92-3.93s-3.92,1.76-3.92,3.93v28.15c0,2.16,1.75,3.92,3.92,3.92Z"/>
    <path class="cls-1" d="M199.9,40.82h.18c2.16,0,3.92-1.76,3.92-3.92V8.75c0-2.17-1.76-3.93-3.92-3.93-.23,0-.47,.02-.71,.07-1.91,.33-3.22,2.14-3.22,4.08v27.67c0,2.14,1.61,4.08,3.75,4.18Z"/>
  </g>
</svg>