<?xml version="1.0" encoding="utf-8"?>
<!-- Generator: Adobe Illustrator 27.0.0, SVG Export Plug-In . SVG Version: 6.00 Build 0)  -->
<svg version="1.1" id="Layer_1" xmlns="http://www.w3.org/2000/svg" xmlns:xlink="http://www.w3.org/1999/xlink" x="0px" y="0px"
	 viewBox="0 0 595.3 595.3" style="enable-background:new 0 0 595.3 595.3;" xml:space="preserve">
<style type="text/css">
	.st0{fill:#67348D;}
	.st1{fill:#EAA925;}
</style>
<g>
	<g>
		<path class="st0" d="M465.7,180.8c-9.1-39.9-29.3-72.9-61.6-98.5c-30.1-23.8-64.6-35.8-102.6-37c-13.2-0.4-26.6,1.4-39.6,4.2
			c-40.7,8.5-73.6,30.2-99.1,62.8c-25.7,32.9-36.7,71-36.7,112.4c-0.1,99.9,0,199.8,0,299.6c0,3.7,0.4,7.4,1.1,11
			c2.7,13.4,19.6,19,30.2,10.4c6.2-5,7.3-11.5,7.2-18.8c-0.1-46-0.2-92-0.2-138.1c0-51.9-0.2-103.8,0.2-155.6
			c0.1-15.8,0.3-31.9,3.4-47.2c6.6-32.1,23.9-58.3,50-78.4c15.3-11.7,32.5-19.5,51.5-21.9c13.6-1.7,27.5-1.6,41.2-1.1
			c9.4,0.3,18.9,1.6,27.9,4c27.9,7.3,49.6,24,66.3,47.1c17.3,23.9,26,50.5,25.9,80.3c-0.2,103.6-0.1,207.2-0.1,310.8
			c0,1.4-0.1,2.8,0,4.3c0.6,11.3,9,18.9,20.4,18.7c9.9-0.2,17.8-8.8,17.8-19.5c0-53.8,0-107.7,0-161.5s0.2-104.5-0.2-156.7
			C469,201.6,468,191,465.7,180.8L465.7,180.8z"/>
		<path class="st0" d="M381,383.5c0-1.8,0-3.7,0-5.6H214.2c0,29.4-0.1,58.3,0.1,87.1c0,4.9,0.2,9.9,1.1,14.7
			c3.5,18.1,11.1,34,24.9,46.8c23.5,21.9,50.9,28.5,81.5,19.9c35.2-9.9,60.4-43.4,59.4-80.6C380.5,438.4,381,410.9,381,383.5
			L381,383.5z"/>
		<path class="st1" d="M381.2,212.8c-9.3-52.9-65.7-84.1-115.1-63.1c-33.1,14.1-50.8,39.8-52.2,76c-0.5,12-0.1,24.1-0.1,36.1
			c0,18.2,0,36.4,0,55.3c1.9,0.1,3.1,0.3,4.3,0.3c53.1,0,106.2,0,159.2,0.2c4.5,0,5.2-1.7,5.2-5.6c-0.1-28.1,0-56.3-0.1-84.4
			C382.3,222.6,382,217.6,381.2,212.8L381.2,212.8z M264.6,175c21.8-9.8,42.4-9.4,62.2,2.1c21.7,12.5,32.3,31.9,33.7,58
			C328.2,214.8,296.9,195.2,264.6,175L264.6,175z"/>
	</g>
</g>
</svg>
